<?xml version="1.0" encoding="UTF-8"?>
<svg enable-background="new 0 0 841.89 595.28" version="1.1" viewBox="0 0 841.89 595.28" xmlns="http://www.w3.org/2000/svg">
 <rect width="841.89" height="595.28" fill="#FFEA39" stroke="#231F20" stroke-miterlimit="10"/>
 <g fill="#42406A">
  <path d="m176.03 129.43c3.996 0 7.412-1.566 10.25-4.698 2.81-3.148 4.217-6.937 4.217-11.366 0-4.455-1.407-8.248-4.217-11.38-2.094-2.327-4.503-3.792-7.228-4.397-0.959-0.217-1.967-0.325-3.022-0.325-1.039 0-2.038 0.108-2.998 0.325-2.734 0.605-5.144 2.071-7.228 4.397-2.836 3.132-4.255 6.925-4.255 11.38 0 4.429 1.419 8.217 4.255 11.366 2.829 3.131 6.238 4.698 10.226 4.698z"/>
  <path d="m195.05 150.7c6.455-5.666 11.46-13.259 14.881-22.568 3.242-8.819 5.142-19.443 5.651-31.578 0.186-4.438-3.262-8.188-7.7-8.373-4.448-0.186-8.189 3.262-8.375 7.7-0.695 16.568-4.195 29.183-10.423 37.63-8.946-2.249-17.667-2.261-26.167-0.037-6.211-8.448-9.701-21.05-10.394-37.593-0.187-4.438-3.935-7.885-8.375-7.7s-7.887 3.935-7.702 8.373c0.509 12.134 2.411 22.759 5.651 31.578 3.421 9.309 8.429 16.902 14.881 22.568 0.884 0.775 1.889 1.321 2.946 1.645v31.363c-9.323 20.928-15.72 40.132-19.018 57.103-0.846 4.36 2.002 8.583 6.363 9.431 0.519 0.101 1.034 0.148 1.542 0.148 3.774 0 7.142-2.669 7.889-6.511 3.144-16.189 9.406-34.752 18.614-55.176 0.381-0.842 0.6-1.714 0.679-2.585 0.078 0.871 0.299 1.744 0.678 2.585 9.207 20.424 15.469 38.987 18.614 55.176 0.747 3.842 4.114 6.511 7.889 6.511 0.509 0 1.024-0.047 1.542-0.148 4.362-0.848 7.209-5.071 6.363-9.431-3.293-16.948-9.676-36.121-18.978-57.016v-31.45c1.06-0.323 2.066-0.869 2.949-1.645z"/>
  <path d="m74.248 130.21c3.997 0 7.414-1.566 10.251-4.698 2.811-3.147 4.217-6.937 4.217-11.366 0-4.455-1.406-8.248-4.217-11.38-2.093-2.325-4.502-3.792-7.228-4.397-0.959-0.217-1.968-0.325-3.023-0.325-1.037 0-2.037 0.108-2.998 0.325-2.732 0.605-5.142 2.072-7.226 4.397-2.838 3.132-4.255 6.925-4.255 11.38 0 4.429 1.417 8.219 4.255 11.366 2.829 3.132 6.236 4.698 10.224 4.698z"/>
  <path d="m110.3 191.2c-0.577-18.236-5.838-35.938-15.639-52.609-1.289-2.192-3.455-3.548-5.792-3.885-10.55-2.949-20.793-2.811-30.728 0.424v0.017c-1.767 0.601-3.334 1.815-4.35 3.553-9.724 16.642-14.946 34.304-15.523 52.499-0.141 4.441 3.346 8.154 7.787 8.295 0.086 3e-3 0.173 4e-3 0.258 4e-3 4.325 0 7.898-3.437 8.036-7.79 0.249-7.828 1.519-15.559 3.792-23.139v17.602h3e-3c-1.024 18.993-1.45 37.909-1.26 56.227 0.045 4.415 3.638 7.961 8.042 7.961h0.085c4.443-0.046 8.006-3.684 7.959-8.126-0.187-18.108 0.237-36.816 1.26-55.604 1.022 18.787 1.447 37.495 1.259 55.604-0.046 4.442 3.518 8.081 7.96 8.126h0.085c4.404 0 7.997-3.546 8.042-7.961 0.19-18.318-0.235-37.233-1.26-56.227h1e-3v-17.9c2.34 7.674 3.646 15.505 3.896 23.437 0.139 4.353 3.71 7.79 8.037 7.79 0.085 0 0.172-1e-3 0.259-4e-3 4.445-0.139 7.93-3.854 7.791-8.294z"/>
  <path d="m312.88 140.69c3.997 0 7.414-1.564 10.251-4.696 2.81-3.149 4.217-6.937 4.217-11.366 0-4.455-1.407-8.248-4.217-11.379-2.094-2.328-4.503-3.793-7.228-4.399-0.959-0.215-1.969-0.323-3.023-0.323-1.037 0-2.037 0.108-2.998 0.323-2.732 0.606-5.142 2.072-7.227 4.399-2.838 3.131-4.255 6.924-4.255 11.379 0 4.429 1.417 8.217 4.255 11.366 2.83 3.132 6.237 4.696 10.225 4.696z"/>
  <path d="m384.6 149.74c-0.764-4.378-4.931-7.309-9.308-6.542-17.578 3.065-33.238 3.847-46.579 2.335-10.96-3.301-21.59-3.282-31.888 0.062-13.218 1.427-28.685 0.627-46.015-2.396-4.377-0.765-8.545 2.165-9.308 6.542-0.765 4.376 2.165 8.543 6.542 9.306 12.695 2.216 24.556 3.325 35.453 3.325 4.607 0 9.037-0.201 13.289-0.599v29.317c-13.748 8.392-21.453 17.053-23.471 26.337-1.917 8.82-2.914 17.242-2.96 25.031-0.026 4.443 3.555 8.065 7.998 8.091 0.017 2e-3 0.032 2e-3 0.049 2e-3 4.419 0 8.017-3.572 8.043-7.998 0.039-6.674 0.912-13.978 2.594-21.708 0.715-3.291 4.624-10.238 22.765-19.771 0.365-0.192 0.709-0.409 1.033-0.647 0.321 0.238 0.667 0.455 1.032 0.647 18.142 9.533 22.05 16.48 22.766 19.772 1.682 7.729 2.553 15.033 2.593 21.707 0.026 4.426 3.624 7.998 8.044 7.998 0.017 0 0.032 0 0.049-2e-3 4.443-0.026 8.023-3.648 7.996-8.091-0.047-7.79-1.042-16.211-2.959-25.03-2.015-9.269-9.696-17.914-23.394-26.29v-29.399c4.358 0.419 8.905 0.633 13.638 0.633 10.897 0 22.76-1.109 35.455-3.325 4.377-0.764 7.306-4.931 6.543-9.307z"/>
  <path d="m449.7 133.95c3.997 0 7.414-1.566 10.25-4.698 2.812-3.148 4.217-6.937 4.217-11.366 0-4.455-1.404-8.248-4.217-11.379-2.093-2.327-4.502-3.793-7.227-4.397-0.96-0.217-1.968-0.325-3.023-0.325-1.038 0-2.036 0.108-2.997 0.325-2.732 0.604-5.142 2.07-7.226 4.397-2.839 3.132-4.258 6.924-4.258 11.379 0 4.429 1.419 8.217 4.258 11.366 2.827 3.132 6.236 4.698 10.223 4.698z"/>
  <path d="m492.51 186.95c-10.164-15.208-17.324-29.548-21.278-42.622-0.818-2.706-2.932-4.66-5.456-5.396v-0.06c-8.757-2.678-17.303-3.234-25.637-1.673-6.028-9.465-10.622-22.463-13.7-38.808-0.823-4.365-5.029-7.239-9.394-6.415-4.367 0.821-7.239 5.027-6.417 9.394 2.312 12.271 5.484 23.081 9.43 32.127 3.739 8.574 8.291 15.825 13.54 21.596v29.964c-12.264 11.928-19.062 22.747-20.722 32.956-1.622 9.976-2.428 17.972-2.465 24.444-0.024 4.443 3.556 8.065 7.999 8.09 0.016 2e-3 0.031 2e-3 0.046 2e-3 4.421 0 8.019-3.574 8.044-7.999 0.032-5.552 0.792-12.938 2.257-21.955 1.533-9.428 11.877-20.404 20.283-27.951 0.23-0.207 0.445-0.425 0.647-0.651 0.201 0.226 0.415 0.444 0.646 0.651 8.406 7.547 18.751 18.522 20.283 27.951 1.465 9.017 2.225 16.403 2.257 21.955 0.025 4.427 3.623 7.999 8.044 7.999 0.016 0 0.031 0 0.048-2e-3 4.443-0.024 8.024-3.647 7.997-8.09-0.037-6.473-0.844-14.469-2.465-24.444-1.659-10.207-8.458-21.028-20.722-32.956v-11.791c3.739 7.349 8.198 14.904 13.359 22.625 1.551 2.321 4.099 3.575 6.695 3.575 1.537 0 3.09-0.44 4.463-1.357 3.694-2.47 4.689-7.465 2.218-11.159z"/>
  <path d="m633.08 140.2c-0.303-0.959-0.713-1.899-1.232-2.815-0.519-0.909-1.106-1.723-1.764-2.44-0.779-0.855-1.653-1.595-2.622-2.219-1.383-0.882-2.971-1.519-4.761-1.907-4.136-0.908-8.137-0.265-12.002 1.933-3.85 2.188-6.441 5.289-7.772 9.303-1.333 4.014-1.018 7.756 0.946 11.224 1.981 3.469 5.025 5.666 9.135 6.592 4.135 0.882 8.131 0.233 11.989-1.947 0.892-0.511 1.713-1.063 2.465-1.66 2.534-2.017 4.32-4.559 5.358-7.629 0.987-2.959 1.073-5.77 0.26-8.435z"/>
  <path d="m607.31 165.97l0.056-0.065c-4.267-6.807-9.478-12.275-15.636-16.408 5.695-9.083 14.648-18.47 26.769-28.035 3.489-2.753 4.084-7.811 1.332-11.299-2.754-3.488-7.81-4.084-11.299-1.331-9.802 7.736-17.909 15.558-24.097 23.25-6.424 7.989-10.994 16.105-13.583 24.125-0.333 1.036-0.445 2.092-0.362 3.115l-31.715 36.57c-9.138 6.835-14.425 13.89-16.045 21.347-1.918 8.819-2.914 17.239-2.96 25.031-0.026 4.442 3.555 8.065 7.996 8.091h0.05c4.42 0 8.018-3.57 8.044-7.997 0.039-6.674 0.911-13.978 2.593-21.708 0.716-3.293 4.624-10.239 22.766-19.771 0.365-0.191 0.709-0.408 1.032-0.646 0.322 0.238 0.667 0.455 1.032 0.646 18.142 9.532 22.051 16.479 22.766 19.773 1.682 7.728 2.553 15.032 2.594 21.706 0.026 4.427 3.622 7.997 8.043 7.997h0.05c4.442-0.026 8.023-3.649 7.995-8.091-0.047-7.792-1.041-16.212-2.96-25.029-0.916-4.218-3.01-8.307-6.306-12.299 7.031-1.445 14.271-2.979 21.585-4.577 2.57-0.562 4.704-2.344 5.713-4.775s0.765-5.201-0.653-7.418c-4.613-7.214-9.592-14.681-14.8-22.202zm-19.06 24.022c-1.021 0.208-1.956 0.601-2.779 1.136l10.945-12.608c1.969 2.876 3.902 5.741 5.788 8.581-4.728 0.999-9.394 1.965-13.954 2.891z"/>
  <path d="m732.08 130.96c3.996 0.173 7.48-1.241 10.457-4.242 2.941-3.028 4.507-6.756 4.698-11.185 0.19-4.447-1.048-8.295-3.711-11.548-1.999-2.414-4.347-3.983-7.045-4.71-0.953-0.251-1.957-0.398-3.012-0.441-1.029-0.043-2.029 0.017-2.997 0.183-2.76 0.484-5.229 1.846-7.407 4.087-2.977 3.009-4.56 6.737-4.751 11.185-0.189 4.429 1.064 8.277 3.763 11.547 2.692 3.244 6.027 4.952 10.005 5.124z"/>
  <path d="m803.17 137.59c-1.464-4.196-6.051-6.41-10.248-4.946-14.125 4.932-29.255 6.253-44.993 3.94l1e-3 -0.016c-10.854-3.839-21.515-4.314-31.983-1.431-16.091 1.051-31.247-1.559-45.063-7.763-4.053-1.82-8.813-9e-3 -10.634 4.043-1.819 4.053-0.011 8.814 4.043 10.634 13.926 6.253 28.942 9.405 44.754 9.405 2.004 0 4.022-0.056 6.051-0.158l-1.293 30.091c-15.06 10.584-29.285 21.168-42.348 31.51-3.483 2.757-4.072 7.817-1.314 11.301 1.589 2.005 3.939 3.051 6.313 3.051 1.749 0 3.509-0.568 4.987-1.737 14.215-11.253 29.842-22.808 46.45-34.343 0.757-0.526 1.393-1.159 1.907-1.865 0.907 17.766 1.283 35.439 1.106 52.577-0.046 4.443 3.519 8.081 7.96 8.127h0.086c4.404 0 7.997-3.547 8.044-7.961 0.186-18.054-0.227-36.687-1.221-55.397l1.46-33.922c5.243 0.699 10.433 1.055 15.56 1.055 12.223 0 24.082-1.987 35.432-5.948 4.193-1.466 6.407-6.054 4.943-10.247z"/>
  <path d="m138.25 387.41c3.997 0.171 7.483-1.243 10.459-4.243 2.94-3.028 4.506-6.756 4.696-11.185 0.026-0.501 0.031-1 0.014-1.492-0.122-3.823-1.363-7.175-3.724-10.057-1.998-2.414-4.347-3.982-7.046-4.71-0.951-0.252-1.954-0.398-3.009-0.441-1.031-0.043-2.029 0.019-2.997 0.183-2.76 0.483-5.229 1.846-7.409 4.087-2.925 2.958-4.503 6.604-4.737 10.938-7e-3 0.077-0.012 0.159-0.012 0.246-0.19 4.429 1.063 8.276 3.764 11.547 2.688 3.244 6.022 4.953 10.001 5.127z"/>
  <path d="m207.46 384.58c-2.13-3.898-7.019-5.329-10.918-3.199-13.066 7.146-27.702 10.927-43.527 11.251-0.201 3e-3 -0.479-0.138-0.676-0.193-0.224-0.065-0.449-0.128-0.674-0.193-0.45-0.126-0.9-0.254-1.352-0.378-0.897-0.247-1.796-0.485-2.701-0.707-1.779-0.435-3.576-0.801-5.391-1.054-1.78-0.246-3.571-0.38-5.368-0.4-1.78-0.022-3.557 0.068-5.33 0.228-2.18 0.194-4.39 0.385-6.545 0.759-0.585 0.103-1.167 0.235-1.727 0.427-0.414 0.139-0.815 0.305-1.213 0.48-0.023 7e-3 -0.046 0.013-0.07 0.02v0.012c-13.362 5.922-24.217 15.762-32.274 29.264-1.517 2.54-1.467 5.581-0.138 8.001-3.574 6.766-7.085 15.262-10.456 25.313-1.411 4.213 0.859 8.773 5.07 10.185 0.849 0.284 1.71 0.42 2.559 0.42 3.362 0 6.499-2.127 7.627-5.491 2.466-7.361 4.976-13.733 7.492-19.045 8.884 2.862 20.416 6.742 34.422 11.579 0.693 15.705 0.971 31.295 0.814 46.464-0.046 4.443 3.519 8.081 7.961 8.128h0.085c4.402 0 7.996-3.548 8.042-7.96 0.188-18.056-0.226-36.688-1.219-55.399l1.478-34.373c18.402-0.389 35.491-4.829 50.831-13.218 3.898-2.136 5.331-7.025 3.198-10.921zm-87.119 44.852c-5.227-1.754-9.91-3.295-14.027-4.62 4.229-6.009 9.145-10.819 14.85-14.521l-0.823 19.141z"/>
  <path d="m273.75 386.3c3.995 0 7.414-1.566 10.25-4.698 2.812-3.149 4.217-6.937 4.217-11.365 0-4.455-1.405-8.248-4.217-11.38-2.094-2.326-4.503-3.793-7.227-4.398-0.961-0.217-1.968-0.324-3.023-0.324-1.039 0-2.038 0.107-2.997 0.324-2.733 0.605-5.142 2.072-7.229 4.398-2.836 3.132-4.255 6.925-4.255 11.38 0 4.429 1.418 8.216 4.255 11.365 2.83 3.131 6.239 4.698 10.226 4.698z"/>
  <path d="m305.63 344.88c-4.443-0.188-8.189 3.262-8.375 7.7-0.698 16.665-4.237 29.327-10.535 37.777-8.87-2.216-17.52-2.23-25.952-0.049-6.275-8.447-9.801-21.096-10.498-37.729-0.186-4.438-3.938-7.883-8.375-7.7-4.439 0.186-7.887 3.935-7.701 8.374 0.509 12.136 2.411 22.759 5.65 31.577 3.422 9.309 8.429 16.902 14.882 22.567 0.876 0.769 1.874 1.313 2.92 1.637v33.228h1e-3c-0.646 12.017-1.057 24.06-1.221 35.803-0.096 6.826-0.108 13.697-0.039 20.425 0.045 4.414 3.638 7.962 8.042 7.962h0.085c4.443-0.047 8.006-3.685 7.961-8.128-0.068-6.599-0.056-13.338 0.039-20.035 0.161-11.664 0.573-23.63 1.221-35.566 0.647 11.942 1.057 23.909 1.22 35.569 0.094 6.69 0.107 13.43 0.039 20.032-0.047 4.443 3.518 8.081 7.961 8.128h0.085c4.404 0 7.997-3.548 8.042-7.962 0.07-6.731 0.057-13.604-0.039-20.423-0.165-11.739-0.576-23.782-1.223-35.805h3e-3v-33.211c1.066-0.323 2.082-0.87 2.973-1.653 6.452-5.665 11.458-13.259 14.88-22.567 3.241-8.818 5.144-19.443 5.651-31.577 0.188-4.44-3.259-8.189-7.697-8.374z"/>
  <path d="m421.29 473.36c-2.013-9.267-9.69-17.909-23.38-26.282v-27.629c1.066-0.323 2.081-0.871 2.973-1.654 6.453-5.666 11.46-13.257 14.881-22.566 3.241-8.818 5.142-19.442 5.651-31.577 0.186-4.439-3.262-8.189-7.701-8.375-4.443-0.188-8.189 3.262-8.375 7.701-0.698 16.664-4.237 29.328-10.533 37.777-8.872-2.216-17.521-2.231-25.954-0.048-6.273-8.45-9.799-21.097-10.498-37.729-0.186-4.439-3.936-7.884-8.375-7.701-4.438 0.186-7.885 3.936-7.7 8.375 0.509 12.135 2.409 22.759 5.651 31.577 3.421 9.31 8.427 16.9 14.879 22.566 0.877 0.771 1.874 1.313 2.922 1.639v27.581c-13.755 8.393-21.466 17.056-23.483 26.344-1.917 8.819-2.914 17.24-2.96 25.032-0.026 4.442 3.553 8.065 7.997 8.092h0.048c4.421 0 8.017-3.571 8.043-7.998 0.04-6.674 0.913-13.978 2.593-21.707 0.715-3.293 4.624-10.237 22.766-19.771 0.366-0.193 0.71-0.408 1.032-0.646 0.324 0.238 0.667 0.453 1.034 0.646 18.142 9.534 22.049 16.479 22.765 19.773 1.681 7.728 2.554 15.031 2.594 21.705 0.026 4.427 3.623 7.998 8.043 7.998h0.048c4.444-0.026 8.023-3.649 7.997-8.092-0.045-7.792-1.04-16.213-2.958-25.031z"/>
  <path d="m381.83 396.7c3.997 0 7.414-1.566 10.252-4.696 2.81-3.15 4.217-6.938 4.217-11.367 0-4.454-1.407-8.248-4.217-11.379-2.094-2.327-4.503-3.793-7.229-4.399-0.959-0.215-1.968-0.323-3.023-0.323-1.037 0-2.036 0.108-2.997 0.323-2.733 0.606-5.142 2.072-7.227 4.399-2.838 3.131-4.255 6.925-4.255 11.379 0 4.43 1.417 8.217 4.255 11.367 2.829 3.13 6.237 4.696 10.224 4.696z"/>
  <path d="m521.73 426.6c-2.995-10.72-7.449-21.074-13.236-30.779-1.223-2.052-3.218-3.36-5.391-3.779v-0.084c-10.271-3.252-20.282-3.572-30.032-0.962-0.559 0.097-1.108 0.253-1.638 0.467-0.169 0.051-0.336 0.101-0.504 0.153v0.07c-0.953 0.462-1.831 1.121-2.569 1.975-7.618 8.815-14.312 18.427-19.897 28.566-1.523 2.765-1.288 6.166 0.601 8.695 7.995 10.705 14.863 19.624 20.474 26.587-2e-3 0.138-7e-3 0.277-0.01 0.415 0 0.014-1e-3 0.027-1e-3 0.042l-0.064 3.957v0.02c-0.012 0.35-0.075 1.888-0.348 7.926-0.201 4.438 3.234 8.2 7.672 8.398 0.124 8e-3 0.247 0.011 0.37 0.011 4.275 0 7.834-3.368 8.029-7.683 0.239-5.285 0.336-7.398 0.352-8.414h0.012l0.025-1.476c0.261-0.149 0.522-0.3 0.786-0.454-0.132 12.972-0.541 25.823-1.236 38.371-0.246 4.437 3.15 8.232 7.587 8.479 0.151 8e-3 0.301 0.012 0.451 0.012 4.239 0 7.788-3.313 8.025-7.599 0.911-16.409 1.348-33.312 1.308-50.338 5.42-4.211 11.085-9.057 16.962-14.517 2.206-2.051 3.082-5.16 2.272-8.059zm-51.084-9.658l-0.177 15.634c-1.714-2.242-3.495-4.596-5.35-7.059 1.741-2.914 3.586-5.776 5.527-8.575zm32.05 11.18l0.085-7.517c0.729 1.863 1.406 3.746 2.03 5.642-0.709 0.638-1.415 1.261-2.115 1.875z"/>
  <path d="m487.05 386.79c3.997 0.047 7.435-1.479 10.316-4.579 2.846-3.119 4.295-6.894 4.35-11.322 0.047-4.456-1.318-8.261-4.098-11.417-2.072-2.351-4.468-3.842-7.189-4.475-0.96-0.225-1.97-0.344-3.025-0.354-1.038-0.021-2.036 0.074-2.995 0.282-2.73 0.578-5.153 2.019-7.27 4.325-2.872 3.09-4.33 6.86-4.377 11.306-0.054 4.431 1.324 8.242 4.137 11.432 2.787 3.163 6.17 4.764 10.151 4.802z"/>
  <path d="m604.47 387.42c3.996 0.174 7.482-1.241 10.458-4.243 2.942-3.027 4.507-6.756 4.696-11.185 0.026-0.501 0.031-0.998 0.015-1.492-0.123-3.823-1.363-7.175-3.726-10.055-1.997-2.413-4.346-3.984-7.045-4.711-0.951-0.25-1.954-0.397-3.01-0.439-1.029-0.044-2.028 0.016-2.997 0.181-2.759 0.484-5.229 1.848-7.409 4.087-2.924 2.958-4.503 6.604-4.736 10.938-9e-3 0.077-0.013 0.159-0.013 0.247-0.19 4.429 1.065 8.278 3.764 11.548 2.689 3.243 6.023 4.951 10.003 5.124z"/>
  <path d="m648.11 415.39c-7.542-8.186-16.217-15.384-25.783-21.395-0.678-0.426-1.395-0.734-2.127-0.939l1e-3 -0.033c-10.217-3.613-20.262-4.248-30.137-1.903-0.335 0.057-0.671 0.136-1.005 0.238-0.062 0.02-0.125 0.04-0.187 0.06-0.271 0.069-0.541 0.143-0.812 0.217l-1e-3 0.038c-10.815 3.416-21.293 7.871-31.156 13.26-0.032 0.018-0.063 0.033-0.093 0.049-0.324 0.16-0.63 0.342-0.921 0.539-3.199 1.886-4.762 5.81-3.537 9.474 2.884 8.643 5.299 16.001 7.197 21.951-3.531 5.575-7.15 12.231-10.8 19.895-1.91 4.011-0.209 8.811 3.802 10.723 1.118 0.531 2.295 0.783 3.455 0.783 3.006 0 5.891-1.692 7.269-4.586 3.445-7.232 6.806-13.416 10.03-18.472 6.441 2.268 15.782 5.413 28.279 9.522 0.303 0.1 0.608 0.174 0.912 0.235 0.595 14.633 0.827 29.146 0.68 43.291-0.045 4.442 3.52 8.082 7.962 8.128h0.085c4.403 0 7.997-3.546 8.042-7.961 0.187-18.05-0.226-36.683-1.22-55.397l1.364-31.695c4.807 3.441 9.313 7.239 13.47 11.359-2.753 7.153-5.579 13.602-8.425 19.219-2.008 3.963-0.422 8.804 3.541 10.812 1.166 0.591 2.406 0.87 3.629 0.87 2.935 0 5.766-1.612 7.184-4.41 3.74-7.387 7.422-16.02 10.94-25.66 1.037-2.831 0.402-5.998-1.638-8.212zm-60.79-6.499l-1.025 23.859c-5.486-1.865-9.703-3.348-12.615-4.428-1.157-3.583-2.465-7.575-3.916-11.959 5.674-2.83 11.547-5.329 17.556-7.472z"/>
  <path d="m720.63 388.94c-3.998 0-7.414-1.564-10.252-4.696-2.811-3.149-4.217-6.937-4.217-11.366 0-4.454 1.406-8.247 4.217-11.38 2.093-2.327 4.503-3.793 7.228-4.399 0.959-0.215 1.969-0.323 3.024-0.323 1.036 0 2.036 0.108 2.995 0.323 2.734 0.606 5.144 2.072 7.228 4.399 2.837 3.133 4.256 6.926 4.256 11.38 0 4.43-1.419 8.217-4.256 11.366-2.829 3.132-6.238 4.696-10.223 4.696z"/>
  <path d="m677.82 441.94c10.165-15.208 17.324-29.548 21.278-42.624 0.817-2.702 2.931-4.656 5.455-5.394v-0.062c8.758-2.677 17.305-3.231 25.639-1.671 6.027-9.467 10.62-22.464 13.698-38.808 0.822-4.364 5.029-7.238 9.396-6.417 4.365 0.823 7.239 5.029 6.415 9.395-2.312 12.272-5.484 23.083-9.43 32.129-3.738 8.574-8.29 15.825-13.54 21.596v29.964c12.264 11.928 19.062 22.747 20.722 32.956 1.622 9.976 2.428 17.972 2.466 24.444 0.026 4.442-3.555 8.064-7.998 8.09-0.017 1e-3 -0.032 1e-3 -0.047 1e-3 -4.422 0-8.02-3.573-8.045-7.998-0.032-5.553-0.792-12.938-2.257-21.956-1.532-9.428-11.874-20.403-20.281-27.95-0.231-0.207-0.446-0.425-0.647-0.651-0.201 0.227-0.417 0.444-0.646 0.651-8.407 7.547-18.75 18.522-20.283 27.95-1.466 9.017-2.226 16.403-2.258 21.956-0.025 4.427-3.622 7.998-8.042 7.998-0.017 0-0.032 0-0.049-1e-3 -4.442-0.025-8.022-3.647-7.998-8.09 0.038-6.473 0.845-14.469 2.466-24.444 1.659-10.207 8.457-21.028 20.721-32.956v-11.791c-3.739 7.349-8.198 14.904-13.358 22.625-1.552 2.321-4.1 3.575-6.695 3.575-1.536 0-3.09-0.44-4.464-1.358-3.695-2.47-4.687-7.464-2.218-11.159z"/>
 </g>
</svg>
