<?xml version="1.0" encoding="UTF-8" standalone="no"?>
<svg
   xmlns:dc="http://purl.org/dc/elements/1.1/"
   xmlns:cc="http://creativecommons.org/ns#"
   xmlns:rdf="http://www.w3.org/1999/02/22-rdf-syntax-ns#"
   xmlns:svg="http://www.w3.org/2000/svg"
   xmlns="http://www.w3.org/2000/svg"
   xmlns:sodipodi="http://sodipodi.sourceforge.net/DTD/sodipodi-0.dtd"
   xmlns:inkscape="http://www.inkscape.org/namespaces/inkscape"
   version="1.1"
   id="Frame_0"
   width="1280px"
   height="720px"
   sodipodi:docname="Weapon.svg"
   inkscape:version="1.0.1 (3bc2e813f5, 2020-09-07)">
  <metadata
     id="metadata56">
    <rdf:RDF>
      <cc:Work
         rdf:about="">
        <dc:format>image/svg+xml</dc:format>
        <dc:type
           rdf:resource="http://purl.org/dc/dcmitype/StillImage" />
        <dc:title></dc:title>
      </cc:Work>
    </rdf:RDF>
  </metadata>
  <defs
     id="defs54" />
  <sodipodi:namedview
     pagecolor="#ffffff"
     bordercolor="#666666"
     borderopacity="1"
     objecttolerance="10"
     gridtolerance="10"
     guidetolerance="10"
     inkscape:pageopacity="0"
     inkscape:pageshadow="2"
     inkscape:window-width="1920"
     inkscape:window-height="1051"
     id="namedview52"
     showgrid="false"
     inkscape:zoom="0.7316591"
     inkscape:cx="657.23744"
     inkscape:cy="352.83326"
     inkscape:window-x="1699"
     inkscape:window-y="-9"
     inkscape:window-maximized="1"
     inkscape:current-layer="Frame_0" />
  <path
     style="fill:#f1f3f2;stroke:#fbffff;stroke-width:5.71647"
     d="m 53.713779,477.37873 c -1.670844,-0.50832 -3.308486,-1.62936 -3.639202,-2.49119 -0.704938,-1.83703 -3.344245,-17.27655 -4.027239,-23.55868 -0.260052,-2.39195 -2.429485,-15.87383 -4.82096,-29.95973 -2.391476,-14.08591 -4.543659,-27.13289 -4.782628,-28.99329 -2.19114,-17.05825 -5.265907,-37.81614 -5.707316,-38.53035 -0.894233,-1.4469 6.770199,-7.67803 10.738994,-8.73073 10.674456,-2.83133 95.248992,-17.48304 109.801242,-19.02199 2.55519,-0.27022 5.66349,-0.87823 6.90734,-1.35114 1.24385,-0.47291 2.43454,-0.68684 2.64598,-0.4754 0.21144,0.21144 6.88837,-0.74002 14.83762,-2.11435 9.95739,-1.72152 18.36128,-2.53669 27.01695,-2.62064 12.14266,-0.11776 12.73193,-0.0286 17.58139,2.65888 2.7597,1.52941 5.24672,3.37773 5.52672,4.10739 0.83711,2.18149 7.62578,1.5871 29.17808,-2.55471 11.10837,-2.13474 21.70428,-4.10756 23.54648,-4.38404 1.84219,-0.27648 8.58313,-1.37691 14.97986,-2.44539 6.39673,-1.06849 13.19722,-2.1186 15.11221,-2.3336 1.91498,-0.21499 3.87203,-0.46375 4.34899,-0.5528 4.42151,-0.82548 4.29813,-1.61998 4.02393,25.91343 l -0.25739,25.84644 -123.92518,55.7388 C 81.936189,471.38958 68.235596,477.31918 62.813072,477.7837 c -3.333766,0.28558 -7.428449,0.10335 -9.099293,-0.40497 z"
     id="path881" />
  <path
     style="fill:#000000;stroke:#fbffff;stroke-width:0;fill-opacity:1;stroke-miterlimit:4;stroke-dasharray:none"
     d="M 53.055233,473.79866 C 52.819851,473.4 51.937177,468.72483 51.093735,463.4094 c -0.843442,-5.31544 -3.7682,-23.58121 -6.499462,-40.59061 -2.731262,-17.00939 -6.180088,-39.40671 -7.664059,-49.77181 -3.524699,-24.61899 -4.761858,-23.1125 23.345088,-28.42733 22.185216,-4.19508 64.775628,-11.49944 82.006578,-14.06433 7.17584,-1.06815 19.78792,-3.04363 28.02684,-4.38995 15.84504,-2.58922 37.89557,-4.09413 43.78901,-2.98851 1.9374,0.36346 5.49328,2.16513 7.90197,4.00373 5.42298,4.13945 7.7289,4.22066 26.1304,0.92028 7.42912,-1.33245 23.72762,-4.15469 36.21889,-6.27166 12.49128,-2.11697 24.07508,-4.08145 25.7418,-4.36553 2.65088,-0.45181 3.10955,-0.20108 3.66252,2.00215 0.34768,1.38526 0.33254,11.97868 -0.0336,23.54093 l -0.66578,21.02229 -70.64776,31.7624 C 71.022715,472.84343 67.106634,474.52349 58.88923,474.52349 c -2.973316,0 -5.598614,-0.32617 -5.833997,-0.72483 z"
     id="path883" />
  <path
     style="fill:#000000;fill-opacity:1;stroke:#fbffff;stroke-width:5.71647"
     d=""
     id="path885" />
  <path
     style="fill:#000000;fill-opacity:1;stroke:#fbffff;stroke-width:0;stroke-miterlimit:4;stroke-dasharray:none"
     d="m 489.2349,393.4495 c -2.39195,-0.35232 -4.83052,-0.94277 -5.41906,-1.3121 -0.58853,-0.36933 -1.32879,-4.27214 -1.64502,-8.67291 -1.06643,-14.84105 -1.53548,-19.1408 -2.20639,-20.22637 -0.48983,-0.79256 -13.98209,-0.85308 -50.5445,-0.22675 -55.03228,0.94273 -85.28612,1.00358 -91.91657,0.18488 -2.39195,-0.29535 -6.95839,0.0542 -10.14766,0.77681 -3.18926,0.7226 -6.11118,1.32024 -6.49316,1.32809 -0.38197,0.008 -0.81687,-11.69568 -0.96644,-26.00786 l -0.27194,-26.02214 2.83893,-0.56712 c 1.56141,-0.31191 3.27926,-0.12678 3.81745,0.41141 1.37078,1.37078 169.15361,1.34936 171.71588,-0.0219 2.31382,-1.23832 2.43396,-4.3862 0.2148,-5.6281 -1.04004,-0.58204 -32.08866,-0.72349 -83.59731,-0.38085 -45.06853,0.29979 -81.94277,0.23835 -81.94277,-0.13653 0,-1.30632 2.7321,-5.92744 5.72614,-9.6853 l 3.01506,-3.78424 104.28082,0.23373 c 100.64473,0.22558 104.3142,0.17132 105.23872,-1.55615 0.61915,-1.15691 0.62814,-2.37917 0.0254,-3.4562 -0.86725,-1.54965 -5.14734,-1.66632 -61.12882,-1.66632 -73.0816,0 -138.79492,-0.99006 -138.79492,-2.09114 0,-1.6325 7.87967,-8.3965 12.08332,-10.37245 l 4.32514,-2.03306 h 125.85343 125.85342 l 2.11846,-2.65772 2.11845,-2.65771 18.69637,-0.63462 c 10.283,-0.34904 28.31423,-0.67521 40.06939,-0.72483 19.9854,-0.0844 21.53257,0.0353 23.83029,1.84267 1.4215,1.11814 3.92065,1.93288 5.929,1.93288 h 3.47172 l -0.006,13.28859 c -0.006,14.97209 -0.97293,19.8669 -4.36299,22.08816 -2.47779,1.62351 -7.93234,1.8798 -46.27465,2.17425 l -18.26679,0.14028 0.68458,22.71141 0.68457,22.71141 -2.22946,0.021 c -1.2262,0.0116 -8.31805,0.30067 -15.75966,0.64244 -7.44161,0.34178 -15.05235,0.54546 -16.91275,0.45263 -1.86041,-0.0928 -9.25369,0.25741 -16.42953,0.77832 -7.17584,0.52091 -21.74497,1.20368 -32.37584,1.51726 -10.63087,0.31359 -22.59061,0.75357 -26.57718,0.97775 -3.98658,0.22418 -7.51892,0.41552 -7.84964,0.42519 -0.33072,0.01 -0.86755,1.68255 -1.19295,3.71751 -0.76121,4.76032 -5.35285,11.08644 -9.2049,12.68201 -1.83369,0.75953 -5.32597,1.07915 -8.93725,0.81794 l -5.92748,-0.42877 0.53362,7.05573 c 0.52401,6.92859 0.48142,7.09965 -2.36368,9.49364 -1.59351,1.34085 -3.40755,2.44386 -4.03121,2.45111 -0.62364,0.008 -2.00369,0.17552 -3.06678,0.3739 -1.06309,0.19839 -3.88993,0.0725 -6.28188,-0.27987 z m 135.52756,-48.31868 c 10.05404,-0.62952 11.61539,-0.96907 13.77181,-2.99493 2.2001,-2.06688 2.43217,-3.01261 2.43217,-9.91151 0,-9.02145 -0.89123,-11.09498 -5.08556,-11.83198 -1.72107,-0.30242 -17.75096,0.067 -35.62201,0.8209 -35.91935,1.51531 -36.95066,1.72358 -37.81863,7.63744 -0.64175,4.3725 1.507,13.82262 3.70058,16.27499 1.83721,2.05396 2.12757,2.07047 24.57059,1.39682 12.49127,-0.37494 27.81425,-1.00121 34.05105,-1.39173 z"
     id="path887" />
  <path
     style="fill:#000000;fill-opacity:1;stroke:#fbffff;stroke-width:0;stroke-miterlimit:4;stroke-dasharray:none"
     d="m 355.49777,490.26287 c -0.17306,-0.17306 -2.00938,-0.50227 -4.08071,-0.73157 -5.46619,-0.60514 -9.21358,-1.886 -15.82049,-5.40745 -7.04178,-3.75323 -11.70683,-8.67321 -14.05582,-14.82396 -2.22996,-5.83907 -1.36326,-9.91568 5.1739,-24.33607 2.62987,-5.80124 8.37257,-19.02825 12.76156,-29.39335 4.389,-10.3651 8.4093,-19.39656 8.93401,-20.0699 2.02203,-2.59479 1.03611,-8.69873 -2.2262,-13.7826 -2.07266,-3.22997 -3.33453,-6.56182 -3.62329,-9.56702 l -0.44306,-4.61108 37.55861,-0.53105 c 20.65724,-0.29207 37.75261,-0.34488 37.98973,-0.11735 0.84882,0.81454 -1.97901,16.9297 -3.58793,20.44679 -1.52134,3.32564 -37.73852,52.77523 -43.88346,59.91684 -3.13394,3.64225 -3.60268,8.51785 -1.33964,13.93407 2.48289,5.94239 3.70595,15.52386 2.53614,19.8682 -1.70993,6.35021 -3.83595,8.22762 -10.09757,8.91685 -3.01462,0.33181 -5.62272,0.46171 -5.79578,0.28865 z"
     id="path889" />
  <path
     style="fill:#000000;fill-opacity:1;stroke:#fbffff;stroke-width:0;stroke-miterlimit:4;stroke-dasharray:none"
     d="m 656.11077,357.39179 c -5.29768,-3.4461 -5.21556,-3.03771 -5.82193,-28.95148 l -0.42189,-18.02949 30.58331,-0.57678 c 16.82081,-0.31722 57.20169,-0.83483 89.73527,-1.15023 l 59.15198,-0.57345 -0.57939,-3.04847 c -0.31866,-1.67666 -0.68972,-3.18504 -0.82459,-3.35196 -0.13487,-0.16691 -6.48716,-0.48552 -14.11621,-0.708 -7.62906,-0.22249 -20.8294,-0.62197 -29.3341,-0.88775 -8.5047,-0.26577 -24.81342,-0.71186 -36.24161,-0.99131 -11.42819,-0.27944 -22.84429,-0.76272 -25.36913,-1.07395 l -4.5906,-0.56587 v -13.29686 -13.29687 l 9.23573,-0.64921 c 5.07965,-0.35706 9.58789,-0.43156 10.0183,-0.16555 0.43041,0.26601 22.19399,0.71015 48.36351,0.98697 43.44873,0.45961 47.92932,0.65778 51.59243,2.28195 7.18261,3.18465 6.87849,1.58246 7.19554,37.90753 l 0.2847,32.61871 -4.63369,1.46443 c -4.64282,1.4673 -13.59609,3.08356 -15.09856,2.72561 -0.44024,-0.10488 -5.44158,0.28563 -11.11409,0.86781 -11.87358,1.21859 -17.46161,1.72387 -26.25998,2.37444 -3.45503,0.25547 -8.89127,0.6774 -12.08054,0.93761 -3.18926,0.26022 -9.0604,0.69969 -13.04697,0.9766 -3.98658,0.27692 -10.07517,0.70681 -13.53021,0.95531 -7.49276,0.53892 -18.63585,1.30754 -28.26835,1.94988 -3.85375,0.25698 -10.37724,0.69188 -14.49664,0.96644 -4.11941,0.27456 -10.86035,0.72868 -14.97987,1.00916 -4.11952,0.28048 -10.53433,0.71554 -14.25514,0.96679 -3.7208,0.25126 -8.99528,0.62479 -11.72107,0.83007 -4.22249,0.31801 -5.61017,-0.0523 -9.37621,-2.50208 z"
     id="path891" />
  <path
     style="fill:#000000;fill-opacity:1;stroke:#fbffff;stroke-width:0;stroke-miterlimit:4;stroke-dasharray:none"
     d="m 564.8671,346.78494 c -2.73008,-2.96829 -5.53883,-14.00582 -4.70082,-18.47279 0.84317,-4.49447 3.14872,-6.32015 9.36256,-7.41385 5.69561,-1.00249 44.92958,-2.93857 59.54911,-2.93857 8.34874,0 9.26735,0.19033 11.4492,2.37218 2.18063,2.18063 2.37218,3.10248 2.37218,11.4165 0,8.72975 -0.098,9.13823 -2.81811,11.74424 -3.72857,3.5722 -9.22636,4.18336 -45.02082,5.00469 l -28.02684,0.64309 z m 65.71301,-4.55094 c 3.05798,-0.3844 6.05875,-1.19769 6.66836,-1.8073 1.21091,-1.21091 1.4231,-14.90841 0.2601,-16.79019 -1.33219,-2.15552 -68.75344,0.79035 -71.56905,3.1271 -1.7507,1.45295 -1.672,6.0965 0.21077,12.43648 l 1.53285,5.16164 28.6685,-0.71441 c 15.76767,-0.39293 31.17048,-1.02892 34.22847,-1.41332 z"
     id="path893" />
  <path
     style="fill:#000000;fill-opacity:1;stroke:#fbffff;stroke-width:0;stroke-miterlimit:4;stroke-dasharray:none"
     d="m 948.77852,337.51202 -16.42953,-0.30855 -2.4161,-3.24566 -2.41611,-3.24565 -19.81208,-0.0254 c -10.89665,-0.014 -25.69892,-0.32481 -32.89395,-0.69078 l -13.08187,-0.66541 -1.15245,2.52933 c -1.0217,2.24239 -1.70645,2.52934 -6.03571,2.52934 -3.74186,0 -5.04559,0.39532 -5.57776,1.69128 -0.38198,0.9302 -0.91195,-11.57316 -1.17773,-27.78524 -0.26577,-16.21208 -0.34585,-29.68636 -0.17796,-29.94284 0.16789,-0.25648 21.22753,-0.43964 46.7992,-0.40701 l 46.49393,0.0593 4.15891,4.756 c 2.2874,2.61581 5.26373,7.14796 6.61408,10.07145 4.49949,9.74141 4.70991,9.95692 14.62599,14.97986 l 9.53955,4.83222 24.64427,-0.039 c 13.5544,-0.0214 29.4717,-0.2004 35.3718,-0.39768 l 10.7275,-0.35868 7.9595,-19.69373 c 7.5638,-18.71475 7.9433,-20.00713 7.6349,-25.99822 l -0.3246,-6.30448 12.7655,-0.25741 c 13.8102,-0.27847 13.8117,-0.27789 13.8117,5.13953 0,1.48031 -0.899,3.48408 -2.0171,4.496 -1.9067,1.72551 -1.9848,2.48807 -1.4262,13.9216 0.3251,6.65285 0.8392,15.84048 1.1426,20.41695 l 0.5516,8.32086 8.2875,0.63703 c 4.5581,0.35037 8.8658,1.11695 9.5726,1.70352 1.8989,1.57601 1.7308,12.78689 -0.216,14.40262 -1.193,0.99013 -14.3815,1.23099 -64.28,1.17397 l -62.77898,-0.0717 -2.49641,4.2598 c -2.28943,3.90663 -2.78925,4.24178 -6.02873,4.04256 -1.94278,-0.11948 -10.92561,-0.35608 -19.96186,-0.52578 z"
     id="path895" />
  <path
     style="fill:#000000;fill-opacity:1;stroke:#fbffff;stroke-width:0;stroke-miterlimit:4;stroke-dasharray:none"
     d="m 633.10826,550.08571 c -53.90147,-37.5209 -93.516,-90.5667 -111.6717,-149.53388 -3.47799,-11.29601 -8.61213,-30.81472 -8.61548,-32.75385 -6.9e-4,-0.39866 1.14813,-0.72484 2.55292,-0.72484 3.99821,0 11.68647,-8.20632 12.50934,-13.35226 0.60314,-3.77185 0.85489,-4.04371 3.74457,-4.04371 1.70388,0 3.37431,-0.27635 3.71208,-0.61412 0.33776,-0.33776 6.39011,-0.70554 13.44966,-0.81728 7.05955,-0.11175 18.76503,-0.37902 26.01217,-0.59394 l 13.17662,-0.39077 0.64405,7.24832 c 1.57162,17.68738 11.16138,46.58435 20.96695,63.18004 6.44998,10.91641 16.35816,25.40779 24.53482,35.8838 15.00825,19.22871 21.54952,25.39123 39.41574,37.1335 5.19742,3.41591 9.32401,6.69954 9.17021,7.29694 -0.39535,1.53564 -37.85984,59.37786 -38.48786,59.42222 -0.28432,0.0201 -5.28566,-3.28298 -11.11409,-7.34017 z"
     id="path897" />
  <path
     style="fill:#000000;fill-opacity:1;stroke:#fbffff;stroke-width:0;stroke-miterlimit:4;stroke-dasharray:none"
     d="m 442.14595,388.51744 c -3.88335,-2.55988 -7.16918,-8.30125 -7.90585,-13.81396 -0.45052,-3.37144 -1.47642,-5.50247 -3.87148,-8.04197 -1.79219,-1.90028 -3.25853,-3.64153 -3.25853,-3.86946 0,-0.22792 3.89613,-0.41441 8.65807,-0.41441 h 8.65807 l -2.97552,4.78662 c -3.61029,5.80774 -3.30592,9.18198 1.45877,16.17194 1.74413,2.5587 3.49488,5.19581 3.89056,5.86024 1.08697,1.82524 -1.40716,1.46136 -4.65409,-0.679 z"
     id="path899" />
  <path
     style="fill:#000000;fill-opacity:1;stroke:#fbffff;stroke-width:0;stroke-miterlimit:4;stroke-dasharray:none"
     d="m 443.17871,400.27207 c -5.96342,-0.35739 -10.05042,-0.91215 -14.17789,-1.92446 -3.86605,-0.9482 -6.06905,-1.94955 -9.62077,-4.37304 -2.26022,-1.54224 -3.65307,-2.80288 -5.66144,-5.12406 l -0.70088,-0.81005 0.21727,-0.36781 c 0.1195,-0.20229 0.24633,-0.36524 0.28183,-0.36209 0.0355,0.003 0.30919,0.3119 0.60818,0.68612 3.22211,4.03283 8.58075,7.67953 13.26074,9.02429 3.827,1.09965 8.40279,1.85072 13.79967,2.26505 2.94796,0.22632 11.02778,0.18986 14.25503,-0.0643 7.49195,-0.59009 14.54188,-1.79685 18.49267,-3.16547 1.57451,-0.54543 3.40088,-1.42055 4.58116,-2.1951 0.88723,-0.58223 2.31027,-1.98599 3.03183,-2.99075 0.3532,-0.49181 0.3743,-0.50196 0.77988,-0.37502 0.22927,0.0718 0.40318,0.16776 0.38647,0.21333 -0.10149,0.27666 -1.69171,2.14582 -2.36985,2.78554 -1.42447,1.34377 -4.28563,2.83779 -7.09585,3.70526 -4.5259,1.39706 -12.52455,2.60994 -19.98081,3.02979 -1.89649,0.10679 -8.54859,0.13502 -10.08724,0.0428 z"
     id="path903" />
</svg>
