<?xml version="1.0" encoding="UTF-8" standalone="no"?>
<svg
   xmlns:dc="http://purl.org/dc/elements/1.1/"
   xmlns:cc="http://creativecommons.org/ns#"
   xmlns:rdf="http://www.w3.org/1999/02/22-rdf-syntax-ns#"
   xmlns:svg="http://www.w3.org/2000/svg"
   xmlns="http://www.w3.org/2000/svg"
   xmlns:sodipodi="http://sodipodi.sourceforge.net/DTD/sodipodi-0.dtd"
   xmlns:inkscape="http://www.inkscape.org/namespaces/inkscape"
   viewBox="0 0 514 1946"
   version="1.1"
   id="svg120"
   sodipodi:docname="Building.svg"
   inkscape:version="1.0.1 (3bc2e813f5, 2020-09-07)">
  <metadata
     id="metadata126">
    <rdf:RDF>
      <cc:Work
         rdf:about="">
        <dc:format>image/svg+xml</dc:format>
        <dc:type
           rdf:resource="http://purl.org/dc/dcmitype/StillImage" />
        <dc:title></dc:title>
      </cc:Work>
    </rdf:RDF>
  </metadata>
  <defs
     id="defs124" />
  <sodipodi:namedview
     pagecolor="#ffffff"
     bordercolor="#666666"
     borderopacity="1"
     objecttolerance="10"
     gridtolerance="10"
     guidetolerance="10"
     inkscape:pageopacity="0"
     inkscape:pageshadow="2"
     inkscape:window-width="1920"
     inkscape:window-height="1051"
     id="namedview122"
     showgrid="false"
     inkscape:zoom="0.38283659"
     inkscape:cx="221.66545"
     inkscape:cy="978.71103"
     inkscape:window-x="1699"
     inkscape:window-y="-9"
     inkscape:window-maximized="1"
     inkscape:current-layer="svg120" />
  <path
     style="fill:#030000;stroke:#fbffff;stroke-width:0;stroke-miterlimit:0"
     d="m 0.84714186,1910.9729 v -34.6101 l 45.38489914,0.1635 c 24.961695,0.09 42.87542,0.5717 39.80828,1.0708 -3.067142,0.499 -6.198348,1.529 -6.958238,2.2889 -2.602719,2.6027 -3.728299,11.5079 -3.681633,29.1278 0.07484,28.2574 1.53186,33.141 10.521361,35.2648 2.474614,0.5847 -15.122493,1.0953 -40.34279,1.1706 l -44.73187914,0.1337 z"
     id="path951" />
  <path
     style="fill:#030000;stroke:#fbffff;stroke-width:0;stroke-miterlimit:0"
     d="m 90.96392,1944.2769 c 0,-0.7183 -1.474644,-1.306 -3.276988,-1.306 -4.45535,0 -10.384925,-6.1873 -10.639064,-11.1014 -0.111444,-2.155 -0.35096,-4.7997 -0.532256,-5.8772 -0.181295,-1.0775 -0.237041,-4.7507 -0.123878,-8.1627 l 0.205743,-6.2037 7.509732,-0.1302 c 5.731286,-0.099 6.736494,-0.3778 4.244631,-1.1759 -1.795805,-0.5751 -5.14714,-1.1042 -7.447411,-1.1758 l -4.18231,-0.1302 -0.388831,-8.1627 c -0.374084,-7.8532 1.589852,-16.7934 4.444743,-20.2334 0.749893,-0.9035 3.642352,-1.6428 6.427687,-1.6428 3.630856,0 5.064243,-0.5545 5.064243,-1.9591 0,-1.7041 -5.94974,-1.959 -45.71141,-1.959 -43.3858945,0 -45.71140914,-0.1213 -45.71140914,-2.3845 0,-3.5041 4.73437694,-7.365 14.81037414,-12.0779 l 8.933192,-4.1783 49.320382,0.6182 49.32038,0.6183 8.82762,4.1309 c 4.85519,2.2721 9.64321,4.131 10.64005,4.131 0.99684,0 1.81243,1.0631 1.81243,2.3624 0,1.2994 0.86289,3.5033 1.91753,4.8977 1.78402,2.3587 1.92041,2.1487 1.95906,-3.0155 0.037,-4.9443 0.37694,-5.5507 3.11175,-5.5507 1.6886,0 4.92105,0.6452 7.18322,1.4338 3.33914,1.1641 4.11301,2.147 4.11301,5.2242 0,2.4985 0.6677,3.7904 1.95906,3.7904 1.36823,0 1.95906,-1.3786 1.95906,-4.5712 0,-2.5141 0.58771,-4.5711 1.30604,-4.5711 0.71832,0 1.30604,2.057 1.30604,4.5711 0,2.5141 0.65201,4.5712 1.44893,4.5712 0.88687,0 1.24191,-1.7732 0.91527,-4.5712 -0.43523,-3.7281 -0.1003,-4.5711 1.81617,-4.5711 1.81482,0 2.34983,1.0407 2.34983,4.5711 0,2.5141 0.58772,4.5712 1.30604,4.5712 0.71832,0 1.30604,-2.0571 1.30604,-4.5712 0,-2.5141 0.58772,-4.5711 1.30604,-4.5711 0.71832,0 1.30604,2.057 1.30604,4.5711 0,2.5141 0.58772,4.5712 1.30604,4.5712 0.71832,0 1.30604,0.8815 1.30604,1.959 0,1.5237 1.74138,1.9591 7.83624,1.9591 h 7.83624 v 15.0194 15.0195 l -4.89765,0.092 c -2.69371,0.05 -6.07309,0.5969 -7.50973,1.2142 -1.87933,0.8076 -0.50541,1.1482 4.89765,1.2143 l 7.50973,0.092 v 15.6725 15.6725 h -7.83624 c -4.35346,0 -7.83624,0.5804 -7.83624,1.306 0,0.8462 -16.3255,1.306 -46.36443,1.306 -30.03893,0 -46.36443,-0.4598 -46.36443,-1.306 z"
     id="path953" />
  <path
     style="fill:#030000;stroke:#fbffff;stroke-width:0;stroke-miterlimit:0"
     d="m 186.30486,1944.2769 c 1.07748,-0.6963 4.75072,-1.2751 8.16275,-1.2861 l 6.20369,-0.02 v -32.6511 -32.651 l -8.16275,-0.04 c -6.18227,-0.03 -7.60822,-0.3627 -5.87718,-1.3709 1.56635,-0.9123 2.28557,-2.9547 2.28557,-6.4905 0,-4.235 -0.4538,-5.1593 -2.53323,-5.1593 -1.96554,0 -2.64807,1.0976 -3.04556,4.8977 l -0.51231,4.8976 -0.21956,-4.8976 c -0.21475,-4.7907 -0.33151,-4.8977 -5.34794,-4.8977 -3.78596,0 -5.28474,0.5983 -5.72568,2.2856 -0.54804,2.0971 -0.60977,2.0893 -0.74878,-0.096 -0.27536,-4.3282 -4.65016,-1.9161 -5.53025,3.0491 -0.66058,3.7269 -0.8389,3.9316 -0.97953,1.1247 -0.23369,-4.6646 -2.61803,-6.3124 -10.48197,-7.2437 l -6.66848,-0.7898 -0.17786,4.4265 c -0.12872,3.2037 -0.33711,3.5927 -0.75432,1.4081 -0.31705,-1.6601 -1.55938,-3.3584 -2.76073,-3.7738 -1.20135,-0.4154 -6.15366,-2.4588 -11.00514,-4.5407 -7.20501,-3.092 -10.6741,-3.7853 -18.93758,-3.7846 -5.56419,4e-4 -20.989502,-0.306 -34.278462,-0.6809 l -24.161745,-0.6816 0.33175,-319.2496 0.331749,-319.2495 h 13.055164 13.055163 v -13.7135 c 0,-8.2715 0.518269,-13.7134 1.30604,-13.7134 0.783624,0 1.30604,5.2242 1.30604,13.0604 v 13.0604 h 10.318374 10.318377 l 0.63187,-11.4278 c 0.34752,-6.2853 1.2745,-15.5419 2.05994,-20.5702 0.94763,-6.0665 1.71141,-68.3423 2.27027,-185.1093 0.50015,-104.50164 1.32249,-175.67021 2.02482,-175.23615 0.65044,0.402 2.2144,2.88996 3.47546,5.5288 1.97873,4.14059 2.82134,4.73973 6.15051,4.37335 2.12172,-0.2335 4.15895,-0.89224 4.52718,-1.46386 1.23,-1.9094 10.46481,-2.31659 10.46481,-0.46142 0,0.93324 1.17544,1.6968 2.61208,1.6968 1.53877,0 2.61208,-0.87069 2.61208,-2.11897 0,-1.69149 0.3776,-1.8056 1.87167,-0.56563 1.48784,1.23479 2.42527,0.99975 4.57114,-1.14613 2.61562,-2.61562 2.69947,-2.62073 2.69947,-0.16447 0,1.39426 0.58772,2.89824 1.30604,3.34218 0.74073,0.4578 1.30604,-0.63945 1.30604,-2.535 0,-4.37251 2.08866,-4.29942 3.19581,0.11184 0.88316,3.51877 2.70015,2.96311 3.53413,-1.0808 0.38243,-1.85437 0.8095,-1.93469 2.73226,-0.51386 2.10467,1.55526 2.35439,7.71655 3.2651,80.56034 l 0.98613,78.87628 2.93859,0.41734 c 2.09756,0.29791 2.93859,-0.24408 2.93859,-1.89376 0,-1.79753 0.34828,-1.96282 1.56725,-0.74385 2.58657,2.58657 8.59034,1.92863 9.53409,-1.04483 0.92543,-2.91578 2.63368,-3.38431 4.04041,-1.10819 0.644,1.04205 1.46985,0.76484 2.68915,-0.90265 1.67783,-2.29457 1.7597,-2.27697 1.7597,0.37809 0,3.79884 2.14831,4.85334 3.02871,1.48665 0.39254,-1.50106 1.34077,-2.34119 2.10754,-1.8673 0.76667,0.47384 1.39395,0.33707 1.39395,-0.30394 0,-0.64099 0.88158,-1.16544 1.95906,-1.16544 1.07749,0 1.95906,0.78362 1.95906,1.74139 0,0.95776 0.58772,1.74139 1.30604,1.74139 0.71833,0 1.30777,-0.73465 1.30988,-1.63255 0.003,-0.97534 1.84249,-1.672 4.57114,-1.73055 3.9546,-0.0849 4.56731,0.31488 4.56731,2.97959 0,1.69265 0.88157,3.41586 1.95906,3.82932 4.37726,1.67971 1.46095,3.09861 -6.85672,3.33603 l -8.81577,0.25165 8.16275,0.4637 8.16276,0.46368 v 14.24183 14.2418 l -8.16276,0.4637 -8.16275,0.4637 8.61623,0.2516 8.61622,0.2517 0.84662,14.6929 c 0.46566,8.0811 0.84931,215.8395 0.85257,461.6853 l 0.006,446.9922 -17.95806,-0.02 c -12.07711,-0.013 -17.3165,-0.4346 -15.99899,-1.286 z M 92.269961,1498.2641 v -16.3255 h -8.489262 -8.489262 v 16.3255 16.3255 h 8.489262 8.489262 z m 54.853689,0 v -16.3255 h -17.63154 -17.63155 v 16.3255 16.3255 h 17.63155 17.63154 z M 200.6713,1006.54 v -15.6725 h -17.63154 -17.63154 v 15.6725 15.6725 h 17.63154 17.63154 z"
     id="path955" />
  <path
     style="fill:#030000;stroke:#fbffff;stroke-width:0;stroke-miterlimit:0"
     d="m 142.24822,749.50254 c -3.90831,-0.28313 -6.11987,-1.23999 -7.54655,-3.2651 -1.40855,-1.99935 -2.31034,-2.39701 -2.98563,-1.31658 -0.53214,0.8514 -3.70931,1.87712 -7.06036,2.27938 -5.04676,0.60581 -6.21708,0.33989 -6.81656,-1.5489 -0.39805,-1.25416 -2.49378,-3.06378 -4.65718,-4.0214 l -3.93346,-1.74112 0.003,-60.94791 c 0.002,-33.52135 0.39112,-72.91379 0.86495,-87.53876 l 0.86152,-26.59086 5.01199,0.67225 c 2.75659,0.36973 5.27814,0.24159 5.60344,-0.28477 0.32531,-0.52635 4.24742,-0.82412 8.7158,-0.6617 5.55007,0.20174 8.70292,-0.28329 9.95039,-1.53075 1.00434,-1.00434 4.10576,-1.82607 6.89204,-1.82607 3.44355,0 5.47074,-0.72327 6.32984,-2.25839 1.18727,-2.12154 1.42862,-2.10928 3.98301,0.20242 2.63461,2.38429 2.71916,2.38547 2.71916,0.0381 0,-1.77351 0.38802,-2.03468 1.44805,-0.97465 3.34372,3.34373 5.48783,79.73374 4.17134,148.61599 l -0.82373,43.09933 h -8.60152 c -4.73083,0 -11.08932,-0.18024 -14.12997,-0.40053 z"
     id="path957" />
  <path
     style="fill:#030000;stroke:#fbffff;stroke-width:0;stroke-miterlimit:0"
     d="m 168.09059,883.53103 c -0.84169,-3.92467 -1.46205,-18.35849 -1.43447,-33.37597 0.0307,-16.73759 -0.42957,-26.46072 -1.25268,-26.46072 -0.71569,0 -1.30126,0.53571 -1.30126,1.19048 0,0.65476 -1.02851,1.03259 -2.28557,0.83959 -1.25707,-0.19298 -2.68506,0.59368 -3.17331,1.74812 -0.77794,1.83939 -0.89909,1.81631 -0.97953,-0.18658 -0.0686,-1.70828 -1.20788,-2.28557 -4.51061,-2.28557 -3.45057,0 -4.583,0.62783 -5.16809,2.86525 -0.73212,2.79962 -0.81038,2.80994 -3.41743,0.45059 -2.54857,-2.30643 -3.42971,-1.60883 -2.82281,2.23483 0.0851,0.53875 -0.72692,0.97953 -1.8044,0.97953 -1.07748,0 -1.95906,-1.14074 -1.95906,-2.53499 0,-1.39425 -0.58772,-2.89824 -1.30604,-3.34219 -0.71832,-0.44395 -1.30604,0.40989 -1.30604,1.89742 0,2.42389 -0.54219,2.61789 -5.22416,1.86922 -3.63856,-0.58183 -5.22416,-0.3632 -5.22416,0.72033 0,0.96269 -1.57957,1.39971 -4.14386,1.14645 -3.2805,-0.32398 -4.18925,-1.0465 -4.36172,-3.46785 -0.11982,-1.68223 -1.04675,-3.58331 -2.05983,-4.22463 -1.23875,-0.78417 -1.32076,-1.17259 -0.25041,-1.18604 0.90157,-0.0118 1.25316,-0.90185 0.81099,-2.05412 -0.42931,-1.11876 -1.50111,-1.75761 -2.38178,-1.41968 -1.19989,0.46045 -1.74294,-3.85803 -2.16667,-17.22997 -0.48601,-15.33709 0.53775,-62.9211 1.24496,-57.86542 0.13635,0.97475 0.98566,1.48918 1.88734,1.14317 1.83606,-0.70456 5.17634,2.24081 3.94158,3.47558 -0.72318,0.72317 6.51957,1.4055 9.31877,0.87791 0.6525,-0.12298 1.672,0.54207 2.26557,1.47789 0.80643,1.27141 1.08428,1.12377 1.09922,-0.58408 0.0214,-2.45014 3.25578,-3.1402 4.59114,-0.97953 0.44395,0.71832 3.00582,1.30604 5.69305,1.30604 2.68723,0 5.52804,0.64216 6.31291,1.42703 1.03201,1.03202 2.16512,1.03202 4.09347,0 3.33849,-1.78671 11.55535,-1.8654 12.63346,-0.12099 2.49536,4.03758 3.36809,0.038 3.20605,-14.69296 -0.22792,-20.72017 1.49953,-57.7289 2.61069,-55.93101 0.50478,0.81675 5.96219,1.42856 13.19452,1.47919 6.78354,0.0475 14.09686,0.25509 16.25182,0.46135 2.15497,0.20626 7.66648,0.46374 12.2478,0.57217 l 8.32967,0.19716 -0.81099,5.07167 c -0.57089,3.57013 -0.26792,5.52239 1.02332,6.59402 1.01357,0.84119 7.58372,1.74818 14.684,2.02708 7.06733,0.27761 13.29048,0.54275 13.82922,0.58921 0.53874,0.0465 0.97953,2.40065 0.97953,5.23155 0,2.83089 0.58772,5.51031 1.30604,5.95426 0.76445,0.47246 1.30604,-0.88823 1.30604,-3.28131 0,-3.404 0.29111,-3.79739 1.73877,-2.34972 0.95633,0.95633 2.14297,3.34918 2.63696,5.31745 0.49401,1.96827 1.45628,3.57868 2.13837,3.57868 0.68209,0 0.90187,0.88158 0.48841,1.95906 -0.90235,2.35145 1.62192,2.66667 2.61465,0.32651 0.38091,-0.8979 0.36385,0.80844 -0.0379,3.79187 -0.63228,4.69531 -0.31426,5.69712 2.36594,7.45326 1.84864,1.21127 6.64448,2.15984 11.9011,2.35392 6.41857,0.23699 8.80469,0.80916 8.80469,2.1113 0,1.00567 0.99875,1.58523 2.28557,1.32628 2.54139,-0.51142 6.85672,4.10249 6.85672,7.33112 -2e-5,1.14376 0.5877,2.07957 1.30602,2.07957 0.71832,0 1.30604,1.14075 1.30604,2.535 0,1.39425 0.58772,2.89823 1.30604,3.34218 0.71833,0.44394 1.30604,-0.45192 1.30604,-1.99082 0,-3.6988 2.94414,-2.65551 4.04851,1.43462 0.83808,3.10399 0.88779,3.08215 2.44936,-1.07635 1.74453,-4.64575 3.23745,-5.37444 4.46374,-2.17876 0.43602,1.13624 0.79276,13.04176 0.79276,26.45673 v 24.39085 l -5.77862,-0.45959 -5.7786,-0.45959 -0.85463,5.69903 -0.85462,5.69902 -5.12113,-0.48837 c -2.81662,-0.26861 -5.12113,-1.01437 -5.12113,-1.65724 0,-2.12105 -2.4094,-1.21524 -2.9704,1.11671 -0.45308,1.88335 -0.80012,1.71097 -1.97203,-0.97953 -0.78222,-1.79581 -1.45945,-2.57244 -1.50498,-1.72584 -0.18063,3.35827 -4.19961,5.72504 -8.38752,4.93939 -4.48984,-0.8423 -11.28587,1.13542 -11.28587,3.28432 0,0.7361 1.49219,1.33837 3.31598,1.33837 h 3.31597 l -2.66295,2.85835 c -1.46463,1.57209 -2.66296,3.60843 -2.66296,4.52519 0,0.91676 -1.17544,2.29592 -2.61208,3.06478 -2.30685,1.23459 -2.61209,0.99323 -2.61209,-2.06536 0,-2.97688 -0.45219,-3.37687 -3.21953,-2.84786 -1.77075,0.3385 -3.39553,0.0875 -3.61063,-0.55781 -0.2151,-0.64529 -1.68032,0.0278 -3.25606,1.49586 -3.4237,3.18969 -8.52281,3.46648 -10.9083,0.59214 -1.57106,-1.89302 -1.86675,-1.88143 -3.33812,0.13078 -0.8879,1.21428 -2.20288,1.84405 -2.92218,1.3995 -0.71929,-0.44453 -2.88516,1.25976 -4.81305,3.78735 -1.92788,2.52758 -4.37879,4.5956 -5.44647,4.5956 -1.46883,0 -1.82301,1.23961 -1.45544,5.09396 l 0.48579,5.09397 -6.83248,1.90172 c -4.83306,1.34522 -6.98481,1.47887 -7.35303,0.45671 -1.02198,-2.83702 -2.71428,0.69737 -2.77521,5.79609 -0.0449,3.75804 -0.69246,5.38972 -2.34895,5.91879 -2.90332,0.92729 -4.36108,3.72432 -5.48778,10.52949 -0.7278,4.39586 -1.34213,5.28786 -3.29086,4.77826 -1.66707,-0.43596 -2.68922,0.29724 -3.35978,2.40997 l -0.96376,3.03653 -1.07912,-2.91713 c -0.59351,-1.60443 -2.05653,-2.91715 -3.25115,-2.91715 -1.72602,0 -2.02566,0.87161 -1.45924,4.24463 0.39204,2.33455 1.0401,5.12621 1.44015,6.20369 0.40005,1.07749 -0.16087,3.13164 -1.24649,4.56478 -1.66896,2.20322 -2.15679,2.30974 -3.15807,0.68962 -1.04012,-1.68294 -1.26292,-1.68217 -1.83103,0.007 -0.35574,1.05734 -0.8349,3.09114 -1.06478,4.51954 -0.22989,1.42839 -1.38409,2.78313 -2.5649,3.01054 -1.63747,0.31534 -2.49883,-1.22748 -3.62997,-6.50181 z"
     id="path959" />
  <path
     style="fill:#030000;stroke:#fbffff;stroke-width:0;stroke-miterlimit:0"
     d="m 168.64151,985.59188 c -1.05986,-1.7149 -0.92919,-92.80802 0.13464,-93.85943 0.43241,-0.42737 2.05547,-0.77703 3.60679,-0.77703 1.93069,0 2.95225,-0.92712 3.23792,-2.93859 0.52287,-3.68156 2.84776,-3.8852 2.84776,-0.24944 0,1.47904 0.58772,2.32593 1.30604,1.88199 0.71832,-0.44395 1.30604,-1.95591 1.30604,-3.35991 0,-1.40399 0.64911,-3.59212 1.44247,-4.86249 1.08994,-1.74526 0.94954,-3.48954 -0.57445,-7.13697 -1.29528,-3.10003 -1.54629,-5.11808 -0.70155,-5.64016 0.72346,-0.44713 1.63823,0.42162 2.03282,1.93053 0.94538,3.61515 3.77635,3.5045 4.99127,-0.1951 0.87143,-2.6536 1.05452,-2.49527 1.88792,1.63255 1.05202,5.21062 1.72105,4.1258 4.0273,-6.5302 1.76631,-8.16125 4.40488,-13.0604 7.03401,-13.0604 1.13419,0 1.72413,-1.32224 1.60245,-3.59161 -0.10592,-1.97539 0.32943,-3.68835 0.96744,-3.80657 0.63802,-0.11823 1.66652,-0.99981 2.28557,-1.95906 0.93569,-1.44991 1.31919,-1.44379 2.2735,0.0362 0.88061,1.36574 1.27429,1.4013 1.69049,0.15269 0.2984,-0.89521 2.57349,-2.29065 5.05575,-3.10098 4.20775,-1.3736 4.48419,-1.8038 4.08455,-6.35637 -0.33314,-3.79509 0.0397,-4.88305 1.67354,-4.88305 1.1562,0 2.46693,-1.0285 2.91273,-2.28557 1.23284,-3.47632 4.53453,-6.88547 5.86944,-6.06045 0.65379,0.40406 1.99221,0.0678 2.97428,-0.74724 1.29254,-1.07272 2.0309,-1.08495 2.67406,-0.0443 1.30419,2.11023 16.31442,1.13403 16.31901,-1.06133 0.002,-0.94029 0.54109,-1.37742 1.19806,-0.97139 0.65697,0.40603 1.49215,-7e-5 1.85596,-0.90245 0.3638,-0.90238 0.70786,3.203 0.76457,9.12307 0.0889,9.28464 0.46205,10.98794 2.71518,12.39504 1.95022,1.21793 2.61209,3.04572 2.61209,7.21349 0,4.89478 0.52271,5.90183 4.24463,8.17768 2.33454,1.42751 4.97927,2.31889 5.87718,1.98085 0.99406,-0.37424 1.64879,0.51863 1.67408,2.28299 0.0385,2.687 0.16764,2.73148 1.77654,0.61203 2.39357,-3.15314 3.40609,-2.86196 3.40609,0.97953 0,1.79581 -0.58772,3.2651 -1.30604,3.2651 -0.71832,0 -1.30604,0.88158 -1.30604,1.95906 0,1.41062 1.44368,1.95906 5.15687,1.95906 3.72981,0 6.16053,0.93016 8.78372,3.36125 l 3.62685,3.36125 1.05714,-3.17143 c 0.83048,-2.49143 1.74745,-3.03947 4.27669,-2.55597 2.65296,0.50714 3.21953,1.37952 3.21953,4.95726 0,2.38799 0.59731,4.71096 1.32735,5.16215 0.73003,0.45119 0.99409,1.35956 0.58679,2.01859 -0.68641,1.11062 0.5911,6.98022 2.55908,11.75794 0.4847,1.17674 -0.28196,3.32709 -1.81742,5.09749 -1.46069,1.68418 -2.69304,4.00073 -2.73859,5.14789 -0.05,1.26006 -0.58397,0.83159 -1.34884,-1.08235 l -1.26606,-3.16808 -1.99031,2.84157 c -1.57979,2.25546 -3.29994,2.84157 -8.33964,2.84157 -8.88773,0 -10.79516,0.8909 -9.0178,4.21193 1.7437,3.25814 -0.80545,8.84847 -4.03485,8.84847 -1.1716,0 -2.83544,0.70526 -3.69742,1.56725 -1.21897,1.21897 -1.56725,1.0428 -1.56725,-0.79275 0,-1.49995 -0.67455,-2.10115 -1.85098,-1.64972 -1.01803,0.39066 -2.17841,-0.143 -2.57861,-1.18591 -0.4002,-1.0429 -2.22253,-2.46455 -4.04963,-3.15921 -1.82709,-0.69466 -3.87838,-2.72644 -4.55841,-4.51506 -0.74802,-1.96744 -2.67342,-3.59574 -4.87423,-4.12212 -2.0008,-0.47853 -4.22553,-1.21877 -4.94385,-1.64497 -2.55103,-1.51358 -8.34048,-1.13549 -9.0018,0.58789 -0.44957,1.17157 -2.18734,1.55621 -5.25585,1.16334 -4.74823,-0.60792 -7.79247,0.32891 -14.47523,4.45457 -2.15497,1.33038 -4.40393,2.14073 -4.99768,1.80077 -1.69009,-0.96769 -6.41378,4.80396 -5.6215,6.86863 0.39039,1.01732 0.14774,2.19705 -0.53921,2.6216 -0.68695,0.42456 -1.249,-0.67703 -1.249,-2.44798 0,-2.5769 -0.52162,-3.0835 -2.61208,-2.53683 -1.43664,0.37569 -2.62108,1.34917 -2.63208,2.1633 -0.0111,0.82307 -0.54675,0.64777 -1.2065,-0.39486 -1.00003,-1.58039 -1.52041,-1.59795 -3.3112,-0.11173 -1.83898,1.52622 -2.22412,1.38319 -2.86395,-1.06351 -0.91898,-3.51418 -3.04667,-3.71801 -3.04667,-0.29186 0,1.39425 -0.62112,2.91888 -1.38027,3.38806 -2.4914,1.53977 -7.4321,-0.61035 -8.32566,-3.6232 l -0.87577,-2.95288 -1.24188,3.05921 c -0.68304,1.68256 -0.9373,3.55204 -0.56503,4.15438 0.37227,0.60235 0.0795,1.46434 -0.65049,1.91553 -0.73004,0.45118 -1.34817,3.28346 -1.37362,6.29393 -0.0255,3.01048 -0.88621,6.94289 -1.91278,8.7387 -2.12309,3.71395 -2.64347,18.28456 -0.65302,18.28456 0.71832,0 1.30604,1.35175 1.30604,3.00389 0,1.65214 0.68035,3.68425 1.51189,4.51579 1.14517,1.14516 1.1098,1.9964 -0.14584,3.50935 -1.0194,1.2283 -1.31557,3.36076 -0.76914,5.53791 0.69639,2.77463 1.14737,3.13142 2.0849,1.64951 1.01347,-1.60195 1.19937,-1.60818 1.21631,-0.0408 0.011,1.01762 0.38382,1.4864 0.8285,1.04173 0.44468,-0.44468 1.66209,0.0451 2.70537,1.08836 1.1112,1.11121 4.42775,1.90426 8.00727,1.91469 8.30977,0.0243 12.00737,1.18356 11.88448,3.72611 -0.0654,1.35408 -0.34372,1.53695 -0.76186,0.5007 -0.95334,-2.36263 -4.01348,-2.00326 -5.56063,0.65302 -1.26783,2.17674 -1.33311,2.17674 -1.37093,0 -0.0219,-1.25704 -0.9213,-2.28555 -1.99878,-2.28555 -1.07748,0 -1.95906,0.80008 -1.95906,1.77796 0,1.17279 -1.06757,1.57387 -3.13656,1.17834 -2.34576,-0.44841 -3.35733,0.096 -4.01216,2.15915 -1.07072,3.37357 -3.3117,2.39615 -2.41019,-1.05123 0.3543,-1.35486 0.005,-2.85826 -0.77563,-3.34088 -0.90876,-0.56164 -1.41982,0.61814 -1.41982,3.27763 0,3.40885 -0.32763,3.88321 -1.82423,2.64114 -1.00333,-0.8327 -1.5225,-2.66781 -1.15372,-4.07805 0.36879,-1.41023 0.0797,-2.56406 -0.6425,-2.56406 -0.72216,0 -1.69891,2.05702 -2.17056,4.57114 -0.8529,4.54633 -2.43427,5.80546 -4.0361,3.21365 z"
     id="path961" />
  <path
     style="fill:#030000;stroke:#fbffff;stroke-width:0;stroke-miterlimit:0"
     d="m 216.34379,981.88259 c 0,-3.75815 -0.005,-3.76034 -7.18323,-3.18017 -5.66786,0.45809 -7.18322,0.18151 -7.18322,-1.31109 0,-2.30954 -3.92486,-3.46089 -11.87845,-3.48452 -4.32678,-0.0129 -6.66085,-0.74666 -8.36517,-2.62992 -1.30015,-1.43664 -3.15439,-2.61208 -4.12054,-2.61208 -2.49158,0 -2.18137,-3.55064 0.4383,-5.01667 2.05589,-1.15054 2.05589,-1.3674 0,-3.42329 -1.20722,-1.20722 -2.19494,-3.55029 -2.19494,-5.20683 0,-1.65654 -0.83331,-3.70348 -1.85179,-4.54874 -2.23822,-1.85756 -1.61041,-9.24075 1.31699,-15.48816 1.10761,-2.36379 1.90131,-5.59624 1.76377,-7.18322 -0.34224,-3.94891 1.46959,-11.3747 2.77533,-11.3747 0.58613,0 1.42893,0.58772 1.87288,1.30604 1.31659,2.13028 7.41072,1.48726 9.28327,-0.97953 0.95425,-1.25706 1.75369,-1.59023 1.77654,-0.74037 0.0469,1.7461 7.59223,1.93249 8.65445,0.21378 1.15012,-1.86094 4.44748,-1.22845 4.44748,0.8531 0,3.21955 1.82285,2.17604 4.03413,-2.30937 1.14129,-2.31501 2.90445,-4.24533 3.91812,-4.28961 2.65424,-0.11594 6.69947,-1.97086 9.43882,-4.32814 1.58555,-1.3644 4.52081,-1.9473 8.85605,-1.75867 4.74176,0.20631 6.68589,-0.24284 7.23404,-1.67129 0.41228,-1.07438 1.40109,-1.55077 2.19737,-1.05865 0.79627,0.49213 3.52635,1.10729 6.06683,1.36702 5.06352,0.5177 6.14849,1.25889 8.37239,5.71959 0.82045,1.64567 2.95633,3.33447 4.74639,3.75289 2.50834,0.58631 3.3485,1.72232 3.66391,4.95407 0.36655,3.75565 0.84363,4.19406 4.57115,4.20059 6.84015,0.012 13.93631,2.49418 14.15611,4.95175 0.10941,1.2233 0.26148,2.98344 0.33793,3.91143 0.0765,0.92798 1.01544,2.24135 2.08664,2.91859 1.30055,0.82224 1.40524,1.23799 0.31509,1.25135 -0.8979,0.011 -1.63255,0.59116 -1.63255,1.28924 0,0.69809 2.48732,1.05837 5.52737,0.80063 7.57469,-0.6422 11.45115,1.0237 11.45115,4.9211 0,1.72563 0.91871,3.89998 2.04159,4.83188 1.85142,1.53654 1.85142,1.80079 0,2.83689 -1.13193,0.63346 -2.04159,2.8594 -2.04159,4.99576 0,4.463 -2.54327,5.30856 -2.75101,0.91463 -0.1272,-2.69016 -0.26005,-2.63175 -1.57148,0.69089 -0.83409,2.11323 -2.14007,3.35798 -3.12617,2.97958 -0.93149,-0.35744 -1.71219,-0.22756 -1.73489,0.28864 -0.1209,2.74929 -7.12924,8.55107 -10.83426,8.96904 -11.61784,1.3106 -12.63319,1.08505 -12.63319,-2.80634 0,-2.29546 -0.71107,-3.2651 -2.39441,-3.2651 -1.31692,0 -2.80136,-0.40696 -3.29876,-0.90435 -0.49739,-0.49739 -2.01554,-1.07393 -3.37367,-1.28119 -2.18331,-0.3332 -2.566,0.79265 -3.30401,9.72012 -1.39381,16.86037 -0.19779,15.97415 -21.5582,15.97415 h -18.31256 z m 52.24161,-22.89081 c 0,-1.19379 -0.91441,-1.59767 -2.61208,-1.15371 -1.43665,0.37569 -2.61208,1.20224 -2.61208,1.83679 0,0.63454 1.17543,1.15371 2.61208,1.15371 1.43664,0 2.61208,-0.82655 2.61208,-1.83679 z"
     id="path963" />
  <path
     style="fill:#030000;stroke:#fbffff;stroke-width:0;stroke-miterlimit:0"
     d="m 110.59798,421.15338 c 0.0433,-58.98802 0.0502,-59.13613 2.61208,-56.06099 1.41274,1.6958 2.61636,4.34053 2.6747,5.87718 0.0899,2.369 0.36528,2.20582 1.81046,-1.07299 1.50204,-3.40781 2.45203,-3.91566 8.00183,-4.27769 3.46359,-0.22595 8.04818,0.1995 10.18797,0.94544 2.62728,0.91588 4.32016,0.92661 5.2137,0.0331 2.80889,-2.80888 8.40581,-1.46457 10.80383,2.59494 2.74565,4.64801 3.2137,4.75294 5.42274,1.2157 1.67205,-2.67737 1.71355,-2.66955 4.47763,0.84442 2.50247,3.18137 2.8656,5.71393 3.52413,24.57859 0.62532,17.91326 -0.16247,84.81437 -0.95602,81.1865 -0.14787,-0.67604 -1.05916,-0.14835 -2.02509,1.17264 -1.66576,2.27806 -1.79812,2.24162 -2.5693,-0.70738 -0.61463,-2.35034 -1.18111,-2.74114 -2.32104,-1.60121 -0.82938,0.82938 -2.34616,1.18631 -3.37062,0.79319 -1.02446,-0.39312 -2.716,0.38745 -3.75897,1.73461 -1.84842,2.38752 -1.9471,2.38357 -3.90695,-0.15634 -1.57966,-2.04719 -2.24056,-2.23368 -3.08335,-0.87002 -0.83799,1.3559 -1.27075,1.21963 -1.97775,-0.62278 -0.74205,-1.93377 -1.10964,-2.02741 -2.04127,-0.52 -0.91279,1.47692 -1.52035,1.51969 -3.08941,0.21749 -1.59272,-1.32184 -2.20633,-1.18583 -3.32493,0.737 -0.75446,1.2969 -1.38962,1.62334 -1.41147,0.72544 -0.0517,-2.12472 -4.8476,-2.12472 -5.70495,0 -0.36231,0.8979 -0.70515,0.31019 -0.76185,-1.30604 -0.12776,-3.64116 -2.71536,-3.87309 -3.64281,-0.32651 -0.37569,1.43664 -1.20225,2.61208 -1.83679,2.61208 -0.63454,0 -1.15371,-1.17544 -1.15371,-2.61208 0,-1.43664 -0.58772,-2.61208 -1.30604,-2.61208 -0.71833,0 -1.30604,0.8609 -1.30604,1.91311 0,1.05221 -1.17544,2.54218 -2.61208,3.31105 -2.5945,1.38853 -2.61179,0.99981 -2.56863,-57.74633 z"
     id="path965" />
  <path
     style="fill:#030000;stroke:#fbffff;stroke-width:0;stroke-miterlimit:0"
     d="m 144.31762,298.99266 c 0.9815,-19.48583 4.71251,-21.20599 6.14963,-2.83525 1.432,18.30537 3.4528,12.28365 4.20552,-12.5319 0.36257,-11.95347 1.10986,-21.00445 1.66064,-20.11327 0.67331,1.08945 1.19593,0.58817 1.59514,-1.53 0.3647,-1.93502 0.66236,-0.99944 0.77161,2.42524 0.17203,5.39311 0.29538,5.54736 3.76947,4.71393 1.97538,-0.47391 3.74313,-0.97945 3.92832,-1.12346 0.18519,-0.144 0.62848,-36.35292 0.98508,-80.46426 0.91518,-113.208181 1.82316,-171.831529 2.78462,-179.7880059 0.64564,-5.3428908 1.333,-6.8567114 3.11338,-6.8567114 3.07424,0 3.64992,3.8855581 4.54725,30.6919463 0.92992,27.779795 1.94167,37.922525 3.32215,33.304027 0.53676,-1.795805 1.03452,50.105004 1.10612,115.335134 0.0864,78.70134 0.56956,118.32869 1.43623,117.79305 0.79774,-0.49303 1.30604,1.51015 1.30604,5.14708 v 5.95427 h -20.59551 -20.59552 z"
     id="path967" />
  <path
     style="fill:#030000;stroke:#fbffff;stroke-width:0;stroke-miterlimit:0"
     d="m 293.21761,300.2987 c -0.37019,-17.87661 0.62549,-23.3445 3.52807,-19.37497 0.90243,1.23413 2.13508,2.17481 2.73924,2.0904 0.60415,-0.0844 2.00068,5.01898 3.10339,11.34088 1.10271,6.3219 2.36257,10.90665 2.79967,10.18833 0.43711,-0.71833 1.22542,-8.27312 1.7518,-16.78844 0.52638,-8.51532 1.32354,-14.91224 1.77147,-14.21538 0.78359,1.21905 11.07022,6.84207 12.51675,6.84207 0.38778,0 0.77672,-1.91008 0.86431,-4.24463 0.21981,-5.85853 1.9452,7.00915 2.88953,21.54966 l 0.74218,11.42786 h -16.26193 -16.26193 z"
     id="path969" />
  <path
     style="fill:#030000;stroke:#fbffff;stroke-width:0;stroke-miterlimit:0"
     d="m 172.81418,416.97231 c -0.43658,-1.13772 -1.98767,-2.06857 -3.44685,-2.06857 -2.53653,0 -2.65879,-0.81757 -2.78326,-18.61108 -0.13792,-19.71729 -0.48645,-22.0071 -4.12593,-27.10737 -2.0586,-2.88487 -2.58907,-3.03666 -5.11011,-1.46224 -2.48566,1.55232 -3.05511,1.43589 -4.89281,-1.00041 -1.73753,-2.3035 -3.47553,-2.76126 -10.56237,-2.78197 -4.66544,-0.0136 -10.53963,-0.0371 -13.05376,-0.0522 -8.80323,-0.0528 -10.32464,0.12899 -11.06158,1.32138 -0.40849,0.66095 -2.21359,-0.26916 -4.01134,-2.06691 l -3.26864,-3.26863 0.35501,-24.4004 0.355,-24.40039 37.69952,-0.34679 37.69951,-0.34679 -0.53926,-8.46898 -0.53926,-8.46899 h 44.79377 44.79378 l 0.26731,-23.83523 0.26729,-23.83524 0.78882,23.50873 c 0.43386,12.9298 0.90129,23.65565 1.03874,23.83523 0.13746,0.17958 2.30693,0.32651 4.82106,0.32651 4.43773,0 4.57114,-0.1477 4.57114,-5.0609 0,-6.44505 1.34193,-13.22366 2.61781,-13.22366 0.54191,0 1.40733,7.88007 1.92316,17.51126 l 0.9379,17.51126 24.55212,0.44679 c 22.13475,0.40281 24.82871,0.69727 27.3613,2.99073 1.78488,1.61634 2.66761,3.75934 2.42087,5.87718 -0.33013,2.83372 -1.60454,3.7247 -8.50387,5.94533 -4.46354,1.43664 -8.87143,3.37338 -9.7953,4.30387 -1.04722,1.05471 -1.92566,6.71054 -2.33278,15.01946 l -0.65302,13.32768 -6.68806,0.38891 c -8.09274,0.4706 -8.28736,0.0564 -8.31358,-17.69395 l -0.0178,-12.08087 h -18.28457 -18.28456 v 15.67248 15.67249 h 9.7953 9.7953 V 345.03056 330.0111 h 7.83624 7.83625 v 14.28642 14.28642 l -6.2037,0.83577 c -8.4124,1.13333 -9.70026,1.70215 -4.24463,1.87479 6.65902,0.21071 9.3349,2.6901 8.32937,7.71774 -0.4508,2.254 -1.62775,4.09819 -2.61544,4.09819 -0.98769,0 -1.79581,0.58772 -1.79581,1.30604 0,0.72532 -3.62952,1.33132 -8.16275,1.36292 -9.39177,0.0654 -19.66596,1.80051 -20.20166,3.41156 -0.50839,1.52891 -13.69016,0.50101 -15.81399,-1.23315 -1.26925,-1.03638 -2.02442,-0.94132 -2.82608,0.3558 -0.68409,1.10688 -3.70544,1.80944 -8.06378,1.87508 -5.39696,0.0812 -7.63281,0.76811 -9.90782,3.04356 -1.6159,1.61623 -4.47018,2.93859 -6.34284,2.93859 -2.48994,0 -3.20283,0.52641 -2.65307,1.95906 0.56419,1.47026 -0.21561,1.95906 -3.12537,1.95906 -3.79973,0 -3.87713,0.13503 -3.87713,6.76399 0,9.86531 -2.27469,15.12478 -7.25178,16.76736 -3.49623,1.15386 -23.56448,2.97569 -30.92418,2.80736 -1.24292,-0.0285 -2.61761,0.52717 -3.05487,1.23466 -0.49912,0.80759 -1.51792,0.68639 -2.73734,-0.32563 -1.54392,-1.28134 -2.15251,-1.27189 -2.96707,0.0461 -0.78749,1.27419 -1.20853,1.17916 -1.81853,-0.41049 z m 8.83452,-4.64833 c 3.212,-1.2212 3.35012,-1.7058 3.35012,-11.75436 v -10.48065 h -8.48926 -8.48926 l 0.0178,8.16275 c 0.01,4.48952 0.37222,9.48512 0.80535,11.10135 0.82566,3.08096 4.37214,4.124 4.4407,1.30604 0.022,-0.90603 0.63214,-0.61542 1.37093,0.65302 1.53455,2.63466 2.39707,2.75945 6.99359,1.01185 z m -4.15961,-53.24092 -8.16275,-0.4637 v -14.2418 -14.2418 l 8.16275,-0.46369 8.16275,-0.4637 -8.81577,-0.25164 -8.81577,-0.25165 v 15.67248 15.67249 l 8.81577,-0.25165 8.81577,-0.25165 z m 79.34194,-14.7055 v -15.67248 h -8.48926 -8.48926 v 15.67248 15.67249 h 8.48926 8.48926 z"
     id="path971" />
  <path
     style="fill:#030000;stroke:#fbffff;stroke-width:0;stroke-miterlimit:0"
     d="m 334.84261,475.93113 c -1.24368,-1.53276 -2.26124,-3.5489 -2.26124,-4.48028 0,-0.93139 -0.70526,-1.69342 -1.56725,-1.69342 -1.21896,0 -1.21896,-0.34828 0,-1.56725 0.86199,-0.86199 1.56725,-3.44455 1.56725,-5.73901 0,-3.45593 -0.50425,-4.17159 -2.93859,-4.17066 -12.22424,0.005 -19.77363,-1.58295 -23.21764,-4.88252 -2.52346,-2.41763 -3.88239,-2.98223 -4.55571,-1.89278 -0.72792,1.17781 -1.21135,1.14512 -2.00278,-0.13544 -0.82757,-1.33904 -1.44257,-1.35659 -2.97484,-0.0849 -1.60387,1.33109 -2.14741,0.98446 -3.20362,-2.04304 l -1.27202,-3.64612 -0.95563,3.59162 c -1.12834,4.24071 -3.24109,4.6929 -4.23147,0.90566 -0.42313,-1.61806 -1.42482,-2.40873 -2.51943,-1.98868 -0.99938,0.38349 -2.94292,-0.42862 -4.31899,-1.80468 -1.61881,-1.61881 -3.79813,-2.33163 -6.17407,-2.01943 -2.01967,0.26539 -3.67212,0.5988 -3.67212,0.74092 0,1.04966 -8.03416,0.46623 -8.76656,-0.63661 -0.88649,-1.33488 -18.24094,-1.67471 -30.41465,-0.59558 -2.87329,0.2547 -7.01953,0.009 -9.21387,-0.54539 -3.11239,-0.78673 -4.66408,-0.4236 -7.05654,1.65137 -4.51195,3.91319 -5.09266,3.53929 -7.22825,-4.65407 -0.20596,-0.79021 -1.24482,-3.09785 -2.30857,-5.12808 l -1.93408,-3.69134 -1.53777,2.87335 c -1.31501,2.45712 -1.80153,2.60959 -3.35858,1.05255 -1.23847,-1.23847 -1.74062,-4.4855 -1.57009,-10.15265 l 0.2507,-8.33184 4.32995,-0.41562 c 2.38147,-0.2286 5.21792,0.32133 6.30323,1.22206 1.36952,1.13659 2.24254,1.20877 2.85327,0.23589 1.80955,-2.88252 11.21069,-5.61347 19.32406,-5.61347 h 8.32976 v -11.10134 c 0,-10.97074 -0.0384,-11.10135 -3.2651,-11.10135 -4.07714,0 -4.27998,-2.07419 -0.30052,-3.07297 1.63052,-0.40923 4.32858,-2.01482 5.99568,-3.56796 2.50183,-2.33081 4.02674,-2.68744 8.73296,-2.04238 3.50796,0.48082 6.0378,0.23796 6.57496,-0.63118 0.59018,-0.95494 1.14232,-0.97709 1.70393,-0.0684 0.5076,0.8213 2.6036,0.96442 5.38742,0.36785 2.58235,-0.5534 5.8703,-0.40028 7.5887,0.3534 2.26624,0.99397 3.30453,0.88911 4.11059,-0.41512 1.23428,-1.9971 10.63836,-3.79182 20.46595,-3.90581 8.25638,-0.0958 12.01489,-2.83705 13.08919,-9.54664 0.63693,-3.97798 0.38423,-4.89765 -1.34576,-4.89765 -1.17147,0 -2.12995,-0.56395 -2.12995,-1.25322 0,-0.68927 4.84868,-1.42392 10.77484,-1.63255 l 10.77483,-0.37933 0.24406,-8.48927 c 0.13425,-4.66909 0.28118,-10.92234 0.32651,-13.8961 0.0772,-5.05987 0.43865,-5.57144 5.63312,-7.97181 3.05287,-1.41073 7.46076,-2.93005 9.7953,-3.37628 l 4.24463,-0.81131 -0.02,74.73816 c -0.0104,41.10598 -0.53941,75.55843 -1.17423,76.56102 -0.68042,1.07457 -2.08049,1.46742 -3.41064,0.95698 -1.24102,-0.47622 -2.92751,-0.30889 -3.74776,0.37185 -0.99861,0.82877 -2.23845,0.31695 -3.75258,-1.54914 z m -31.50615,-64.619 c 1.05958,-1.39583 1.75116,-1.65004 1.77653,-0.65302 0.0228,0.8979 0.92311,1.63255 2.00059,1.63255 1.58774,0 1.95907,-2.10418 1.95907,-11.10134 v -11.10135 h -8.48927 -8.48926 l 0.0178,8.16275 c 0.01,4.48952 0.37221,9.48512 0.80534,11.10135 0.82567,3.08096 4.37215,4.124 4.4407,1.30604 0.0221,-0.90603 0.63214,-0.61542 1.37094,0.65302 0.73217,1.25706 1.67802,2.28557 2.10187,2.28557 0.42386,0 1.5514,-1.02851 2.50565,-2.28557 z"
     id="path973" />
  <path
     style="fill:#030000;stroke:#fbffff;stroke-width:0;stroke-miterlimit:0"
     d="m 167.45672,628.11481 c -0.49374,-11.31357 -1.10656,-28.50433 -1.36182,-38.20168 -0.53307,-20.25117 -1.34274,-30.54269 -2.55754,-32.50829 -1.08058,-1.74841 -9.06888,-1.13862 -11.49844,0.87772 -1.41185,1.17174 -2.21496,1.15745 -3.43348,-0.061 -1.12383,-1.12383 -1.86203,-1.17372 -2.5157,-0.17002 -0.50883,0.78129 -2.54137,1.81609 -4.51676,2.29953 -1.97539,0.48345 -3.59161,1.31592 -3.59161,1.84992 0,1.20303 -12.06025,1.05764 -14.04553,-0.16933 -0.79555,-0.49169 -1.81562,-0.29666 -2.26681,0.43338 -0.45119,0.72997 -1.70192,1.32728 -2.7794,1.32728 -1.21965,0 -1.58888,-0.61618 -0.97826,-1.63255 0.66644,-1.1093 0.27254,-1.05804 -1.22896,0.15991 -1.67376,1.35769 -2.20976,1.3981 -2.20976,0.1666 0,-1.29715 -0.39611,-1.29715 -1.95907,0 -1.73422,1.43928 -1.95906,-3.02079 -1.95906,-38.86137 0,-32.27695 0.35543,-40.78223 1.75272,-41.94188 0.964,-0.80004 2.13943,-1.06791 2.61208,-0.59526 0.47265,0.47265 0.85937,0.0561 0.85937,-0.92556 0,-1.38828 0.34827,-1.43665 1.56724,-0.21768 2.29481,2.29481 3.59415,1.93281 4.92226,-1.37134 0.90498,-2.25148 1.20052,-2.40417 1.26395,-0.65302 0.0853,2.35566 4.00091,3.3143 4.00091,0.97953 0,-0.71832 0.91626,-1.30604 2.03614,-1.30604 1.11987,0 1.67291,0.58772 1.22896,1.30604 -0.44395,0.71832 0.10908,1.30604 1.22896,1.30604 1.11988,0 2.03614,-0.65968 2.03614,-1.46596 0,-0.95299 0.75982,-0.83874 2.17145,0.32651 1.67299,1.38101 2.2961,1.42217 2.71445,0.17932 0.4165,-1.23735 1.41681,-1.16129 4.29389,0.32651 4.84759,2.50678 7.38151,2.45326 8.85914,-0.18712 0.85216,-1.52272 1.46004,-1.69018 2.14023,-0.5896 0.72615,1.17494 1.38429,1.17678 2.79282,0.008 1.45757,-1.20972 1.84278,-1.08647 1.84278,0.58956 0,2.87459 3.89131,2.71338 4.02123,-0.16659 0.0616,-1.36538 0.36833,-1.62829 0.76186,-0.65302 2.10607,5.21938 3.02556,-0.55127 2.91347,-18.28456 -0.20432,-32.32238 1.87005,-49.9937 4.93193,-42.01458 0.47511,1.23813 1.76493,1.8099 3.22281,1.42866 1.33687,-0.3496 2.81482,-0.0141 3.28435,0.74564 0.54192,0.87686 1.4505,0.56507 2.488,-0.85378 1.09806,-1.50169 1.92788,-1.76007 2.52899,-0.78746 0.55577,0.89925 1.46906,0.99629 2.41095,0.25618 0.83396,-0.65529 3.37397,-1.17359 5.64449,-1.15179 3.81286,0.0366 4.16412,0.41623 4.59833,4.96932 0.25856,2.71132 0.0869,6.36267 -0.38153,8.11411 -1.24372,4.65044 5.39174,10.04232 7.11921,5.78497 0.87139,-2.14755 3.69728,1.59771 2.88426,3.82263 -0.30892,0.84539 0.28497,2.23972 1.31976,3.09851 2.4698,2.04976 2.3736,4.25844 -0.40981,9.4091 -1.90008,3.51608 -3.18211,4.31762 -7.50973,4.69518 -2.87017,0.2504 -5.95315,1.05701 -6.85105,1.79246 -0.8979,0.73546 -1.65124,0.82444 -1.67409,0.19775 -0.0228,-0.6267 -0.92762,0.0331 -2.01062,1.46627 -1.59113,2.10555 -2.18264,2.26019 -3.08161,0.80564 -0.80937,-1.3096 -1.35385,-0.70123 -1.99826,2.23273 -0.50917,2.31826 -1.95768,4.37302 -3.40706,4.83304 -2.53886,0.8058 -3.0914,3.53212 -1.44999,7.15441 1.07166,2.36495 2.09374,2.66404 14.60116,4.27278 11.27509,1.45023 13.04919,1.54452 15.49899,0.82372 0.98207,-0.28895 1.96392,0.5396 2.1819,1.84121 0.322,1.92275 -0.2578,2.23871 -3.09161,1.68479 -2.76636,-0.54075 -4.13113,0.13574 -6.59702,3.27001 -2.60206,3.30736 -2.8764,4.46249 -1.68226,7.08333 1.30993,2.875 1.08318,3.22519 -2.7681,4.27501 -2.30721,0.62892 -6.40696,0.87898 -9.11056,0.55569 -2.7036,-0.32328 -5.7368,0.0937 -6.74044,0.92666 -1.3117,1.08862 -2.0738,1.11155 -2.71036,0.0816 -0.63891,-1.03378 -1.38291,-1.02013 -2.67115,0.049 -0.98206,0.81504 -2.33083,1.14491 -2.99725,0.73304 -1.98482,-1.22669 -4.79929,6.90422 -3.00941,8.69409 0.82202,0.82203 1.49722,3.87485 1.50044,6.78405 0.006,5.18911 0.0982,5.2943 4.87373,5.54422 2.67734,0.14011 5.07455,0.87476 5.32715,1.63255 0.25259,0.75779 1.49463,1.3778 2.76009,1.3778 3.27709,0 6.62378,4.17622 6.62378,8.26559 0,1.91883 0.58772,3.48877 1.30604,3.48877 0.71832,0 1.30604,-1.17543 1.30604,-2.61208 0,-2.89325 2.01057,-3.53387 3.07422,-0.97953 0.49468,1.18797 1.18594,1.01014 2.53839,-0.65302 1.02221,-1.25706 2.77331,-2.28557 3.89133,-2.28557 1.11801,0 2.26334,-0.69177 2.54518,-1.53727 0.96754,-2.90263 3.62336,0.38668 3.62336,4.48764 0,4.66615 2.06168,3.51969 2.95699,-1.64433 0.52347,-3.01925 0.64535,-2.9309 1.61868,1.17348 l 1.05258,4.43857 2.08353,-4.40388 c 2.94271,-6.21992 7.8078,-6.15432 9.94975,0.13415 l 1.54465,4.53486 1.05442,-4.57114 1.05441,-4.57114 1.27082,4.57114 1.27082,4.57114 1.78885,-4.24463 c 1.00683,-2.38905 2.74582,-4.24463 3.97794,-4.24463 4.42762,0 10.70277,3.14614 11.52775,5.77961 0.75453,2.40852 0.98241,2.25442 2.05042,-1.38658 0.93523,-3.18834 2.0702,-4.22372 5.12077,-4.67145 3.2772,-0.48099 3.92251,-0.13089 3.93923,2.13717 0.011,1.49182 0.58972,3.59397 1.28605,4.67145 1.09106,1.6883 1.2688,1.65383 1.28604,-0.24943 0.0346,-3.82453 2.24984,-3.87225 13.72146,-0.29558 8.83051,2.75321 10.86842,3.83754 9.74849,5.18697 -1.83214,2.20759 2.95689,5.00008 6.5948,3.84546 1.93482,-0.61409 2.71366,-0.0249 3.35736,2.53973 0.67286,2.68089 1.63422,3.3393 4.87585,3.3393 3.14046,0 3.68946,0.34828 2.47049,1.56724 -0.86198,0.86199 -1.56725,3.50672 -1.56725,5.87719 0,4.99436 -1.00211,5.29924 -5.58054,1.69785 -3.99747,-3.14442 -5.63637,-3.28437 -6.67788,-0.57025 -0.43095,1.12302 -1.3754,1.67605 -2.0988,1.22898 -0.78578,-0.48566 -1.31526,0.99865 -1.31526,3.68709 0,3.9933 -0.43759,4.56422 -3.88624,5.07038 -2.13744,0.31369 -4.07669,-9.6e-4 -4.30945,-0.69925 -0.63497,-1.90492 -10.08887,0.23499 -10.08887,2.28366 0,0.95697 -0.82162,2.42184 -1.82581,3.25524 -2.45514,2.03759 -7.31647,2.8897 -7.31647,1.28246 0,-0.76007 -1.82535,-0.94779 -4.4423,-0.45685 -10.53842,1.97702 -12.36831,1.64575 -13.81378,-2.50075 l -1.35574,-3.88908 -4.30283,4.8365 c -2.36655,2.66008 -4.76162,4.37771 -5.32239,3.81694 -1.76516,-1.76516 -3.99814,-1.18793 -6.01591,1.55513 -1.0719,1.4572 -1.82615,3.03145 -1.6761,3.49834 0.15005,0.46688 -1.19767,1.21794 -2.99493,1.66902 -1.80977,0.45423 -3.81542,2.26067 -4.49526,4.04878 -0.67514,1.77575 -2.05168,3.22862 -3.05899,3.22862 -3.34379,0 -4.42064,3.07152 -3.43413,9.79531 0.7736,5.2727 1.14445,5.96433 1.92581,3.59161 1.18558,-3.60021 3.27514,-3.86468 3.27514,-0.41453 0,1.45289 1.21838,2.91077 2.87094,3.43528 l 2.87094,0.9112 -3.03295,2.45594 c -2.08082,1.68494 -3.24042,4.29656 -3.69382,8.31909 -0.36347,3.22473 -1.17215,5.86315 -1.79705,5.86315 -0.6249,0 -1.13619,0.94529 -1.13619,2.10065 0,1.58852 -0.796,1.90086 -3.2651,1.28116 -1.97043,-0.49456 -3.2651,-0.2612 -3.2651,0.5885 0,0.77441 -0.67293,0.99212 -1.4954,0.4838 -1.55142,-0.95883 -1.12553,3.01081 0.81985,7.64157 0.74225,1.76684 0.48023,2.11383 -1.12968,1.49605 -1.42076,-0.5452 -2.49288,0.1864 -3.32773,2.27076 -0.85593,2.13701 -1.25692,2.40137 -1.31445,0.86661 -0.11299,-3.01417 -2.72882,-4.41083 -4.12693,-2.20348 -0.90163,1.42351 -1.1442,1.32195 -1.16002,-0.48569 -0.0146,-1.66437 -1.08489,-2.28557 -3.93812,-2.28557 -2.47834,0 -3.91812,0.66855 -3.91812,1.81933 0,1.89763 -3.50406,3.98077 -6.04052,3.59104 -0.80816,-0.12421 -2.43793,1.25242 -3.62172,3.05911 -4.63791,7.07835 -5.62369,4.48634 -6.57382,-17.28525 z"
     id="path975" />
  <path
     style="fill:#030000;stroke:#fbffff;stroke-width:0;stroke-miterlimit:0"
     d="m 236.58741,490.4186 c -1.37758,-3.19559 -7.18322,-5.02623 -7.18322,-2.26502 0,1.05134 -0.82599,0.85178 -2.4108,-0.58245 -1.32594,-1.19996 -3.52989,-2.07951 -4.89765,-1.95455 -7.36047,0.67245 -9.45693,-0.16117 -10.32309,-4.10479 -0.81805,-3.72455 -3.26511,-5.56099 -3.26511,-2.45035 0,1.01018 -2.34121,1.21494 -7.50973,0.6568 -4.13035,-0.44604 -9.68429,-0.98885 -12.34208,-1.20626 -4.5199,-0.36972 -10.18711,-3.88562 -10.18711,-6.32001 0,-0.5933 1.46929,-1.4475 3.2651,-1.89822 1.7958,-0.45072 3.2651,-1.38548 3.2651,-2.07724 0,-3.74104 9.00914,-8.98841 15.90414,-9.26336 4.19496,-0.16729 5.12917,-0.81209 6.97787,-4.81625 2.80708,-6.07992 9.37116,-10.29796 14.78833,-9.50289 2.26762,0.33282 4.12295,1.16082 4.12295,1.84001 0,0.67918 0.72431,0.78723 1.60959,0.2401 2.15265,-1.33041 5.0317,-1.77756 16.92315,-2.62837 7.67778,-0.54933 11.0222,-0.23035 14.19857,1.35424 2.2853,1.14005 4.63081,1.77882 5.21225,1.41947 0.58143,-0.35935 1.44395,-0.0275 1.91669,0.7374 0.53202,0.86081 1.43732,0.93572 2.37582,0.19657 2.99986,-2.36264 8.79073,-2.57281 10.97083,-0.39818 1.16814,1.16521 2.87774,2.1253 3.79913,2.13354 0.92139,0.008 2.5136,1.16149 3.53825,2.56278 1.53579,2.10032 2.21147,2.25859 3.84711,0.90113 1.40703,-1.16774 2.24168,-1.22992 2.86968,-0.21379 0.64264,1.03981 1.35919,1.03981 2.61208,0 1.24372,-1.0322 1.97238,-1.03507 2.60572,-0.0103 0.48357,0.78243 1.96156,1.07906 3.28444,0.6592 1.38149,-0.43847 2.86342,0.0137 3.4817,1.06225 1.66147,2.81779 6.77627,5.05137 9.55085,4.17075 1.37419,-0.43615 5.02523,-0.071 8.11341,0.81139 3.0882,0.88241 6.05568,1.50057 6.59442,1.37367 1.46735,-0.34563 1.1813,6.02062 -0.31199,6.94353 -0.79771,0.49301 -0.53669,1.95022 0.68264,3.81117 3.40049,5.1898 -0.92039,9.95392 -7.21567,7.95587 -1.43022,-0.45393 -3.3235,-0.37843 -4.20729,0.16778 -0.88379,0.54621 -3.53378,0.9542 -5.88886,0.90664 -2.62468,-0.053 -4.28198,0.55215 -4.28198,1.56354 0,2.44218 -3.78956,3.67783 -10.77484,3.51331 -3.41203,-0.0804 -6.20369,0.41198 -6.20369,1.09409 0,0.68211 -1.76315,1.24019 -3.91812,1.24019 -2.15497,0 -3.91812,0.58772 -3.91812,1.30604 0,0.71833 -0.58772,1.30604 -1.30604,1.30604 -0.71832,0 -1.30604,-0.88157 -1.30604,-1.95906 0,-1.07748 -0.65626,-1.95906 -1.45837,-1.95906 -0.83649,0 -1.15385,1.16445 -0.74425,2.73077 0.62408,2.38649 0.28842,2.62393 -2.66238,1.88332 -2.15961,-0.54202 -3.77416,-0.23178 -4.47991,0.86085 -0.90097,1.39486 -1.31624,1.37806 -2.26343,-0.0916 -0.67359,-1.04513 -1.852,-1.37221 -2.81021,-0.78 -0.98597,0.60936 -2.28195,0.15591 -3.21971,-1.12656 -1.43792,-1.96648 -1.76642,-1.92884 -3.91823,0.44888 -1.79161,1.97971 -2.76639,2.24868 -4.10954,1.13397 -0.96845,-0.80374 -1.76082,-1.02356 -1.76082,-0.48849 0,0.53507 -0.94517,0.18843 -2.10039,-0.77031 -1.7788,-1.47628 -2.3595,-1.38882 -3.79274,0.57126 -1.0121,1.38413 -2.02204,1.78097 -2.51257,0.98727 -0.45113,-0.72994 -1.68299,-0.99609 -2.73746,-0.59144 -1.19546,0.45874 -1.91724,-0.0544 -1.91724,-1.36308 0,-3.06782 -2.35805,-2.56741 -2.84775,0.60432 -0.40111,2.59793 -0.46817,2.58523 -1.72339,-0.32651 z"
     id="path977" />
  <path
     style="fill:#030000;stroke:#fbffff;stroke-width:0;stroke-miterlimit:0"
     d="m 232.09905,531.54491 c -0.11912,-4.11757 -2.50836,-5.00964 -3.92916,-1.46702 -0.87664,2.18578 -1.23513,2.4025 -1.295,0.78287 -0.1693,-4.58019 -8.50813,-5.35533 -11.17586,-1.03885 -0.62183,1.00615 -1.48231,0.72358 -2.70419,-0.888 -1.15827,-1.52769 -1.80683,-1.76011 -1.83368,-0.65712 -0.0319,1.31083 -0.7147,1.23511 -2.94422,-0.32651 -3.78292,-2.64966 -4.93356,-2.5654 -4.93356,0.36129 0,1.31692 -0.73464,2.42235 -1.63255,2.45652 -0.8979,0.0342 -2.66105,0.48885 -3.91812,1.01042 -1.41215,0.58592 -2.28557,0.36637 -2.28557,-0.57453 0,-0.83757 -0.61131,-1.14505 -1.35847,-0.68328 -0.74715,0.46177 -2.58107,-0.7147 -4.07536,-2.61439 -1.49429,-1.89969 -3.44129,-3.176 -4.32666,-2.83625 -0.88536,0.33975 -2.56359,-0.49628 -3.72939,-1.85783 -1.43192,-1.67235 -3.39056,-2.32757 -6.0368,-2.01946 -2.95411,0.34395 -4.11222,-0.15847 -4.71053,-2.04358 -0.43635,-1.37481 -0.076,-3.36406 0.80083,-4.42054 1.26983,-1.53005 1.19066,-2.38095 -0.38909,-4.18196 -1.32229,-1.50749 -1.6306,-3.13164 -0.92507,-4.87315 0.58202,-1.43665 1.09953,-2.15062 1.15002,-1.5866 0.0505,0.56401 1.1772,0.44459 2.5038,-0.26538 2.90885,-1.55677 5.50011,0.47394 4.64946,3.64367 -0.31386,1.16954 0.24276,0.41117 1.23694,-1.68525 1.95288,-4.11806 6.55101,-5.6805 9.50424,-3.22954 1.34759,1.1184 2.30185,1.05738 3.8744,-0.24772 1.14754,-0.95237 3.3158,-1.9192 4.81835,-2.14851 3.86516,-0.58986 4.32636,-1.41651 2.45875,-4.40702 -1.40534,-2.25032 -1.18633,-3.1622 1.53674,-6.39838 1.74661,-2.07574 3.51327,-3.43645 3.9259,-3.02382 0.41264,0.41264 4.46515,0.87919 9.00559,1.03678 4.54044,0.1576 9.55766,0.98351 11.14937,1.83537 1.60073,0.85668 2.89403,0.9963 2.89403,0.31241 0,-1.77965 3.40008,-1.02224 6.14103,1.368 1.29153,1.12627 3.08288,1.78161 3.98078,1.45633 0.8979,-0.32529 1.63255,-0.0442 1.63255,0.62468 0,2.21897 7.57396,1.56887 8.45446,-0.72567 0.53547,-1.39543 1.14982,-1.65661 1.73761,-0.73871 1.62657,2.54005 6.72756,3.44514 7.53644,1.33721 0.97219,-2.53348 8.42394,-1.49146 10.7533,1.5037 1.59147,2.04635 1.79999,2.03375 3.05686,-0.18479 1.27982,-2.25904 1.47658,-2.26539 3.84269,-0.12409 2.3714,2.14609 2.49479,2.13474 2.51381,-0.23113 0.0168,-2.08787 0.22557,-2.17293 1.29829,-0.52893 0.93279,1.42956 0.62031,2.41288 -1.15615,3.63811 -2.14075,1.47649 -2.2478,2.22198 -0.88733,6.17931 1.93949,5.6416 3.33727,7.12335 3.33727,3.53774 0,-1.51397 0.58772,-3.11591 1.30604,-3.55985 0.71832,-0.44395 1.30604,0.10908 1.30604,1.22896 0,1.11987 0.92061,2.03614 2.04581,2.03614 1.46129,0 1.92774,1.02619 1.63255,3.59161 -0.38243,3.32365 -0.8284,3.57875 -5.97774,3.41926 -4.79791,-0.1486 -5.66904,0.24425 -6.32345,2.85165 -0.47915,1.90907 -1.43711,2.76376 -2.59827,2.31818 -1.01162,-0.38819 -1.8393,-0.0156 -1.8393,0.82798 0,0.93944 -1.01219,1.21253 -2.61208,0.70474 -1.95683,-0.62107 -2.61391,-0.23362 -2.61937,1.54454 -0.0149,4.86881 -2.81165,12.64136 -3.90946,10.86507 -0.58616,-0.94843 -0.75595,-2.53173 -0.37731,-3.51845 0.52779,-1.37539 -0.56665,-1.7078 -4.69006,-1.42447 -3.4755,0.2388 -5.37918,0.99661 -5.38041,2.14183 -0.001,1.15431 -0.79888,1.46352 -2.28749,0.88679 -1.25706,-0.48702 -5.06636,-1.2182 -8.46511,-1.62483 -5.62608,-0.67312 -6.29126,-0.46011 -7.42694,2.37831 -1.21308,3.03184 -1.24969,3.03889 -1.3302,0.25614 z"
     id="path979" />
  <path
     style="fill:#030000;stroke:#fbffff;stroke-width:0;stroke-miterlimit:0"
     d="m 340.86364,600.52755 c 0.47878,-4.93212 -0.76509,-9.3203 -4.10865,-14.49471 -0.21864,-0.33836 -0.9533,0.24936 -1.63259,1.30604 -1.01154,1.57353 -1.3808,1.38942 -2.04037,-1.01736 -0.44292,-1.61622 -1.61834,-2.93859 -2.61204,-2.93859 -2.41384,0 -2.30815,-2.14021 0.15232,-3.08438 1.26465,-0.48529 1.95906,-2.50668 1.95906,-5.70275 0,-5.93179 -2.47726,-7.88769 -11.4564,-9.0453 -3.51326,-0.45294 -7.47152,-1.97395 -9.18252,-3.52849 -2.13018,-1.93539 -3.28308,-2.28628 -3.95259,-1.20299 -0.51987,0.84116 -1.56029,1.11962 -2.31205,0.6188 -2.44565,-1.6293 -3.02654,-5.25221 -1.09867,-6.8522 2.51438,-2.08675 2.37293,-3.75625 -0.40415,-4.77001 -3.37039,-1.23035 -8.18581,-5.15547 -7.35011,-5.99118 0.39823,-0.39823 -0.75396,-0.56181 -2.56042,-0.36351 -4.02039,0.44133 -6.74084,-1.06514 -5.51252,-3.0526 0.50083,-0.81035 1.4577,-1.13523 2.12639,-0.72196 0.66868,0.41327 1.21579,0.14924 1.21579,-0.58673 0,-0.73598 -2.9274,-1.72647 -6.50533,-2.2011 -3.57793,-0.47463 -6.20696,-1.34573 -5.84229,-1.93577 0.36466,-0.59005 -0.51575,-0.8458 -1.95647,-0.56835 -1.44073,0.27746 -2.96041,-0.0471 -3.37707,-0.72129 -0.41666,-0.67416 -1.82635,-1.22576 -3.13264,-1.22576 -1.3063,0 -2.96594,-0.73465 -3.6881,-1.63255 -1.56939,-1.95131 -0.53029,-10.41034 1.15114,-9.37116 2.17047,1.34142 6.36908,-0.90476 8.28429,-4.43195 l 1.90149,-3.50192 0.0523,3.59161 c 0.0288,1.97538 0.64001,3.59161 1.35833,3.59161 0.71832,0 1.30604,-1.14075 1.30604,-2.535 0,-2.94216 2.14311,-4.7491 2.90867,-2.45242 0.33621,1.00864 1.53536,0.54339 3.39654,-1.31779 2.08047,-2.08048 2.65138,-3.7752 2.06236,-6.12206 -0.44798,-1.78487 -1.56382,-3.24521 -2.47965,-3.24521 -0.91583,0 -1.97253,-1.17544 -2.34822,-2.61208 -0.84235,-3.22116 -3.1561,-3.41513 -3.89484,-0.32651 -0.50503,2.11151 -0.62715,2.0992 -1.60357,-0.16168 -0.72527,-1.67934 -0.43262,-2.79662 0.93265,-3.56066 1.09426,-0.61238 2.72565,-2.8905 3.62532,-5.06249 1.26865,-3.0628 2.4551,-3.94907 5.28659,-3.94907 2.00796,0 3.8981,-0.73464 4.20031,-1.63255 0.43834,-1.30239 0.95356,-1.29914 2.54763,0.0161 1.62035,1.33693 2.28695,1.30068 3.52551,-0.19168 0.84004,-1.01219 2.62683,-1.55282 3.97066,-1.2014 1.44992,0.37916 3.62795,-0.5457 5.35703,-2.27478 2.46439,-2.46439 4.30052,-2.90505 11.90642,-2.85743 6.48091,0.0406 9.56425,-0.51526 11.03897,-1.98998 1.74016,-1.74016 2.21797,-1.77036 3.19394,-0.20191 0.94042,1.51129 1.62658,1.54754 3.7996,0.20074 1.74483,-1.08141 2.65193,-1.16299 2.65193,-0.2385 0,0.81078 1.10488,1.05445 2.61208,0.57608 2.58588,-0.82072 2.61208,-0.23469 2.61208,58.42259 0,45.59257 -0.37634,59.6571 -1.63255,61.01049 -1.30604,1.40708 -1.30604,1.57451 0,0.83715 1.01316,-0.572 1.63255,-0.11994 1.63255,1.19152 0,1.16412 -0.6256,1.72657 -1.39293,1.25233 -0.76612,-0.47348 -2.2598,0.22648 -3.31929,1.55547 -1.75835,2.20563 -1.878,1.9183 -1.37195,-3.29473 z"
     id="path981" />
  <path
     style="fill:#030000;stroke:#fbffff;stroke-width:0;stroke-miterlimit:0"
     d="m 277.3957,623.98481 c -0.89489,-0.29611 -2.22562,-1.3502 -2.95717,-2.34242 -0.73155,-0.99221 -2.87378,-1.96861 -4.76051,-2.16977 -3.57527,-0.38119 -7.62282,-3.54448 -7.62282,-5.95747 0,-2.55064 -2.42005,-1.4491 -3.38169,1.53926 -0.92821,2.88445 -0.96793,2.87242 -2.15591,-0.65302 -1.17179,-3.47739 -4.91073,-5.09582 -4.91073,-2.12565 0,1.05395 -0.51791,1.03613 -1.84278,-0.0634 -1.28146,-1.06352 -2.10461,-1.10574 -2.70233,-0.13862 -0.47275,0.76492 -1.53805,0.97143 -2.36733,0.4589 -1.74508,-1.07852 -14.81989,-0.86163 -16.66123,0.27638 -0.6826,0.42187 -1.24109,0.0761 -1.24109,-0.76841 0,-0.89244 -1.09387,-1.24939 -2.61208,-0.85237 -1.43665,0.37569 -2.61208,0.17867 -2.61208,-0.43782 0,-0.6165 -2.05174,-3.11353 -4.55943,-5.54896 -2.50768,-2.43543 -4.1239,-4.90823 -3.59161,-5.49512 0.5323,-0.58689 -0.0607,-0.69801 -1.31775,-0.24694 -1.73916,0.62405 -2.28079,0.12738 -2.26558,-2.07748 0.025,-3.61993 1.362,-5.50969 3.89813,-5.50969 1.07748,0 1.95906,-0.88157 1.95906,-1.95906 0,-2.91107 4.19783,-5.51866 7.29944,-4.53425 2.10494,0.66808 2.64509,0.32632 2.44798,-1.54889 -0.6593,-6.27226 -0.16471,-7.01812 3.53577,-5.33207 2.6686,1.21589 3.60878,1.22655 4.0025,0.0454 0.28304,-0.8491 1.28571,-1.24792 2.22815,-0.88627 1.05724,0.4057 2.05815,-0.71545 2.61326,-2.92719 l 0.89971,-3.58474 1.56414,3.13734 c 1.30789,2.62337 2.63112,3.17654 8.07719,3.37657 3.58219,0.13158 7.24771,-0.36182 8.14561,-1.09645 1.12973,-0.9243 1.63255,-0.88418 1.63255,0.13026 0,2.06244 7.21272,1.83189 8.97104,-0.28676 0.80004,-0.96399 1.06791,-2.13943 0.59526,-2.61208 -0.47265,-0.47265 -0.17369,-0.85936 0.66435,-0.85936 0.83805,0 1.52372,-0.79342 1.52372,-1.76315 0,-1.1453 1.48743,-1.71739 4.24463,-1.63255 3.71513,0.11431 4.2979,0.61937 4.67163,4.04872 0.65453,6.00581 2.8381,7.21162 2.8381,1.56725 0,-2.65779 0.58772,-4.83235 1.30604,-4.83235 0.71832,0 1.30604,2.17456 1.30604,4.83235 0,7.11262 2.41154,3.68295 2.87865,-4.09398 0.46516,-7.74459 4.20427,-12.9878 7.86491,-11.02869 1.27426,0.68197 2.31684,2.10084 2.31684,3.15305 0,1.16996 1.26834,1.91311 3.2651,1.91311 1.79581,0 3.2651,-0.6506 3.2651,-1.44577 0,-0.79518 0.86276,-1.1147 1.91724,-0.71006 1.05448,0.40464 2.2609,0.17964 2.68095,-0.50001 0.42004,-0.67964 1.9784,-0.10406 3.46301,1.27907 1.74232,1.62321 4.49409,2.49001 7.76177,2.44491 9.68889,-0.13372 15.01779,7.36123 9.53856,13.41571 -1.89349,2.0923 -1.83917,2.50831 0.65302,5.00049 1.49509,1.49509 2.71834,3.59992 2.71834,4.6774 0,1.07749 0.58772,1.95906 1.30604,1.95906 0.71832,0 1.30604,-0.58771 1.30604,-1.30604 0,-2.59449 2.01044,-1.22471 3.6548,2.49014 0.92418,2.08789 1.32892,5.19635 0.8994,6.90769 -0.42952,1.71133 -0.21239,4.60693 0.48252,6.43466 0.69489,1.82772 0.87442,3.91823 0.39894,4.64557 -1.43022,2.18778 -7.75494,3.23512 -8.42942,1.39587 -0.45973,-1.25366 -0.97602,-1.27476 -2.23475,-0.0914 -1.25642,1.18123 -2.21435,1.18123 -4.12123,0 -1.94374,-1.20408 -2.71484,-1.16871 -3.54369,0.16254 -0.58265,0.93582 -1.59322,1.57716 -2.24572,1.42521 -2.19414,-0.51099 -5.75749,1.70732 -5.75749,3.58422 0,1.02318 -1.02851,2.22507 -2.28557,2.67087 -1.25707,0.4458 -3.24831,1.63435 -4.42498,2.64123 -1.47836,1.26503 -6.22176,1.90991 -15.35144,2.08706 -7.26662,0.141 -13.94422,0.0141 -14.83912,-0.28203 z"
     id="path983" />
  <path
     style="fill:#030000;stroke:#fbffff;stroke-width:0;stroke-miterlimit:0"
     d="m 239.85013,667.29602 0.002,-15.99899 H 221.56757 203.283 l -0.02,13.38691 c -0.0213,14.27859 -0.72475,16.80224 -4.66865,16.74952 -1.37201,-0.0183 -8.22482,-0.0705 -15.22846,-0.1159 l -12.73389,-0.0825 v -3.94473 c 0,-2.29725 -0.54546,-3.60762 -1.30604,-3.13756 -0.83591,0.51662 -1.30604,-3.68688 -1.30604,-11.67728 0,-11.43267 0.21088,-12.48446 2.50314,-12.48446 1.37674,0 3.70899,-1.61623 5.18279,-3.59161 l 2.67964,-3.59162 0.14745,3.26511 0.14745,3.2651 1.60447,-3.62245 c 0.88246,-1.99235 2.03347,-3.19345 2.55781,-2.66912 0.52433,0.52434 1.29243,-0.34337 1.70688,-1.92822 0.44054,-1.68464 1.77525,-2.88156 3.2133,-2.88156 1.99902,0 2.45975,0.97854 2.45975,5.22417 0,2.87328 0.58772,5.22416 1.30604,5.22416 0.71832,0 1.30604,-1.43461 1.30604,-3.18803 0,-1.75341 0.58772,-3.55125 1.30604,-3.9952 0.73168,-0.4522 1.30604,0.5669 1.30604,2.31733 0,4.97219 1.67814,5.30947 3.25237,0.65368 0.79539,-2.35238 2.01938,-4.17437 2.71998,-4.04888 0.7006,0.12548 2.72895,-0.88995 4.50745,-2.25653 3.18362,-2.44627 3.18938,-2.48514 0.37211,-2.51374 -3.09606,-0.0314 -5.5794,-2.54128 -2.76623,-2.79578 0.94029,-0.0851 2.15041,-0.0851 2.68915,0 0.53875,0.0851 1.02084,-0.57998 1.07133,-1.47789 0.0505,-0.8979 0.58841,-0.45711 1.19539,0.97953 0.97609,2.31031 1.21067,2.12171 2.03052,-1.63255 0.50981,-2.33454 1.44118,-4.24463 2.06971,-4.24463 0.62853,0 1.16234,-2.20394 1.18624,-4.89765 0.0504,-5.67751 4.62661,-12.47855 6.43147,-9.55822 0.5881,0.95156 1.76181,1.30211 2.60823,0.77899 0.86538,-0.53483 2.3402,0.10648 3.36959,1.46523 1.00684,1.32899 1.84932,1.76201 1.87216,0.96227 0.0462,-1.61869 19.42222,-1.59606 22.04636,0.0258 0.85479,0.52829 1.86467,0.0488 2.303,-1.09347 1.01263,-2.63886 3.11902,-1.32475 3.11902,1.94586 0,3.15529 2.04317,3.28893 3.81351,0.24943 0.7388,-1.26844 1.3489,-1.55905 1.37094,-0.65302 0.0219,0.8979 0.85841,1.63255 1.85904,1.63255 1.00063,0 2.14452,0.84743 2.54197,1.88317 0.39746,1.03575 1.79771,1.80219 3.11167,1.70322 4.20536,-0.31679 10.8116,5.62223 10.8116,9.71962 0,2.01988 0.58772,3.67251 1.30604,3.67251 0.71832,0 1.30604,-2.05701 1.30604,-4.57114 0,-2.51413 0.58772,-4.57114 1.30604,-4.57114 0.71832,0 1.30604,2.05701 1.30604,4.57114 0,5.73115 2.30335,6.03785 2.85584,0.38028 0.37443,-3.83421 0.82607,-4.21692 5.30691,-4.49699 4.77051,-0.29817 4.89765,-0.18937 4.89765,4.19087 0,2.47334 0.58772,4.49698 1.30604,4.49698 0.71833,0 1.30604,-2.05701 1.30604,-4.57114 0,-2.51413 0.58772,-4.57114 1.30604,-4.57114 0.71833,0 1.30604,2.0917 1.30604,4.64822 0,2.76624 0.52879,4.32141 1.30604,3.84104 0.71833,-0.44394 1.30604,-2.29451 1.30604,-4.11236 0,-3.26402 4.40975,-8.16684 7.42172,-8.25157 0.8495,-0.0239 1.87887,-1.09683 2.28751,-2.38429 0.86369,-2.7213 10.31129,-7.4455 10.96974,-5.48535 0.61939,1.84384 3.80379,1.60667 4.51895,-0.33656 0.33047,-0.8979 1.03823,0.013 1.57281,2.02418 0.96501,3.6305 0.98582,3.63698 2.90024,0.90377 1.77612,-2.53578 2.05476,-2.57997 3.5317,-0.56013 1.38576,1.89513 1.94344,1.15183 4.10771,-5.4749 l 2.50424,-7.66775 1.10244,22.8557 c 0.60634,12.57064 1.20512,22.9603 1.3306,23.08814 0.12552,0.12784 12.41669,0.65559 27.31375,1.17278 14.89707,0.51719 27.0868,1.29417 27.08832,1.72662 10e-4,0.43246 -3.81867,0.58921 -8.48926,0.34834 l -8.49201,-0.43795 v 11.8658 c 0,7.03984 -0.53118,11.8658 -1.30604,11.8658 -0.71832,0 -1.30604,1.83075 -1.30604,4.06833 0,4.03936 -0.0232,4.05309 -3.2651,1.92895 -2.0398,-1.33652 -3.2651,-1.58482 -3.2651,-0.66164 0,0.89921 -1.20237,1.17596 -3.07121,0.70691 -1.68916,-0.42395 -3.48352,-0.35852 -3.98744,0.14541 -0.50394,0.50393 -4.71142,0.93402 -9.34998,0.95575 -6.90591,0.0323 -8.56549,-0.37453 -9.16096,-2.24606 -0.774,-2.43252 -3.1633,-3.17238 -3.1633,-0.97953 0,0.71832 -0.58771,1.30604 -1.30604,1.30604 -0.71832,0 -1.30604,-1.14075 -1.30604,-2.535 0,-1.39425 -0.58772,-2.89823 -1.30604,-3.34218 -0.71832,-0.44395 -1.30604,-0.003 -1.30604,0.97934 0,0.98258 -0.81171,2.89661 -1.80382,4.2534 -1.68822,2.30877 -1.9812,2.09978 -4.57114,-3.26079 -1.52202,-3.15022 -2.76732,-6.75803 -2.76732,-8.01736 0,-4.54984 -2.49924,-3.70631 -3.2931,1.11147 -0.44715,2.71367 -1.50536,6.3557 -2.35157,8.09341 -1.34317,2.75826 -1.62147,1.75836 -2.19157,-7.87389 -0.71741,-12.12136 -2.72259,-15.83233 -9.46879,-17.52389 -1.97539,-0.49531 -3.59161,-1.36086 -3.59161,-1.92343 0,-0.56258 -1.61623,-1.44058 -3.59161,-1.9511 -4.11527,-1.06357 -47.8423,-0.88895 -50.68633,0.20241 -1.50279,0.57667 -1.8818,4.09015 -1.8818,17.4449 v 16.72279 l -7.83862,0.44251 -7.83862,0.44251 0.002,-15.99899 z m 102.73849,-4.57114 c -0.36231,-0.8979 -0.65876,-0.16326 -0.65876,1.63255 0,1.7958 0.29645,2.53045 0.65876,1.63255 0.36231,-0.8979 0.36231,-2.3672 0,-3.2651 z"
     id="path985" />
  <path
     style="fill:#030000;stroke:#fbffff;stroke-width:0;stroke-miterlimit:0"
     d="m 221.56868,1294.1953 c 4e-4,-112.5969 -0.17198,-227.7897 -0.38306,-255.9838 l -0.3838,-51.26212 h 16.66261 c 19.55032,0 18.60774,0.72299 20.00656,-15.34598 0.68786,-7.90192 1.42405,-10.77483 2.76108,-10.77483 1.00272,0 1.82313,0.58772 1.82313,1.30604 0,0.71832 1.17543,1.30604 2.61208,1.30604 2.18966,0 2.61208,0.8707 2.61208,5.38407 0,4.2613 0.353,5.09112 1.69274,3.97923 0.93101,-0.77266 2.84109,-1.3316 4.24463,-1.24207 1.40354,0.0895 3.87425,-0.27143 5.49048,-0.80214 2.04249,-0.67066 2.95126,-0.44024 2.98013,0.75565 0.0259,1.07359 0.76258,0.76726 1.95906,-0.81463 1.85504,-2.45259 1.91817,-2.43131 1.93752,0.65302 0.0159,2.53781 0.27828,2.78857 1.28604,1.22915 0.69632,-1.07748 1.27504,-3.19034 1.28604,-4.69522 0.0264,-3.61689 3.61086,-6.67455 8.75572,-7.469 5.89268,-0.90992 6.93676,-1.84272 6.93676,-6.19742 0,-2.11258 0.58772,-3.84104 1.30604,-3.84104 1.98355,0 1.56012,-3.38743 -0.65302,-5.22416 -1.07748,-0.89424 -1.95906,-3.03776 -1.95906,-4.76339 0,-3.44859 -4.04086,-5.68493 -10.27213,-5.68493 -4.06204,0 -6.70639,-2.10585 -6.70639,-5.34069 0,-4.37909 -4.36687,-7.67297 -11.75436,-8.8662 -3.95077,-0.63813 -5.567,-1.22894 -3.59161,-1.31292 1.97538,-0.084 3.59161,-0.72195 3.59161,-1.41773 0,-0.69577 0.83613,-0.94419 1.85808,-0.55204 3.14794,1.20798 6.91438,-3.70388 5.86084,-7.64321 -0.50524,-1.88917 -0.58758,-3.76589 -0.18298,-4.1705 0.40461,-0.4046 3.83546,-0.73564 7.62412,-0.73564 3.78865,0 7.29048,-0.65046 7.78182,-1.44547 0.62391,-1.00952 1.25842,-0.91105 2.10374,0.32651 0.97421,1.42622 1.51575,1.27217 2.77534,-0.78952 0.86072,-1.40882 3.2025,-4.26703 5.20396,-6.35156 3.12556,-3.25529 3.36421,-3.99954 1.69136,-5.27474 -2.57107,-1.9599 -4.80108,-8.13185 -3.84158,-10.63226 0.41937,-1.09286 0.0789,-2.81074 -0.75665,-3.81749 -0.83553,-1.00674 -1.34207,-3.44238 -1.12564,-5.41251 0.32964,-3.00075 -0.23303,-3.75411 -3.46711,-4.64212 -2.71182,-0.74459 -4.46066,-0.51895 -5.87718,0.75833 -1.7241,1.55463 -2.38427,1.54868 -4.55177,-0.041 -1.39436,-1.02265 -4.89128,-1.85937 -7.77094,-1.85937 -4.07225,0 -4.88747,-0.34828 -3.6685,-1.56725 0.86199,-0.86198 1.56725,-3.87254 1.56725,-6.69011 0,-4.02071 -0.36054,-4.82365 -1.67579,-3.7321 -2.03436,1.68837 -12.76814,-0.40161 -14.25818,-2.77621 -0.53833,-0.85791 -0.8982,-3.73926 -0.7997,-6.40301 0.12819,-3.46692 -0.60368,-5.50812 -2.57556,-7.18322 -2.33129,-1.9804 -2.63884,-3.29348 -2.00118,-8.54374 0.4731,-3.89522 1.39646,-6.20369 2.4814,-6.20369 0.95037,0 2.70405,-2.05701 3.89708,-4.57114 1.19303,-2.51413 2.6899,-4.57114 3.32638,-4.57114 2.36103,0 1.05656,-2.46806 -1.78136,-3.37034 -2.84476,-0.90445 -2.85519,-0.96678 -0.32651,-1.95252 1.43664,-0.56003 4.46028,-0.71312 6.71919,-0.34021 2.25891,0.3729 5.25439,0.064 6.65663,-0.68645 1.83434,-0.98171 2.98727,-0.92672 4.11002,0.19603 1.20998,1.20998 1.79575,1.17989 2.60777,-0.134 0.72969,-1.18064 2.89147,-1.47312 7.12884,-0.96447 5.65117,0.67837 6.08283,0.52176 6.09941,-2.21269 0.01,-1.6185 0.38642,-4.31942 0.83691,-6.00204 0.74893,-2.79728 1.30671,-2.98618 6.51237,-2.20555 l 5.69329,0.85377 -0.02,-26.52734 c -0.011,-14.59004 -0.58079,-27.40892 -1.26619,-28.4864 -1.00566,-1.58094 -1.73311,-1.6574 -3.76894,-0.39612 -3.11546,1.93015 -12.10973,-0.13906 -11.24825,-2.58775 0.80007,-2.27413 -5.63842,-9.15007 -7.79355,-8.32307 -0.99424,0.38152 -2.09629,-0.0583 -2.449,-0.97749 -0.40516,-1.05583 -3.45055,-1.75159 -8.27083,-1.88957 -7.49077,-0.21443 -14.81277,-2.21702 -14.81277,-4.05134 0,-1.96415 1.59557,-2.33093 5.90854,-1.3582 3.71324,0.83748 5.03133,0.48993 7.77085,-2.04898 3.70288,-3.43171 3.99313,-4.57791 1.73188,-6.83916 -1.21897,-1.21897 0.64864,-1.56725 8.40424,-1.56725 12.32402,0 15.92622,-1.30451 18.77877,-6.8006 1.49569,-2.8818 2.41228,-3.65439 2.77811,-2.34168 2.92356,10.49048 4.0622,3.7723 4.16534,-24.57627 l 0.0918,-25.22929 2.93859,0.90309 c 6.26041,1.92394 8.13137,5.65551 8.62328,17.19886 0.2683,6.29593 1.02594,10.80696 1.81508,10.80696 2.29256,0 4.82002,-4.36835 4.91176,-8.48926 0.0803,-3.60876 0.34041,-3.37674 3.29384,2.93859 3.36177,7.18849 6.84375,8.9642 8.10682,4.13423 0.53788,-2.05684 0.97499,-2.29634 1.78779,-0.97953 1.15148,1.86548 3.63776,2.45235 12.92821,3.05161 10.34766,0.66745 12.81742,1.79515 13.8079,6.3047 0.91126,4.14901 4.24177,7.70543 6.12561,6.54116 0.56361,-0.34833 0.6324,1.82019 0.15289,4.81893 -0.78101,4.8842 -0.61414,5.40089 1.60174,4.95926 1.72284,-0.34336 2.96172,0.63554 4.08183,3.22524 1.88382,4.35538 4.22334,3.58496 4.37503,-1.44073 l 0.10605,-3.51453 1.75012,3.91812 c 1.749,3.91558 1.75088,3.91614 2.90081,0.87288 l 1.15066,-3.04524 1.83343,3.69826 1.83344,3.69826 0.4706,-3.59161 c 1.14598,-8.746 4.99906,-1.59872 6.21236,11.52358 0.52645,5.69393 1.45336,11.67496 2.05978,13.29118 1.30728,3.48411 3.76256,3.90394 3.81905,0.65302 0.0376,-2.16547 0.10918,-2.16638 1.36124,-0.0173 0.89644,1.53862 0.88367,3.08645 -0.0397,4.81179 -2.19606,4.10338 -1.71499,6.92166 1.03265,6.0496 1.68287,-0.53413 2.81266,0.15929 3.8038,2.33463 2.68096,5.88406 14.59574,5.33599 14.74048,-0.67804 0.0269,-1.11978 0.6844,-0.87729 1.87217,0.69051 1.00684,1.329 2.46195,2.02617 3.23358,1.54928 0.77163,-0.47689 2.3025,0.0325 3.40195,1.13192 1.75341,1.75342 1.92892,9.34466 1.42856,61.79368 -0.57006,59.7554 -1.39213,78.75132 -3.58723,82.89103 -0.64152,1.20984 -1.1664,5.76465 -1.1664,10.12181 0,6.25187 -0.42273,7.9221 -2.00501,7.9221 -1.10275,0 -3.38002,0.90095 -5.06059,2.00209 -2.86352,1.87625 -3.10274,1.82171 -3.80606,-0.86781 -0.59645,-2.28077 -1.12385,-2.56003 -2.56931,-1.36039 -1.00036,0.83022 -2.15656,1.17175 -2.56936,0.75896 -1.14644,-1.14645 -5.7741,3.98704 -5.18562,5.75247 0.33297,0.99892 -1.09898,1.55092 -4.02327,1.55092 -3.04253,0 -4.81728,0.72194 -5.38006,2.18852 -0.4619,1.20369 -0.6717,36.02599 -0.46623,77.38289 0.34081,68.60136 0.57396,75.58416 2.65913,79.63966 1.25707,2.4449 2.28557,5.859 2.28557,7.5868 0,1.7618 0.57362,2.787 1.30604,2.3343 0.71833,-0.4439 1.30604,-2.2418 1.30604,-3.9952 0,-4.2907 2.37867,-4.046 3.92438,0.4036 0.68621,1.9754 2.14095,5.2555 3.23278,7.2891 1.09182,2.0336 1.98513,5.3908 1.98513,7.4604 0,3.6951 0.12812,3.7615 7.09115,3.6783 8.79757,-0.1051 9.59741,0.3825 8.86079,5.4015 -0.3798,2.5878 0.1727,4.8711 1.54587,6.3884 1.88455,2.0824 2.09577,6.4339 1.78835,36.8441 l -0.34857,34.4829 -3.49603,0.404 c -5.03864,0.5823 -6.80966,3.4804 -6.88549,11.2674 -0.11663,11.9742 4.26671,16.4084 16.21995,16.4084 4.86827,0 7.27234,-0.7605 10.2051,-3.2282 3.3204,-2.794 3.92716,-4.357 4.51001,-11.6181 0.3704,-4.6143 1.11338,-9.1015 1.65107,-9.9716 1.65569,-2.6789 3.21364,1.308 3.31845,8.4924 0.0524,3.5916 0.50882,8.8606 1.01428,11.7089 0.82513,4.6496 1.41939,5.297 5.81666,6.3369 4.39512,1.0394 5.04603,1.7476 6.34398,6.9022 0.79549,3.1592 1.9496,5.744 2.56469,5.744 1.17591,0 5.95893,9.7033 6.43783,13.0604 0.82848,5.8078 -0.17176,20.9632 -1.33607,20.2436 -0.71832,-0.444 -1.30604,0.331 -1.30604,1.7221 0,1.391 -0.90939,3.2839 -2.02087,4.2064 -1.62376,1.3476 -1.68793,1.9118 -0.32651,2.8714 1.33785,0.943 1.35086,1.3336 0.0618,1.8567 -1.92412,0.7807 -2.21264,4.3629 -0.35139,4.3629 0.70464,0 1.64992,1.4693 2.10065,3.2651 0.45071,1.7958 1.28164,3.2651 1.84652,3.2651 0.56486,0 0.94193,7.7872 0.83794,17.305 -0.13793,12.623 0.25976,17.6589 1.46985,18.6128 2.32279,1.8312 3.15774,24.754 1.11787,30.6902 -1.24387,3.6198 -1.20966,6.3379 0.1644,13.0604 1.35147,6.6121 1.42425,11.0539 0.3291,20.0874 -0.77333,6.379 -1.12839,11.8758 -0.78901,12.2152 0.33937,0.3393 0.0942,1.9924 -0.54503,3.6735 -0.67286,1.7697 -0.68112,6.2491 -0.0196,10.6405 0.62834,4.1712 1.45163,25.6564 1.82953,47.7448 l 0.68711,40.1608 h -8.42033 -8.42033 v -8.4893 -8.4893 h -8.48926 -8.48926 v 8.4893 8.4893 h -82.18478 c -77.17298,0 -82.22119,-0.1394 -82.78205,-2.2856 -0.56884,-2.1767 -0.6045,-2.1767 -0.74879,0 -0.0833,1.2571 -1.03308,2.2856 -2.11056,2.2856 -1.5427,0 -1.95906,-1.8246 -1.95906,-8.5851 0,-7.4708 -0.29663,-8.5287 -2.28557,-8.151 -1.62972,0.3094 -2.4972,2.117 -3.02306,6.2994 l -0.73749,5.8655 -0.56855,-5.5737 c -0.81463,-7.9861 -3.04849,-7.4188 -3.94728,1.0026 l -0.76665,7.1832 -0.23288,-5.8772 c -0.313,-7.8991 -1.81238,-10.2825 -4.87687,-7.7522 -1.74964,1.4446 -2.39713,1.5003 -2.82046,0.2425 -0.30221,-0.8979 -1.38207,-1.6326 -2.39969,-1.6326 -1.01762,0 -1.85922,0.7347 -1.87022,1.6326 -0.0145,1.1822 -0.33448,1.136 -1.16002,-0.1673 -2.0435,-3.2263 -3.90577,-0.2358 -4.80551,7.7168 l -0.88207,7.7965 h -17.46285 -17.46284 z m 54.3701,-274.9214 c -0.43313,-1.6163 -0.79554,-8.6689 -0.80535,-15.6725 -0.0166,-11.85726 -0.19766,-12.7339 -2.62991,-12.7339 -1.83243,0 -2.61783,0.87711 -2.63134,2.93859 l -0.0192,2.93859 -1.61329,-3.11857 c -2.00731,-3.88019 -3.96409,-3.84051 -5.07473,0.10292 l -0.84934,3.01565 -0.13019,-2.93859 c -0.15009,-3.38796 -2.09073,-3.90818 -3.25555,-0.87271 -0.43602,1.13623 -0.79276,8.18882 -0.79276,15.67252 v 13.6066 h 9.29461 c 9.0015,0 9.26977,-0.093 8.5071,-2.9386 z"
     id="path987" />
  <path
     style="fill:#030000;stroke:#fbffff;stroke-width:0;stroke-miterlimit:0"
     d="m 386.12902,667.75404 v -14.88795 l 5.92896,-0.47155 c 3.26092,-0.25935 6.49337,0.0929 7.18322,0.78272 0.68984,0.68984 1.25426,7.60162 1.25426,15.3595 v 14.10523 h -7.18322 -7.18322 z"
     id="path989" />
  <path
     style="fill:#030000;stroke:#fbffff;stroke-width:0;stroke-miterlimit:0"
     d="m 420.9978,749.48327 c -2.45182,-0.28127 -4.05735,-1.46649 -4.86532,-3.59162 -0.72884,-1.91698 -2.2521,-3.1718 -3.85033,-3.1718 -2.97519,0 -3.38856,-1.34551 -1.11258,-3.62149 2.36226,-2.36226 -0.90297,-8.97461 -3.40596,-6.89732 -2.0825,1.72833 -2.66748,-0.33249 -4.05798,-14.29596 -0.46496,-4.66909 -1.68486,-9.81163 -2.7109,-11.42785 -2.00224,-3.15396 -5.69781,-3.99144 -5.76314,-1.30604 -0.0218,0.8979 -0.657,0.57145 -1.41147,-0.72544 -1.08357,-1.86262 -1.76117,-2.03481 -3.22538,-0.81962 -1.47128,1.22106 -1.85364,1.1013 -1.85364,-0.58059 0,-3.70913 -2.49338,-2.27891 -3.70575,2.12565 l -1.16836,4.24463 -0.98918,-3.66951 c -0.58314,-2.16325 -1.66187,-3.41137 -2.62796,-3.04065 -2.73789,1.05063 -4.79896,-1.97612 -2.49356,-3.66187 2.62786,-1.92154 1.14337,-5.51799 -2.673,-6.47583 -2.18069,-0.54732 -3.20075,-1.94181 -3.66882,-5.01552 -0.35658,-2.34159 -0.52375,-4.40269 -0.37148,-4.58025 0.61838,-0.72103 6.78184,-0.50162 9.44305,0.33617 2.48002,0.78074 2.9153,0.33334 3.3826,-3.47677 l 0.53631,-4.37282 0.20902,4.24463 0.20901,4.24463 h 8.48926 8.48926 v -13.6284 c 0,-7.49562 0.57318,-15.13595 1.27372,-16.97852 l 1.27371,-3.35012 h 17.66387 17.66387 l -0.02,49.95604 c -0.0118,29.43648 -0.4941,49.20729 -1.17423,48.13317 -0.63482,-1.00257 -2.05215,-1.47829 -3.14961,-1.05716 -1.09746,0.42114 -2.72567,-0.11424 -3.61825,-1.18973 -1.41631,-1.70655 -1.96872,-1.572 -4.34012,1.05716 -1.87859,2.08278 -3.8467,2.88303 -6.37666,2.5928 z"
     id="path991" />
  <path
     style="fill:#030000;stroke:#fbffff;stroke-width:0;stroke-miterlimit:0"
     d="m 437.53577,1112.9793 c -0.41409,-1.0791 -0.39448,-3.3899 0.0436,-5.1353 0.94876,-3.7802 -1.78353,-5.0415 -10.54008,-4.8657 -5.30012,0.1064 -5.64693,-0.1045 -5.64353,-3.4306 0.002,-1.9492 -1.14262,-5.8948 -2.5436,-8.7681 -1.40098,-2.8733 -2.87738,-6.315 -3.2809,-7.6483 -0.55035,-1.8184 -1.52426,-2.2257 -3.89777,-1.63 -2.42541,0.6088 -3.35783,0.1838 -3.99396,-1.8205 -0.45643,-1.438 -1.25915,-2.6146 -1.78383,-2.6146 -1.21287,0 -1.98959,-150.06263 -0.79257,-153.12577 0.48962,-1.25293 1.44976,-1.93225 2.13364,-1.50959 2.27355,1.40513 7.30313,-0.71702 7.99812,-3.37468 0.3768,-1.44088 1.76939,-3.02066 3.09465,-3.51063 1.32526,-0.48997 2.84136,-1.52145 3.3691,-2.29216 0.60729,-0.88689 0.97421,-0.68214 0.99953,0.55775 0.022,1.07748 0.58563,2.82179 1.25251,3.87623 1.01795,1.60953 1.6269,1.43937 3.795,-1.06047 1.42036,-1.63769 3.65739,-2.79428 4.97118,-2.57018 2.5468,0.43441 2.27275,1.92121 5.46185,-29.63149 0.61797,-6.11413 1.1477,39.53024 1.27701,110.0339 0.12154,66.26519 -0.0913,120.48219 -0.47304,120.48219 -0.3817,0 -1.03281,-0.8829 -1.44689,-1.962 z"
     id="path993" />
  <path
     style="fill:#030000;stroke:#fbffff;stroke-width:0;stroke-miterlimit:0"
     d="m 444.24781,1872.4447 c -1.95365,-0.8395 -0.96601,-1.1599 3.91812,-1.2712 8.99516,-0.2047 17.75226,-2.0351 18.94124,-3.9589 0.54541,-0.8825 1.40771,-6.3741 1.91622,-12.2036 1.31543,-15.0798 3.03445,-17.7747 11.36022,-17.8094 6.88378,-0.029 8.92259,1.1028 8.92259,4.9521 0,2.4945 0.38435,3.0022 1.45905,1.9275 1.79875,-1.7988 2.04475,-77.0733 0.27424,-83.9204 -0.92016,-3.5585 -2.07713,-4.7949 -5.37116,-5.7396 -4.3599,-1.2504 -5.3218,-3.8998 -3.03286,-8.3536 4.53788,-8.8299 5.36146,-14.7358 2.53558,-18.1829 -0.69822,-0.8518 -2.99204,-1.927 -5.09737,-2.3894 -2.58813,-0.5684 -3.82788,-1.641 -3.82788,-3.3118 0,-1.3591 -1.4693,-5.7934 -3.2651,-9.854 -1.79581,-4.0607 -3.2651,-8.5145 -3.2651,-9.8974 0,-4.1143 3.73308,-10.21 5.77325,-9.4271 1.07309,0.4118 2.0901,-0.2845 2.45028,-1.6775 0.55927,-2.1631 0.62964,-2.1719 0.76725,-0.096 0.22442,3.3856 5.02459,2.8701 6.07976,-0.653 0.48407,-1.6162 2.11878,-3.9176 3.63269,-5.1141 2.35199,-1.859 2.52984,-2.6192 1.22209,-5.2242 -0.84175,-1.6768 -1.55756,-6.575 -1.59068,-10.8849 -0.0331,-4.3099 -0.0814,-8.7178 -0.10725,-9.7953 -0.0259,-1.0775 0.59308,-5.0574 1.37544,-8.8442 2.09997,-10.1645 1.247,-21.707 -1.64478,-22.2573 -1.47535,-0.2808 -2.32212,0.4092 -2.38868,1.9464 -0.0567,1.3097 -1.02645,-0.2341 -2.15497,-3.4306 -1.47919,-4.1898 -1.63267,-5.9516 -0.54991,-6.3125 0.82607,-0.2754 1.50195,-1.5372 1.50195,-2.8041 0,-1.2668 1.14976,-3.6291 2.55504,-5.2494 4.26133,-4.9133 5.58122,-10.8363 4.14362,-18.5945 -0.70719,-3.8165 -0.95819,-13.1101 -0.55777,-20.6524 0.76912,-14.4875 0.88052,-24.0637 0.47855,-41.1403 -0.13527,-5.7466 -0.0132,-21.615 0.27131,-35.2631 0.28449,-13.6481 0.0125,-39.5077 -0.60446,-57.4658 -0.61695,-17.958 -1.13695,-33.8264 -1.15555,-35.2631 -0.0376,-2.9073 0.89532,-15.7844 1.93981,-26.7738 0.3755,-3.9508 -0.071,-10.3861 -0.99226,-14.3007 -1.33407,-5.6688 -1.34865,-8.0646 -0.0716,-11.7712 2.54724,-7.3934 1.00281,-35.2652 -1.85607,-33.4958 -0.48703,0.3014 -0.75218,-6.3019 -0.58924,-14.674 0.37737,-19.389 -0.38854,-24.6633 -3.73572,-25.7257 -2.01175,-0.6385 -2.24982,-1.2095 -1.08801,-2.6094 0.81798,-0.9856 1.10503,-2.4104 0.63788,-3.1663 -0.46715,-0.7558 0.2169,-1.8101 1.52011,-2.3428 2.51021,-1.026 2.78161,-2.5916 3.11108,-17.947 0.19643,-9.1545 -1.50613,-16.0619 -4.41493,-17.9114 -1.09713,-0.6977 -0.9777,-1.0005 0.40822,-1.0352 1.3537,-0.034 1.00919,-0.7796 -1.11489,-2.4133 -1.88782,-1.452 -3.458,-4.4645 -4.06926,-7.8072 l -0.99532,-5.4429 h 7.66088 7.66087 l 0.0187,215.1701 c 0.0232,266.6414 2.03415,396.9438 6.49453,420.8191 0.73872,3.9541 0.63801,6.1987 -0.30424,6.7811 -1.57865,0.9756 1.76248,5.0256 4.14604,5.0256 0.76963,0 1.39933,0.5878 1.39933,1.3061 0,0.7183 0.88157,1.306 1.95906,1.306 1.07748,0 1.95906,0.8816 1.95906,1.9591 0,1.0775 0.73464,2.0541 1.63255,2.1703 0.8979,0.1162 -3.95077,0.6381 -10.77484,1.1599 -17.33363,1.3252 -52.36688,1.2841 -55.50671,-0.065 z"
     id="path995" />
  <path
     style="fill:#030000;stroke:#fbffff;stroke-width:0;stroke-miterlimit:0"
     d="m 221.56795,1944.594 c 0,-0.5439 2.4978,-0.7932 5.55067,-0.5539 7.58258,0.5943 12.71574,-1.5234 12.8024,-5.2816 l 0.0685,-2.9709 2.04985,2.9386 c 3.92465,5.6262 5.6349,3.7097 5.82724,-6.5302 0.17414,-9.271 0.33893,-9.0239 1.95904,2.9386 0.63279,4.6724 1.01201,5.3417 1.84982,3.2651 0.57962,-1.4366 1.09516,-5.9195 1.14565,-9.9619 0.0605,-4.8477 0.75871,-7.9033 2.05085,-8.9757 1.67283,-1.3883 1.97808,-0.9823 2.08925,2.7787 0.0716,2.4225 0.60074,5.8738 1.17585,7.6697 0.72494,2.2636 1.08561,0.08 1.17586,-7.118 0.17211,-13.7264 2.28431,-11.2803 3.08106,3.5681 0.33849,6.3083 0.98846,11.8427 1.44437,12.2986 0.4559,0.4559 0.82892,-0.7384 0.82892,-2.6539 0,-1.9155 0.58771,-3.4828 1.30604,-3.4828 0.71832,0 1.30604,2.057 1.30604,4.5712 0,4.0052 0.40425,4.5711 3.2651,4.5711 3.18503,0 3.26991,-0.2482 3.46126,-10.1218 0.17362,-8.9589 0.30113,-9.4466 1.10988,-4.2446 0.86252,5.5478 0.92583,5.621 1.12988,1.306 0.31267,-6.6121 2.74216,-9.9242 2.76824,-3.7739 0.0334,7.8786 1.637,17.1383 2.67667,15.4561 0.53321,-0.8627 1.05808,-7.62 1.16637,-15.0161 0.13589,-9.2814 0.83379,-14.7241 2.25276,-17.5685 1.58355,-3.1743 1.9363,-7.0978 1.53544,-17.0781 -0.45418,-11.3077 -0.23898,-13.0463 1.6907,-13.6588 3.01355,-0.9564 3.59532,-3.0011 2.59394,-9.1168 -0.70468,-4.3036 -0.36754,-5.6493 1.95767,-7.8143 1.54493,-1.4385 3.10575,-3.7894 3.46849,-5.2242 0.50666,-2.0041 0.69463,-1.7763 0.81102,0.9829 0.27124,6.4301 2.76358,3.7799 2.76358,-2.9386 0,-3.5916 -0.56014,-6.5302 -1.24476,-6.5302 -0.68462,0 -2.22088,-2.057 -3.41391,-4.5712 -2.60953,-5.4991 -4.16618,-5.822 -4.72337,-0.9795 -0.34828,3.0269 -1.02846,3.5916 -4.32568,3.5916 -3.37744,0 -4.1358,-0.6818 -5.54599,-4.9862 -2.93539,-8.96 -2.82931,-8.9309 -25.9302,-7.0954 -14.0585,1.1171 -20.72619,2.1492 -21.09808,3.2658 -0.29905,0.8979 0.42406,1.6326 1.60691,1.6326 3.44375,0 2.1557,8.3715 -1.36552,8.875 -1.74177,0.2491 -3.29733,2.0442 -4.39004,5.066 -1.13171,3.1297 -2.02851,4.1363 -2.707,3.0385 -2.1349,-3.4543 -3.51556,0.2555 -3.26402,8.7704 0.14395,4.8731 0.34939,9.6308 0.45653,10.5727 0.14487,1.2736 1.78491,1.5052 6.39849,0.9033 5.7044,-0.7442 6.00484,-0.6493 3.73291,1.1789 -1.35893,1.0935 -3.12208,2.2054 -3.91812,2.4707 -0.95356,0.3179 -1.44639,5.9037 -1.44456,16.3727 0.002,14.2047 -0.23729,15.89 -2.26069,15.89 -2.39108,0 -3.27651,2.4384 -4.03114,11.1014 -0.25029,2.8733 -0.55387,-91.0147 -0.67462,-208.6399 l -0.21955,-213.8641 h 17.63154 17.63154 v 7.8362 7.8362 h 9.79531 9.7953 l 0.10311,-4.2446 c 0.0567,-2.3345 0.42726,-3.363 0.82344,-2.2856 1.67453,4.5542 4.76922,6.5302 10.22682,6.5302 h 5.52436 l -0.65543,-8.1627 -0.65543,-8.1628 82.43334,0.3458 82.43335,0.3458 v 7.817 7.8169 h 8.48926 8.48926 v -7.8362 -7.8362 h 8.6065 8.60651 l -1.09677,11.4278 c -0.60323,6.2853 -0.89494,16.1296 -0.64826,21.8762 0.60274,14.0408 0.52088,26.0291 -0.28885,42.304 -0.37138,7.4641 -0.16667,16.2798 0.45488,19.5906 1.37756,7.3376 0.55876,12.1517 -2.65312,15.5993 -1.33481,1.4327 -2.80827,4.1243 -3.27436,5.9814 -0.46607,1.857 -1.37142,3.3764 -2.01188,3.3764 -1.82322,0 -1.37891,4.0624 1.26561,11.5718 l 2.43006,6.9004 0.85136,-4.2568 c 0.54158,-2.7079 1.3058,-3.8025 2.10018,-3.0081 2.45439,2.4544 2.70826,10.5892 0.57026,18.2734 -1.18464,4.2578 -2.09907,8.9169 -2.03206,10.3535 0.067,1.4366 0.17717,6.4027 0.2448,11.0358 0.0677,4.633 0.67056,9.4469 1.33987,10.6975 0.9129,1.7058 0.54583,2.744 -1.46924,4.1554 -1.47739,1.0348 -2.77997,3.1266 -2.8946,4.6484 -0.29477,3.9131 -3.57069,3.4561 -3.57069,-0.4982 0,-4.2214 -2.32074,-4.2276 -3.37954,-0.01 -0.44947,1.7908 -1.26369,2.9801 -1.8094,2.6429 -1.79006,-1.1064 -5.35518,4.1276 -6.1507,9.0299 -0.42881,2.6425 -0.13618,6.0948 0.6503,7.6717 2.90819,5.8311 5.46518,13.0522 5.46518,15.4341 0,1.5339 0.92418,2.4526 2.4674,2.4526 1.35705,0 3.82086,1.0959 5.4751,2.4355 2.91207,2.358 2.95207,2.6675 1.25791,9.7295 -0.9624,4.0117 -2.45082,7.5631 -3.30761,7.8919 -0.91457,0.3509 -1.32331,2.1954 -0.9899,4.4671 0.46805,3.189 1.47131,4.1399 5.70643,5.4088 2.82621,0.8468 4.90561,1.9517 4.62091,2.4554 -0.2847,0.5037 -0.14553,5.7645 0.30927,11.6906 0.6336,8.2559 0.44048,10.7748 -0.82609,10.7748 -0.97308,0 -1.65302,1.6434 -1.65302,3.9952 0,2.3309 -0.54407,3.659 -1.30604,3.1881 -0.71832,-0.444 -1.30604,-0.1848 -1.30604,0.5759 0,2.4488 -3.37558,1.476 -6.5302,-1.882 -3.59461,-3.8263 -6.27518,-4.1785 -7.45545,-0.9795 -1.29621,3.5132 -3.05325,4.2015 -10.82911,4.2425 -11.90269,0.063 -12.81871,0.6059 -12.07957,7.1635 0.53776,4.7709 0.2103,5.8686 -2.12322,7.1175 -1.69048,0.9047 -3.32958,3.7425 -4.23223,7.3272 -1.6343,6.4904 -3.6036,7.5877 -12.35706,6.8851 -3.56965,-0.2865 -5.02498,0.084 -4.79752,1.2212 0.17958,0.8979 -0.28015,1.6326 -1.02161,1.6326 -0.74148,0 -1.81516,1.2625 -2.38598,2.8056 -0.97329,2.631 -1.22725,2.4991 -4.08233,-2.1205 -3.02775,-4.899 -3.08276,-4.9221 -10.0214,-4.206 -4.24026,0.4377 -6.97694,0.2104 -6.97694,-0.5795 0,-0.7148 -1.12804,-0.9417 -2.50674,-0.5041 -1.79269,0.569 -2.74783,0.036 -3.35312,-1.871 -1.11972,-3.5279 -2.96116,-3.3914 -3.66675,0.2719 -0.50597,2.627 -0.58485,2.5737 -0.74385,-0.5028 -0.19499,-3.773 -4.90101,-7.6599 -9.27419,-7.6599 -2.23793,0 -2.67664,0.8773 -2.77582,5.5506 l -0.11781,5.5507 -1.24382,-4.315 c -1.00148,-3.4743 -1.74193,-4.1569 -3.80033,-3.5036 -1.7463,0.5543 -2.55649,0.2032 -2.55649,-1.1079 0,-1.9345 -6.26914,-4.7869 -10.52094,-4.7869 -1.65192,0 -2.10353,0.7319 -1.61185,2.6121 0.47505,1.8166 0.0401,2.612 -1.42831,2.612 -1.28031,0 -2.16263,1.1567 -2.24157,2.9386 -0.12486,2.8192 -0.17269,2.8059 -1.17586,-0.3265 -0.57511,-1.7958 -1.11325,-2.6774 -1.19585,-1.959 -0.0827,0.7183 -0.7199,0.4244 -1.41623,-0.6531 -0.90329,-1.3977 -1.27762,0.099 -1.30644,5.2242 -0.0222,3.9508 -0.89186,10.7095 -1.93253,15.0195 -2.61903,10.8466 -2.61235,18.1516 0.0157,17.1432 2.21083,-0.8484 4.52933,3.7191 4.52933,8.9229 0,3.3134 2.29944,4.7763 6.07773,3.8665 4.57066,-1.1006 5.74084,1.0011 3.7187,6.6788 -2.53446,7.1162 -2.40275,8.447 0.83607,8.447 2.74002,0 2.78085,0.3022 2.0303,15.0289 -0.42129,8.2659 -1.12658,15.6124 -1.5673,16.3255 -0.44073,0.7131 -2.23595,1.2966 -3.98936,1.2966 -3.05302,0 -3.18801,0.3594 -3.18801,8.4892 0,4.7888 0.5693,8.4893 1.30604,8.4893 0.71832,0 1.31405,-1.3224 1.32386,-2.9386 0.0303,-4.9862 1.50706,-8.8158 3.3996,-8.8158 2.23674,0 1.90115,-2.0588 2.71433,16.652 l 0.69534,15.999 H 293.5486 c -39.58936,0 -71.98065,-0.445 -71.98065,-0.9889 z m 80.86799,-1.1447 c 6.18057,-1.2361 7.94275,-5.8191 7.94275,-20.6572 v -12.4723 h -8.48927 -8.48926 v 16.9786 c 0,18.8077 -0.4275,18.0435 9.03578,16.1509 z m 45.81791,-14.9307 c 0,-19.5902 -1.71677,-23.3994 -8.83349,-19.6001 -1.24732,0.6658 -3.21279,1.4969 -4.36771,1.8468 -2.78188,0.8427 -3.77732,6.4473 -3.77732,21.2675 v 12.2441 h 8.48926 8.48926 z"
     id="path997" />
  <path
     style="fill:#030000;stroke:#fbffff;stroke-width:0;stroke-miterlimit:0"
     d="m 379.92533,1942.6443 c 0.22805,-1.1402 -1.74185,-1.6325 -6.53252,-1.6325 h -6.85902 l -0.0121,-9.7953 c -0.0188,-15.2463 -1.04541,-19.5906 -4.62957,-19.5906 -1.7994,0 -3.19326,0.914 -3.48561,2.2856 -0.33672,1.5798 -0.71365,1.1765 -1.22069,-1.3061 -0.65894,-3.2263 -0.3677,-3.5916 2.86374,-3.5916 4.68698,0 5.21833,-1.6136 6.12841,-18.6111 l 0.75173,-14.0399 h 35.66126 35.66127 l 0.90625,4.8307 c 1.316,7.0149 -0.60598,56.031 -2.34686,59.8519 l -1.47239,3.2315 h -27.87022 c -21.59963,0 -27.79677,-0.3673 -27.54372,-1.6326 z"
     id="path999" />
  <path
     style="fill:#030000;stroke:#fbffff;stroke-width:0;stroke-miterlimit:0"
     d="m 454.04312,1871.1894 c 12.83769,-1.3374 14.00121,-2.3282 15.00138,-12.7744 1.734,-18.1105 4.40283,-21.7668 14.77693,-20.2442 3.11735,0.4575 4.41265,1.4471 5.01013,3.8277 0.58988,2.3502 1.19384,2.8226 2.25383,1.7626 1.65876,-1.6588 2.11986,-78.0266 0.50614,-83.8282 -0.54193,-1.9483 -2.96017,-4.6365 -5.54025,-6.1588 l -4.57857,-2.7015 2.61071,-6.6234 c 2.64652,-6.7142 3.35995,-13.9417 1.61117,-16.322 -0.52774,-0.7183 -2.63389,-2.1876 -4.68032,-3.2651 -2.65059,-1.3955 -4.46453,-4.0251 -6.30651,-9.1423 -4.61995,-12.8344 -4.7649,-13.7246 -2.94115,-18.062 1.67623,-3.9866 3.16633,-4.6782 9.10682,-4.2271 1.80284,0.1369 3.80365,-1.5311 6.16742,-5.1414 3.41353,-5.2138 3.46541,-5.5927 2.12711,-15.537 -0.96954,-7.2043 -0.95891,-12.4262 0.0363,-17.8096 1.69458,-9.1668 1.80955,-22.7651 0.21379,-25.2853 -0.63483,-1.0026 -2.05579,-1.4769 -3.1577,-1.0541 -1.41468,0.5429 -2.23431,-0.2822 -2.78895,-2.8074 -0.76226,-3.4706 0.58395,-7.4037 5.72567,-16.7284 2.12145,-3.8473 2.23847,-10.7338 1.72001,-101.2181 -0.30598,-53.3995 -0.3579,-103.261 -0.11539,-110.8034 0.24251,-7.5424 0.37381,-17.8274 0.29179,-22.8557 -0.2035,-12.4745 -0.2036,-22.3201 -3.8e-4,-38.6613 0.10746,-8.6417 -0.42635,-15.0238 -1.42012,-16.9785 -0.96061,-1.8895 -1.73781,-10.2992 -1.95906,-21.1981 -0.28904,-14.2382 -0.78398,-18.3892 -2.3359,-19.5906 -2.32497,-1.8 -1.92247,-6.5619 0.74152,-8.7728 2.36965,-1.9666 2.64401,-26.6551 0.35754,-32.1744 -0.83771,-2.0221 -1.58763,-3.9705 -1.6665,-4.3297 -0.0789,-0.3591 -1.14806,-2.153 -2.37601,-3.9863 -1.22794,-1.8334 -2.6085,-5.2128 -3.0679,-7.5098 l -0.83527,-4.1763 h 7.34648 7.34647 l 0.0172,229.5365 c 0.0171,228.1054 1.26414,345.5584 4.08043,384.3024 0.80932,11.134 1.57714,22.8517 1.70626,26.0394 0.20734,5.1191 0.79721,6.1691 5.0517,8.9925 2.64931,1.7582 4.81694,3.625 4.81694,4.1485 0,1.8217 -12.2795,2.6117 -37.73095,2.4275 -17.40252,-0.126 -22.89092,-0.4689 -17.12274,-1.0699 z"
     id="path1001" />
  <path
     style="fill:#030000;stroke:#fbffff;stroke-width:0;stroke-miterlimit:0"
     d="m 435.75855,1872.1921 c 0,-1.7583 -2.77424,-5.5518 -7.18322,-9.8222 -3.95077,-3.8266 -7.18322,-7.488 -7.18322,-8.1364 0,-0.6485 -1.52154,-2.9873 -3.3812,-5.1973 -2.67745,-3.182 -2.94104,-4.0184 -1.2664,-4.0184 1.74083,0 2.07311,-1.3895 1.87902,-7.8577 -0.24445,-8.1469 1.00615,-11.8012 2.31969,-6.7782 0.63245,2.4185 1.67347,2.8816 6.47839,2.8816 h 5.72486 l 0.10311,-4.8977 c 0.0567,-2.6937 0.40772,-4.1385 0.78003,-3.2106 0.5074,1.2646 1.11948,1.3198 2.44413,0.2204 1.40463,-1.1657 1.99693,-0.574 2.88683,2.8841 0.95228,3.7005 1.77105,4.414 5.47855,4.7741 4.89382,0.4754 6.54162,-1.1862 6.57192,-6.627 0.0164,-2.9551 0.59871,-3.5917 3.2851,-3.5917 2.93859,0 3.2651,0.5225 3.2651,5.2242 0,5.0809 0.123,5.2242 4.48611,5.2242 2.46737,0 5.99368,-0.5732 7.83625,-1.2737 2.6578,-1.0105 3.35012,-0.8756 3.35012,0.653 0,1.0597 0.0599,2.3675 0.13305,2.9062 0.0732,0.5388 -1.83691,0.8385 -4.24464,0.6661 -3.90991,-0.28 -4.05757,-0.1775 -1.38192,0.9586 2.34694,0.9966 2.73031,1.7716 1.77012,3.5786 -0.6741,1.2685 -1.65235,7.4663 -2.1739,13.7728 -1.11027,13.4252 -1.43816,13.7555 -14.68006,14.7878 -11.31127,0.8818 -14.68574,1.589 -14.68574,3.0778 0,0.6613 2.20394,1.4329 4.89765,1.7147 4.4871,0.4693 4.37762,0.5307 -1.30604,0.7318 -5.58206,0.1976 -6.20369,-0.067 -6.20369,-2.6451 z"
     id="path1003" />
  <path
     style="fill:#030000;stroke:#fbffff;stroke-width:0;stroke-miterlimit:0"
     d="m 382.5765,1874.0798 -21.18408,-0.3934 0.7979,-4.2125 c 0.43884,-2.3168 1.30283,-5.2023 1.91998,-6.4122 1.98863,-3.8984 1.22804,-4.6841 -4.36178,-4.5056 -5.34296,0.1707 -5.51064,0.047 -6.526,-4.8005 -1.33825,-6.3894 -3.45714,-10.325 -5.03419,-9.3503 -1.78101,1.1007 -1.44904,-5.3217 0.74467,-14.4069 1.04067,-4.31 1.98135,-10.481 2.09039,-13.7135 0.12101,-3.5871 0.4265,-4.6049 0.78401,-2.612 0.92377,5.1493 2.54248,5.7624 3.43476,1.3011 0.95731,-4.7866 3.40875,-4.0582 3.57227,1.0615 l 0.11226,3.5145 1.18749,-3.9181 c 0.72421,-2.3895 0.70692,-5.3193 -0.0443,-7.5097 -1.34949,-3.9348 -1.12186,-4.1765 2.24165,-2.3809 1.24731,0.6659 3.27884,1.5223 4.5145,1.9031 1.23566,0.3809 2.60711,2.3338 3.04767,4.34 1.51768,6.9109 2.31627,7.6832 3.09622,2.9945 l 0.76039,-4.5711 1.78667,4.2446 c 2.41732,5.7428 4.08186,5.3434 4.08186,-0.9795 0,-5.8614 2.22478,-6.9295 5.04087,-2.4203 1.41391,2.2641 1.9735,2.4527 2.90624,0.9796 0.78979,-1.2474 1.1615,-0.2753 1.17517,3.0732 0.0201,4.917 1.71579,6.5572 3.0864,2.9855 0.62926,-1.6399 1.22216,-1.6589 4.16254,-0.1334 2.25453,1.1697 5.96472,1.5555 10.8338,1.1265 7.1634,-0.6311 7.45518,-0.5309 8.94117,3.0719 2.1369,5.1809 2.26422,22.4135 0.14997,20.2993 -0.85552,-0.8555 -2.02566,-1.5555 -2.60032,-1.5555 -2.16941,0 -0.90506,3.4926 2.96326,8.1855 2.78522,3.3789 3.75456,5.6614 3.1771,7.4808 -0.63674,2.0062 -0.23867,2.6183 1.70274,2.6183 2.90549,0 13.31475,10.6981 13.31475,13.6842 0,1.6841 -2.34791,1.9436 -15.34597,1.6964 -8.44029,-0.1605 -24.87881,-0.4688 -36.53004,-0.6851 z m 36.20353,-11.3533 c 0,-0.3168 -0.58772,-0.9392 -1.30604,-1.3832 -0.71832,-0.4439 -1.30604,-0.1847 -1.30604,0.576 0,0.7607 0.58772,1.3831 1.30604,1.3831 0.71832,0 1.30604,-0.2592 1.30604,-0.5759 z"
     id="path1005" />
  <path
     style="fill:#030000;stroke:#fbffff;stroke-width:0;stroke-miterlimit:0"
     d="m 244.09714,1938.8675 c -0.8979,-0.9038 -1.67386,-3.4358 -1.72434,-5.6266 -0.0785,-3.4077 -0.25404,-3.6059 -1.21425,-1.3714 -0.78277,1.8216 -1.15023,-0.03 -1.21424,-6.1187 -0.11911,-11.3286 -1.66973,-15.431 -5.8327,-15.431 -2.96622,0 -3.25812,-0.6036 -4.10183,-8.482 -0.4996,-4.6652 -0.4978,-11.7681 0.004,-15.7843 0.85647,-6.855 1.20561,-7.4254 5.70205,-9.315 4.78882,-2.0126 4.7891,-2.0132 1.52461,-3.2349 -1.7958,-0.6721 -5.17518,-0.8648 -7.50973,-0.4282 -2.9812,0.5574 -4.28754,0.2901 -4.38879,-0.8981 -1.06282,-12.4729 0.0828,-21.6273 1.80533,-14.4256 0.48835,2.0418 0.65095,2.0069 1.52423,-0.3265 0.53766,-1.4366 1.58459,-4.2358 2.32651,-6.2203 0.77476,-2.0723 2.66839,-3.9394 4.44872,-4.3862 2.48877,-0.6246 3.09977,-1.6383 3.09977,-5.1427 0,-2.515 -0.82734,-4.8276 -1.95236,-5.4572 -1.19261,-0.6674 5.67165,-1.7015 17.63956,-2.6573 17.95696,-1.4342 19.80923,-1.3787 22.19598,0.6649 1.43224,1.2263 2.60407,3.3131 2.60407,4.6373 0,4.8245 2.52302,7.4602 7.14116,7.4602 3.38049,0 4.64746,-0.6626 5.32016,-2.782 0.85768,-2.7024 0.9711,-2.6743 3.95916,0.9795 3.20762,3.9223 4.05825,7.0266 1.92536,7.0266 -0.68462,0 -2.21063,2.0354 -3.39113,4.5232 -1.1805,2.4877 -3.26509,4.8782 -4.63242,5.3121 -2.61238,0.8292 -3.31765,2.7034 -1.29552,3.4428 0.65479,0.2395 1.38943,2.4639 1.63255,4.9433 0.35515,3.622 -0.14006,4.803 -2.5197,6.0091 -4.34643,2.2031 -4.7678,2.9235 -2.97416,5.0847 2.21211,2.6654 1.40511,27.0508 -0.92083,27.8249 -1.13885,0.3791 -1.68634,4.3614 -1.81041,13.1684 -0.1867,13.2528 -0.4596,13.0385 -1.81658,-1.4269 -0.83192,-8.8683 -3.07541,-10.9593 -3.40758,-3.176 -0.13112,3.0724 -0.3266,3.3954 -0.74386,1.229 -0.3113,-1.6162 -1.11284,-2.9386 -1.7812,-2.9386 -0.66836,0 -1.2152,5.5833 -1.2152,12.4074 0,10.1581 -0.35515,12.4074 -1.95906,12.4074 -1.27495,0 -1.95906,-1.277 -1.95906,-3.6569 0,-2.0113 -0.48553,-4.2153 -1.07895,-4.8977 -1.44067,-1.6567 -4.03449,-10.7309 -4.45808,-15.596 -0.40951,-4.7035 -4.9113,-6.5266 -4.9113,-1.9889 0,1.5317 -0.48288,2.4865 -1.07307,2.1217 -2.61461,-1.6159 -5.46393,4.6864 -5.69872,12.6048 l -0.2416,8.1479 -0.49001,-7.1547 c -0.78081,-11.4007 -3.47569,-10.9312 -4.25096,0.7405 -0.52291,7.8725 -0.97828,9.5039 -2.28557,8.188 z"
     id="path1007" />
  <path
     style="fill:#030000;stroke:#fbffff;stroke-width:0;stroke-miterlimit:0"
     d="m 439.41309,1944.884 c -0.8668,-0.8668 -0.10663,-14.9963 1.50864,-28.0417 1.08072,-8.7283 0.90593,-21.2018 -0.49713,-35.4761 l -0.47101,-4.792 10.63637,-0.722 c 5.85001,-0.3972 22.24381,-0.9637 36.43067,-1.259 l 25.7943,-0.5369 v 35.7633 35.7633 h -36.35146 c -19.9933,0 -36.66597,-0.3145 -37.05038,-0.6989 z"
     id="path1009" />
  <path
     style="fill:#030000;stroke:#fbffff;stroke-width:0;stroke-miterlimit:0"
     d="m 366.00379,1943.8668 v -2.1223 h 0.96026 c 0.52815,0 1.06315,-0.1664 1.1889,-0.3699 0.28765,-0.4654 9.63731,-0.077 10.79026,0.4486 1.1056,0.5037 0.97494,0.7374 -0.77692,1.3892 -0.85301,0.3174 -1.6905,0.7047 -1.86111,0.8606 -0.17566,0.1606 13.06358,0.2724 30.5287,0.2578 16.96138,-0.014 30.65521,-0.1 30.43073,-0.1904 -0.59464,-0.24 -0.50057,-0.9912 0.25149,-2.0085 0.3628,-0.4907 0.7648,-1.6969 0.89334,-2.6805 0.21872,-1.6735 0.24682,-1.5624 0.43791,1.7309 0.1123,1.9355 0.31007,3.6252 0.4395,3.7549 0.46596,0.4667 12.30405,0.6584 42.70964,0.6917 l 30.93683,0.034 v -35.9161 -35.9161 l -0.73464,-0.01 c -0.61539,-0.01 -0.64928,-0.06 -0.20877,-0.3173 0.34445,-0.2013 0.82233,-0.1697 1.38512,0.092 l 0.85924,0.3989 0.003,35.9977 0.003,35.9978 H 440.12249 366.0047 Z"
     id="path1011" />
  <path
     style="fill:#030000;stroke:#fbffff;stroke-width:0;stroke-miterlimit:0"
     d="m 490.29113,1843.465 c -0.1139,-0.449 -0.46567,-1.9087 -0.7817,-3.2438 -0.5254,-2.2196 -0.65846,-2.4516 -1.55413,-2.71 -0.53874,-0.1553 -3.72422,-0.2977 -7.07884,-0.3164 l -6.09932,-0.034 0.52712,-1.3174 c 0.42242,-1.0557 0.44222,-1.3457 0.0997,-1.4598 -0.8839,-0.2947 -1.65295,-1.4033 -1.68438,-2.4281 -0.0179,-0.5836 -0.13585,-1.4285 -0.26211,-1.8774 l -0.22956,-0.8163 -0.57358,0.8702 c -0.31547,0.4786 -1.18546,1.1151 -1.93331,1.4143 -1.402,0.561 -7.60115,1.156 -10.51906,1.0097 l -1.63255,-0.082 v -5.0733 -5.0734 l -3.59161,0.1623 c -1.97539,0.089 -3.76236,0.2976 -3.97105,0.4631 -0.22895,0.1816 -0.47196,1.9738 -0.61272,4.5189 -0.28361,5.1281 -0.2728,5.1156 -4.49974,5.1876 -4.39877,0.075 -4.74312,-0.1766 -5.88111,-4.2954 -1.35725,-4.9123 -1.33731,-4.8754 -2.57221,-4.7553 -0.87326,0.085 -1.10543,0.2842 -1.35606,1.1637 -0.36142,1.2682 -0.77258,1.3638 -1.0534,0.2449 -0.15597,-0.6214 -0.41773,-0.8163 -1.0966,-0.8163 -1.31226,0 -1.64956,1.0801 -1.64956,5.2823 v 3.6189 l -1.22442,-0.2383 c -0.67342,-0.131 -2.86841,-0.2346 -4.87774,-0.2301 -2.80897,0.01 -3.7446,-0.1019 -4.04822,-0.4677 -0.28655,-0.3453 -0.33537,-1.4556 -0.17796,-4.0473 0.25556,-4.2078 0.74244,-5.9888 1.67582,-6.13 1.72361,-0.2608 2.12231,-0.4475 2.12231,-0.9938 0,-0.3198 -0.17631,-0.7578 -0.39181,-0.9733 -0.30474,-0.3048 -0.30062,-0.4825 0.0185,-0.8 0.30707,-0.3054 1.92209,-0.3798 6.41799,-0.2955 5.97454,0.112 6.01762,0.1077 7.81511,-0.7717 1.96116,-0.9595 2.17482,-1.3559 2.63682,-4.8916 0.35943,-2.7508 0.39632,-2.918 0.92015,-4.1717 0.27937,-0.6686 0.66237,-1.2157 0.85112,-1.2157 0.18874,0 0.34317,-0.274 0.34317,-0.609 0,-1.0027 1.2586,-2.2916 2.58696,-2.6493 0.68525,-0.1846 1.64514,-0.6496 2.1331,-1.0334 l 0.88719,-0.6979 -0.22909,-3.464 c -0.126,-1.9052 -0.42697,-4.0486 -0.66882,-4.763 -0.65699,-1.9408 -0.34826,-2.6653 1.24429,-2.92 0.73181,-0.117 1.49083,-0.3118 1.68672,-0.4329 0.1959,-0.1211 0.94456,-0.2376 1.6637,-0.2591 1.87537,-0.056 12.80742,-0.8171 14.42658,-1.0046 1.80963,-0.2095 2.94587,-1.1595 3.39221,-2.8361 0.46935,-1.763 1.05638,-2.3976 2.46194,-2.6613 1.68529,-0.3162 2.1961,-0.026 3.67945,2.0884 2.15263,3.0688 2.97189,3.6107 5.45926,3.6107 1.9277,0 2.13548,-0.068 2.47619,-0.8163 0.48841,-1.072 1.17852,-1.0369 1.60582,0.082 l 0.34303,0.8979 0.45359,-0.8163 c 0.28022,-0.5042 0.45802,-1.8377 0.46517,-3.4887 0.0137,-3.1644 0.34934,-4.2179 1.51266,-4.7479 0.76767,-0.3498 0.93239,-0.305 1.5168,0.4121 0.64746,0.7946 0.65329,1.1151 0.46876,25.7826 -0.17347,23.1872 -0.4762,32.4603 -1.15925,35.5085 -0.25448,1.1357 -0.28916,1.1651 -0.48134,0.4076 z m -44.35879,-27.3627 c 0.31165,0.3117 0.35015,-0.056 0.17908,-1.711 -0.29394,-2.8434 -0.56152,-3.7406 -1.11568,-3.7406 -0.35384,0 -0.48979,0.5896 -0.56378,2.445 -0.0536,1.3448 -0.005,2.8139 0.10826,3.2648 l 0.20575,0.8198 0.39469,-0.7375 c 0.30984,-0.5789 0.48002,-0.6521 0.79168,-0.3405 z"
     id="path1013" />
  <path
     style="fill:#030000;stroke:#fbffff;stroke-width:0;stroke-miterlimit:0"
     d="m 437.34624,1874.5813 c -0.90487,-0.2119 -1.46929,-1.031 -1.46929,-2.1323 0,-2.128 -2.04572,-4.8814 -8.81086,-11.8592 -3.40949,-3.5166 -5.00459,-5.4206 -5.60762,-6.6934 -0.46352,-0.9784 -1.8881,-3.1013 -3.16573,-4.7175 -2.5033,-3.1667 -2.84487,-4.0814 -1.52416,-4.0814 0.51877,0 1.01632,-0.3167 1.38767,-0.8835 0.49369,-0.7534 0.60355,-1.919 0.7462,-7.9178 0.1714,-7.2074 0.52039,-9.2947 1.25681,-7.517 1.62137,3.9138 1.58009,3.8532 2.87352,4.2124 0.68918,0.1914 3.27334,0.3488 5.74257,0.3498 h 4.48952 l 0.0286,-2.5305 c 0.0379,-3.3531 0.42462,-5.9902 0.76609,-5.2241 0.33516,0.7519 1.19735,0.7225 2.57019,-0.088 1.37315,-0.8101 1.53919,-0.651 2.46418,2.3623 1.37752,4.4874 2.26497,5.1984 6.57626,5.2683 4.28617,0.07 5.50835,-1.184 5.806,-5.9549 0.14807,-2.3734 0.2887,-2.8945 0.96322,-3.569 0.69076,-0.6908 1.01357,-0.7713 2.5735,-0.642 0.98101,0.081 1.95835,0.3226 2.17185,0.5361 0.23525,0.2353 0.46502,2.0119 0.5832,4.5095 0.25899,5.4731 0.2663,5.48 5.53583,5.2405 2.71136,-0.1232 4.56322,-0.4102 6.66357,-1.0328 1.59979,-0.4741 3.01926,-0.7458 3.1544,-0.6037 0.13513,0.1422 0.29552,1.1401 0.3564,2.2176 l 0.1107,1.959 -3.67324,0.092 c -2.02028,0.051 -3.67324,0.2039 -3.67324,0.3402 0,0.1362 0.81304,0.6465 1.80675,1.1339 0.99372,0.4873 1.8946,1.115 2.00196,1.3948 0.10736,0.2798 -0.0494,1.266 -0.34835,2.1917 -0.75333,2.3326 -1.42224,6.7191 -2.15899,14.1583 -0.3451,3.4847 -0.79442,6.9558 -0.99848,7.7136 -1.29542,4.8108 -2.98011,5.56 -14.50607,6.4505 -8.82309,0.6817 -13.42638,1.6287 -13.80123,2.8392 -0.2069,0.6681 1.91766,1.6954 3.99188,1.93 1.42093,0.1608 1.78314,0.2916 1.31429,0.4748 -0.69597,0.2718 -5.12252,0.3218 -6.1979,0.07 z"
     id="path1015" />
  <path
     style="fill:#030000;stroke:#fbffff;stroke-width:0;stroke-miterlimit:0"
     d="m 393.10413,1874.1631 c -15.53372,-0.3308 -28.95997,-0.6145 -29.83611,-0.6303 l -1.59299,-0.029 0.21429,-1.6154 c 0.32934,-2.4827 1.36128,-6.2494 2.47213,-9.0236 1.57851,-3.9421 1.12151,-4.3804 -4.56724,-4.3804 -1.95525,0 -3.91303,-0.1632 -4.35063,-0.3626 -1.01164,-0.4609 -1.23491,-0.9741 -2.32803,-5.3514 -1.46969,-5.8851 -3.18055,-8.9665 -4.75049,-8.556 -1.6844,0.4405 -1.52027,-3.7947 0.51621,-13.3201 1.32824,-6.2128 1.97235,-10.3473 2.29342,-14.7212 l 0.23656,-3.2227 0.55363,2.0225 c 1.15067,4.2036 2.51869,4.0279 3.57287,-0.4588 0.41119,-1.7501 1.24407,-2.855 1.85373,-2.4593 0.75032,0.4871 1.11575,1.7796 1.32902,4.7008 l 0.22173,3.0373 0.78996,-2.4488 c 1.16963,-3.6258 1.27441,-6.1343 0.39273,-9.4019 -0.40194,-1.4896 -0.63384,-2.8053 -0.51534,-2.9238 0.23522,-0.2352 0.57372,-0.1108 4.92409,1.81 3.80279,1.679 4.41875,2.4443 5.65983,7.0321 0.52615,1.945 1.13097,3.7082 1.34404,3.9181 0.65616,0.6466 1.22648,-0.5671 1.67125,-3.5566 0.22543,-1.5153 0.50226,-2.7551 0.61517,-2.7551 0.11292,0 0.75023,1.2869 1.41625,2.8598 1.3025,3.076 2.55135,4.7419 3.33058,4.4429 0.67624,-0.2595 1.13817,-2.1764 1.1697,-4.8539 0.031,-2.6338 0.55811,-4.6783 1.332,-5.1664 0.78113,-0.4928 2.00259,0.4166 3.41297,2.5407 0.64391,0.9698 1.38557,1.8457 1.64812,1.9465 0.27122,0.1041 0.81567,-0.1819 1.26082,-0.6622 l 0.78345,-0.8454 0.15795,0.7669 c 0.0869,0.4218 0.2267,1.9842 0.31073,3.472 0.2464,4.3627 1.56642,5.5223 3.10706,2.7295 0.70857,-1.2845 0.8745,-1.4006 1.80017,-1.2586 0.56082,0.086 1.97471,0.5774 3.14198,1.092 l 2.12231,0.9357 7.39722,-0.084 7.39722,-0.084 0.84435,1.0035 c 1.48936,1.77 2.36853,5.8074 2.69752,12.3879 0.21253,4.2507 -0.0455,8.6693 -0.5539,9.4846 -0.23979,0.3845 -0.40505,0.3977 -0.87621,0.07 -1.6608,-1.1554 -2.38589,-1.4097 -3.03247,-1.0637 -0.35753,0.1914 -0.64863,0.5999 -0.64688,0.9078 0.006,1.0796 1.59164,3.9546 3.84803,6.9777 3.30791,4.4319 3.8416,5.6995 3.33766,7.9273 -0.36456,1.6117 0.0506,2.4702 1.19448,2.4702 1.48843,0 3.69528,1.3834 6.66237,4.1765 4.26628,4.0161 7.15696,7.8486 7.15696,9.4888 0,1.7168 -4.15867,1.8213 -41.14027,1.0338 z m 25.70505,-11.3233 c 0.16914,-0.5159 -1.1979,-1.7433 -1.94163,-1.7433 -0.78496,0 -1.05418,0.7488 -0.58466,1.6261 0.28137,0.5258 0.62325,0.6728 1.38767,0.597 0.55787,-0.055 1.07025,-0.2713 1.13862,-0.4798 z"
     id="path1017" />
</svg>
