<?xml version="1.0" encoding="UTF-8" standalone="no"?>
<svg
   xmlns:dc="http://purl.org/dc/elements/1.1/"
   xmlns:cc="http://creativecommons.org/ns#"
   xmlns:rdf="http://www.w3.org/1999/02/22-rdf-syntax-ns#"
   xmlns:svg="http://www.w3.org/2000/svg"
   xmlns="http://www.w3.org/2000/svg"
   xmlns:xlink="http://www.w3.org/1999/xlink"
   xmlns:sodipodi="http://sodipodi.sourceforge.net/DTD/sodipodi-0.dtd"
   xmlns:inkscape="http://www.inkscape.org/namespaces/inkscape"
   id="svg1253"
   version="1.1"
   viewBox="0 0 507.99999 285.75001"
   height="1080"
   width="1920"
   sodipodi:docname="calendar.svg"
   inkscape:version="1.0.1 (3bc2e813f5, 2020-09-07)">
  <sodipodi:namedview
     pagecolor="#ffffff"
     bordercolor="#666666"
     borderopacity="1"
     objecttolerance="10"
     gridtolerance="10"
     guidetolerance="10"
     inkscape:pageopacity="0"
     inkscape:pageshadow="2"
     inkscape:window-width="1920"
     inkscape:window-height="1051"
     id="namedview19"
     showgrid="false"
     inkscape:zoom="0.68981481"
     inkscape:cx="960"
     inkscape:cy="540"
     inkscape:window-x="1699"
     inkscape:window-y="-9"
     inkscape:window-maximized="1"
     inkscape:current-layer="svg1253" />
  <defs
     id="defs1247">
    <linearGradient
       y2="138.25"
       x2="1058.3334"
       y1="402.83334"
       x1="555.625"
       gradientTransform="translate(0,4349.8117)"
       gradientUnits="userSpaceOnUse"
       id="linearGradient1200"
       xlink:href="#linearGradient964" />
    <linearGradient
       id="linearGradient964">
      <stop
         id="stop960"
         offset="0"
         style="stop-color:#f2f2f2;stop-opacity:1;" />
      <stop
         id="stop962"
         offset="1"
         style="stop-color:#f2f2f2;stop-opacity:1" />
    </linearGradient>
  </defs>
  <metadata
     id="metadata1250">
    <rdf:RDF>
      <cc:Work
         rdf:about="">
        <dc:format>image/svg+xml</dc:format>
        <dc:type
           rdf:resource="http://purl.org/dc/dcmitype/StillImage" />
        <dc:title></dc:title>
      </cc:Work>
    </rdf:RDF>
  </metadata>
  <path
     style="fill:#030000;stroke:#fbffff;stroke-width:0;stroke-miterlimit:0"
     d="m 713.90626,812.43942 c -8.63392,-4.30246 -15.42451,-11.46491 -19.76652,-20.84898 l -3.05249,-6.59715 V 566.81879 348.6443 l 3.89348,-7.37883 c 4.56667,-8.65465 12.18384,-15.76253 21.402,-19.97103 6.00031,-2.73941 9.90862,-3.06144 43.20116,-3.5596 l 36.60403,-0.54772 v -22.21388 c 0,-21.78321 0.0728,-22.30035 3.75303,-26.67409 l 3.75302,-4.46022 h 35.48323 c 21.56428,0 36.57725,0.58551 38.27222,1.49264 5.8687,3.14083 7.16803,8.76968 7.16803,31.05282 v 21.09212 H 960 h 75.3826 v -21.09212 c 0,-22.28314 1.2993,-27.91199 7.168,-31.05282 1.695,-0.90713 16.7079,-1.49264 38.2722,-1.49264 h 35.4832 l 3.7531,4.46022 c 3.6802,4.37374 3.753,4.89088 3.753,26.67409 v 22.21388 l 36.604,0.54772 c 33.2926,0.49816 37.2009,0.82019 43.2012,3.5596 9.2181,4.2085 16.8353,11.31638 21.402,19.97103 l 3.8935,7.37883 v 218.17449 218.1745 l -3.0525,6.59715 c -4.3421,9.38407 -11.1326,16.54652 -19.7666,20.84898 l -7.4683,3.72165 H 960 721.37464 Z m 117.07361,-84.70788 v -50.73825 h -50.73826 -50.73825 v 50.73825 50.73826 h 50.73825 50.73826 z m 120.32214,0 V 676.99329 H 900.56376 849.8255 v 50.73825 50.73826 h 50.73826 50.73825 z m 118.87249,0 v -50.73825 h -50.7383 -50.73821 v 50.73825 50.73826 h 50.73821 50.7383 z m 120.3221,0 v -50.73825 h -50.7382 -50.7383 v 50.73825 50.73826 h 50.7383 50.7382 z M 830.97987,607.4094 v -50.73826 h -50.73826 -50.73825 v 50.73826 50.73825 h 50.73825 50.73826 z m 120.32214,0 V 556.67114 H 900.56376 849.8255 v 50.73826 50.73825 h 50.73826 50.73825 z m 118.87249,0 v -50.73826 h -50.7383 -50.73821 v 50.73826 50.73825 h 50.73821 50.7383 z m 120.3221,0 v -50.73826 h -50.7382 -50.7383 v 50.73826 50.73825 h 50.7383 50.7382 z M 830.97987,487.08725 v -50.73826 h -50.73826 -50.73825 v 50.73826 50.73825 h 50.73825 50.73826 z m 119.97851,0.36241 -0.3812,-50.37583 -50.37584,-0.38121 -50.37584,-0.3812 v 50.75704 50.75704 h 50.75705 50.75704 z m 119.21612,-0.3812 v -50.75704 l -50.3758,0.3812 -50.37588,0.38121 -0.3812,50.37583 -0.38121,50.37584 h 50.75709 50.757 z m 120.3221,0.0188 V 436.349 h -50.7382 -50.7383 v 50.73826 50.73825 h 50.7383 50.7382 z M 855.62416,337.04698 v -45.66443 h -15.94631 -15.94631 v 45.66443 45.66443 h 15.94631 15.94631 z m 240.64434,0 v -45.66443 h -15.9464 -15.9463 v 45.66443 45.66443 h 15.9463 15.9464 z"
     id="path844"
     transform="scale(0.26458334)" />
</svg>
