<?xml version="1.0" encoding="UTF-8" standalone="no"?>
<svg
   xmlns:dc="http://purl.org/dc/elements/1.1/"
   xmlns:cc="http://creativecommons.org/ns#"
   xmlns:rdf="http://www.w3.org/1999/02/22-rdf-syntax-ns#"
   xmlns:svg="http://www.w3.org/2000/svg"
   xmlns="http://www.w3.org/2000/svg"
   xmlns:sodipodi="http://sodipodi.sourceforge.net/DTD/sodipodi-0.dtd"
   xmlns:inkscape="http://www.inkscape.org/namespaces/inkscape"
   version="1.1"
   viewBox="0 0 1920 1363.9"
   id="svg23"
   sodipodi:docname="Deaths.svg"
   inkscape:version="1.0.1 (3bc2e813f5, 2020-09-07)">
  <metadata
     id="metadata27">
    <rdf:RDF>
      <cc:Work
         rdf:about="">
        <dc:format>image/svg+xml</dc:format>
        <dc:type
           rdf:resource="http://purl.org/dc/dcmitype/StillImage" />
        <dc:title></dc:title>
      </cc:Work>
    </rdf:RDF>
  </metadata>
  <sodipodi:namedview
     pagecolor="#ffffff"
     bordercolor="#666666"
     borderopacity="1"
     objecttolerance="10"
     gridtolerance="10"
     guidetolerance="10"
     inkscape:pageopacity="0"
     inkscape:pageshadow="2"
     inkscape:window-width="1920"
     inkscape:window-height="1051"
     id="namedview25"
     showgrid="false"
     inkscape:zoom="0.54622772"
     inkscape:cx="974.81461"
     inkscape:cy="606.89456"
     inkscape:window-x="1699"
     inkscape:window-y="-9"
     inkscape:window-maximized="1"
     inkscape:current-layer="svg23" />
  <defs
     id="defs7">
    <radialGradient
       id="a"
       cx="539.71"
       cy="874.65"
       r="526.75"
       gradientTransform="matrix(.037087 -.82859 1.0782 .04826 -422.4 1222.6)"
       gradientUnits="userSpaceOnUse">
      <stop
         stop-color="#f00"
         offset="0"
         id="stop2" />
      <stop
         stop-color="#2c2ca0"
         offset="1"
         id="stop4" />
    </radialGradient>
  </defs>
  <path
     id="path852"
     style="fill:#030000;stroke:#fbffff;stroke-width:0;stroke-miterlimit:0"
     d="M 984.45312 51.191406 L 984.45312 81.556641 L 984.45312 111.92188 L 977.58789 113.72266 C 973.812 114.713 966.19033 116.66678 960.65234 118.06445 C 953.09152 119.97264 950.71509 121.35521 951.11133 123.61328 C 951.40158 125.26722 950.39485 129.02786 948.87305 131.9707 C 946.18763 137.16373 946.24612 137.35682 950.83984 138.50977 C 955.29764 139.62861 955.39538 139.89284 952.54102 143.04688 C 949.72491 146.15883 949.72554 146.47654 952.53516 147.55469 C 955.33504 148.62912 955.33612 149.0523 952.57031 153.27344 C 949.05663 158.63601 948.90329 158.61721 967.35742 155.08594 C 975.24951 153.57575 981.91233 152.34001 982.16406 152.33984 C 982.41578 152.33967 982.62305 160.98998 982.62305 171.5625 L 982.62305 190.78516 L 911.43359 190.78516 C 891.05393 190.78516 876.08962 190.71296 864.88086 190.53125 L 796.07617 190.53125 L 787.13672 191.25586 L 786.03906 197.88672 C 785.43596 201.53314 784.93286 207.58715 784.92188 211.33984 C 784.88896 222.47513 787.67399 223.28373 831.14648 224.7793 L 863.38086 225.88867 L 863.38086 225.87109 L 944.48047 227.40039 L 957.84375 227.40039 L 957.84375 227.39648 L 958.07617 227.40039 L 962.39258 227.40039 L 962.37891 227.47266 L 982.19141 227.80664 L 982.19141 515.40625 L 980.41992 621.53516 C 980.76916 653.16968 980.36911 701.40903 979.16992 748.24609 L 978.04492 792.18359 L 956.07617 797.81641 C 925.90878 805.5517 905.8354 812.39512 846.23242 835.26172 C 779.2827 860.9469 763.80907 865.21333 737.30273 865.29883 C 723.737 865.34256 712.86433 863.2102 700.73633 858.12891 C 674.20778 847.01419 648.70716 842.36158 600 839.74805 C 587.41483 839.07276 576.37417 838.06003 575.46484 837.49805 C 574.49556 836.899 574.23582 801.68262 574.83594 752.38281 C 575.25935 717.59934 575.53796 697.18913 575.99609 684.86914 L 575.99609 393.37891 L 576.02539 393.37891 A 16.991539 19.337173 0 0 1 575.88086 390.86328 A 16.991539 19.337173 0 0 1 590.07812 371.78906 C 590.64531 371.09195 591.25876 370.77856 592.02148 370.75195 C 592.47559 370.73611 592.98263 370.81752 593.5625 370.9707 C 595.59179 371.50674 606.72527 374.14467 618.30469 376.83398 C 629.74604 379.49126 639.8798 382.35253 641.04297 383.24805 L 685.83789 392.93359 L 705.2793 396.7207 C 745.00727 404.45962 744.62695 404.58415 744.62695 383.89648 L 744.62695 370.70117 L 730.4375 368.45508 C 722.63398 367.22049 684.67969 359.28166 646.09375 350.8125 C 607.50781 342.34334 575.60175 335.41406 575.19141 335.41406 C 574.78106 335.41406 574.90247 312.1404 575.46094 283.69531 C 576.01942 255.25021 575.79637 227.11741 574.96484 221.17773 L 573.45312 210.37891 L 561.55273 207.05469 C 555.00785 205.22622 549.03448 203.69946 548.2793 203.66406 C 547.52412 203.62868 546.90625 231.19834 546.90625 264.92969 C 546.90625 321.87314 546.68008 326.25977 543.73633 326.25977 C 534.41738 326.25977 422.59912 303.59837 417.62305 300.70117 C 413.37931 298.23035 407.03971 297.2072 392.9082 296.71484 L 373.90234 296.05273 L 373.36523 307.14062 C 372.93993 315.9407 373.50782 318.84149 376.11523 321.20117 C 377.93703 322.84988 394.39765 327.61957 413.06836 331.9082 C 427.11697 335.13514 435.284 337.0298 440.56445 338.68945 L 486.72656 348.88086 C 492.69961 349.87066 501.65333 351.58245 511.66406 353.68945 C 538.40924 359.31864 544.04224 360.15803 542.87109 365.62109 L 542.87109 571.07812 C 543.11436 572.64509 543.24609 573.87659 543.24609 574.69922 C 543.24609 578.79392 542.01392 584.50458 540.50977 587.38867 C 536.97515 594.16603 537.04948 600.67623 540.87305 619.43359 C 543.62465 632.93216 543.94285 646.72331 543.57227 736.23828 C 543.34116 792.06311 542.90583 837.98675 542.60352 838.28906 C 542.30121 838.59137 531.81692 839.25363 519.30664 839.76172 C 487.55865 841.0511 460.47337 842.77135 433.40039 845.2168 C 396.15554 848.58105 388.57795 849.38058 382.41797 850.59961 C 379.74822 851.12794 372.06587 852.00075 365.34766 852.53906 C 358.62944 853.07735 352.04033 853.89457 350.70312 854.35352 C 349.36608 854.81248 342.91597 855.71677 336.37109 856.36328 C 329.8262 857.0098 322.4118 857.80243 319.89453 858.125 C 306.10025 859.8926 299.05313 860.93014 295.49414 861.71875 C 293.30789 862.20316 287.39976 863.10651 282.36523 863.72656 C 270.81651 865.1489 268.96288 865.43985 262.22656 866.88086 C 259.20585 867.52704 252.61461 868.56222 247.58008 869.18164 C 238.07816 870.35067 236.58997 870.60896 222.79492 873.49023 C 218.22441 874.44483 211.22061 875.682 207.23242 876.23828 C 203.24421 876.79457 195.86265 878.10318 190.82812 879.14648 C 185.79359 880.18978 179.20235 881.42587 176.18164 881.89258 C 150.09865 885.92233 46.953119 909.45073 14.636719 918.74219 L 5.0429688 921.5 L 4.5683594 1105.8223 L 4.0917969 1290.1445 L 154.21289 1290.1445 C 305.58118 1290.1445 986.21852 1291.9325 1571.1484 1293.8672 C 1745.3125 1294.4432 1888.1788 1295.2822 1888.6289 1295.7324 C 1889.0791 1296.1827 1896.5194 1296.5507 1905.1621 1296.5508 L 1920.875 1296.5508 L 1920.4004 1118.498 L 1919.9238 940.44336 L 1887.4473 928.6582 C 1815.5005 902.5507 1727.4829 876.4766 1692.0332 870.76953 C 1689.0125 870.28321 1684.4821 869.38375 1681.9648 868.76953 C 1679.4476 868.15532 1675.3277 867.39896 1672.8105 867.08789 C 1670.2932 866.77681 1665.3504 865.94834 1661.8262 865.24805 C 1658.3021 864.54777 1653.3591 863.72845 1650.8418 863.42773 C 1648.3245 863.12702 1642.5565 862.31821 1638.0254 861.63086 C 1633.4944 860.94351 1627.3156 860.15646 1624.2949 859.88086 C 1621.2742 859.60526 1612.6241 858.81017 1605.0723 858.11328 C 1578.2477 855.63788 1512.798 856.70214 1488.8203 860.00391 C 1485.7995 860.41988 1479.4156 861.20592 1474.6328 861.75 L 1465.9375 862.73828 L 1465.4785 800.91602 C 1465.1243 753.07209 1465.0918 721.91069 1465.5215 700.36914 L 1465.5215 407.11914 L 1465.5215 397.99219 C 1471.6508 396.2574 1510.4768 389.78746 1525.334 387.87891 L 1565.7129 379.82422 L 1598.5879 373.68164 C 1639.2723 366.07997 1640.8971 365.08104 1639.0137 348.85352 L 1637.7285 337.76953 L 1620.0273 338.5293 C 1608.1954 339.03597 1599.5948 340.44158 1594.0879 342.76953 C 1589.1971 344.837 1563.1621 349.66241 1530.0137 354.64453 C 1499.303 359.26024 1471.497 363.50302 1468.2246 364.07422 L 1462.2754 365.11328 L 1462.2754 303.38086 L 1462.2754 241.64844 L 1458.125 242.69141 C 1455.842 243.26441 1449.7148 244.64542 1444.5098 245.76172 L 1435.0469 247.79297 L 1433.7617 258.07227 C 1433.0552 263.72619 1432.8861 291.67834 1433.3848 320.18945 C 1433.8834 348.70056 1433.6449 372.0293 1432.8555 372.0293 C 1432.0661 372.0293 1402.3189 377.28928 1366.752 383.71875 C 1331.1851 390.14815 1295.9073 396.35532 1288.3555 397.51367 C 1280.8037 398.67201 1272.0385 400.02334 1268.877 400.51562 C 1262.3911 401.5256 1260.934 404.70289 1260.959 417.79688 C 1260.9686 422.8136 1262.2126 427.60394 1264.1387 430.04688 L 1267.3008 434.05859 L 1301.1621 428.47266 L 1335.0215 422.88477 L 1335.0977 422.92188 L 1365.5605 416.94531 C 1368.296 415.73842 1420.8267 405.47805 1424.5059 405.41406 C 1424.6267 405.41196 1424.6952 405.4208 1424.707 405.44141 C 1424.851 405.69206 1424.6371 410.15798 1424.2324 415.36523 L 1423.8652 420.07422 L 1423.8672 420.07422 A 13.268907 33.657715 0 0 0 1423.6562 426.06055 A 13.268907 33.657715 0 0 0 1431.0996 456.29883 L 1431.0996 705.83203 C 1431.5651 718.42242 1432.2272 735.0743 1432.9102 750.99219 C 1433.9686 775.66139 1434.6244 811.49769 1434.3672 830.62891 L 1433.8984 865.41211 L 1407.3535 865.41211 C 1381.9099 865.41211 1343.1673 863.7419 1327.7168 861.97852 C 1285.8481 857.19998 1278.8885 855.0367 1229.7715 831.51953 C 1209.1299 821.63638 1184.8278 810.94639 1175.7656 807.76562 C 1159.4261 802.03062 1130.5567 793.64341 1121.7578 792.07422 C 1119.2406 791.62528 1115.1208 790.87668 1112.6035 790.41211 C 1107.2092 789.4166 1094.8513 787.81322 1083.3125 786.60938 C 1070.4282 785.26507 1027.3715 785.30695 1021.166 786.66992 L 1015.5762 787.89648 L 1015.5762 692.66211 C 1015.5762 662.43582 1015.7543 638.19832 1016.0723 621.53516 L 1015.9023 621.53516 L 1015.9023 228.375 L 1048.4531 228.92383 L 1048.4492 229.15234 C 1059.9118 229.34376 1071.9323 229.74599 1078.8652 230.30469 L 1164.1445 232.89062 C 1208.6992 232.90411 1207.6456 233.22147 1207.7422 209.92383 L 1207.8027 195.19336 L 1167.9844 195.08398 C 1146.0842 195.02311 1102.8335 194.34767 1071.8711 193.58398 L 1015.5762 192.19531 L 1015.5762 166.96094 L 1015.5762 141.72656 L 1029.4824 136.6543 C 1037.1311 133.86466 1043.8664 130.28131 1044.4512 128.68945 C 1045.036 127.09758 1046.2736 125.28496 1047.1992 124.66211 C 1048.1249 124.03926 1046.3307 122.63958 1043.2129 121.55273 C 1036.5394 119.22632 1036.4106 118.52299 1041.2129 110.64648 C 1045.605 103.44283 1045.6627 102.91016 1042.0566 102.91016 C 1039.8134 102.91016 1039.6411 102.17045 1041.2051 99.248047 C 1043.5587 94.850387 1043.639 94.856277 1029.8262 98.435547 C 1023.7797 100.00232 1018.3859 100.83708 1017.8398 100.29102 C 1017.2937 99.744883 1016.4483 88.988822 1015.9629 76.388672 L 1015.0801 53.480469 L 1005.4883 53.480469 C 1000.2121 53.480469 993.32041 52.965246 990.17383 52.335938 L 984.45312 51.191406 z " />
</svg>
