<?xml version="1.0" encoding="UTF-8" standalone="no"?>
<svg
   xmlns:dc="http://purl.org/dc/elements/1.1/"
   xmlns:cc="http://creativecommons.org/ns#"
   xmlns:rdf="http://www.w3.org/1999/02/22-rdf-syntax-ns#"
   xmlns:svg="http://www.w3.org/2000/svg"
   xmlns="http://www.w3.org/2000/svg"
   xmlns:sodipodi="http://sodipodi.sourceforge.net/DTD/sodipodi-0.dtd"
   xmlns:inkscape="http://www.inkscape.org/namespaces/inkscape"
   version="1.1"
   id="svg2"
   width="1066.6667"
   height="1066.6667"
   viewBox="0 0 1066.6667 1066.6667"
   sodipodi:docname="Interdit.svg"
   inkscape:version="1.0.1 (3bc2e813f5, 2020-09-07)">
  <metadata
     id="metadata8">
    <rdf:RDF>
      <cc:Work
         rdf:about="">
        <dc:format>image/svg+xml</dc:format>
        <dc:type
           rdf:resource="http://purl.org/dc/dcmitype/StillImage" />
        <dc:title></dc:title>
      </cc:Work>
    </rdf:RDF>
  </metadata>
  <defs
     id="defs6" />
  <sodipodi:namedview
     pagecolor="#ffffff"
     bordercolor="#666666"
     borderopacity="1"
     objecttolerance="10"
     gridtolerance="10"
     guidetolerance="10"
     inkscape:pageopacity="0"
     inkscape:pageshadow="2"
     inkscape:window-width="1920"
     inkscape:window-height="1051"
     id="namedview4"
     showgrid="false"
     inkscape:zoom="0.69843745"
     inkscape:cx="672.54077"
     inkscape:cy="361.0481"
     inkscape:window-x="1699"
     inkscape:window-y="-9"
     inkscape:window-maximized="1"
     inkscape:current-layer="g10" />
  <g
     inkscape:groupmode="layer"
     inkscape:label="Image"
     id="g10">
    <path
       style="fill:#020202;stroke-width:1.06667"
       d="m 469.84113,1066.4523 c -10.1712,-1.2084 -38.3483,-6.1894 -50.6667,-8.9565 -41.2117,-9.2576 -76.9119,-21.7668 -115.24921,-40.3827 -27.0879,-13.1534 -39.8634,-20.45828 -64.4841,-36.87178 C 140.75537,914.45222 67.00618,817.30772 29.45947,703.64772 -6.3815099,595.15129 -6.3574699,472.07166 29.52587,363.75696 86.74018,191.05424 226.58892,59.801919 401.73053,14.431529 c 20.3003,-5.2587796 39.3789,-9.1229296 58.3475,-11.8175896 13.0093,-1.84808999 20.9607,-2.07058999 74.5264,-2.08549999 48.09,-0.0134 62.3467,0.30803 72,1.62316999 151.4772,20.6369496 288.0234,106.7282506 372.2801,234.7196906 47.34137,71.91482 76.16787,153.06217 85.79197,241.50714 2.7141,24.94187 2.7146,85.9826 10e-4,110.93334 -17.5911,161.74524 -102.14937,302.82894 -234.30307,390.92954 -24.5883,16.3919 -37.3597,23.69708 -64.4841,36.88518 -45.0847,21.9203 -90.3417,36.5221 -142.4549,45.9618 l -18.661,3.3802 -65.6,0.2137 c -36.08,0.1175 -67.28,0.014 -69.3333,-0.2299 z m 107.2,-112.97188 c 72.6407,-7.0208 142.8082,-33.3499 203.4352,-76.3354 5.8158,-4.1235 10.8523,-8.2222 11.1924,-9.1083 0.4292,-1.1185 -89.5142,-91.7439 -294.204,-296.43466 -162.1522,-162.153 -295.39441,-294.82362 -296.09391,-294.82362 -2.565,0 -20.41979,25.77279 -32.80979,47.35979 -27.48827,47.89259 -45.04887,101.09113 -52.49848,159.04021 -2.73733,21.2932 -2.74519,79.93325 -0.0135,101.33334 10.22391,80.09644 40.43296,151.97214 89.88727,213.86664 14.8018,18.5252 46.0404,49.7484 64.4127,64.3811 87.26141,69.4993 195.37521,101.4799 306.69221,90.7209 z m 301.9969,-175.2434 c 40.5457,-56.726 65.142,-120.8537 74.7129,-194.79191 2.7614,-21.33298 2.7614,-77.86702 0,-99.2 -10.6913,-82.59372 -39.8503,-152.32912 -89.8716,-214.93334 -14.7826,-18.50112 -46.0103,-49.71947 -64.4382,-64.41893 -81.2771,-64.83257 -181.7781,-97.37054 -285.0625,-92.29117 -72.9598,3.58806 -142.9243,25.54251 -204.43471,64.15044 -14.5657,9.14242 -31.082,21.03802 -31.797,22.90137 -0.7845,2.04426 588.23981,591.43934 590.62751,590.99934 0.88,-0.1622 5.4986,-5.7493 10.2636,-12.4158 z"
       id="path837" />
  </g>
</svg>
