<?xml version="1.0" encoding="UTF-8" standalone="no"?>
<svg
   xmlns:dc="http://purl.org/dc/elements/1.1/"
   xmlns:cc="http://creativecommons.org/ns#"
   xmlns:rdf="http://www.w3.org/1999/02/22-rdf-syntax-ns#"
   xmlns:svg="http://www.w3.org/2000/svg"
   xmlns="http://www.w3.org/2000/svg"
   xmlns:sodipodi="http://sodipodi.sourceforge.net/DTD/sodipodi-0.dtd"
   xmlns:inkscape="http://www.inkscape.org/namespaces/inkscape"
   width="210mm"
   height="297mm"
   viewBox="0 0 210 297"
   version="1.1"
   id="svg8"
   sodipodi:docname="Logo.svg"
   inkscape:version="1.0.1 (3bc2e813f5, 2020-09-07)">
  <defs
     id="defs2" />
  <sodipodi:namedview
     id="base"
     pagecolor="#ffffff"
     bordercolor="#666666"
     borderopacity="1.0"
     inkscape:pageopacity="0.0"
     inkscape:pageshadow="2"
     inkscape:zoom="0.7"
     inkscape:cx="292.9532"
     inkscape:cy="563.31303"
     inkscape:document-units="mm"
     inkscape:current-layer="layer1"
     inkscape:document-rotation="0"
     showgrid="false"
     inkscape:window-width="1920"
     inkscape:window-height="1051"
     inkscape:window-x="1699"
     inkscape:window-y="-9"
     inkscape:window-maximized="1" />
  <metadata
     id="metadata5">
    <rdf:RDF>
      <cc:Work
         rdf:about="">
        <dc:format>image/svg+xml</dc:format>
        <dc:type
           rdf:resource="http://purl.org/dc/dcmitype/StillImage" />
      </cc:Work>
    </rdf:RDF>
  </metadata>
  <g
     inkscape:label="Layer 1"
     inkscape:groupmode="layer"
     id="layer1">
    <path
       id="path833"
       style="fill:#60002c;fill-opacity:1;stroke:#fbffff;stroke-width:5.91496"
       inkscape:transform-center-x="12.027967"
       inkscape:transform-center-y="15.20759"
       d="M 390.02148 151.79492 C 373.60677 151.7757 329.56164 171.05818 278.65039 197.64648 L 276.38281 203.24219 L 368.51172 430.6875 L 570.71484 430.87891 L 570.71484 236.45898 C 494.49129 191.9759 413.67102 151.8226 390.02148 151.79492 z M 249.125 213.46094 C 163.67738 260.3172 70.430179 320.48195 57.117188 343.47852 C 50.506378 354.89787 45.770347 388.03282 42.900391 430.37695 L 161.21484 430.49023 L 249.125 213.46094 z M 264.82422 231.78125 L 184.32617 430.51172 L 345.38281 430.66602 L 264.82422 231.78125 z M 592.14258 249.13477 L 592.14258 430.90039 L 736.48438 431.03711 C 733.71242 388.75313 729.0532 355.67975 722.47656 344.25781 C 712.38977 326.73962 656.08012 287.58515 592.14258 249.13477 z M 41.630859 451.80469 C 37.249053 539.33067 39.965621 654.16546 49.886719 705.33789 L 152.53906 451.91016 L 41.630859 451.80469 z M 175.65039 451.93164 L 61.423828 733.93555 C 103.81705 781.49158 345.1785 920.03253 389.12109 920.08398 C 407.67794 920.10571 461.51122 895.49642 520.70508 863.5 L 354.06641 452.10156 L 175.65039 451.93164 z M 377.19336 452.12305 L 539.62109 853.12109 C 549.97139 847.36427 560.38656 841.44172 570.71484 835.44141 L 570.71484 452.30664 L 377.19336 452.12305 z M 592.14258 452.32812 L 592.14258 822.78125 C 655.87845 784.62069 711.93459 745.83298 722.02539 728.40234 C 737.43866 701.77785 742.70934 557.44991 737.68359 452.4668 L 592.14258 452.32812 z "
       transform="scale(0.26458333)" />
  </g>
</svg>
