<?xml version="1.0" encoding="UTF-8" standalone="no"?>
<svg
   xmlns:dc="http://purl.org/dc/elements/1.1/"
   xmlns:cc="http://creativecommons.org/ns#"
   xmlns:rdf="http://www.w3.org/1999/02/22-rdf-syntax-ns#"
   xmlns:svg="http://www.w3.org/2000/svg"
   xmlns="http://www.w3.org/2000/svg"
   xmlns:sodipodi="http://sodipodi.sourceforge.net/DTD/sodipodi-0.dtd"
   xmlns:inkscape="http://www.inkscape.org/namespaces/inkscape"
   version="1.1"
   id="svg2"
   xml:space="preserve"
   width="4133.3335"
   height="2800"
   viewBox="0 0 4133.3335 2800"
   sodipodi:docname="Montagne.svg"
   inkscape:version="1.0.1 (3bc2e813f5, 2020-09-07)"><metadata
     id="metadata8"><rdf:RDF><cc:Work
         rdf:about=""><dc:format>image/svg+xml</dc:format><dc:type
           rdf:resource="http://purl.org/dc/dcmitype/StillImage" /><dc:title></dc:title></cc:Work></rdf:RDF></metadata><defs
     id="defs6"><clipPath
       clipPathUnits="userSpaceOnUse"
       id="clipPath18"><path
         d="M 0,0 H 3100 V 2100 H 0 Z"
         id="path16" /></clipPath><linearGradient
       x1="0"
       y1="0"
       x2="1"
       y2="0"
       gradientUnits="userSpaceOnUse"
       gradientTransform="matrix(0,2080.0017,2080.0017,0,1550,9.0005999)"
       spreadMethod="pad"
       id="linearGradient28"><stop
         style="stop-opacity:1;stop-color:#26405e"
         offset="0"
         id="stop24" /><stop
         style="stop-opacity:1;stop-color:#080019"
         offset="1"
         id="stop26" /></linearGradient><clipPath
       clipPathUnits="userSpaceOnUse"
       id="clipPath38"><path
         d="M 0,2100 H 3100 V 0 H 0 Z"
         id="path36" /></clipPath><clipPath
       clipPathUnits="userSpaceOnUse"
       id="clipPath46"><path
         d="M 810.153,1933.42 H 2162.36 V 581.212 H 810.153 Z"
         id="path44" /></clipPath><clipPath
       clipPathUnits="userSpaceOnUse"
       id="clipPath50"><path
         d="M 810.153,1933.42 H 2162.37 V 581.212 H 810.153 Z"
         id="path48" /></clipPath><clipPath
       clipPathUnits="userSpaceOnUse"
       id="clipPath54"><path
         d="m 2162.365,1257.317 c 0,-373.402 -302.703,-676.105 -676.106,-676.105 -373.403,0 -676.106,302.703 -676.106,676.105 0,373.404 302.703,676.106 676.106,676.106 373.403,0 676.106,-302.702 676.106,-676.106"
         id="path52" /></clipPath><clipPath
       clipPathUnits="userSpaceOnUse"
       id="clipPath58"><path
         d="M -23024,25624 H 9742 V -7142 h -32766 z"
         id="path56" /></clipPath><clipPath
       clipPathUnits="userSpaceOnUse"
       id="clipPath62"><path
         d="M -23024,25624 H 9742 V -7142 h -32766 z"
         id="path60" /></clipPath><mask
       maskUnits="userSpaceOnUse"
       x="0"
       y="0"
       width="1"
       height="1"
       id="mask64"><g
         id="g76"><g
           clip-path="url(#clipPath58)"
           id="g74"><g
             id="g72"><g
               id="g66" /><g
               id="g70"><g
                 clip-path="url(#clipPath62)"
                 id="g68" /></g></g></g></g></mask><radialGradient
       fx="0"
       fy="0"
       cx="0"
       cy="0"
       r="1"
       gradientUnits="userSpaceOnUse"
       gradientTransform="matrix(676.1059,0,0,-676.1059,1486.2588,1257.3174)"
       spreadMethod="pad"
       id="radialGradient84"><stop
         style="stop-opacity:1;stop-color:#ffffff"
         offset="0"
         id="stop78" /><stop
         style="stop-opacity:1;stop-color:#ffffff"
         offset="0.70223916"
         id="stop80" /><stop
         style="stop-opacity:1;stop-color:#231f20"
         offset="1"
         id="stop82" /></radialGradient><mask
       maskUnits="userSpaceOnUse"
       x="0"
       y="0"
       width="1"
       height="1"
       id="mask86"><g
         id="g112"><g
           clip-path="url(#clipPath46)"
           id="g110"><g
             id="g108"><g
               id="g88" /><g
               id="g106"><g
                 clip-path="url(#clipPath50)"
                 id="g104"><g
                   id="g102"><g
                     clip-path="url(#clipPath54)"
                     id="g100"><g
                       id="g98"><g
                         id="g90" /><g
                         mask="url(#mask64)"
                         id="g96"><g
                           id="g94"><path
                             d="m 2162.365,1257.317 c 0,-373.402 -302.703,-676.105 -676.106,-676.105 -373.403,0 -676.106,302.703 -676.106,676.105 0,373.404 302.703,676.106 676.106,676.106 373.403,0 676.106,-302.702 676.106,-676.106"
                             style="fill:url(#radialGradient84);stroke:none"
                             id="path92" /></g></g></g></g></g></g></g></g></g></g></mask><clipPath
       clipPathUnits="userSpaceOnUse"
       id="clipPath120"><path
         d="M 810.153,1933.42 H 2162.36 V 581.212 H 810.153 Z"
         id="path118" /></clipPath><clipPath
       clipPathUnits="userSpaceOnUse"
       id="clipPath124"><path
         d="m 2162.365,1257.317 c 0,-373.402 -302.703,-676.105 -676.106,-676.105 -373.403,0 -676.106,302.703 -676.106,676.105 0,373.404 302.703,676.106 676.106,676.106 373.403,0 676.106,-302.702 676.106,-676.106"
         id="path122" /></clipPath><radialGradient
       fx="0"
       fy="0"
       cx="0"
       cy="0"
       r="1"
       gradientUnits="userSpaceOnUse"
       gradientTransform="matrix(676.1059,0,0,-676.1059,1486.2589,1257.3176)"
       spreadMethod="pad"
       id="radialGradient132"><stop
         style="stop-opacity:1;stop-color:#ffffff"
         offset="0"
         id="stop126" /><stop
         style="stop-opacity:1;stop-color:#ffffff"
         offset="0.70223916"
         id="stop128" /><stop
         style="stop-opacity:1;stop-color:#231f20"
         offset="1"
         id="stop130" /></radialGradient><clipPath
       clipPathUnits="userSpaceOnUse"
       id="clipPath154"><path
         d="m 939.775,1257.317 c 0,-301.814 244.669,-546.483 546.484,-546.483 v 0 c 301.814,0 546.484,244.669 546.484,546.483 v 0 c 0,301.815 -244.67,546.485 -546.484,546.485 v 0 c -301.815,0 -546.484,-244.67 -546.484,-546.485"
         id="path152" /></clipPath><clipPath
       clipPathUnits="userSpaceOnUse"
       id="clipPath166"><path
         d="M 641.708,1943.12 H 2420.35 V 624.532 H 641.708 Z"
         id="path164" /></clipPath><clipPath
       clipPathUnits="userSpaceOnUse"
       id="clipPath170"><path
         d="m 1022.83,1539.62 h 557.6 v -382.3 h -557.6 z"
         id="path168" /></clipPath><clipPath
       clipPathUnits="userSpaceOnUse"
       id="clipPath174"><path
         d="m 1022.83,1539.62 h 557.6 v -382.3 h -557.6 z"
         id="path172" /></clipPath><clipPath
       clipPathUnits="userSpaceOnUse"
       id="clipPath178"><path
         d="M 870.365,1327.28 H 1427.97 V 944.977 H 870.365 Z"
         id="path176" /></clipPath><clipPath
       clipPathUnits="userSpaceOnUse"
       id="clipPath182"><path
         d="M 870.365,1327.28 H 1427.97 V 944.977 H 870.365 Z"
         id="path180" /></clipPath><clipPath
       clipPathUnits="userSpaceOnUse"
       id="clipPath186"><path
         d="M 641.708,1356.74 H 1199.31 V 974.437 H 641.708 Z"
         id="path184" /></clipPath><clipPath
       clipPathUnits="userSpaceOnUse"
       id="clipPath190"><path
         d="M 641.708,1356.74 H 1199.31 V 974.437 H 641.708 Z"
         id="path188" /></clipPath><clipPath
       clipPathUnits="userSpaceOnUse"
       id="clipPath194"><path
         d="m 1053,1943.12 h 557.6 v -382.3 H 1053 Z"
         id="path192" /></clipPath><clipPath
       clipPathUnits="userSpaceOnUse"
       id="clipPath198"><path
         d="m 1053,1943.12 h 557.6 v -382.3 H 1053 Z"
         id="path196" /></clipPath><clipPath
       clipPathUnits="userSpaceOnUse"
       id="clipPath202"><path
         d="m 1004.55,1136.13 h 905.19 V 624.532 h -905.19 z"
         id="path200" /></clipPath><clipPath
       clipPathUnits="userSpaceOnUse"
       id="clipPath206"><path
         d="m 1004.55,1136.13 h 905.19 V 624.532 h -905.19 z"
         id="path204" /></clipPath><clipPath
       clipPathUnits="userSpaceOnUse"
       id="clipPath210"><path
         d="m 1502.18,1828.03 h 918.17 V 978.34 h -918.17 z"
         id="path208" /></clipPath><clipPath
       clipPathUnits="userSpaceOnUse"
       id="clipPath214"><path
         d="m 1502.18,1828.03 h 918.17 V 978.34 h -918.17 z"
         id="path212" /></clipPath><clipPath
       clipPathUnits="userSpaceOnUse"
       id="clipPath2866"><path
         d="M 0,2100 H 3100 V 0 H 0 Z"
         id="path2864" /></clipPath><clipPath
       clipPathUnits="userSpaceOnUse"
       id="clipPath2882"><path
         d="M 394.172,672.315 H 1682.85 V 32 H 394.172 Z"
         id="path2880" /></clipPath><clipPath
       clipPathUnits="userSpaceOnUse"
       id="clipPath2898"><path
         d="M 7.57497,526.826 H 1122.89 L 1122.89,0 H 7.57497 Z"
         id="path2896" /></clipPath><clipPath
       clipPathUnits="userSpaceOnUse"
       id="clipPath2914"><path
         d="M 976.414,809.468 H 2213.87 V 28.4897 H 976.414 Z"
         id="path2912" /></clipPath></defs><sodipodi:namedview
     pagecolor="#ffffff"
     bordercolor="#666666"
     borderopacity="1"
     objecttolerance="10"
     gridtolerance="10"
     guidetolerance="10"
     inkscape:pageopacity="0"
     inkscape:pageshadow="2"
     inkscape:window-width="1920"
     inkscape:window-height="1051"
     id="namedview4"
     showgrid="false"
     inkscape:zoom="0.26607143"
     inkscape:cx="2056.7688"
     inkscape:cy="1937.8811"
     inkscape:window-x="1699"
     inkscape:window-y="-9"
     inkscape:window-maximized="1"
     inkscape:current-layer="g10" /><g
     id="g10"
     inkscape:groupmode="layer"
     inkscape:label="wolf-4561204"
     transform="matrix(1.3333333,0,0,-1.3333333,0,2800)"><g
       id="g32"><g
         id="g34"
         clip-path="url(#clipPath38)"><g
           id="g40"><g
             id="g42" /><g
             id="g114"
             mask="url(#mask86)"><g
               id="g116" /><g
               id="g146"><g
                 clip-path="url(#clipPath120)"
                 id="g144"><g
                   id="g142"><g
                     clip-path="url(#clipPath124)"
                     id="g140"><g
                       id="g138"><g
                         id="g136"><path
                           d="m 2162.365,1257.317 c 0,-373.402 -302.703,-676.105 -676.106,-676.105 -373.403,0 -676.106,302.703 -676.106,676.105 0,373.404 302.703,676.106 676.106,676.106 373.403,0 676.106,-302.702 676.106,-676.106"
                           style="fill:url(#radialGradient132);stroke:none"
                           id="path134" /></g></g></g></g></g></g></g></g></g></g><path
       id="path4279"
       style="fill:#030000;stroke:#fbffff;stroke-width:0;stroke-miterlimit:0"
       d="M 2684.8457 1194.5 A 13.08029 4.6507691 0 0 0 2673.0664 1197.2715 L 2662.4766 1202.9824 L 2643.5508 1215.7285 C 2634.9093 1221.548 2626.2799 1226.5016 2622.1191 1228.1328 L 2589.6875 1246.791 C 2575.8151 1256.2958 2506.8844 1290.6188 2449.0293 1316.5039 C 2431.6576 1324.2762 2416.0792 1331.0319 2407.1328 1334.7207 L 2375.2031 1348.9629 L 2353.1152 1358.9258 C 2336.2143 1366.5478 2323.9647 1369.1125 2300.959 1369.8516 C 2284.4221 1370.3828 2266.0461 1370.0001 2260.123 1369 C 2260.095 1368.9953 2260.0767 1368.991 2260.0488 1368.9863 L 2258.0039 1368.9863 A 25.251678 6.6946314 0 0 0 2236.8281 1365.9395 A 25.251678 6.6946314 0 0 0 2215.6562 1368.9863 L 2215.4688 1368.9863 C 2214.0995 1369.6891 2212.6365 1370.332 2211.0918 1370.8906 C 2193.3142 1377.3192 2168.5947 1398.5574 2144.7383 1427.8984 C 2090.4915 1494.6167 2086.0857 1497.1889 2032.0996 1493.6621 C 1971.2185 1489.6849 1934.9151 1502.4433 1899.5605 1540.2402 C 1878.2795 1562.9914 1870.4209 1578.5304 1857.709 1622.9902 C 1840.2938 1683.9006 1825.7792 1705.2855 1781.4043 1735.4199 C 1748.1591 1757.9963 1729.2164 1780.6336 1722.1211 1806.2676 C 1705.9019 1864.8642 1700.5892 1875.4879 1672.6445 1905.1934 C 1657.8055 1920.9672 1633.0742 1945.1413 1617.6855 1958.9141 L 1589.7051 1983.957 L 1574.2852 1962.4375 C 1549.52 1927.877 1539.3761 1917.3767 1515.457 1901.543 L 1492.9062 1886.6152 L 1486.3711 1894.4004 C 1482.7764 1898.6825 1477.9353 1909.2086 1475.6133 1917.793 C 1467.1551 1949.0631 1462.9049 1955.2019 1420.4004 1997.5098 L 1377.1543 2040.5527 L 1364.3066 2030.1992 C 1329.2017 2001.9063 1318.2647 1995.018 1297.4707 1988.1152 C 1234.3975 1967.1775 1162.6797 1968.1122 1050.7188 1991.3301 C 946.44967 2012.9526 906.51459 2016.1901 838.91406 2008.502 C 806.80993 2004.8508 773.93077 2003.1337 762.30664 2004.5 C 733.28211 2007.9113 698.1735 2027.9164 658.54297 2063.627 C 600.97124 2115.5039 604.7881 2113.9809 535.45703 2112.7793 L 476.26172 2111.752 L 476.26172 2320.4297 L 476.26172 2529.1074 L 2019.9707 2529.1074 L 3563.6777 2529.1074 L 3544.9375 2516.4727 C 3517.9759 2498.2968 3495.457 2472.3844 3490.4434 2453.7656 C 3487.6315 2443.3231 3487.0671 2423.9716 3488.7949 2397.3125 C 3492.6199 2338.2959 3489.9958 2326.2589 3468.6602 2304.8945 C 3443.9712 2280.1721 3410.0654 2259.2145 3353.8066 2233.9023 C 3295.0536 2207.4679 3268.8231 2188.7331 3241.2871 2153.541 C 3209.6067 2113.0521 3198.5925 2091.2247 3189.8828 2051.666 C 3178.8277 2001.4562 3167.6218 1980.0454 3144.6992 1965.3359 C 3102.107 1938.0046 3095.3717 1918.6923 3113.1621 1874.9102 C 3129.1561 1835.5486 3120.7526 1809.215 3075.457 1756.7578 C 3064.7477 1744.3551 3042.267 1717.2941 3025.502 1696.623 C 3008.7368 1675.9518 2982.9205 1645.5096 2968.1309 1628.9727 C 2920.7319 1575.9735 2851.1966 1475.2817 2833.8906 1434.582 C 2828.3725 1421.6046 2817.4076 1403.8346 2809.5234 1395.0957 C 2798.612 1383.001 2795.1875 1376.0324 2795.1875 1365.9121 C 2795.1875 1358.1696 2790.575 1344.399 2784.1426 1332.9414 C 2773.4903 1313.9674 2764.0389 1283.7561 2759.4004 1253.8496 C 2756.5036 1235.1731 2735.7469 1212.2329 2714.3477 1204.0605 C 2713.4209 1203.7066 2712.665 1203.4016 2711.8379 1203.0781 L 2711.8359 1203.0859 L 2710.998 1202.75 C 2710.4045 1202.5144 2709.7661 1202.2632 2709.2227 1202.0371 L 2696.7793 1197.0469 L 2696.6953 1197.0469 A 13.08029 4.6507691 0 0 0 2685.0293 1194.5 A 13.08029 4.6507691 0 0 0 2684.8457 1194.5 z "
       transform="matrix(0.75000002,0,0,-0.75000002,0,2100.0001)" /></g></svg>
