<?xml version="1.0" encoding="UTF-8"?>
<svg viewBox="0 0 376 381" xmlns="http://www.w3.org/2000/svg">
 <path d="m273.85 380.84c-0.16124-0.17203-3.9722-0.87821-8.4687-1.5693-10.043-1.5435-23.075-4.7382-35.583-8.7231-43.827-13.962-67.644-20.797-85.404-24.509-11.856-2.4776-19.724-5.5064-35.889-13.817-10.877-5.5915-17.059-9.6247-19.279-12.578-1.0558-1.4043-2.2437-4.1979-3.4513-8.1165-1.3177-4.2757-2.0971-6.0566-2.7405-6.2616-0.49451-0.15751-4.1305 0.62207-8.08 1.7324-16.686 4.691-33.919 7.7865-51.635 9.2747-12.018 1.0096-13.119 1.3123-20.298 5.5783l-2.1156 1.2572-0.54688-1.4115c-0.79665-2.0562-0.22382-6.8981 1.128-9.5345 0.96991-1.8916 1.8018-2.6268 4.9-4.3306 10.117-5.5636 31.637-15.253 45.079-20.297 14.853-5.5736 23.054-10.653 33.97-21.04 4.0573-3.8608 8.3469-7.6658 9.5324-8.4558 4.6156-3.0754 17.371-4.4959 32.098-3.5744 15.188 0.95034 23.209 2.4927 31.54 6.0652 2.578 1.1054 5.045 2.0099 5.4822 2.0099 1.0843 0-0.94308-2.7227-7.4011-9.939-9.0802-10.146-10.578-12.626-10.155-16.809 0.52245-5.1695 7.0166-24.164 11.084-32.419 2.4384-4.9492 3.0702-7.6065 4.9132-20.668 2.3027-16.319 4.6166-20.682 8.1779-15.42 1.7738 2.6204 2.3282 8.6789 1.617 17.67-0.31433 3.974-0.92511 8.7857-1.3573 10.693s-0.68677 3.5667-0.56577 3.6881c0.54887 0.55086 5.1002-4.2527 7.5953-8.0162 3.4394-5.1878 8.0214-14.787 8.8895-18.623 0.36098-1.5952 0.86188-2.9004 1.1131-2.9004 0.67208 0 3.0175 4.5248 4.2511 8.2014 1.5368 4.5799 1.1388 8.7611-1.5037 15.799-1.1207 2.9848-2.0377 5.4991-2.0377 5.5873s0.3923 0.16137 0.87178 0.16255c1.7042 0.00418 9.4154-5.8044 14.322-10.788 5.525-5.6119 7.1903-6.886 8.3943-6.4223 1.2929 0.49793 1.4653-0.8557 0.82694-6.4932-1.2387-10.939 1.5994-18.489 13.926-37.043 9.5264-14.339 19.911-32.19 30.395-52.248 6.8701-13.143 14.543-27.411 16.859-31.35 4.5448-7.7292 12.409-32.677 13.591-43.113 0.56443-4.9855 1.64-7.2114 3.5955-7.441 1.219-0.14309 1.4942 0.1375 2.6973 2.7498 1.2124 2.6324 1.335 3.4324 1.2881 8.4088-0.06192 6.5783-1.8142 17.214-4.6099 27.98-2.0458 7.8785-3.3364 11.4-5.0772 13.854-1.9252 2.7135-0.60922 1.9685 2.6524-1.5016 6.8736-7.3128 14.991-23.667 20.018-40.332 2.2273-7.3831 4.251-12.898 5.4267-14.787 3.1126-5.0022 5.0385 9.4692 2.9063 21.839-1.9922 11.558-3.536 15.513-11.728 30.046-1.5811 2.8051-2.7639 5.3924-2.6285 5.7496 0.41768 1.1017 7.2654-6.4283 11.809-12.985 5.4942-7.9292 11.914-18.239 18.4-29.547 2.8592-4.9854 5.3759-9.0644 5.5928-9.0644 1.1251 0 2.1087 2.8509 2.3097 6.6942 0.19232 3.6776 0.03261 4.6379-1.5918 9.5711-0.99308 3.0158-4.0429 9.983-6.7774 15.483-4.5087 9.0679-6.3325 11.995-12.358 19.835-0.92529 1.2039-1.4078 2.2247-1.1003 2.3276 1.6293 0.54508 9.5615-5.6416 23.73-18.508 11.473-10.419 16.075-14.404 16.636-14.404 1.3919 0 1.1068 5.6565-0.46615 9.2494-0.95741 2.1869-5.4186 7.8376-13.223 16.749-6.8221 7.7897-8.9341 10.466-8.558 10.843 0.47212 0.47384 7.6014-1.5535 13.667-3.8865 8.8972-3.4221 10.224-3.8653 10.85-3.6244 0.33066 0.12735 0.88947 1.2649 1.2418 2.5278 0.97384 3.4909-0.0669 4.9643-7.3936 10.468l-6.1174 4.5951 2.8794 0.35153c1.5837 0.19335 3.4926 0.66445 4.2421 1.0469 2.5828 1.318 2.4423 4.9265-0.34525 8.8614-2.0794 2.9353-3.1084 5.8856-3.6982 10.603-0.50931 4.0737-1.2536 5.725-4.0338 8.9489-2.9503 3.4212-3.183 4.0161-2.1753 5.5597 1.2482 1.912 0.4889 4.8371-4.5107 17.376-4.5071 11.303-6.2403 16.32-6.3312 18.324-0.0312 0.68745 0.19037 6.1996 0.49236 12.249 1.4598 29.243-0.2555 68.073-3.4682 78.512-0.67208 2.1839-1.795 4.2072-3.5211 6.3444-3.6394 4.5062-4.0547 5.7193-3.6455 10.65 0.44697 5.3852 0.18543 6.3546-3.0305 11.232-1.4924 2.2636-2.7135 4.6678-2.7135 5.3426 0 0.81577-0.88911 2.1193-2.6529 3.8895-2.7651 2.7752-5.325 4.3224-9.5462 5.7697-2.4391 0.83631-2.4955 0.90091-2.4492 2.8039 0.0261 1.0713 0.3319 3.2977 0.67955 4.9476 1.2557 5.9592-0.02124 13.352-2.9522 17.091-1.4498 1.8499-2.4147 5.5125-3.2665 12.4-0.69894 5.6516-0.6911 6.0416 0.13274 6.6056 1.5741 1.0778 3.7745 2.8793 4.8261 3.9514 0.56706 0.57808 1.9277 1.3421 3.0236 1.6979s5.131 2.1018 8.9668 3.88c15.586 7.2258 20.048 8.7691 30.069 10.4 10.743 1.749 17.231 4.1323 24.56 9.0223 4.3224 2.8839 7.0292 6.715 4.2499 6.0149-0.75092-0.18916-2.2628 0.26894-4.3589 1.3207l-3.2092 1.6103-12.828-0.10522c-7.486-0.06141-12.828 0.08495-12.828 0.35147 0 0.76935 3.4607 1.512 9.4148 2.0204 8.8147 0.7526 13.002 2.2864 13.002 4.7622 0 1.7435-1.5985 2.5545-7.7524 3.9333-2.9968 0.67143-8.8113 2.0757-12.921 3.1207-6.9376 1.7639-7.9893 1.9005-14.696 1.908-6.8059 0.00767-7.4024-0.07131-10.322-1.3668-1.7042-0.7562-3.6214-1.3749-4.2605-1.3749s-3.9297 0.78436-7.3125 1.743-9.324 2.1902-13.203 2.7367c-7.5078 1.0579-19.256 1.8478-19.744 1.3275zm-106.12-85.576c4.2816-0.81989 5.8852-1.72 6.3458-3.562 1.0198-4.0781-4.4284-23.672-6.4102-23.054-0.58115 0.18138-1.2374 2.0054-4.7278 13.141-1.4955 4.7711-3.5912 9.1022-6.0247 12.451l-1.7816 2.4516 4.4575-0.36107c2.4516-0.19859 6.115-0.67847 8.1409-1.0664zm43.791-67.322c0.82218-0.82517 0.75161-3.1492-0.11761-3.8732-0.93548-0.7792-2.5747 0.06278-3.0503 1.5668-0.25372 0.8023-0.04854 1.3362 0.76868 2.0004 1.3137 1.0676 1.6036 1.1046 2.3993 0.30601zm-5.117-16.579c5.3627-2.5942 5.4368-2.7339 5.6288-10.62 0.11289-4.6351-0.00556-6.6987-0.38448-6.6987-1.2015 0-8.9547 13.962-9.7866 17.624-0.41464 1.8252 0.2274 1.7821 4.5422-0.30515z"/>
</svg>
