<?xml version="1.0" encoding="UTF-8" standalone="no"?>
<svg
   xmlns:dc="http://purl.org/dc/elements/1.1/"
   xmlns:cc="http://creativecommons.org/ns#"
   xmlns:rdf="http://www.w3.org/1999/02/22-rdf-syntax-ns#"
   xmlns:svg="http://www.w3.org/2000/svg"
   xmlns="http://www.w3.org/2000/svg"
   xmlns:sodipodi="http://sodipodi.sourceforge.net/DTD/sodipodi-0.dtd"
   xmlns:inkscape="http://www.inkscape.org/namespaces/inkscape"
   version="1.1"
   id="svg2"
   xml:space="preserve"
   width="2560"
   height="1440"
   viewBox="0 0 2560 1440"
   sodipodi:docname="Sablier.svg"
   inkscape:version="1.0.1 (3bc2e813f5, 2020-09-07)"><metadata
     id="metadata8"><rdf:RDF><cc:Work
         rdf:about=""><dc:format>image/svg+xml</dc:format><dc:type
           rdf:resource="http://purl.org/dc/dcmitype/StillImage" /><dc:title></dc:title></cc:Work></rdf:RDF></metadata><defs
     id="defs6"><clipPath
       clipPathUnits="userSpaceOnUse"
       id="clipPath18"><path
         d="M 0,1080 H 1920 V 0 H 0 Z"
         id="path16" /></clipPath></defs><sodipodi:namedview
     pagecolor="#ffffff"
     bordercolor="#666666"
     borderopacity="1"
     objecttolerance="10"
     gridtolerance="10"
     guidetolerance="10"
     inkscape:pageopacity="0"
     inkscape:pageshadow="2"
     inkscape:window-width="1920"
     inkscape:window-height="1051"
     id="namedview4"
     showgrid="false"
     inkscape:zoom="0.51736111"
     inkscape:cx="636.99097"
     inkscape:cy="818.52591"
     inkscape:window-x="1699"
     inkscape:window-y="-9"
     inkscape:window-maximized="1"
     inkscape:current-layer="g10"
     inkscape:document-rotation="0" /><g
     id="g10"
     inkscape:groupmode="layer"
     inkscape:label="time-5967979"
     transform="matrix(1.3333333,0,0,-1.3333333,0,1440)"><path
       style="fill:#030000;stroke:#fbffff;stroke-width:0;stroke-miterlimit:0"
       d="m 389.56309,261.74356 c -1.67435,3.52366 -3.34995,8.06303 -3.72355,10.08743 -0.87132,4.7214 0.90877,11.30295 4.07473,15.06548 3.31161,3.93562 13.41997,9.21667 20.27743,10.5939 l 5.54345,1.1133 -0.0107,25.77596 c -0.0115,27.78037 1.30657,41.82554 6.02078,64.15321 10.0887,47.78261 34.38049,92.42316 69.02724,126.84995 11.17311,11.10219 26.67187,23.88468 35.28345,29.09976 l 5.79782,3.51111 0.0291,12.8924 0.0291,12.8924 -20.75762,17.34097 c -23.26005,19.43144 -35.22095,30.90132 -44.81996,42.97991 -18.95567,23.85223 -34.20152,54.06829 -42.92837,85.08061 -7.56917,26.89829 -10.42605,46.78576 -11.13547,77.51681 l -0.55896,24.2133 -5.89806,0.61647 c -12.78796,1.33661 -21.81282,5.95175 -24.78712,12.67565 -2.97479,6.72498 -0.87509,13.51758 7.61761,24.64322 l 4.10801,5.38161 h 176.04591 176.04593 l 7.45644,-12.29902 7.4565,-12.29901 -1.69567,-4.43997 c -5.2329,-13.7022 -16.87451,-19.5843 -27.76827,-14.03034 -2.19495,1.11905 -4.13677,1.88869 -4.31515,1.71031 -0.17839,-0.17838 0.18436,-9.97362 0.80608,-21.76719 1.60394,-30.4253 0.16758,-49.2023 -5.82,-76.0826 -5.97429,-26.82067 -19.01571,-58.32433 -32.9699,-79.64411 -17.19356,-26.26902 -42.46312,-51.34113 -61.26326,-60.78458 -16.43964,-8.25775 -21.10458,-16.22564 -16.02494,-27.37123 2.54832,-5.59146 13.46863,-15.53982 23.67148,-21.56464 9.00031,-5.31471 14.39252,-10.8954 29.18132,-30.20127 34.97143,-45.6531 56.95696,-94.75788 63.76728,-142.42455 2.13253,-14.92596 2.16638,-41.49974 0.0674,-52.85084 -0.83404,-4.51028 -1.22156,-8.47958 -0.86114,-8.82068 0.36041,-0.34102 5.68916,-1.60597 11.84165,-2.811 12.34117,-2.41717 13.72957,-3.25312 18.13732,-10.91977 5.02763,-8.74478 3.29138,-19.54778 -4.65412,-28.95818 l -2.81284,-3.3315 H 570.82568 392.6074 l -3.04428,6.40672 z m 311.90372,34.20893 c 3.44261,8.97128 5.58789,43.99215 3.80499,62.11509 -3.55033,36.08862 -13.27549,61.60638 -39.37205,103.30787 -18.91679,30.22844 -45.52495,58.98154 -68.49721,74.01894 -11.22519,7.34788 -11.13122,7.15931 -11.15083,22.37832 -0.0258,20.02833 8.73801,36.24092 25.24123,46.69488 22.31918,14.13807 47.63862,40.28566 63.01264,65.0737 12.71334,20.49813 23.07035,46.17277 27.46706,68.08987 3.58777,17.88454 4.41153,30.96222 3.63201,57.66006 l -0.72581,24.85788 H 570.7297 436.58055 v -21.55557 c 0,-60.87081 13.14987,-109.94855 38.51521,-143.74592 6.84904,-9.12583 17.09967,-19.215 25.03899,-24.64461 4.12659,-2.82212 40.17578,-35.12924 54.05087,-48.44013 l 5.40305,-5.18334 -0.0179,-9.16761 c -0.0404,-20.77555 -6.28521,-35.64898 -17.40836,-41.46156 -11.22384,-5.8652 -48.72883,-40.28631 -65.33425,-59.9621 -17.28156,-20.47695 -30.88562,-43.93836 -36.85177,-63.55419 l -2.80597,-9.22561 -0.35739,-49.45951 -0.35739,-49.45951 h 132.1865 c 120.98398,0 132.24054,0.14093 132.82462,1.66305 z"
       id="path846" /><path
       style="fill:#030000;stroke:#fbffff;stroke-width:0;stroke-miterlimit:0"
       d="m 627.2266,985.55393 c 0.0658,-20.79153 16.61634,-46.83993 42.30947,-66.58962 18.5733,-14.27685 49.04627,-29.84103 76.71393,-39.18193 l 17.21624,-5.81239 15.58592,5.00564 c 26.92687,8.64793 50.33774,21.6575 70.14929,38.98236 19.80966,17.32323 38.41243,43.18398 47.14994,65.5458 l 2.80369,7.17547 H 763.18273 627.21038 Z"
       id="path848"
       transform="matrix(0.75000002,0,0,-0.75000002,0,1080)" /><path
       style="fill:#030000;stroke:#fbffff;stroke-width:0;stroke-miterlimit:0"
       d="M 727.51877,595.30563 C 664.61501,531.33796 630.15046,485.51571 627.54309,462.38321 l -0.68821,-6.10583 h 129.46451 129.46452 l -0.93539,7.17548 c -1.24699,9.56581 -7.68687,28.776 -13.54894,40.41651 -6.70515,13.31465 -21.90479,35.5846 -34.68182,50.8145 -17.67891,21.07284 -72.05559,72.4381 -76.68496,72.4381 -0.61977,0 -15.20608,-14.31735 -32.41403,-31.81634 z"
       id="path850"
       transform="matrix(0.75000002,0,0,-0.75000002,0,1080)" /><path
       style="fill:#030000;stroke:#fbffff;stroke-width:0;stroke-miterlimit:0"
       d="m 756.8473,839.06272 c -2.30731,-1.45098 -5.05008,-6.36323 -5.04396,-9.03365 0.0132,-5.77256 4.02974,-10.84014 8.99244,-11.34563 9.2556,-0.94276 13.81396,12.76607 6.49013,19.51841 -2.46163,2.26955 -7.53344,2.68782 -10.43861,0.86087 z"
       id="path852"
       transform="matrix(0.75000002,0,0,-0.75000002,0,1080)" /><path
       style="fill:#030000;stroke:#fbffff;stroke-width:0;stroke-miterlimit:0"
       d="m 757.19677,773.8606 c -2.68239,-1.78259 -5.40404,-6.69093 -5.38224,-9.70658 0.0235,-3.24964 2.38595,-7.70236 4.89975,-9.23498 6.69615,-4.08254 14.24175,1.06848 14.2086,9.69952 -0.0211,5.49718 -4.73545,10.78515 -9.61518,10.78515 -0.98389,0 -2.83381,-0.6944 -4.11093,-1.54311 z"
       id="path854"
       transform="matrix(0.75000002,0,0,-0.75000002,0,1080)" /></g></svg>
