<?xml version="1.0" encoding="UTF-8" standalone="no"?>
<svg
   xmlns:dc="http://purl.org/dc/elements/1.1/"
   xmlns:cc="http://creativecommons.org/ns#"
   xmlns:rdf="http://www.w3.org/1999/02/22-rdf-syntax-ns#"
   xmlns:svg="http://www.w3.org/2000/svg"
   xmlns="http://www.w3.org/2000/svg"
   xmlns:sodipodi="http://sodipodi.sourceforge.net/DTD/sodipodi-0.dtd"
   xmlns:inkscape="http://www.inkscape.org/namespaces/inkscape"
   enable-background="new 0 0 841.89 595.28"
   version="1.1"
   viewBox="0 0 841.89 595.28"
   id="svg54"
   sodipodi:docname="StickMan.svg"
   inkscape:version="1.0.1 (3bc2e813f5, 2020-09-07)">
  <metadata
     id="metadata60">
    <rdf:RDF>
      <cc:Work
         rdf:about="">
        <dc:format>image/svg+xml</dc:format>
        <dc:type
           rdf:resource="http://purl.org/dc/dcmitype/StillImage" />
        <dc:title></dc:title>
      </cc:Work>
    </rdf:RDF>
  </metadata>
  <defs
     id="defs58" />
  <sodipodi:namedview
     pagecolor="#ffffff"
     bordercolor="#666666"
     borderopacity="1"
     objecttolerance="10"
     gridtolerance="10"
     guidetolerance="10"
     inkscape:pageopacity="0"
     inkscape:pageshadow="2"
     inkscape:window-width="1920"
     inkscape:window-height="1051"
     id="namedview56"
     showgrid="false"
     inkscape:zoom="2.5030237"
     inkscape:cx="124.80549"
     inkscape:cy="217.69509"
     inkscape:window-x="1699"
     inkscape:window-y="-9"
     inkscape:window-maximized="1"
     inkscape:current-layer="svg54" />
  <path
     style="fill:#030000;stroke:#fbffff;stroke-width:0;stroke-miterlimit:0"
     d="m 62.038896,249.60185 c -1.625989,-0.63491 -3.019468,-1.89011 -4.072628,-3.6685 l -0.752833,-1.27126 -0.09141,-12.43004 c -0.08812,-11.98243 0.200496,-25.79695 0.817434,-39.1264 0.161806,-3.49595 0.255332,-10.48785 0.207836,-15.53755 l -0.08636,-9.18129 -0.668381,2.40063 c -1.600842,5.74977 -2.594808,11.84225 -3.117543,19.10888 -0.28703,3.99006 -0.654968,5.12019 -2.2634,6.95209 -1.865474,2.12466 -5.377119,2.99176 -8.250746,2.0373 -1.047368,-0.34788 -1.938418,-0.93537 -2.944272,-1.94122 -2.369278,-2.36928 -2.725642,-4.23777 -2.106076,-11.04261 1.305095,-14.33417 4.959678,-27.07752 11.544867,-40.2564 4.051151,-8.10753 5.090063,-9.362 8.762548,-10.58062 8.657587,-2.8728 18.034319,-3.04887 28.581224,-0.53668 5.339012,1.27171 6.043977,1.99781 10.519508,10.8348 6.821916,13.46995 10.635326,26.8889 11.789566,41.48616 0.39249,4.9637 0.28151,6.26829 -0.69767,8.20059 -2.30737,4.55338 -8.26371,5.66802 -12.125152,2.26904 -2.075552,-1.82698 -2.444727,-2.93018 -2.903368,-8.67617 -0.219534,-2.7504 -0.651998,-6.52624 -0.961026,-8.39075 -0.714456,-4.31059 -2.492956,-11.6668 -2.878239,-11.90492 -0.345993,-0.21384 -0.108331,21.12746 0.322913,28.99624 0.428681,7.82207 0.937799,32.53028 0.823665,39.97389 -0.08649,5.64126 -0.185422,6.96215 -0.588997,7.86432 -0.858815,1.91985 -2.126479,3.22876 -4.038785,4.17018 -1.640365,0.80755 -2.006158,0.88198 -3.727211,0.75844 -3.087389,-0.22162 -5.565847,-1.94215 -6.830446,-4.74166 -0.53915,-1.19353 -0.575005,-1.84116 -0.586512,-10.59378 -0.01972,-15.00247 -0.867481,-43.85376 -1.382105,-47.03643 -0.469452,-2.9033 -1.180956,16.37878 -1.397612,37.87584 l -0.186696,18.52451 -0.85252,1.66625 c -1.890212,3.69442 -6.034811,5.29059 -9.859576,3.79712 z"
     id="path885" />
  <path
     style="fill:#030000;stroke:#fbffff;stroke-width:0;stroke-miterlimit:0"
     d="m 70.914735,129.61361 c -2.50613,-0.67994 -4.336136,-1.80632 -6.422484,-3.95308 -6.155647,-6.3339 -6.078022,-16.94808 0.169734,-23.20874 1.030691,-1.03282 2.519129,-2.22042 3.307638,-2.63912 4.001914,-2.125014 8.725951,-2.122658 12.652152,0.0063 3.204071,1.7374 6.358547,5.93852 7.38375,9.83366 0.573393,2.17854 0.573393,6.8094 0,8.98794 -1.27193,4.83255 -5.076759,9.14778 -9.415843,10.67892 -2.250172,0.79403 -5.389006,0.91431 -7.674947,0.29411 z"
     id="path887" />
</svg>
