<?xml version="1.0" encoding="UTF-8" standalone="no"?>
<svg
   xmlns:dc="http://purl.org/dc/elements/1.1/"
   xmlns:cc="http://creativecommons.org/ns#"
   xmlns:rdf="http://www.w3.org/1999/02/22-rdf-syntax-ns#"
   xmlns:svg="http://www.w3.org/2000/svg"
   xmlns="http://www.w3.org/2000/svg"
   xmlns:sodipodi="http://sodipodi.sourceforge.net/DTD/sodipodi-0.dtd"
   xmlns:inkscape="http://www.inkscape.org/namespaces/inkscape"
   version="1.1"
   id="Layer_1"
   x="0px"
   y="0px"
   viewBox="0 0 3000 3000"
   enable-background="new 0 0 3000 3000"
   xml:space="preserve"
   sodipodi:docname="Televisionsvg.svg"
   inkscape:version="1.0.1 (3bc2e813f5, 2020-09-07)"><metadata
   id="metadata69"><rdf:RDF><cc:Work
       rdf:about=""><dc:format>image/svg+xml</dc:format><dc:type
         rdf:resource="http://purl.org/dc/dcmitype/StillImage" /><dc:title></dc:title></cc:Work></rdf:RDF></metadata><defs
   id="defs67" /><sodipodi:namedview
   pagecolor="#ffffff"
   bordercolor="#666666"
   borderopacity="1"
   objecttolerance="10"
   gridtolerance="10"
   guidetolerance="10"
   inkscape:pageopacity="0"
   inkscape:pageshadow="2"
   inkscape:window-width="1920"
   inkscape:window-height="1051"
   id="namedview65"
   showgrid="false"
   inkscape:zoom="0.26751091"
   inkscape:cx="1496.3862"
   inkscape:cy="1658.0464"
   inkscape:window-x="1699"
   inkscape:window-y="-9"
   inkscape:window-maximized="1"
   inkscape:current-layer="Layer_1" />

<path
   style="fill:#030000;stroke:#fbffff;stroke-width:0;stroke-miterlimit:0;fill-opacity:1"
   d="m 628.61501,2349.4053 c -24.78577,-9.1062 -49.00547,-31.5972 -61.56229,-57.1683 l -11.34802,-23.1095 v -513.4228 -513.4228 l 8.54788,-18.4808 c 10.90805,-23.5835 33.95159,-46.627 57.53511,-57.5351 l 18.48077,-8.5479 h 861.74494 861.745 l 17.0071,9.0877 c 23.0824,12.334 44.6801,34.7226 54.9819,56.9953 l 8.5479,18.4808 v 513.4228 513.4228 l -8.4792,18.3254 c -11.7784,25.4559 -29.6226,44.5634 -52.557,56.2778 l -19.5007,9.9606 -859.7316,0.7375 c -736.98297,0.6321 -861.97026,-0.085 -875.41179,-5.0235 z m 1521.90359,-63.9874 c 11.9706,-11.9706 12.9084,-29.7841 2.2603,-42.934 -5.7444,-7.094 -11.6877,-9.415 -24.1088,-9.415 -19.7338,0 -28.0877,7.2018 -31.2975,26.9813 -4.8118,29.6516 31.5201,46.9936 53.146,25.3677 z m 181.6823,3.9378 c 17.9529,-12.5747 14.8772,-44.8109 -5.1458,-53.934 -15.2771,-6.9607 -25.1288,-5.4993 -35.963,5.3349 -27.3184,27.3184 9.4433,70.7785 41.1088,48.5991 z m -396.1884,-16.5176 c 22.359,-7.6184 44.8907,-30.9502 50.9454,-52.7544 2.887,-10.3968 4.2669,-151.8345 4.2555,-436.1911 l -0.016,-420.8054 -9.7224,-20.8817 c -6.7325,-14.46 -14.9887,-24.3669 -26.8472,-32.2148 l -17.1255,-11.333 -600.2947,-0.9625 -600.29465,-0.9625 -15.72457,9.0162 c -8.64852,4.9589 -21.33308,15.9793 -28.18792,24.4898 l -12.46335,15.4736 -1.05988,437.102 -1.05989,437.102 10.30754,17.5885 c 5.66914,9.6737 14.76992,20.5123 20.22396,24.086 27.06271,17.7321 9.47361,17.2411 624.22666,17.4271 521.9284,0.1578 586.17,-0.5007 602.8372,-6.1798 z m 317.4657,-195.7271 c 17.4015,-9.7801 31.7567,-34.3073 31.7567,-54.2591 0,-18.3522 -16.2592,-45.7297 -32.2523,-54.3069 -19.1362,-10.2629 -49.5832,-9.8142 -67.062,0.9883 -27.8975,17.2416 -37.2286,56.4303 -20.4181,85.7522 17.0279,29.7011 56.5275,39.5005 87.9757,21.8255 z m 1.5554,-155.6953 c 17.5544,-9.9319 31.1834,-38.4564 28.8907,-60.4663 -3.2879,-31.5638 -30.8645,-56.9226 -61.901,-56.9226 -54.9231,0 -85.381,62.7443 -50.5182,104.0694 20.231,23.981 54.9103,29.5111 83.5285,13.3195 z m 68.6809,-228.2336 c 12.1852,-7.5393 24.3444,-19.7006 31.8837,-31.8891 l 12.187,-19.7022 1.2073,-134.0123 c 1.1744,-130.3725 0.9675,-134.5695 -7.6182,-154.5276 -10.219,-23.7545 -32.9956,-45.0102 -55.4351,-51.7332 -9.3752,-2.8089 -45.0282,-4.6734 -89.3632,-4.6734 -84.1431,0 -97.0564,3.4452 -121.959,32.5383 -21.6232,25.2618 -22.8049,34.3577 -22.8049,175.5275 v 128.6079 l 10.4834,21.0375 c 5.7659,11.5706 16.6347,25.7293 24.1529,31.4637 25.629,19.5482 37.6969,21.6009 120.7282,20.5357 l 76.8412,-0.9858 z"
   id="path894" /><path
   style="fill:#030000;fill-opacity:1;stroke:#fbffff;stroke-width:0;stroke-miterlimit:0"
   d="m 2155.5513,1673.2017 c -14.0371,-2.8798 -25.678,-9.5546 -35.2704,-20.2237 -15.8114,-17.586 -15.3304,-12.7894 -15.3304,-152.8874 v -124.152 l 6.1345,-12.2763 c 7.1007,-14.2096 16.5271,-23.223 31.416,-30.0394 l 10.5531,-4.8313 70.0757,0.6009 70.0757,0.601 10.7091,5.9323 c 11.9571,6.6237 20.2593,15.1772 27.0302,27.8485 l 4.5426,8.501 v 128.8591 128.8591 l -5.9724,10.7827 c -7.3381,13.2483 -20.3491,25 -32.8977,29.7137 -8.1515,3.0619 -17.9018,3.6169 -70.8615,4.0333 -33.7751,0.2656 -65.3672,-0.3291 -70.2045,-1.3215 z m 93.4897,-58.1848 c 30.6569,-10.7751 56.562,-42.1524 66.5934,-80.661 4.4862,-17.2214 4.5022,-49.1186 0.033,-66.443 -8.8641,-34.3635 -31.6064,-64.048 -59.0146,-77.029 -12.9567,-6.1365 -15.1178,-6.528 -36.0353,-6.528 -21.6513,0 -22.6642,0.2036 -37.5137,7.5427 -42.363,20.9369 -67.8849,75.4941 -60.1291,128.536 4.3339,29.6402 15.8926,53.4228 35.3414,72.7171 11.9958,11.9006 31.1564,22.6916 45.7292,25.7542 11.5948,2.4367 32.0202,0.6714 44.9953,-3.889 z"
   id="path896" /><path
   style="fill:#030000;fill-opacity:1;stroke:#fbffff;stroke-width:0;stroke-miterlimit:0"
   d="m 1374.4865,1145.4869 c 17.5115,-21.9788 54.2923,-45.3746 84.1552,-53.5301 18.1892,-4.9674 64.1908,-4.9944 82.5504,-0.048 29.8105,8.0308 65.5988,30.7297 84.1201,53.3536 l 7.0053,8.5571 H 1500.0827 1367.848 Z"
   id="path898" /><path
   style="fill:#030000;fill-opacity:1;stroke:#fbffff;stroke-width:0;stroke-miterlimit:0"
   d="m 1581.3306,1105.9869 -5.1635,-3.5102 167.04,-289.18502 167.04,-289.18501 6.7511,3.9832 6.751,3.9832 -6.547,11.55283 c -59.6007,105.17096 -327.2021,565.8942 -328.6822,565.8845 -1.1143,-0.01 -4.3495,-1.5929 -7.1894,-3.5235 z"
   id="path902" /><path
   style="fill:#030000;fill-opacity:1;stroke:#fbffff;stroke-width:0;stroke-miterlimit:0"
   d="m 1286.4639,896.62463 -122.8489,-212.84976 7.0658,-3.60239 c 3.8863,-1.98131 7.3633,-2.90763 7.7269,-2.05849 0.3635,0.84914 55.6987,96.67813 122.967,212.95329 l 122.3061,211.40942 -5.1705,3.5102 c -2.8438,1.9306 -6.0766,3.5051 -7.184,3.4989 -1.1074,-0.01 -57.2955,-95.7938 -124.8624,-212.86117 z"
   id="path904" /><path
   style="fill:#030000;fill-opacity:1;stroke:#fbffff;stroke-width:0;stroke-miterlimit:0"
   d="m 1155.6216,681.0712 c -6.1996,-1.2449 -12.5144,-8.05559 -20.1827,-21.7678 -10.2387,-18.30854 -9.1778,-29.68851 3.3729,-36.1787 13.6824,-7.07547 22.6347,-0.93843 35.9497,24.64447 5.8643,11.26743 6.2433,13.05475 4.1274,19.46595 -3.2324,9.79432 -13.371,15.82329 -23.2673,13.83608 z"
   id="path906" /><path
   style="fill:#030000;fill-opacity:1;stroke:#fbffff;stroke-width:0;stroke-miterlimit:0"
   d="m 1914.4807,522.81225 c -9.1959,-9.1959 -8.7945,-14.85278 2.4201,-34.09954 11.0188,-18.91072 18.2806,-23.47557 29.7328,-18.6905 14.9812,6.25955 16.8677,17.457 6.1652,36.59487 -13.2995,23.78167 -25.5528,28.96053 -38.3181,16.19517 z"
   id="path908" /><path
   style="fill:#030000;fill-opacity:1;stroke:#fbffff;stroke-width:0;stroke-miterlimit:0"
   d="m 2217.9804,1892.7076 c -6.9988,-1.1578 -8.8883,-1.998 -13.3997,-5.9591 -5.7065,-5.0104 -9.6593,-12.9716 -9.7,-19.5368 -0.04,-6.3882 4.8752,-15.4868 10.9972,-20.3585 4.6199,-3.6763 5.9523,-4.0415 14.7457,-4.0415 8.7935,0 10.1259,0.3652 14.7458,4.0415 6.0024,4.7765 11.0262,13.9211 11.0262,20.0705 0,8.2842 -6.5055,19.1374 -13.8772,23.1514 -3.3188,1.8071 -11.0569,3.2083 -14.538,2.6325 z"
   id="path910" /><path
   style="fill:#030000;fill-opacity:1;stroke:#fbffff;stroke-width:0;stroke-miterlimit:0"
   d="m 2217.9804,2048.996 c -0.7269,-0.2409 -2.9463,-0.7959 -4.932,-1.2334 -8.5998,-1.895 -18.1067,-14.7664 -18.1677,-24.5973 -0.04,-6.3515 4.8651,-15.4791 10.8948,-20.2756 9.4294,-7.5009 24.9304,-5.9496 33.6184,3.3645 3.7838,4.0564 7.0017,11.8518 7.0017,16.9615 0,8.3221 -6.804,19.1193 -14.538,23.0701 -3.5718,1.8246 -11.7371,3.4192 -13.8772,2.7102 z"
   id="path912" /><path
   style="fill:#030000;fill-opacity:1;stroke:#fbffff;stroke-width:0;stroke-miterlimit:0"
   d="m 759.56809,2527.9729 c -9.13457,-4.1482 -17.3399,-14.1972 -18.68622,-22.8849 -1.20105,-7.7503 5.29579,-30.4759 17.62443,-61.6492 l 9.13598,-23.1006 44.20547,-0.5011 44.20547,-0.5011 -8.88334,16.4157 c -4.88584,9.0287 -15.46841,28.6184 -23.51683,43.5328 -17.11099,31.708 -25.28404,43.5397 -33.56358,48.5879 -7.64381,4.6607 -20.38711,4.7026 -30.52138,0.1005 z"
   id="path914" /><path
   style="fill:#030000;fill-opacity:1;stroke:#fbffff;stroke-width:0;stroke-miterlimit:0"
   d="m 2204.3352,2527.9626 c -3.2219,-1.9646 -7.9507,-6.3772 -10.5085,-9.8057 -6.4519,-8.6485 -53.7241,-94.5528 -53.7241,-97.629 0,-0.6183 19.5626,-1.1242 43.4725,-1.1242 h 43.4725 l 10.0448,26.158 c 11.1204,28.9589 17.0243,48.5878 17.0243,56.6013 0,20.7624 -31.3756,37.023 -49.7815,25.7996 z"
   id="path916" /><path
   style="fill:#030000;fill-opacity:1;stroke:#fbffff;stroke-width:0;stroke-miterlimit:0"
   d="m 651.37828,2416.3225 c -36.20726,-7.5406 -66.13906,-28.465 -82.27547,-57.5164 -11.35623,-20.4453 -14.15494,-33.0418 -14.98272,-67.4346 -0.39588,-16.4479 -0.27922,-28.2231 0.25924,-26.1671 11.98226,45.7517 39.86926,75.6939 82.98083,89.0962 l 14.01812,4.3579 h 848.56352 848.5635 l 14.0182,-4.3579 c 40.324,-12.5358 71.0333,-43.7669 81.1748,-82.5544 l 2.6879,-10.28 0.058,23.3635 c 0.032,12.85 -1.1177,29.9592 -2.5546,38.0206 -6.411,35.9693 -30.8588,67.7137 -64.4566,83.6942 -24.7243,11.7598 42.2809,10.9424 -880.4256,10.7408 -464.14,-0.1014 -845.57303,-0.5347 -847.62902,-0.9628 z"
   id="path918" /></svg>
