<?xml version="1.0" encoding="UTF-8" standalone="no"?>
<svg
   xmlns:dc="http://purl.org/dc/elements/1.1/"
   xmlns:cc="http://creativecommons.org/ns#"
   xmlns:rdf="http://www.w3.org/1999/02/22-rdf-syntax-ns#"
   xmlns:svg="http://www.w3.org/2000/svg"
   xmlns="http://www.w3.org/2000/svg"
   xmlns:sodipodi="http://sodipodi.sourceforge.net/DTD/sodipodi-0.dtd"
   xmlns:inkscape="http://www.inkscape.org/namespaces/inkscape"
   version="1.1"
   id="svg2"
   xml:space="preserve"
   width="1153.3586"
   height="994.75067"
   viewBox="0 0 1153.3586 994.75067"
   sodipodi:docname="Vengeance.svg"
   inkscape:version="1.0.1 (3bc2e813f5, 2020-09-07)"><metadata
     id="metadata8"><rdf:RDF><cc:Work
         rdf:about=""><dc:format>image/svg+xml</dc:format><dc:type
           rdf:resource="http://purl.org/dc/dcmitype/StillImage" /><dc:title></dc:title></cc:Work></rdf:RDF></metadata><defs
     id="defs6"><clipPath
       clipPathUnits="userSpaceOnUse"
       id="clipPath18"><path
         d="M 0,746.062 H 865.019 V 0 H 0 Z"
         id="path16" /></clipPath></defs><sodipodi:namedview
     pagecolor="#ffffff"
     bordercolor="#666666"
     borderopacity="1"
     objecttolerance="10"
     gridtolerance="10"
     guidetolerance="10"
     inkscape:pageopacity="0"
     inkscape:pageshadow="2"
     inkscape:window-width="1920"
     inkscape:window-height="1051"
     id="namedview4"
     showgrid="false"
     inkscape:zoom="0.74893139"
     inkscape:cx="534.28264"
     inkscape:cy="490.70325"
     inkscape:window-x="1699"
     inkscape:window-y="-9"
     inkscape:window-maximized="1"
     inkscape:current-layer="g10" /><g
     id="g10"
     inkscape:groupmode="layer"
     inkscape:label="voo-doo-doll-5403291"
     transform="matrix(1.3333333,0,0,-1.3333333,0,994.75067)"><path
       style="fill:#030000;stroke:#fbffff;stroke-width:0;stroke-miterlimit:0"
       d="m 662.00748,1.2093187 c -9.0161,2.429055 -16.9331,6.63147 -50.8759,27.0054913 -97.34722,58.432333 -175.36071,111.38367 -235.57577,159.89612 -3.98775,3.21275 -7.48023,5.84136 -7.76106,5.84136 -0.28083,0 -0.51059,-0.90129 -0.51059,-2.00286 0,-2.46945 -1.36073,-2.48987 -6.50928,-0.0977 -8.22131,3.81986 -14.13809,10.797 -17.17882,20.2575 -0.5215,1.62252 -7.90177,8.69999 -19.20961,18.42144 -10.0995,8.68264 -28.96248,25.41 -41.91772,37.1719 -12.95523,11.7619 -23.84428,21.37259 -24.19789,21.35709 -0.3536,-0.0155 -3.56792,-4.63458 -7.14291,-10.26462 -31.70431,-49.92932 -89.81028,-85.03825 -150.47368,-90.91959 -19.228046,-1.86417 -39.904406,1.02011 -52.216436,7.28401 -2.14367,1.09062 -6.03832,3.98534 -8.65477,6.43273 -10.36571,9.69591 -11.64601,21.65998 -3.97502,37.14569 3.74958,7.56941 5.02486,9.053 15.81082,18.39359 6.45274,5.58805 36.07094,34.55452 65.818226,64.36995 29.74727,29.81541 60.39093,60.0327 68.09702,67.14953 13.92979,12.86464 16.36848,15.52632 13.06358,14.25811 -3.8711,-1.48548 -24.58023,-1.9098 -34.18777,-0.70049 -26.81759,3.37554 -48.07317,14.00961 -69.628596,34.83484 l -10.72984,10.36632 -3.67809,-5.54127 c -4.35391,-6.55944 -9.20633,-10.61082 -17.18661,-14.34942 -5.01025,-2.3472 -7.13035,-2.7379 -14.85706,-2.7379 -6.01095,0 -9.84671,0.47969 -11.51641,1.44019 -2.49966,1.43795 -2.49534,1.44264 2.76928,3.00428 2.90006,0.86025 6.85623,2.83298 8.79147,4.38384 6.45243,5.17083 11.92667,16.26817 11.29067,22.88838 l -0.31932,3.32383 -3.34127,-5.22508 c -6.28238,-9.8244 -14.70475,-15.2335 -23.78071,-15.27272 -2.79982,-0.0121 -5.37648,0.26391 -5.72591,0.61334 -0.34943,0.34942 1.3119,2.12214 3.69183,3.93936 12.43911,9.49797 20.03056,35.31772 15.23459,51.81528 -0.91113,3.13417 -1.90615,5.6985 -2.21115,5.6985 -0.30501,0 -2.43297,-1.51767 -4.72881,-3.37262 -5.34115,-4.31542 -7.36392,-5.33665 -13.12982,-6.62882 -6.38862,-1.43172 -11.96181,0.17056 -16.5203204,4.74955 l -3.56548,3.58151 5.1003604,1.15711 c 6.36147,1.44323 10.6094,4.05478 16.62089,10.21824 8.0225,8.22528 14.30137,20.68605 16.37583,32.49876 l 0.64078,3.6488 -5.34896,0.67998 c -7.5585,0.96086 -15.38794,4.94747 -18.38839,9.36302 -2.66219,3.91776 -3.28955,9.82408 -1.41546,13.32585 1.02313,1.91172 1.22458,1.85193 4.87624,-1.44711 4.9395,-4.46254 9.97494,-6.08015 16.75018,-5.38088 5.68284,0.58652 18.24364,5.80755 20.8195,8.65385 1.40342,1.55076 1.0481,1.82854 -4.4429,3.47336 -6.44753,1.93133 -14.0082,7.71119 -16.57171,12.66847 -1.45015,2.80429 -1.98315,8.09951 -0.92206,9.1606 0.30058,0.30057 2.92439,-0.74143 5.83071,-2.31555 6.43575,-3.48576 16.6347,-5.1315 24.18515,-3.90264 5.27738,0.85892 12.44376,3.86473 9.49472,3.98238 -0.82618,0.0329 -4.56386,0.50263 -8.30595,1.04371 -10.38459,1.50152 -17.16759,5.71255 -19.61714,12.17872 -1.44635,3.81799 0.40987,4.11084 5.89169,0.92951 6.41317,-3.72183 16.09633,-3.6294 24.53496,0.23419 10.00013,4.57853 30.627506,17.02345 30.325636,18.29608 -0.15556,0.65577 -9.66715,11.98206 -21.136876,25.16952 l -20.85405,23.97723 -4.86706,-0.46767 c -16.27991,-1.56429 -25.04306,17.3247 -13.05995,28.15072 6.50681,5.87851 15.20414,6.12973 21.4789,0.62042 4.72109,-4.14517 5.99976,-7.79259 5.16432,-14.73131 -0.38098,-3.16423 -0.72962,-6.93252 -0.77476,-8.37398 -0.0639,-2.03917 -0.49318,-2.51331 -1.93446,-2.13641 -1.17388,0.30698 -1.8524,-0.048 -1.8524,-0.96902 0,-1.47732 61.363296,-74.11006 63.128146,-74.7217 2.41368,-0.83652 -0.1933,2.71007 -16.67299,22.68229 -9.68776,11.74088 -17.40439,21.55678 -17.14807,21.81311 0.33454,0.33454 13.97524,-15.18863 15.25112,-17.35584 0.0754,-0.12804 7.09235,3.27009 15.59328,7.5514 8.53978,4.30087 19.82546,9.09513 25.22015,10.71375 9.01592,2.70512 9.76344,3.12395 9.75777,5.46714 -0.008,3.49166 -6.80071,52.41649 -7.54699,54.36123 -0.33121,0.86312 -1.93087,2.11967 -3.55479,2.79232 -6.733,2.7889 -11.1467,11.95379 -9.07955,18.85332 2.41618,8.06449 8.13714,12.36849 16.35579,12.30483 16.46551,-0.12754 22.2989,-21.56668 8.23337,-30.25966 -2.91278,-1.80019 -3.42254,-2.61676 -3.00104,-4.80726 0.27926,-1.45129 1.74187,-13.95232 3.25025,-27.78007 l 2.74252,-25.14135 14.57933,-0.60991 c 12.85316,-0.5377 21.3253,-1.44979 30.21191,-3.25254 2.48544,-0.5042 2.67102,-0.24464 3.77282,5.27676 0.63733,3.19388 2.17633,7.60962 3.41999,9.81276 2.23465,3.95866 8.9177,8.6478 10.32265,7.24285 0.39636,-0.39637 0.19782,-2.46576 -0.44121,-4.59866 -1.94978,-6.50778 -1.41416,-16.93674 1.19568,-23.28114 3.55539,-8.64295 6.0304,-11.39754 15.23776,-16.95906 4.68113,-2.82753 9.24828,-6.26597 10.14921,-7.64098 0.90095,-1.37501 4.82845,-4.65336 8.72781,-7.28522 11.23395,-7.58234 19.09038,-14.60824 26.18813,-23.41964 7.20066,-8.93916 16.29614,-26.30628 18.96801,-36.21796 2.48555,-9.2205 3.02072,-27.28982 1.12964,-38.14068 -1.74408,-10.00736 -4.07754,-17.19744 -3.22197,-9.92781 1.98371,16.85514 1.38732,19.93947 -1.45227,7.5107 -0.6921,-3.02932 -3.246,-10.17833 -5.67531,-15.88668 -2.42932,-5.70836 -4.2245,-10.57127 -3.98928,-10.8065 0.735,-0.735 6.54961,4.65185 7.18618,6.65752 0.33303,1.04927 1.14931,1.69909 1.81395,1.44404 0.66464,-0.25505 4.24284,1.68318 7.95155,4.30717 3.70871,2.62399 10.14249,6.79878 14.29728,9.27731 4.15482,2.47854 11.38862,6.89236 16.07514,9.8085 4.68651,2.91614 25.51301,14.93976 46.2811,26.71913 20.7681,11.77938 37.76017,21.8546 37.76017,22.38938 0,0.53478 -6.53431,18.82534 -14.52069,40.64568 -13.20467,36.07774 -14.74759,39.72991 -17.02425,40.29732 -15.06856,3.75552 -19.87567,18.94737 -9.08128,28.69946 10.29417,9.30017 25.74433,3.07966 26.89779,-10.82952 0.46278,-5.58059 -0.9879,-9.57571 -4.69544,-12.93098 -1.15795,-1.04794 -2.11228,-3.07476 -2.12071,-4.50406 -0.0108,-1.82666 -0.26956,-2.19754 -0.87107,-1.2484 -0.47065,0.74268 -1.57856,1.19332 -2.46202,1.00143 -1.31398,-0.28539 0.84943,-6.87641 11.88818,-36.21838 15.1032,-40.14564 15.31331,-40.63484 16.58821,-38.62175 0.69812,1.10231 0.88161,1.0273 0.8938,-0.36542 0.008,-0.96387 0.68276,-1.7525 1.4985,-1.7525 1.85057,0 26.90484,16.78577 32.60666,21.8457 l 4.21297,3.73868 -8.13571,44.14752 c -4.47463,24.28114 -8.1357,44.42273 -8.1357,44.75909 0,0.33636 -2.40099,2.14746 -5.33553,4.02466 -6.06319,3.87857 -8.68444,8.29285 -8.68444,14.62485 0,16.14423 21.72459,22.46741 30.0877,8.75735 4.55261,-7.46332 2.97036,-15.98533 -4.09002,-22.02875 l -3.88757,-3.32761 6.93352,-42.37771 c 3.81344,-23.30774 7.10837,-42.55255 7.32206,-42.76626 0.21371,-0.21369 3.5748,0.28171 7.4691,1.1009 4.51523,0.94981 9.40763,1.27213 13.50348,0.88966 l 6.42293,-0.59979 2.60062,16.4026 c 1.43034,9.02141 3.61724,22.99158 4.85978,31.04481 l 2.25915,14.64223 -3.67849,4.29748 c -2.02316,2.36361 -3.96877,5.84486 -4.32357,7.73611 -1.46353,7.80131 4.79462,17.45715 12.2168,18.84956 12.7226,2.38678 22.4084,-7.32416 20.0174,-20.06935 -0.8566,-4.56597 -5.9524,-9.69695 -11.42383,-11.5027 -2.77668,-0.91638 -4.38833,-2.10474 -4.71607,-3.47743 -0.27384,-1.14692 -2.88298,-15.60218 -5.7981,-32.1228 l -5.3002,-30.0375 5.15282,-4.70938 c 11.37918,-10.39988 16.98878,-28.60763 14.49028,-47.03224 -3.22658,-23.79373 -17.38889,-49.11689 -39.9536,-71.43978 -5.00813,-4.95446 -9.10569,-9.31097 -9.10569,-9.68111 0,-0.37016 5.06973,-2.34456 11.26605,-4.38757 28.44285,-9.37796 53.30354,-22.12369 86.87374,-44.53904 38.0231,-25.38851 72.4691,-53.78387 110.4084,-91.01453 10.891,-10.6876 19.9817,-19.2498 20.2014,-19.02711 0.2198,0.2227 9.2176,21.4809 19.9952,47.24044 l 19.5957,46.83555 -3.4841,4.56429 c -7.5768,9.92622 -2.791,23.12334 9.595,26.45853 7.418,1.99747 15.0701,-1.11692 19.7826,-8.0515 1.9561,-2.87847 2.2982,-4.44607 1.9761,-9.0545 -0.4925,-7.04673 -3.2529,-11.07226 -9.5586,-13.9394 -2.6124,-1.18781 -5.4208,-2.51173 -6.2409,-2.94203 -1.4636,-0.76795 -44.9696,-95.45701 -45.0396,-98.02677 -0.033,-1.21157 20.3036,-24.45543 21.8217,-24.94131 0.3711,-0.11877 14.7266,20.88834 31.9011,46.68245 l 31.2264,46.89838 -2.4353,4.8104 c -4.0053,7.91135 -2.76,14.35932 3.9033,20.2097 11.7395,10.30742 31.5401,-0.0617 29.2522,-15.31871 -1.148,-7.65538 -8.8273,-14.43999 -16.3443,-14.43999 -1.8213,0 -3.7705,-0.99346 -5.4032,-2.75392 -3.6049,-3.88692 -65.1347,-90.55735 -65.5843,-92.38163 -0.3271,-1.3271 28.7081,-39.1476 30.5723,-39.82275 0.4045,-0.14652 1.789,3.00465 3.0766,7.00257 5.7607,17.88631 15.5979,34.34394 26.9029,45.00849 10.8497,10.23507 22.351,14.55127 31.9993,12.00864 9.7735,-2.57563 15.0126,-8.36626 18.9306,-20.9232 2.4511,-7.85591 2.5509,-9.07755 2.1252,-26.0371 -0.3688,-14.69282 -0.9243,-19.88906 -3.1871,-29.81156 -5.7056,-25.01928 -17.5728,-54.91764 -27.7618,-69.94366 -10.2069,-15.05215 -21.4568,-24.80394 -30.0936,-26.08602 -11.5389,-1.71288 -35.9903,9.52278 -92.4541,42.48354 -11.0157,6.43042 -30.8439,18.00061 -44.0628,25.71154 -44.4337,25.91955 -89.2353,49.35255 -97.4935,50.99305 l -3.3595,0.66736 2.7667,-4.40221 c 19.185,-30.52594 46.2891,-65.30757 75.2253,-96.53348 7.1455,-7.71099 27.7276,-28.44052 45.7379,-46.065627 37.2481,-36.45146 38.1545,-37.64324 38.1545,-50.16728 0,-6.42624 -0.4443,-8.073968 -4.2457,-15.745523 -7.3902,-14.914081 -19.2682,-24.3915013 -35.3079,-28.1720933 -7.9845,-1.88195997 -23.7338,-1.89095297 -30.6875,-0.01755 z m -27.1573,23.8413383 c -9.4216,11.989508 -12.1191,18.768308 -12.9306,32.494936 -0.6778,11.4653 1.2856,19.6968 6.6943,28.06499 7.0528,10.91209 19.477,19.103367 26.8898,17.728497 6.178,-1.14585 14.1244,-6.087207 26.6543,-16.574607 14.0967,-11.79877 18.9566,-15.0399 29.3665,-19.58475 13.955,-6.09263 15.3666,-4.00224 2.5037,3.70762 -17.0015,10.19051 -31.0543,19.97106 -40.8832,28.45419 -14.0819,12.153797 -15.846,12.988307 -27.4641,12.991697 -8.6501,0.003 -9.9943,-0.26355 -14.8095,-2.93124 -19.6096,-10.863897 -25.9305,-37.042947 -14.7664,-61.157312 3.2098,-6.933195 13.2568,-21.894128 16.2868,-24.252526 1.8723,-1.45737 3.7875,-0.632782 2.4584,1.058505 z m -29.3209,34.366686 c -1.9191,4.85916 -2.3111,7.71986 -2.3111,16.86729 0,13.94994 2.1147,19.94042 10.0737,28.537127 7.5052,8.10644 14.1386,11.26136 24.8613,11.82415 13.5992,0.71379 25.9854,-4.07874 37.5207,-14.51763 3.3215,-3.005727 6.7278,-5.318427 7.5696,-5.139327 0.9766,0.20778 -7.4463,9.580637 -23.2735,25.898197 -26.2242,27.03657 -35.4495,37.37967 -49.9872,56.04373 -27.1489,34.85478 -36.1088,50.24027 -67.7158,116.27844 -8.80514,18.39696 -13.77956,26.04699 -22.41691,34.47439 -11.77413,11.48792 -11.15732,11.25303 -33.13801,12.61938 -21.55833,1.34007 -37.63207,0.3543 -51.70804,-3.17116 -4.33833,-1.08659 -8.66788,-1.9756 -9.62122,-1.9756 -3.272,0 -23.63797,-24.24716 -35.09533,-41.78351 -12.31015,-18.84163 -23.36161,-44.71707 -24.71996,-57.87835 l -0.54285,-5.25962 27.4172,-23.43862 c 44.25032,-37.82904 71.31238,-59.6634 98.27375,-79.2898 l 10.77092,-7.84064 4.73655,2.7758 c 6.34236,3.71687 13.65331,10.68138 17.57775,16.74481 4.02266,6.21521 4.88595,3.93748 1.39648,-3.68453 -3.01536,-6.58641 -8.59803,-12.91808 -14.375,-16.30361 -2.38689,-1.39882 -4.33982,-2.68332 -4.33982,-2.85444 0,-0.83781 47.75919,-33.709347 57.39659,-39.504747 l 3.8202,-2.29728 5.5036,3.7905 c 3.027,2.08478 7.6692,6.25927 10.3159,9.27667 2.8165,3.21093 5.2817,5.19604 5.9443,4.78658 2.6704,-1.65042 -6.8933,-13.14615 -14.2188,-17.09119 -2.025,-1.09053 -3.5391,-2.41097 -3.3647,-2.9343 0.5526,-1.65767 34.2054,-22.306525 35.1029,-21.53854 0.4718,0.40383 -0.1821,3.367448 -1.4532,6.58583 z m 203.2401,95.729647 c 4.679,15.02837 6.7709,27.3055 10.6812,62.68622 4.0383,36.53855 4.0263,36.4622 7.1304,45.61623 4.5783,13.50119 11.0885,20.44631 21.396,22.82558 5.7991,1.33859 6.3226,2.35515 1.7446,3.38786 -12.1145,2.73275 -25.0204,-1.52633 -33.5047,-11.057 -6.9075,-7.75927 -10.0897,-13.46235 -21.8248,-39.11396 -9.8066,-21.43593 -14.3224,-29.28402 -17.4503,-30.32665 -0.7209,-0.24028 0.3195,2.47812 2.3119,6.04092 1.9925,3.56279 3.6227,7.28924 3.6227,8.281 0,1.77958 -29.8751,42.56783 -31.1785,42.56783 -0.7231,0 -12.7399,-16.48389 -13.5434,-18.578 -0.3036,-0.79111 0.7544,-1.51002 2.8416,-1.93093 8.1968,-1.65292 9.0835,-2.90904 2.7664,-3.91918 -5.2663,-0.8421 -11.3203,1.76647 -15.7143,6.77095 -3.1874,3.63036 -4.2432,7.91517 -2.2532,9.14503 0.5508,0.34041 1.0037,0.25435 1.0064,-0.19125 0,-0.4456 1.0603,-2.12908 2.3501,-3.74105 l 2.3452,-2.93089 7.1634,10.84636 c 3.9399,5.9655 7.1634,11.24143 7.1634,11.72429 0,1.10211 -20.0827,23.84891 -21.0557,23.84891 -0.564,0 -11.3709,-22.64822 -13.6875,-28.68519 -0.3628,-0.94551 0.3475,-1.36228 2.3401,-1.37295 1.5736,-0.008 3.524,-0.43458 4.3342,-0.94698 4.2251,-2.67205 -8.0004,-4.10459 -13.0741,-1.53198 -6.5174,3.30471 -10.8491,9.04068 -9.1373,12.09951 0.7118,1.27194 1.3548,0.90956 3.5932,-2.02518 1.4995,-1.96588 3.3101,-3.57433 4.0237,-3.57433 1.8091,0 14.8999,31.60016 14.115,34.07287 -1.2234,3.85479 -41.1973,40.66611 -63.6822,58.64395 -23.8852,19.09749 -61.5415,45.18269 -71.7335,49.6911 -9.6001,4.24654 -36.6018,0.56304 -57.82341,-7.88811 -12.07752,-4.80968 -26.56632,-12.11714 -26.56632,-13.39881 0,-0.56814 1.59609,-5.61842 3.54686,-11.22285 1.95078,-5.60444 5.11989,-16.43625 7.04247,-24.07068 l 3.4956,-13.88079 9.2829,-9.18518 c 12.41938,-12.28861 26.4095,-32.18589 31.2197,-44.40189 1.5963,-4.05406 1.9322,-4.27806 11.8323,-7.89167 53.2701,-19.44394 118.5109,-52.01992 174.3368,-87.04964 22.5134,-14.12672 39.8795,-26.67537 54.6643,-39.49994 6.334,-5.49425 11.7789,-10.01397 12.0997,-10.04384 0.3209,-0.0298 2.0215,4.56477 3.7791,10.21031 z m 7.7191,-1.12733 c 2.044,3.95269 5.213,14.44994 11.4507,37.92977 5.7441,21.622 8.6956,29.57671 13.6509,36.79146 5.1487,7.49622 8.8823,9.54075 16.6457,9.11507 l 6.2301,-0.3416 0.7883,5.00713 c 1.6628,10.5609 -1.6895,31.61635 -5.7877,36.35267 l -2.3388,2.70298 -4.748,-2.50357 c -6.9964,-3.68918 -14.801,-11.91031 -18.2472,-19.22126 -4.1276,-8.75633 -5.6739,-16.63814 -8.705,-44.36935 -2.8293,-25.88391 -4.9697,-38.14846 -9.1044,-52.16756 -1.4468,-4.9057 -2.8572,-9.7081 -3.1341,-10.67197 -0.8496,-2.95711 1.5834,-1.94232 3.2995,1.37623 z m -715.39766,58.41199 c 9.92385,0.627 27.72354,4.94372 39.42104,9.56023 27.64583,10.91067 56.21225,31.41981 78.4826,56.34625 11.70838,13.10476 11.69543,13.05535 7.19755,27.4626 -2.29387,7.34759 -2.59857,9.30745 -1.51184,9.72447 2.02594,0.77742 5.99698,-5.0949 7.89777,-11.67918 0.91633,-3.17409 2.08643,-5.51127 2.60025,-5.19372 0.51381,0.31756 5.03359,6.85766 10.04395,14.53356 6.41564,9.8288 9.67118,13.9562 11.00812,13.9562 2.45708,0 2.43056,0.35438 -1.48402,19.82613 -1.80465,8.97663 -2.92462,16.5415 -2.48884,16.81083 0.43579,0.26933 1.87361,-1.22314 3.19516,-3.3166 12.66871,-20.06856 15.14189,-41.17096 6.75276,-57.61815 l -2.94378,-5.77139 3.88547,-1.98222 c 2.137,-1.09022 4.07498,-1.64759 4.30661,-1.2386 1.25097,2.20887 4.99805,15.13002 7.14722,24.64602 1.35195,5.98611 2.69259,11.11833 2.97919,11.40493 0.9014,0.9014 2.43588,-4.34424 3.05065,-10.42861 0.36313,-3.59391 0.0365,-8.36304 -0.84634,-12.36087 -0.79066,-3.58011 -1.14226,-6.82176 -0.78131,-7.2037 0.36095,-0.38192 4.52614,-3.12193 9.25599,-6.0889 11.63372,-7.29766 24.5443,-16.97915 42.27731,-31.70326 8.15412,-6.77054 14.98832,-12.14688 15.18714,-11.94741 0.19881,0.19945 1.30652,4.06509 2.46156,8.59031 7.97043,31.22631 25.50123,61.62325 53.42362,92.63205 l 6.95792,7.72703 -7.20599,7.9805 c -9.14658,10.12968 -27.59589,26.81784 -45.59284,41.24059 -7.71098,6.17958 -16.26544,13.19532 -19.0099,15.59052 -2.74447,2.3952 -5.60042,4.35492 -6.34656,4.35492 -0.74615,0 -4.14322,1.55835 -7.54905,3.46299 -5.42017,3.03114 -7.56353,3.59302 -17.18696,4.50559 -17.89219,1.69667 -16.15923,2.4876 -16.9108,-7.71823 -0.35489,-4.81937 -0.89148,-10.83289 -1.19239,-13.36339 l -0.54714,-4.60091 -9.85247,0.47444 c -5.41886,0.26093 -14.96237,-0.0604 -21.20778,-0.71414 -10.81867,-1.1324 -42.55832,-7.24153 -47.61864,-9.16547 -3.07075,-1.16749 -24.67743,-21.48549 -64.35528,-60.51696 -62.746306,-61.72412 -76.493476,-74.5389 -94.506356,-88.09649 -6.73002,-5.06541 -7.634,-6.14562 -8.48598,-10.14027 -3.42492,-16.05837 11.7264,-27.93847 38.7528,-30.38595 4.19876,-0.38024 8.76072,-0.56849 10.13768,-0.41833 1.37697,0.15015 6.41783,0.52032 11.201906,0.82259 z m 129.22794,46.45823 c 7.42911,7.77595 15.80571,18.43236 21.05335,26.78331 2.00457,3.19001 2.64885,5.68254 2.91272,11.26831 0.18634,3.94474 0.0383,7.17124 -0.32891,7.16999 -0.36723,-7.5e-4 -3.15143,-3.54679 -6.18709,-7.87901 -5.7087,-8.14692 -12.10034,-15.55989 -23.92001,-27.74218 -6.42775,-6.62497 -6.80058,-7.25443 -5.8217,-9.82911 0.57522,-1.51295 1.04586,-4.31459 1.04586,-6.22585 0,-3.03407 0.22839,-3.35281 1.79984,-2.5118 0.98991,0.52979 5.24059,4.56464 9.44594,8.96634 z m 554.48242,58.78462 c 17.1055,25.086 31.5723,46.49149 32.1483,47.56778 0.8583,1.60379 0.7247,1.95202 -0.7405,1.93004 -1.2359,-0.0185 -11.2576,-14.31426 -32.4687,-46.316 -34.0108,-51.31286 -32.408,-48.79274 -31.0333,-48.79274 0.5463,0 14.9886,20.52491 32.0942,45.61092 z m -41.654,27.41941 c 12.4877,29.15098 22.7049,53.74852 22.7049,54.66121 0,0.9127 -0.5633,1.47294 -1.2518,1.24501 -1.052,-0.3483 -45.764,-105.93041 -45.8023,-108.15694 -0.066,-3.83431 4.7591,6.52018 24.3492,52.25072 z m -330.56872,-11.68607 9.01572,9.77079 -4.32964,5.61201 c -2.3813,3.08661 -4.98774,5.86456 -5.79209,6.17321 -1.64532,0.63137 -12.82058,-10.56044 -17.86321,-17.88967 l -3.09285,-4.4953 4.50993,-6.28521 c 5.28933,-7.37144 3.52676,-8.08584 17.55214,7.11417 z m 422.17182,52.01726 c 1.632,1.63209 1.5097,3.35435 -0.372,5.23604 -2.1696,2.16963 -5.1534,1.97071 -6.4377,-0.42918 -2.2524,-4.20862 3.4105,-8.20599 6.8097,-4.80686 z M 509.3269,408.89087 c 5.14455,2.85934 12.03677,6.20221 15.31607,7.42859 l 5.96236,2.22977 -2.22171,2.36491 c -4.07032,4.33265 -9.38428,3.0303 -32.18982,-7.88915 -7.03576,-3.36876 -12.63611,-6.59352 -12.44524,-7.16614 0.19087,-0.57262 2.7929,-2.03481 5.78228,-3.24931 5.11521,-2.07817 5.58266,-2.11132 7.93881,-0.56284 1.37696,0.90495 6.71273,3.98482 11.85725,6.84417 z m -19.98649,5.99929 c 17.5114,7.93418 31.65673,12.70681 44.33806,14.95963 14.04831,2.49566 14.17741,2.58306 8.83541,5.98271 -16.04445,10.21062 -75.90543,34.05432 -109.20252,43.49731 -23.83924,6.76077 -66.77866,14.99596 -78.54504,15.06387 -2.96936,0.0171 -6.39232,1.46761 -5.47885,2.32164 0.52827,0.4939 25.09514,-2.43532 40.497,-4.82863 23.59495,-3.66646 46.86865,-9.01187 65.59417,-15.06543 l 11.29834,-3.65252 7.09532,4.84761 c 9.71113,6.63473 23.50969,19.98156 31.3352,30.30935 7.52853,9.93583 17.38253,29.27511 20.44843,40.1317 2.96317,10.49285 3.7754,28.74952 1.60612,36.10165 -0.88564,3.00165 -2.60022,7.03482 -3.81015,8.96256 l -2.19987,3.50499 -1.20005,-4.03989 c -1.5887,-5.34829 -7.28323,-36.52686 -8.10187,-44.35914 l -0.6458,-6.17873 h 3.64765 c 4.52686,0 4.76783,-1.58725 0.39301,-2.58886 -8.69515,-1.99074 -17.77532,2.71895 -17.77532,9.21966 0,1.42242 0.57102,1.20825 3.01088,-1.12928 1.8285,-1.75182 3.35219,-2.5136 3.88,-1.93986 0.47801,0.51962 2.77688,13.28077 5.10859,28.35811 3.4983,22.62074 4.00174,27.56399 2.87963,28.27498 -2.58176,1.63584 -13.61801,0.96132 -19.34796,-1.18252 -3.04997,-1.14114 -5.54541,-2.51343 -5.54541,-3.04953 0,-1.34012 3.11282,-21.11975 3.56395,-22.64627 0.26803,-0.90696 1.60306,-0.70181 5.0512,0.77625 2.57778,1.10496 4.85902,1.83687 5.06942,1.62648 1.07094,-1.07094 -1.34895,-3.9812 -4.75535,-5.71902 -5.2356,-2.671 -11.76657,-2.55112 -15.96426,0.29302 -3.6948,2.50341 -5.42183,5.5241 -2.52213,4.41137 4.37467,-1.67871 6.55287,-1.84968 6.55171,-0.51423 -0.002,2.35191 -2.76692,15.97867 -3.36303,16.57479 -0.31285,0.31284 -3.1811,-1.69425 -6.37391,-4.46022 -3.19278,-2.76597 -10.98271,-8.72849 -17.31094,-13.25007 -6.32824,-4.52156 -11.65582,-8.62542 -11.83908,-9.11969 -0.28817,-0.7772 4.38227,-16.13965 5.51857,-18.15216 0.22556,-0.39947 2.60738,0.50048 5.29295,1.99988 2.68557,1.4994 5.22687,2.38218 5.64733,1.96171 1.23104,-1.23102 -2.8891,-5.92819 -7.16958,-8.17368 -7.76035,-4.071 -20.18604,-1.85622 -21.29762,3.79613 -0.27347,1.3906 0.0907,1.49191 2.3184,0.64494 2.95506,-1.1235 8.52101,-1.35641 8.52101,-0.35654 0,1.18921 -4.3186,12.85816 -5.08407,13.73726 -0.41485,0.47644 -5.63698,-2.059 -11.60472,-5.6343 -5.96775,-3.57532 -22.34181,-13.16582 -36.38683,-21.31221 -24.95997,-14.47732 -50.2002,-29.82495 -54.98628,-33.4351 l -2.39488,-1.80646 12.82447,-17.89873 c 7.05346,-9.8443 13.0304,-18.68619 13.28208,-19.64863 0.83548,-3.19486 -2.81034,-3.12069 -13.13878,0.26727 -9.23741,3.03009 -11.51147,3.3714 -24.93542,3.74246 -9.45286,0.2613 -14.77104,0.0476 -14.77104,-0.59322 0,-0.55083 4.51404,-4.30997 10.03119,-8.35362 5.9507,-4.36141 10.27215,-8.26866 10.62354,-9.6053 0.54828,-2.08554 1.1553,-2.25321 8.15723,-2.25321 4.25218,0 18.10645,-1.7902 31.63765,-4.08808 l 24.07276,-4.08808 40.60689,-14.3103 c 22.33378,-7.87065 41.00451,-14.3679 41.49048,-14.43832 0.48598,-0.0704 7.47094,2.85661 15.52212,6.5045 z m -261.14102,-2.59782 c 12.96588,3.31048 26.56468,4.96595 40.84429,4.97223 l 13.41862,0.006 -0.5477,20.47834 c -0.40881,15.28494 -0.23751,20.90255 0.67544,22.15109 1.10984,1.5178 2.28318,1.15812 12.66548,-3.88247 6.29326,-3.05537 13.08997,-6.55347 15.10376,-7.77357 2.28986,-1.38735 4.34422,-1.95635 5.48411,-1.51893 1.56361,0.60001 1.32788,0.99696 -1.65859,2.7929 -1.9147,1.1514 -7.53704,4.65994 -12.4941,7.79674 -4.95707,3.1368 -10.13945,6.16087 -11.51641,6.72016 l -2.50357,1.01689 3.50499,2.1632 c 5.81804,3.59074 15.57884,6.1384 23.38867,6.10464 9.32449,-0.0403 20.96683,-1.57711 26.91959,-3.55345 8.69812,-2.8878 8.56101,-1.95141 -1.84453,12.59721 -5.31813,7.4356 -9.85365,13.72482 -10.07895,13.97606 -0.69546,0.77554 -6.43491,-2.72524 -15.98712,-9.75134 -5.03102,-3.70056 -13.59322,-9.94116 -19.02711,-13.86801 -18.6484,-13.47639 -75.28765,-59.81813 -75.42049,-61.70837 -0.0727,-1.03507 0.0974,-1.01104 9.07362,1.28078 z m 553.10319,7.55324 c 0.8656,0.86551 1.5738,1.95993 1.5738,2.43203 0,0.914 -2.8113,4.00571 -3.6424,4.00571 -0.2723,0 -1.3667,-0.4665 -2.432,-1.03665 -2.414,-1.29189 -2.5155,-4.53547 -0.1846,-5.89312 2.3748,-1.38315 2.8612,-1.33208 4.6852,0.49203 z m -628.32378,0.59947 c -1.37696,0.56989 -3.85549,1.61411 -5.50784,2.32049 l -3.00428,1.28432 3.50499,0.65422 c 1.92774,0.35983 8.15295,0.0509 13.83379,-0.68667 5.68083,-0.73749 10.52265,-1.02722 10.75958,-0.64385 0.7075,1.14476 -2.39913,1.9065 -7.90137,1.9374 -6.0368,0.034 -22.16943,4.39336 -32.21412,8.70507 -15.03936,6.45567 -31.00629,18.2438 -41.748456,30.82222 -11.53151,13.5027 -19.76459,32.67084 -19.8219,46.14909 -0.0299,7.0326 1.29544,5.80711 3.04376,-2.81442 4.33295,-21.36727 17.06517,-40.49061 36.896296,-55.41694 8.06012,-6.06661 24.40087,-15.01984 28.72155,-15.73676 1.05687,-0.17537 2.82288,-0.80685 3.92445,-1.4033 3.94747,-2.13736 19.2377,-5.39044 30.79387,-6.55154 13.57295,-1.36375 29.55482,-0.17358 43.81243,3.26269 11.53349,2.77972 30.39349,10.40279 36.74096,14.85042 13.20118,9.24993 40.42521,31.48904 43.3027,35.37366 4.95645,6.69119 11.88809,21.50568 14.20324,30.35559 3.12553,11.9477 2.91542,28.77609 -0.52518,42.05994 -8.30642,32.0705 -28.19257,54.31543 -60.17392,67.31138 -7.68662,3.12354 -8.56843,4.31437 -1.74589,2.3577 1.78642,-0.51234 3.24803,-0.59687 3.24803,-0.18783 0,1.33271 -19.373,13.48976 -25.37656,15.92445 -6.36332,2.58058 -7.99698,2.34201 -5.19141,-0.75811 1.69294,-1.87068 1.69709,-2.0273 0.0703,-2.65155 -0.95089,-0.36489 -5.20632,0.54709 -9.45652,2.02663 -8.4247,2.93272 -22.87309,5.59518 -30.39608,5.60121 -3.9879,0.003 -4.75678,-0.30024 -4.75678,-1.8773 0,-1.57544 1.23086,-2.06418 7.57479,-3.00772 8.28234,-1.23185 49.66036,-10.92684 50.49262,-11.83057 0.28383,-0.30821 -1.06118,-0.26276 -2.98893,0.101 -7.69199,1.45146 -37.50956,1.71708 -45.06421,0.40143 -6.71062,-1.16866 -7.54674,-1.5629 -7.84903,-3.701 -0.28497,-2.0156 4.5e-4,-2.30442 1.80969,-1.8313 2.8787,0.75281 2.13133,-1.39823 -1.04973,-3.02127 -3.3302,-1.69913 -8.42986,-1.57821 -9.93518,0.23559 -1.04378,1.25768 -0.8888,1.50215 0.95223,1.50215 1.55932,0 2.09755,0.50973 1.85043,1.75249 -0.24436,1.2289 -1.08909,1.64766 -2.82735,1.40159 -6.78987,-0.96119 -35.02522,-11.48197 -35.02522,-13.05078 0,-1.13867 11.10025,-14.13755 12.07261,-14.13755 0.49788,0 1.82483,1.80256 2.94879,4.0057 2.21257,4.33699 4.00571,5.21917 4.00571,1.97069 0,-8.82077 -12.29517,-18.49631 -19.34307,-15.2218 -2.32059,1.07816 -2.16105,1.19566 5.07274,3.73585 0.68847,0.24176 1.25178,0.87242 1.25178,1.40146 0,1.09038 -11.98358,15.12386 -12.9145,15.12366 -1.31676,-3e-4 -16.63691,-10.33942 -23.37008,-15.7718 -18.376286,-14.82613 -32.378946,-37.84756 -37.326576,-61.36779 -1.95431,-9.29049 -1.91218,-27.08042 0.087,-36.75935 3.27841,-15.87179 13.35792,-35.37411 24.8101,-48.00377 13.738896,-15.15148 38.814056,-27.06833 57.226126,-27.19644 4.37931,-0.0305 4.69322,0.0951 2.50357,1.00132 z M 30.761714,501.21003 c 7.31569,3.62071 11.38934,9.15526 14.55004,19.76806 1.38448,4.64871 3.6243,12.17 4.97737,16.71397 1.35308,4.54398 3.59084,10.49289 4.97281,13.21978 1.38197,2.7269 2.33747,5.1332 2.12335,5.34733 -0.84656,0.84655 -9.56368,-6.424 -9.95436,-8.30248 -0.22911,-1.10157 -1.13502,-5.608 -2.01314,-10.01427 -3.06633,-15.38632 -13.31263,-31.83842 -23.11728,-37.11857 -8.37849,-4.51212 -0.73059,-4.16305 8.46121,0.38618 z m 494.827076,16.79075 c 8.4545,16.65219 11.2883,26.6541 11.32455,39.97017 0.0254,9.3517 -1.5497,18.52671 -3.18056,18.52617 -0.39186,-1.3e-4 -0.76535,-4.16856 -0.82996,-9.26319 -0.18316,-14.43983 -6.25904,-32.25188 -15.9696,-46.81648 l -3.6722,-5.50785 1.78945,-5.28375 c 0.98419,-2.90606 2.27554,-5.13032 2.86965,-4.9428 0.59412,0.18753 4.04501,6.18051 7.66867,13.31773 z M 52.335404,559.09576 c 3.30471,1.41868 6.86879,2.5572 7.92017,2.53006 1.05139,-0.0272 4.17626,1.98675 6.94417,4.47534 4.77258,4.29096 5.78864,4.60277 9.69996,2.97678 1.06898,-0.44439 4.19839,2.25214 10.36247,8.92908 7.09407,7.68432 8.6025,9.84105 7.66934,10.96544 -0.93464,1.12618 -0.12211,2.22838 4.15822,5.64056 2.925926,2.33248 8.136386,6.02063 11.578786,8.19586 6.48805,4.09978 8.12464,6.41953 3.75535,5.32291 -3.73039,-0.93628 -3.04534,0.72744 2.00286,4.86405 2.47853,2.03097 4.49142,4.00049 4.4731,4.37671 -0.0183,0.37621 -0.91444,1.74152 -1.99138,3.034 l -1.95806,2.34998 -8.77396,-5.51325 c -8.775706,-5.51435 -18.363206,-10.6509 -23.545006,-12.61433 -4.59156,-1.73981 -3.15439,-2.89529 2.35551,-1.89383 4.12788,0.75026 13.815216,4.09515 21.678736,7.48535 0.69411,0.29925 1.25178,-0.14951 1.25178,-1.00734 0,-2.09493 -11.580276,-12.32738 -19.121656,-16.89608 -3.36647,-2.03946 -9.00349,-4.6674 -12.52671,-5.83985 -3.52322,-1.17245 -6.40585,-2.49446 -6.40585,-2.9378 0,-0.44335 2.02789,-1.11017 4.50642,-1.48185 3.49078,-0.52348 4.50642,-1.09723 4.50642,-2.54574 0,-2.99402 -2.82188,-5.01731 -6.99762,-5.01731 -3.00527,0 -5.53004,-1.15386 -11.50401,-5.25749 -13.46285,-9.24789 -15.48094,-10.1941 -21.82087,-10.23101 -4.86682,-0.0284 -5.505,-0.23015 -4.06466,-1.2854 2.71933,-1.99228 9.34079,-1.41766 15.84649,1.37516 z m 92.631986,38.37245 c 0,1.18154 -1.95313,2.44549 -2.67048,1.72815 -0.71733,-0.71734 0.54662,-2.67047 1.72816,-2.67047 0.51828,0 0.94232,0.42404 0.94232,0.94232 z m 373.03151,0.0591 c 0.34041,0.55079 0.14168,1.00142 -0.44161,1.00142 -0.58329,0 -1.06053,-0.45063 -1.06053,-1.00142 0,-0.55078 0.19872,-1.00143 0.44161,-1.00143 0.24289,0 0.72013,0.45065 1.06053,1.00143 z m 0.75979,3.25463 c 0.26034,0.68849 3.06534,15.14622 6.23334,32.12832 4.19163,22.46931 5.45982,31.17668 4.65761,31.9789 -0.60632,0.6063 -1.4041,0.80064 -1.77287,0.43187 -0.36878,-0.36878 -2.84835,-14.30864 -5.51016,-30.97747 -2.66183,-16.66884 -5.08005,-31.32092 -5.37384,-32.56019 -0.55611,-2.34574 0.93732,-3.19265 1.76592,-1.00143 z m -35.3199,9.51356 c -0.0295,4.74245 -12.01254,76.76568 -12.92371,77.67685 -1.94124,1.94123 -2.29729,-0.1391 -1.19993,-7.01086 6.96706,-43.62807 11.30729,-70.14059 11.65032,-71.1667 0.62883,-1.88096 2.48577,-1.50504 2.47332,0.50071 z m -345.48139,12.7682 3.50499,1.34976 -3.00428,0.0915 c -4.18234,0.12741 -6.03598,1.38015 -4.24343,2.86785 2.16708,1.79851 18.51679,5.33197 27.43645,5.9295 4.49439,0.30108 8.62014,0.82462 9.16836,1.16343 0.56355,0.34831 0.76374,2.68308 0.46062,5.37231 l -0.5361,4.75629 h -5.21071 c -6.33151,0 -7.5989,-0.93987 -3.55833,-2.6388 1.66153,-0.69862 3.01766,-1.62996 3.01363,-2.06964 -0.004,-0.43967 -5.5244,-2.08904 -12.26748,-3.66527 -13.34448,-3.11932 -27.78227,-8.20726 -27.78227,-9.7906 0,-0.54696 0.46649,-1.86612 1.03666,-2.93148 1.23931,-2.31567 6.59338,-2.50999 11.98189,-0.43488 z m 38.39686,14.77104 c -5.57788,57.04494 -7.16533,71.06423 -8.15938,72.05829 -3.10591,3.1059 -2.95178,0.93089 3.38538,-47.77368 1.93494,-14.8712 3.70944,-27.60183 3.94329,-28.29031 0.94141,-2.77142 1.31651,-0.96262 0.83071,4.0057 z m 55.73727,10.11773 c 0,1.29616 -0.29634,5.19184 -0.65852,8.65707 -0.58444,5.59153 -0.80977,6.09355 -2.00285,4.46191 -1.62773,-2.22605 -1.743,-8.02461 -0.24494,-12.32193 1.29376,-3.71131 2.90631,-4.15356 2.90631,-0.79705 z m 182.21981,21.1288 c 2.71728,3.27412 -2.24191,8.2333 -5.51603,5.51603 -1.49321,-1.23926 -1.97653,-5.11242 -0.78646,-6.30249 1.19007,-1.19007 5.06322,-0.70675 6.30249,0.78646 z m 128.73844,16.61967 c 0.8338,2.62693 -1.2405,5.1422 -3.9231,4.75705 -2.14623,-0.30816 -3.18886,-2.83114 -2.21679,-5.36432 0.86179,-2.24579 5.37609,-1.7993 6.13989,0.60727 z m -478.242286,9.41038 c 0.66051,0.79586 1.05367,2.48577 0.87369,3.75535 -0.25864,1.82447 -0.95696,2.30833 -3.33151,2.30833 -2.37454,0 -3.07287,-0.48386 -3.33151,-2.30833 -0.35854,-2.52921 1.35331,-5.20237 3.33151,-5.20237 0.6913,0 1.79732,0.65116 2.45782,1.44702 z m 408.693746,13.60961 c 3.15571,1.68889 1.86982,6.97476 -1.69673,6.97476 -1.40557,0 -4.37766,-2.71956 -4.37766,-4.00571 0,-0.914 2.81126,-4.00571 3.64235,-4.00571 0.27226,0 1.36668,0.4665 2.43204,1.03666 z m -300.99461,23.4983 c 0,2.66741 -0.33534,3.00428 -2.99056,3.00428 -2.08878,0 -3.09575,-0.5461 -3.33934,-1.81099 -0.62555,-3.24825 0.64244,-4.85176 3.57028,-4.51499 2.32808,0.26779 2.75962,0.78721 2.75962,3.3217 z"
       id="path995" /><path
       style="fill:#030000;stroke:#fbffff;stroke-width:0;stroke-miterlimit:0"
       d="m 268.83913,292.17906 c -0.18426,-1.26964 -0.43068,-2.47418 -0.54759,-2.67676 -0.11691,-0.20258 -1.57233,0.70027 -3.23426,2.00633 -1.66192,1.30606 -3.21509,2.37465 -3.45147,2.37465 -0.23638,0 -3.64239,-4.62045 -7.5689,-10.26768 -9.46254,-13.60929 -9.63,-13.80825 -11.62196,-13.80825 -0.88448,0 -2.7058,0.43265 -4.04738,0.96145 -1.34158,0.52881 -2.55356,0.84714 -2.69329,0.70741 -0.58447,-0.58447 1.24112,-2.8861 3.31591,-4.18056 1.28256,-0.80018 2.10229,-1.61577 1.92826,-1.91851 -0.85054,-1.47954 -6.23369,-8.85808 -8.00188,-10.96795 -2.65627,-3.16956 -4.54339,-3.49948 -10.20167,-1.78353 -1.54112,0.46736 -0.79684,-0.51405 2.00633,-2.64555 1.53657,-1.16839 2.80247,-2.31012 2.81311,-2.53716 0.0107,-0.22705 -2.01701,-3.20113 -4.5059,-6.60908 l -4.52525,-6.19627 15.14699,-0.12456 c 8.33084,-0.0685 15.14699,-0.19458 15.14699,-0.28015 0,-0.0856 -0.42542,-1.3921 -0.94538,-2.90338 -0.51996,-1.51129 -0.83513,-2.85803 -0.70039,-2.99278 0.60776,-0.60776 3.55764,2.3866 5.34216,5.42271 0.2772,0.47162 27.31923,2.84482 27.709,2.43174 0.0713,-0.0755 0.31606,-1.08944 0.54397,-2.25311 l 0.41439,-2.11576 1.84301,2.63734 1.84301,2.63733 3.80868,0.56796 c 5.86735,0.87494 15.15497,2.79889 19.85931,4.11389 4.64914,1.29957 14.39835,5.24055 14.39835,5.82034 0,0.19965 -2.2731,2.03854 -5.05132,4.08641 -2.77822,2.04788 -5.36681,3.96179 -5.75241,4.25313 -0.59959,0.45302 -0.48154,0.80694 0.8153,2.44433 1.41133,1.78196 2.76662,4.65398 2.37176,5.02607 -0.0949,0.0895 -1.81855,-0.89812 -3.83026,-2.19463 l -3.65767,-2.35728 -5.50343,3.94082 c -3.02688,2.16745 -6.53687,4.89678 -7.79996,6.06517 l -2.29654,2.12435 1.49762,2.26659 c 1.03251,1.56269 1.56929,3.02876 1.72844,4.72077 l 0.23082,2.45418 -3.16339,-3.77662 c -1.73986,-2.07713 -3.37243,-3.72037 -3.62791,-3.65162 -0.68275,0.18371 -15.7083,11.69931 -16.48258,12.63226 -0.36301,0.4374 -0.80293,2.17603 -0.9776,3.86364 -0.22279,2.15241 -0.60452,3.35528 -1.27879,4.02956 l -0.96121,0.9612 z m 13.49648,-33.77607 c 7.25845,-5.49348 13.19719,-10.15804 13.19719,-10.36571 0,-1.28019 -17.53028,-4.80526 -34.9337,-7.02463 -8.8009,-1.12233 -21.25684,-1.7894 -21.21838,-1.13633 0.0138,0.23441 2.49183,2.44433 5.50673,4.91094 6.94115,5.67883 17.52461,15.92634 20.90449,20.24093 1.42804,1.82295 2.76519,3.32536 2.97145,3.33869 0.20627,0.0133 6.31376,-4.47042 13.57222,-9.96389 z"
       id="path997"
       transform="matrix(0.75000002,0,0,-0.75000002,0,746.06302)" /><path
       style="fill:#030000;stroke:#fbffff;stroke-width:0;stroke-miterlimit:0"
       d="m 152.49343,326.19504 c -13.67748,-2.93558 -23.46104,-12.31404 -27.65584,-26.51072 -1.63906,-5.54718 -2.04007,-14.39846 -0.95228,-21.01931 4.96998,-30.24976 32.75246,-54.66067 60.42369,-53.09091 16.18007,0.91788 28.72899,11.02227 33.64793,27.09332 1.16349,3.80136 1.27448,4.84582 1.29454,12.18312 0.0199,7.29124 -0.0984,8.49014 -1.29358,13.10723 -6.33514,24.47294 -25.1623,43.23564 -48.23364,48.06851 -5.05021,1.05789 -12.73735,1.13318 -17.23082,0.16876 z m 24.23997,-13.88233 c 7.3847,-1.88869 14.04411,-5.51162 19.6183,-10.67296 12.76727,-11.82169 17.87725,-30.81859 12.52376,-46.55848 -3.34339,-9.82999 -9.74582,-16.43732 -18.9565,-19.56317 -2.88988,-0.98075 -4.88525,-1.29551 -9.36797,-1.47778 -9.50197,-0.38636 -17.16542,1.7331 -25.03274,6.92323 -14.78011,9.75054 -22.60079,25.84994 -20.89129,43.00611 1.53853,15.44045 11.01072,26.17141 25.65574,29.06515 4.18771,0.82746 11.67739,0.4987 16.4507,-0.7221 z"
       id="path999"
       transform="matrix(0.75000002,0,0,-0.75000002,0,746.06302)" /><path
       style="fill:#030000;stroke:#fbffff;stroke-width:0;stroke-miterlimit:0"
       d="m 165.00347,307.75027 c -7.24637,-0.93359 -12.3354,-3.04101 -16.47121,-6.82092 -8.68943,-7.94164 -11.29387,-23.25605 -6.14701,-36.14501 4.3957,-11.00788 13.69164,-20.02598 24.24972,-23.52494 12.01984,-3.98339 23.08731,-1.88118 30.71271,5.83373 9.85631,9.97199 11.14882,26.82861 3.15336,41.12523 -1.36381,2.4386 -3.44938,5.01759 -6.70086,8.28618 -3.93803,3.95874 -5.44296,5.11602 -9.07632,6.9796 -2.39555,1.22869 -5.90072,2.62524 -7.78927,3.10344 -3.5661,0.90297 -9.47647,1.47894 -11.93112,1.16269 z m -12.04519,-15.70576 c 0.0168,-1.53367 3.48976,-7.72144 5.67676,-10.11437 8.29671,-9.07792 20.54499,-10.10346 29.87797,-2.50164 1.49713,1.21943 2.90278,2.10545 3.12366,1.96894 0.22088,-0.13651 0.8906,-1.25998 1.48826,-2.49659 1.51493,-3.13455 1.57369,-8.85835 0.12327,-12.0089 -2.93296,-6.37091 -10.10884,-10.30276 -18.80318,-10.30276 -9.70887,0 -18.72599,5.47339 -22.64642,13.74637 -1.9396,4.09301 -2.60971,7.22133 -2.60971,12.18312 0,5.54156 2.19803,12.65403 3.34899,10.83677 0.22724,-0.3588 0.41642,-0.94872 0.4204,-1.31094 z m 21.75975,0.76536 c 4.68637,-3.15814 4.94384,-9.33302 0.46649,-11.18759 -3.13923,-1.30032 -8.06402,1.98636 -8.79215,5.86766 -0.9182,4.8944 4.15079,8.13338 8.32566,5.31993 z"
       id="path1001"
       transform="matrix(0.75000002,0,0,-0.75000002,0,746.06302)" /><path
       style="fill:#030000;stroke:#fbffff;stroke-width:0;stroke-miterlimit:0"
       d="m 164.58003,272.8869 c -2.4273,-0.86504 -3.27449,-1.78072 -3.27449,-3.53922 0,-3.1726 4.51024,-5.56393 10.95005,-5.80571 2.39412,-0.0899 3.03609,0.0605 3.88757,0.91041 0.81581,0.81435 0.9582,1.34695 0.71159,2.66154 -0.43407,2.31378 -2.15412,3.81803 -5.9927,5.24086 -3.79929,1.40826 -3.81891,1.40992 -6.28202,0.53212 z"
       id="path1003"
       transform="matrix(0.75000002,0,0,-0.75000002,0,746.06302)" /><path
       style="fill:#030000;stroke:#fbffff;stroke-width:0;stroke-miterlimit:0"
       d="m 264.37571,361.67226 c 0,-0.3825 0.33094,-2.12242 0.73542,-3.86651 0.60117,-2.59216 0.62271,-3.24192 0.11802,-3.5591 -0.33957,-0.21341 -0.93605,-0.29551 -1.32551,-0.18245 -0.38947,0.11306 -2.93868,0.65907 -5.66493,1.21336 -9.0168,1.83326 -14.48014,0.65454 -16.52266,-3.56474 -1.11959,-2.31277 -1.1761,-3.48804 -0.27179,-5.65236 0.90642,-2.16938 3.12691,-3.21901 9.47725,-4.47995 5.52701,-1.09746 10.27551,-2.38621 14.22919,-3.86185 3.4443,-1.28551 3.77008,-2.2622 2.97751,-8.92682 -0.56006,-4.70949 -0.54521,-5.27276 0.15753,-5.9755 1.70365,-1.70366 4.35605,1.00156 5.78423,5.89943 0.40017,1.37236 0.93334,3.03639 1.18483,3.69785 l 0.45724,1.20265 8.32076,-4.32158 c 13.2674,-6.89072 13.87163,-7.37404 13.83983,-11.07043 -0.0113,-1.31417 -0.18244,-3.23913 -0.38029,-4.2777 -0.4301,-2.25771 0.0236,-4.78184 1.04258,-5.80086 1.28284,-1.28284 2.88587,-0.0349 5.30638,4.13092 1.21255,2.08686 2.36426,3.79429 2.55935,3.79429 0.1951,0 3.83092,-2.5547 8.07962,-5.6771 4.94923,-3.63724 7.96865,-6.18363 8.4033,-7.08678 0.73211,-1.52127 0.68538,-1.74067 -1.85013,-8.68636 -0.77827,-2.13197 -0.90869,-3.05474 -0.54466,-3.8537 0.697,-1.52975 2.18818,-1.82939 3.95857,-0.79542 1.39832,0.81666 4.812,4.59576 5.95351,6.59079 0.43425,0.75895 1.33866,0.0192 7.59649,-6.21374 8.11859,-8.08624 8.01985,-7.85629 5.61448,-13.07481 -1.26289,-2.73987 -1.40785,-3.4089 -0.95428,-4.40437 0.35083,-0.76998 0.91992,-1.17377 1.65429,-1.17377 1.06252,0 4.58934,2.19707 5.25453,3.27336 0.17106,0.2768 0.57209,0.50326 0.89116,0.50326 0.7218,0 3.62986,-4.44518 6.89744,-10.54325 3.41113,-6.36596 5.48192,-7.55839 8.44525,-4.86302 1.87144,1.70222 2.97034,4.44031 3.22385,8.03275 0.37613,5.33011 -0.6378,7.72757 -7.63689,18.05759 -6.25446,9.23101 -6.98095,10.69577 -7.747,15.61951 -0.25122,1.61467 -0.92399,3.95145 -1.49504,5.19285 l -1.03829,2.25709 -0.6887,-3.30454 c -0.37879,-1.8175 -0.7602,-3.37909 -0.84758,-3.4702 -0.38803,-0.40457 -15.50004,13.99734 -16.25576,15.49192 -0.46401,0.91769 -1.07811,2.77486 -1.36466,4.12706 -0.97449,4.59856 -3.84061,12.73454 -4.78816,13.59207 -0.93982,0.85052 -0.94417,0.82458 -0.94417,-5.62356 v -6.47803 l -1.06217,0.32168 c -2.12068,0.64225 -18.46353,11.26678 -20.00688,13.00654 -0.55318,0.62357 -2.4448,3.89542 -4.20361,7.27077 -2.96936,5.69856 -4.65061,8.26135 -5.41964,8.26135 -0.17312,0 0.0981,-2.45669 0.60263,-5.45931 0.50457,-3.00262 0.81979,-5.55693 0.70048,-5.67623 -0.11931,-0.11931 -2.58839,0.85305 -5.48685,2.16081 -2.89846,1.30775 -7.54923,3.23214 -10.33505,4.27641 -8.16091,3.05914 -10.89839,5.27013 -13.58312,10.97071 -1.27528,2.70785 -3.0479,4.44041 -3.0479,2.97902 z m -6.137,-12.82165 c 7.87983,-2.07589 8.49739,-2.43876 8.49739,-4.99309 0,-1.62946 -0.13343,-1.8976 -0.85088,-1.70998 -0.46799,0.12238 -4.7114,1.14028 -9.42982,2.26199 l -8.57892,2.03947 0.28771,1.21563 c 0.39522,1.6699 1.52917,2.8682 2.71247,2.86641 0.54395,-8.2e-4 3.85688,-0.75702 7.36205,-1.68043 z m 28.75692,-11.58408 c 5.08491,-2.62273 9.51083,-4.98553 9.83539,-5.25065 0.32455,-0.26512 0.59009,-1.21386 0.59009,-2.10831 0,-1.46532 -0.10513,-1.59504 -1.06217,-1.31066 -1.85797,0.55209 -19.40125,9.19173 -20.28102,9.98791 -0.46444,0.42031 -0.84443,1.36858 -0.84443,2.10727 0,1.14014 0.19012,1.34306 1.25842,1.34306 0.69213,0 5.4188,-2.14588 10.50372,-4.76862 z M 315.927,319.73811 c 4.68921,-3.36906 8.21145,-6.23318 8.45579,-6.87586 0.62378,-1.64065 0.50866,-2.79285 -0.31044,-3.10717 -0.95672,-0.36712 -17.20969,12.35276 -17.20969,13.46864 0,0.93269 0.47411,2.28873 0.80021,2.28873 0.12492,0 3.84378,-2.59845 8.26413,-5.77434 z m 20.54075,-16.23861 c 1.90848,-1.46178 5.16277,-4.46709 7.23176,-6.67847 3.6319,-3.88186 3.76178,-4.09978 3.76178,-6.31168 0,-2.08365 -0.0994,-2.29099 -1.09862,-2.29099 -1.66384,0 -13.0273,12.16227 -13.57781,14.53228 -0.49713,2.14019 -0.53749,3.40665 -0.10856,3.40665 0.17681,0 1.88296,-1.19601 3.79145,-2.65779 z m 20.58395,-22.08026 c 3.47346,-4.73062 8.34852,-14.55729 8.34852,-16.82814 0,-0.8158 -1.61868,-0.88468 -2.49098,-0.106 -1.20842,1.07873 -9.19231,12.97406 -9.82524,14.63879 -0.36494,0.95987 -0.29417,1.76034 0.29116,3.29299 0.42531,1.11367 0.92719,2.02486 1.11528,2.02486 0.18809,0 1.34066,-1.36012 2.56126,-3.0225 z"
       id="path1005"
       transform="matrix(0.75000002,0,0,-0.75000002,0,746.06302)" /><path
       style="fill:#030000;stroke:#fbffff;stroke-width:0;stroke-miterlimit:0"
       d="m 291.28718,407.18787 c -2.22382,-4.40535 -2.9911,-8.04938 -2.71543,-12.89626 0.19868,-3.49338 0.40945,-4.34095 1.32064,-5.31087 0.59632,-0.63476 1.4426,-1.15411 1.88061,-1.15411 0.86753,0 1.06473,1.7568 1.7011,15.15503 0.36302,7.64317 -0.0505,8.43848 -2.18692,4.20621 z"
       id="path1007"
       transform="matrix(0.75000002,0,0,-0.75000002,0,746.06302)" /><path
       style="fill:#030000;stroke:#fbffff;stroke-width:0;stroke-miterlimit:0"
       d="m 228.09084,419.165 c -0.53489,-0.37465 -1.18681,-1.45727 -1.44872,-2.40581 -0.40958,-1.48337 -0.24704,-2.39529 1.16193,-6.51883 1.72789,-5.05692 3.04675,-12.3384 3.0514,-16.84694 0.003,-2.48227 0.14702,-2.84619 1.83339,-4.61893 1.68272,-1.76891 1.92891,-1.87956 3.04767,-1.36982 1.41071,0.64276 2.65195,3.09816 3.85883,7.63346 0.755,2.83716 0.78287,3.58142 0.24656,6.58244 -1.16294,6.50742 -3.56847,12.29264 -6.42697,15.45666 -2.07379,2.29544 -3.96743,3.03801 -5.32409,2.08777 z"
       id="path1009"
       transform="matrix(0.75000002,0,0,-0.75000002,0,746.06302)" /><path
       style="fill:#030000;stroke:#fbffff;stroke-width:0;stroke-miterlimit:0"
       d="m 140.30561,379.21122 c -3.95125,-5.76376 -6.27753,-12.97831 -6.38627,-19.80588 -0.0582,-3.65297 0.0813,-4.7366 0.68841,-5.34726 0.7013,-0.70544 0.85463,-0.53022 1.94364,2.22101 2.3937,6.04741 6.47461,24.93846 5.38728,24.93846 -0.14171,0 -0.87659,-0.90284 -1.63306,-2.00633 z"
       id="path1013"
       transform="matrix(0.75000002,0,0,-0.75000002,0,746.06302)" /><path
       style="fill:#030000;stroke:#fbffff;stroke-width:0;stroke-miterlimit:0"
       d="m 279.87949,226.36369 c -17.52928,-1.60658 -32.4165,-9.92656 -38.82261,-21.6967 -2.43655,-4.47674 -3.36973,-12.10527 -2.13585,-17.46002 1.78721,-7.75604 8.97056,-15.61486 18.74576,-20.50845 13.10927,-6.56267 30.38968,-7.83139 45.26943,-3.32365 4.99763,1.514 12.27589,5.20385 16.35583,8.29188 11.53691,8.73208 15.26546,22.09189 9.4058,33.70207 -4.14341,8.20964 -14.02543,15.44384 -25.72974,18.83562 -6.68245,1.93649 -16.00568,2.80841 -23.08862,2.15925 z m 9.1328,-7.54784 c 9.37647,-0.88916 18.16256,-4.3701 25.25374,-10.00519 5.30402,-4.21491 8.22368,-8.81202 9.13555,-14.38423 1.96721,-12.02119 -10.02821,-24.59373 -27.72386,-29.05771 -3.52368,-0.8889 -5.45315,-1.0499 -12.65496,-1.05597 -7.39301,-0.006 -9.03727,0.13514 -12.65141,1.08768 -5.8905,1.55249 -10.25499,3.46041 -14.73514,6.44139 -7.63556,5.08053 -11.977,11.34305 -12.39666,17.88214 -0.42776,6.66542 2.09132,11.97447 8.6092,18.14418 6.50859,6.16092 15.58781,10.0166 25.74512,10.9332 5.91034,0.53335 5.94664,0.5334 11.41842,0.0145 z"
       id="path1015"
       transform="matrix(0.75000002,0,0,-0.75000002,0,746.06302)" /><path
       style="fill:#030000;stroke:#fbffff;stroke-width:0;stroke-miterlimit:0"
       d="m 274.94415,213.1161 c -9.59702,-1.60512 -21.53379,-9.52552 -24.83794,-16.48071 -2.3828,-5.01577 -2.21372,-5.23703 1.39965,-1.83159 4.15835,3.91905 6.63891,5.62949 11.5672,7.976 11.07894,5.27503 24.91744,5.35881 36.53457,0.22116 4.93211,-2.18121 11.20715,-7.23998 15.1982,-12.25237 l 1.49225,-1.87414 1.40011,1.63811 c 0.77005,0.90095 1.40874,1.97692 1.41929,2.39104 0.031,1.21587 -3.40691,6.10869 -6.36292,9.05575 -5.84671,5.829 -13.26172,9.56767 -22.14725,11.16672 -3.24387,0.58377 -12.14706,0.5781 -15.66316,-0.01 z"
       id="path1017"
       transform="matrix(0.75000002,0,0,-0.75000002,0,746.06302)" /><path
       style="fill:#030000;stroke:#fbffff;stroke-width:0;stroke-miterlimit:0"
       d="m 286.92403,200.44153 c -1.73918,-0.5607 -4.60939,-2.36394 -4.60939,-2.8959 0,-0.76929 4.43471,-3.67102 6.49118,-4.24733 4.48676,-1.25739 9.1448,0.69101 8.43292,3.52738 -0.67948,2.70725 -6.64568,4.79872 -10.31471,3.61585 z"
       id="path1019"
       transform="matrix(0.75000002,0,0,-0.75000002,0,746.06302)" /><path
       style="fill:#030000;stroke:#fbffff;stroke-width:0;stroke-miterlimit:0"
       d="m 267.28471,196.11116 c -1.4917,-0.44344 -1.53942,-0.52377 -0.89484,-1.50635 1.8951,-2.88885 7.91882,-5.19472 10.49914,-4.01905 2.30915,1.05213 1.22268,2.89396 -2.69855,4.57467 -2.90247,1.24405 -4.96419,1.52789 -6.90575,0.95073 z"
       id="path1021"
       transform="matrix(0.75000002,0,0,-0.75000002,0,746.06302)" /><path
       style="fill:#030000;stroke:#fbffff;stroke-width:0;stroke-miterlimit:0"
       d="m 256.02647,191.93811 c -3.14044,-1.91486 -3.31055,-4.32561 -0.55705,-7.89465 2.12192,-2.7504 6.41861,-6.20438 9.93439,-7.98596 1.2222,-0.61934 4.0932,-1.69762 6.37999,-2.39617 3.8476,-1.17534 4.80938,-1.27263 12.89123,-1.30401 7.72836,-0.03 9.15673,0.0888 12.41161,1.0322 9.91814,2.87472 16.21135,8.24878 14.49943,12.38173 -1.46141,3.52813 -3.90561,3.7576 -10.30967,0.9679 -5.5511,-2.41813 -11.56896,-3.53991 -16.86286,-3.14336 -6.14419,0.46023 -10.69922,1.8744 -18.42205,5.71934 -3.91471,1.949 -7.41988,3.54285 -7.78928,3.54188 -0.36939,-9.9e-4 -1.34847,-0.41448 -2.17574,-0.9189 z"
       id="path1023"
       transform="matrix(0.75000002,0,0,-0.75000002,0,746.06302)" /></g></svg>
