<?xml version="1.0" encoding="UTF-8" standalone="no"?>
<svg
   xmlns:dc="http://purl.org/dc/elements/1.1/"
   xmlns:cc="http://creativecommons.org/ns#"
   xmlns:rdf="http://www.w3.org/1999/02/22-rdf-syntax-ns#"
   xmlns:svg="http://www.w3.org/2000/svg"
   xmlns="http://www.w3.org/2000/svg"
   xmlns:sodipodi="http://sodipodi.sourceforge.net/DTD/sodipodi-0.dtd"
   xmlns:inkscape="http://www.inkscape.org/namespaces/inkscape"
   version="1.1"
   id="svg2"
   width="3187.2"
   height="935.46667"
   viewBox="0 0 3187.2 935.46667"
   sodipodi:docname="Voiture.svg"
   inkscape:version="1.0.1 (3bc2e813f5, 2020-09-07)">
  <metadata
     id="metadata8">
    <rdf:RDF>
      <cc:Work
         rdf:about="">
        <dc:format>image/svg+xml</dc:format>
        <dc:type
           rdf:resource="http://purl.org/dc/dcmitype/StillImage" />
        <dc:title></dc:title>
      </cc:Work>
    </rdf:RDF>
  </metadata>
  <defs
     id="defs6" />
  <sodipodi:namedview
     pagecolor="#ffffff"
     bordercolor="#666666"
     borderopacity="1"
     objecttolerance="10"
     gridtolerance="10"
     guidetolerance="10"
     inkscape:pageopacity="0"
     inkscape:pageshadow="2"
     inkscape:window-width="1920"
     inkscape:window-height="1051"
     id="namedview4"
     showgrid="false"
     inkscape:zoom="0.38879371"
     inkscape:cx="1692.8347"
     inkscape:cy="304.00762"
     inkscape:window-x="1699"
     inkscape:window-y="-9"
     inkscape:window-maximized="1"
     inkscape:current-layer="g10" />
  <g
     inkscape:groupmode="layer"
     inkscape:label="Image"
     id="g10">
    <path
       style="fill:#000000;stroke-width:1.06667"
       d="m 465.33263,935.17656 c -2.3466,-0.4192 -5.8867,-1.13789 -7.8667,-1.59708 -2.6252,-0.60881 -3.3934,-0.50033 -2.8366,0.40059 0.4881,0.78977 -0.6145,0.65966 -3.0565,-0.36064 -4.8641,-2.03236 -7.8811,-3.78339 -6.5068,-3.77649 0.5867,0.003 2.2667,0.69135 3.7333,1.52977 1.4667,0.83842 3.1467,1.51906 3.7334,1.51253 0.5866,-0.006 -1.3334,-1.24499 -4.2667,-2.75214 -2.9333,-1.50714 -6.2933,-3.52136 -7.4667,-4.47604 -1.4144,-1.15084 -1.2347,-0.68217 0.5334,1.39074 l 2.6666,3.1265 -2.834,-2.06746 c -1.5587,-1.13711 -6.3587,-5.23426 -10.6666,-9.10479 -4.308,-3.87052 -12.2686,-10.00017 -17.6903,-13.62141 -42.16399,-28.16218 -72.06481,-65.70738 -86.76032,-108.94125 -1.89441,-5.57334 -3.77622,-10.51518 -4.18179,-10.98189 -0.40557,-0.4667 -2.23357,0.54908 -4.06221,2.25728 -1.93924,1.81153 -5.04787,3.38136 -7.4595,3.767 -3.50407,0.56032 -4.51466,0.25671 -6.62591,-1.99062 -1.37017,-1.45847 -3.07619,-2.65177 -3.79117,-2.65177 -0.71496,0 -1.58632,-0.74631 -1.93634,-1.65846 -0.55184,-1.43807 -3.79158,-1.63764 -24.38079,-1.50185 -22.79055,0.15029 -24.0229,0.0517 -30.67771,-2.45431 -3.81334,-1.436 -19.17334,-5.62585 -34.13334,-9.31079 -14.96,-3.68494 -27.656,-7.11421 -28.21333,-7.62058 -0.63291,-0.57504 -0.53279,-1.40122 0.26667,-2.20068 2.78316,-2.78317 1.39657,-4.05333 -4.42487,-4.05333 -5.66522,0 -5.71651,0.0296 -7.38085,4.26666 l -1.676,4.26667 -9.95247,0.12283 c -13.35839,0.16487 -13.48305,0.14065 -18.01342,-3.50006 l -3.95765,-3.18046 -17.49258,0.75515 c -21.751997,0.93903 -26.047637,-0.0524 -36.850687,-8.50522 -7.20402,-5.63675 -7.78062,-6.46558 -23.19134,-33.33636 -8.69201,-15.15573 -17.460187,-29.83718 -19.484857,-32.62543 -2.02466,-2.78825 -5.08346,-7.82825 -6.79733,-11.2 -13.52413,-26.60646 -15.357503,-29.47292 -21.448543,-33.53446 l -5.9047799,-3.93736 -1.20565,-8.10622 c -2.11639,-14.22964 -2.78311,-12.84087 11.8610199,-24.70621 l 13.066673,-10.58721 5.86666,0.91061 c 9.595417,1.48939 14.834557,0.25951 33.800367,-7.93457 l 17.93297,-7.74785 14.14196,-1.11025 14.141967,-1.11026 -21.880977,-8.94765 -21.88096,-8.94766 -7.19433,-8.91823 c -3.95688,-4.90504 -7.94994,-8.91858 -8.87346,-8.91902 -0.92352,-4.3e-4 -4.59843,-3.00078 -8.16645,-6.66744 -3.568017,-3.66667 -7.260937,-7.14667 -8.206467,-7.73334 -0.94554,-0.58666 -3.48466,-5.86666 -5.64248,-11.73333 -3.8974,-10.59618 -3.92371,-10.77946 -3.98106,-27.73333 -0.0532,-15.71869 0.13182,-17.42137 2.34226,-21.55751 1.32,-2.46996 2.4,-5.24545 2.4,-6.16774 0,-3.15805 -6.56743,-18.71005 -9.24461,-21.8917 l -2.67488,-3.17892 8.53067,-9.3354 c 5.93869,-6.49891 8.64079,-10.3077 8.89308,-12.5354 0.32156,-2.83934 2.04548,-4.25405 15.295737,-12.5522 17.85934,-11.18466 35.29398,-20.28928 45.71502,-23.87306 20.947367,-7.20376 79.077207,-19.92393 131.237197,-28.71777 l 23.35221,-3.93704 27.31445,-10.61465 c 77.55405,-30.13824 123.11,-44.5168 161.1811,-50.87263 54.1451,-9.03932 165.0924,-16.15726 317.33334,-20.35886 40.345,-1.11345 148.6662,-3.19036 166.95616,-3.20114 l 10.1562,-0.006 6.64609,6.13333 6.6461,6.13333 0.6976,16.91995 0.6976,16.91995 4.9001,-0.73723 c 2.6951,-0.40505 20.9801,-0.9532 40.6335,-1.21769 l 35.73328,-0.4809 6.9334,-6.74528 c 3.8133,-3.7099 16.0386,-12.90011 27.1674,-20.42268 l 20.2341,-13.67741 11.6778,-0.90762 c 11.6531,-0.90572 11.6839,-0.90182 14.5516,1.8456 l 2.8737,2.75323 43.6262,-34.99142 c 23.9945,-19.24528 80.748,-64.75141 126.1189,-101.12476 l 82.4926,-66.133696 -0.5781,-10.9334 c -0.6475,-12.2485 -1.1845,-11.5773 7.8863,-9.857 5.3173,1.0083 6.3856,0.8108 16.9455,-3.134 17.1143,-6.39313 59.139,-19.93303 72.8002,-23.45543 13.8256,-3.5648 41.4312,-7.7702002 66.4704,-10.1262002 42.4639,-3.9954 54.7728,-4.3607 146.6667,-4.3532 75.5855,0.01 95.6743,0.3231 117.3333,1.8514 14.3734,1.0142 34.5334,2.3382 44.8,2.9421 10.2667,0.604 40.9867,3.5044 68.2667,6.4455002 119.3394,12.866 106.5527,11.0138 179.3212,25.97533 21.48,4.4164 40.68,8.314 42.6666,8.6614 1.9867,0.3473 7.6922,2.076 12.6789,3.8414 4.9866,1.7655 39.7866,11.2991 77.3333,21.1858 69.2653,18.2387 84.79,22.9595 256,77.845696 10.56,3.3853 42,15.0543 69.8667,25.93117 115.0698,44.91384 123.5478,48.02168 131.7333,48.29047 6.5354,0.21462 14.7518,2.71198 65.8739,20.02232 l 58.4073,19.77712 28.5261,1.72703 c 23.7784,1.4396 35.9821,2.85792 73.326,8.52193 44.3484,6.72639 45.2033,6.81256 84.8,8.54715 22,0.96375 52.72,1.9374 68.2667,2.16368 15.5467,0.22628 29.9467,0.68584 32,1.02124 2.0533,0.33542 4.9333,0.78014 6.4,0.98828 1.4667,0.20814 2.6667,0.4798 2.6667,0.60369 0,0.12389 1.44,0.45349 3.2,0.73246 5.1813,0.82124 16.2057,6.47977 20.481,10.51234 2.1799,2.05611 3.5317,3.73837 3.004,3.73837 -0.5277,0 -0.028,0.70473 1.1111,1.56608 1.1388,0.86133 1.5905,1.58869 1.0039,1.61633 -0.5963,0.0281 -0.5336,0.39583 0.1424,0.83392 1.4748,0.95592 16.6597,34.02303 24.3642,53.05668 7.3903,18.25722 13.7276,37.1506 17.8268,53.1473 2.929,11.43021 3.3464,14.88973 3.4959,28.97969 0.1555,14.64645 0.3858,16.40606 2.7222,20.8 3.3671,6.33192 9.1534,23.1858 11.1696,32.53333 0.8858,4.10667 1.6092,12.50667 1.6077,18.66667 0,11.46573 -1.6383,17.57318 -7.9997,29.87473 -4.2768,8.2705 -18.0839,19.7262 -35.7291,29.6444 -4.6426,2.60952 -6.757,3.19435 -10.1334,2.80281 l -4.2666,-0.49479 -9.8359,14.15309 c -19.2763,27.73726 -43.7982,56.74746 -58.985,69.78142 -12.4061,10.64735 -19.7777,14.76697 -31.2392,17.45777 -12.2175,2.86835 -15.383,4.18774 -20.2049,8.42132 -5.7856,5.07985 -18.9407,7.22756 -56.7253,9.26102 l -13.7904,0.74215 -24.6096,9.01421 -24.6097,9.01421 -45.3334,1.97132 c -62.8136,2.73144 -65.6467,2.71404 -69.7669,-0.42862 l -3.3017,-2.51828 -28.2657,1.39747 c -15.5461,0.76861 -30.7026,1.42183 -33.6811,1.45161 l -5.4155,0.0542 -1.3132,8.8 c -2.8418,19.04221 -10.0744,42.55039 -19.2805,62.66667 -5.0123,10.95218 -11.3156,30.36767 -9.4936,29.24156 2.9023,-1.79369 -2.1602,7.50419 -7.9673,14.63308 -5.2044,6.38887 -23.4338,22.93615 -43.3811,39.37798 -4.4,3.62676 -10.16,8.42749 -12.8,10.66829 -21.1013,17.91055 -31.8287,25.37007 -34.2937,23.84666 -0.7174,-0.44342 -0.9491,-0.29976 -0.5522,0.34246 0.7017,1.13538 -5.8398,4.31607 -16.2545,7.90348 -6.5663,2.26181 -10.0329,2.56864 -4.3663,0.38648 5.6394,-2.1717 2.4627,-1.84632 -4.8,0.49168 -3.52,1.13314 -5.48,2.08608 -4.3555,2.11762 2.6847,0.0753 1.9168,0.65363 -2.0445,1.53971 -2.4881,0.55655 -2.8441,0.45209 -1.6,-0.46956 1.2422,-0.92029 0.8845,-1.02156 -1.6,-0.4529 -27.4534,6.28364 -39.5415,6.90703 -73.9023,3.81113 -27.6014,-2.48692 -36.8903,-2.80345 -34.3644,-1.17105 1.1745,0.75903 0.4181,1.03835 -2.8444,1.05034 -2.4444,0.009 -4.6302,-0.54108 -4.8573,-1.22235 -0.2624,-0.78719 -5.252,-1.55255 -13.689,-2.09978 -7.3017,-0.4736 -14.9559,-1.14896 -17.0093,-1.50081 -2.0533,-0.35184 -4.9333,-0.85432 -6.4,-1.11661 -2.3988,-0.42899 -2.4523,-0.36839 -0.5333,0.60344 1.6795,0.85051 1.3482,0.93896 -1.5574,0.41575 -5.3857,-0.9698 -13.0788,-4.48494 -12.3601,-5.64764 0.3404,-0.55087 0.057,-1.34893 -0.6299,-1.77344 -0.78,-0.48205 -0.9631,-0.30948 -0.4878,0.45963 1.6303,2.63781 -1.6079,1.02267 -6.4999,-3.24205 -10.7507,-9.37207 -13.7468,-11.66278 -25.9316,-19.82594 -35.5637,-23.82588 -62.3369,-54.62031 -81.0889,-93.26811 l -6.0654,-12.50092 -0.6498,9.20792 c -0.3575,5.06435 -1.0278,9.54484 -1.4895,9.95663 -0.7211,0.64293 -145.4306,4.0875 -193.1154,4.5968 -14.2423,0.1521 -16.3477,0.39883 -16.8511,1.97479 -0.3164,0.99054 -2.249,3.27054 -4.2946,5.06667 -4.334,3.80523 -7.4632,4.08119 -18.1568,1.60118 -13.1703,-3.05439 -14.9037,-4.85872 -18.6171,-19.37789 -1.142,-4.46494 -2.2287,-8.27051 -2.415,-8.45684 -0.5295,-0.5295 -29.815,1.82047 -30.8787,2.4778 -1.4212,0.87842 -31.7379,2.57776 -54.111,3.0331 -78.7204,1.60212 -219.8247,2.10437 -252.9844,0.90049 l -18.8511,-0.6844 -1.1565,4.29487 -1.1565,4.29487 -9.8591,1.74714 c -13.6126,2.41231 -40.4553,3.86112 -41.8591,2.25931 -0.7104,-0.81067 -4.6289,-1.08904 -11.7333,-0.83353 -86.4439,3.10889 -157.8341,6.00029 -170.5712,6.90838 -12.5837,0.89714 -16.3572,0.85116 -18.0727,-0.22021 -1.3839,-0.86421 -7.9926,-1.54983 -18.2672,-1.89514 -13.7396,-0.46176 -16.6094,-0.27706 -19.5824,1.26037 -1.916,0.99078 -5.2194,1.95718 -7.341,2.14755 -3.1092,0.27901 -4.3943,1.14721 -6.6268,4.47738 -4.0816,6.08818 -10.7479,9.17471 -18.6831,8.65044 -6.2396,-0.41224 -6.446,-0.5296 -12.4919,-7.10309 l -6.1475,-6.68393 -20.0414,0.40353 -20.0415,0.40353 -11.3067,6.60736 c -6.4719,3.78198 -13.6558,7.11112 -16.8,7.78544 -3.0213,0.64795 -5.4933,1.64281 -5.4933,2.2108 0,1.54429 -6.5331,3.97917 -15.7772,5.88016 -4.5226,0.93001 -10.1428,2.77897 -12.4894,4.1088 -3.813,2.16081 -13.4204,4.15243 -19.2,3.98019 -4.709,-0.14033 -29.4109,-4.65166 -38.8785,-7.10044 -5.5433,-1.43372 -11.4076,-2.34098 -13.0318,-2.01614 -4.6344,0.92687 -12.6231,-0.60273 -12.6231,-2.41694 0,-2.01415 -2.1502,-2.88037 -17.6,-7.09045 -15.9732,-4.35269 -22.7506,-4.34136 -52.1255,0.0872 -11.6557,1.75719 -21.7836,2.96796 -22.5064,2.6906 -0.9017,-0.34602 -2.4292,3.87059 -4.8671,13.4356 -1.9542,7.66694 -3.8998,13.57061 -4.3235,13.11927 -0.4238,-0.45134 -3.2533,-7.81913 -6.288,-16.37288 l -5.51738,-15.55227 -8.1861,0.39187 c -4.5023,0.21552 -23.7408,1.06672 -42.7522,1.89155 -25.97529,1.12696 -34.78585,1.84616 -35.45025,2.89373 -0.4863,0.76673 -0.8915,3.67405 -0.9005,6.46072 -0.01,3.00517 -0.5002,5.06666 -1.2056,5.06666 -0.6541,0 -5.7259,-1.23589 -11.2705,-2.74643 -8.2294,-2.24193 -10.6854,-2.53584 -13.3699,-1.6 -1.9655,0.68511 -12.8808,1.14637 -27.1295,1.14637 -20.4807,0 -23.8408,0.22551 -23.8408,1.6 0,1.28384 -1.6246,1.6 -8.2217,1.6 -7.9161,0 -8.3622,-0.13585 -12,-3.65438 -3.0027,-2.90422 -4.7659,-3.71141 -8.5895,-3.93223 -4.5871,-0.26492 -5.3554,0.15168 -16.4905,8.94139 -10.9763,8.6644 -12.6768,9.599 -28.2554,15.52943 -9.117,3.47059 -22.9838,7.92832 -30.8152,9.90603 l -14.239,3.59586 -11.361,10.45085 c -6.2486,5.74798 -16.8811,14.60533 -23.6277,19.68299 -6.7467,5.07766 -13.85544,10.58847 -15.79724,12.24623 -1.9418,1.65777 -4.056,2.68939 -4.6982,2.2925 -0.6557,-0.40527 -0.8664,-0.23426 -0.4805,0.39006 0.9055,1.46523 -10.7099,10.20468 -12.2763,9.23663 -0.7279,-0.4499 -0.9173,-0.27354 -0.475,0.44226 0.9102,1.47262 -7.4407,5.93199 -9.1409,4.88124 -0.6572,-0.40617 -0.9013,-0.26342 -0.5424,0.31721 0.3588,0.58064 -1.0233,1.85481 -3.0714,2.83148 -5.0688,2.41715 -6.1298,2.16725 -1.5181,-0.35756 5.1416,-2.81493 3.6906,-2.62942 -3.8188,0.48825 -3.473,1.44187 -5.5946,2.6756 -4.7146,2.74164 1.0965,0.0822 0.9286,0.40857 -0.5333,1.03678 -3.0051,1.29134 -5.9351,1.20265 -3.2,-0.0969 1.8593,-0.88337 1.7907,-0.94413 -0.5333,-0.47293 -1.4667,0.29736 -3.1467,0.55457 -3.7334,0.57156 -0.5866,0.017 -0.3466,0.50288 0.5334,1.07975 1.136,0.74466 0.5173,0.86855 -2.1334,0.42718 -2.7026,-0.45001 -3.3058,-0.32187 -2.1847,0.46412 1.7974,1.26029 -139.6062,1.48311 -146.6153,0.23103 z m 177.0592,-11.79164 c 0.3737,-0.60465 -0.054,-0.78346 -1.0038,-0.41921 -1.8479,0.70911 -2.186,1.47367 -0.6516,1.47367 0.552,0 1.2969,-0.47451 1.6554,-1.05446 z m 15.143,-11.00598 c 0.4208,-0.68089 -1.4925,0.612 -4.2519,2.87307 -2.7593,2.26106 -5.0169,4.33353 -5.0169,4.60549 0,0.72735 8.3722,-6.02776 9.2688,-7.47856 z m 1724.06447,-0.10188 c 0,-0.23594 -1.44,-0.93097 -3.2,-1.54452 -3.7042,-1.29128 -4.3718,-0.56212 -0.8,0.8736 2.7018,1.08595 4,1.30371 4,0.67092 z M 574.34973,867.21713 c 10.2258,-9.93834 17.331,-12.62157 36.6711,-13.84866 l 11.1118,-0.70501 7.6138,-5.22929 c 4.1876,-2.87611 8.462,-6.16653 9.4987,-7.31204 1.8273,-2.0192 1.7929,-2.08274 -1.1298,-2.08274 -3.5276,0 -6.916,-2.69397 -6.916,-5.49866 0,-1.0824 -0.2108,-1.96801 -0.4685,-1.96801 -0.2577,0 -4.01,2.54088 -8.3384,5.64641 -15.9,11.40772 -36.7952,20.12975 -56.7931,23.70653 -12.5288,2.24086 -37.4513,2.26988 -49.7823,0.0579 -19.0327,-3.41405 -38.099,-11.09225 -54.524,-21.95745 -8.3035,-5.4928 -25.2367,-21.27253 -31.4632,-29.32011 l -3.3013,-4.26667 2.2652,7.8326 c 1.8429,6.37274 2.0426,8.4219 1.0716,10.9944 -1.064,2.81891 -0.8829,3.49451 1.6703,6.22944 8.07,8.64462 24.6379,21.07639 35.9304,26.96048 21.1211,11.00545 25.5952,12.20447 48.5333,13.00662 10.2667,0.35902 21.7867,1.04241 25.6,1.51863 3.8133,0.47622 11.5949,0.93905 17.2924,1.02851 l 10.3591,0.16266 5.0989,-4.9556 z m -0.7895,-11.52894 c 18.0461,-4.51563 35.0874,-12.49468 49.7696,-23.30312 9.8802,-7.27334 27.8011,-31.49664 34.614,-46.78697 2.8905,-6.48728 5.2555,-11.98187 5.2555,-12.21021 0,-0.22834 -0.9915,-0.41517 -2.2034,-0.41517 -1.212,0 -3.0232,-0.43869 -4.0251,-0.97486 -1.5087,-0.80746 -2.1645,-0.1206 -3.8189,4 -6.1291,15.26586 -20.3013,33.68916 -34.9047,45.37481 -10.6604,8.53037 -30.5765,18.76636 -43.7007,22.46015 -36.1868,10.18473 -74.8443,4.48171 -105.6257,-15.58264 -29.4001,-19.1639 -48.9776,-50.12626 -53.1445,-84.04948 -0.6107,-4.97128 -1.1103,-11.57128 -1.1103,-14.66667 0,-5.92527 -0.3415,-6.25644 -4.7306,-4.58771 -2.6988,1.02607 -2.7361,1.19404 -2.7361,12.31164 0,43.30489 28.6853,86.32843 72,107.98895 10.3211,5.16128 26.4641,10.4454 38.247,12.51946 14.0876,2.47972 42.0352,1.44468 56.1139,-2.07818 z m 1928.84247,-6.89602 c 2.7821,-0.64604 5.4359,-2.52281 8.6986,-6.15182 7.7265,-8.59374 17.597,-12.23605 37.1009,-13.69055 8.9634,-0.66846 9.5333,-0.87318 17.2629,-6.20085 10.7067,-7.37975 20.7952,-16.43705 28.9375,-25.97984 5.5871,-6.54801 7.6152,-10.10435 12.0704,-21.16671 2.9453,-7.31299 5.2052,-13.29635 5.0218,-13.29635 -0.1834,0 -3.2497,4.92 -6.8141,10.93334 -4.9913,8.42066 -9.0544,13.49489 -17.6793,22.07942 -6.1594,6.13035 -11.4919,10.85302 -11.85,10.49485 -0.3581,-0.35818 0.9955,-2.49391 3.0081,-4.74608 2.0127,-2.25217 7.8827,-9.82316 13.0444,-16.82442 7.8268,-10.61604 10.6606,-15.65426 17.068,-30.34486 5.7246,-13.12507 7.3828,-17.94651 6.5052,-18.9146 -1.5176,-1.67415 -1.9444,-1.08132 -4.3115,5.98902 -3.5112,10.48706 -9.0397,21.52449 -15.9947,31.93265 -21.0778,31.54253 -52.4118,52.57471 -91.0436,61.11052 -15.013,3.31716 -44.1242,3.28787 -59.6772,-0.0601 -26.8244,-5.77416 -51.0968,-18.35765 -69.716,-36.14264 l -8.0987,-7.73575 -2.5397,2.70345 c -1.7582,1.87148 -3.2528,2.52448 -4.8568,2.1219 -1.583,-0.39728 -2.5499,0.007 -3.0519,1.27752 -0.5572,1.41003 1.5986,4.08033 8.9252,11.05514 16.1998,15.42176 35.8991,27.49831 57.0055,34.94684 8.1651,2.88152 10.8617,3.32484 20.2666,3.33186 5.9667,0.004 14.9284,0.53402 19.915,1.17682 4.9867,0.6428 14.3467,1.52127 20.8,1.95217 6.4534,0.43089 12.6934,0.84987 13.8667,0.93106 1.1733,0.0812 3.9348,-0.27072 6.1367,-0.78203 z M 563.82613,843.9955 c 18.4235,-4.0003 34.9245,-11.38486 49.201,-22.0185 20.8439,-15.52535 39.7315,-42.65002 40.0322,-57.49076 0.081,-3.9812 1.2341,-8.64109 3.5299,-14.26078 3.0904,-7.56477 3.4101,-9.39892 3.4101,-19.56578 0,-59.57333 -47.1535,-109.22868 -109.7741,-115.59847 -6.133,-0.62384 -14.9394,-0.80379 -19.5699,-0.39987 -7.7994,0.68035 -8.4962,0.9396 -9.4695,3.52289 -0.5779,1.53366 -2.5792,4.37302 -4.4473,6.30967 l -3.3967,3.52118 4.7954,-0.85451 c 2.6375,-0.46998 12.9554,-0.83451 22.9288,-0.81006 15.4042,0.0378 19.3793,0.39898 26.4119,2.4 4.5532,1.29555 8.5132,2.35554 8.8,2.35554 0.2868,0 0.5214,-1.14122 0.5214,-2.53606 0,-1.39483 0.7138,-3.12843 1.5862,-3.85244 1.9675,-1.63288 6.4871,-0.61548 7.359,1.65657 0.9622,2.50749 -1.2284,5.7986 -3.8596,5.7986 -1.2782,0 1.6192,1.89822 6.5005,4.25874 4.8436,2.34231 10.9047,5.70231 13.4691,7.46667 5.5236,3.80037 5.8781,3.86311 5.8781,1.04022 0,-2.35991 3.5493,-4.22018 6.5531,-3.43467 4.0156,1.05009 3.5585,7.29896 -0.6104,8.34528 -2.2986,0.57691 -2.0977,0.94633 3.2828,6.03494 3.1522,2.98122 7.5189,7.76442 9.7036,10.62932 3.1031,4.06894 4.2093,4.89358 5.055,3.7681 1.5973,-2.12573 3.9737,-2.74312 6.6826,-1.73614 4.263,1.58465 2.5617,8.42754 -2.0954,8.42754 -1.7142,0 -1.548,0.76172 1.4544,6.66667 1.8644,3.66666 4.5012,9.78666 5.8596,13.6 1.3583,3.81333 2.4799,6.11021 2.4922,5.10419 0.033,-2.69953 3.7691,-4.39091 6.4865,-2.93665 1.5233,0.81524 2.0958,2.02068 1.8666,3.92995 -0.4547,3.78821 -3.3819,5.50824 -6.2868,3.69413 -1.9825,-1.23812 -2.1651,-1.17802 -1.6441,0.54111 1.1968,3.94877 2.7845,15.97152 2.7923,21.14425 0.01,5.27471 0.051,5.34351 3.3427,5.33333 4.0582,-0.0126 6.3207,2.76643 4.551,5.58969 -1.3828,2.20576 -5.3247,3.01615 -7.1803,1.47613 -1.0013,-0.83104 -1.604,0.75698 -2.5545,6.73107 -0.6842,4.30028 -2.1297,10.4422 -3.2122,13.64873 -1.8193,5.38892 -1.8316,5.79431 -0.1625,5.35783 4.3503,-1.13761 7.7047,3.3021 5.3288,7.0529 -1.25,1.97338 -6.5803,1.8655 -8.0637,-0.16321 -0.9852,-1.34729 -1.7844,-0.492 -4.6097,4.93334 -1.8798,3.60977 -5.2951,9.03238 -7.5895,12.05025 l -4.1716,5.48704 2.9595,0.5919 c 5.899,1.17982 4.4215,8.68371 -1.5737,7.99219 -2.2134,-0.2553 -3.2709,-1.06716 -3.6821,-2.82681 -0.5728,-2.45144 -0.5991,-2.44484 -3.7755,0.94589 -1.7593,1.87799 -6.8478,6.14555 -11.3079,9.48346 -7.3628,5.51027 -7.9029,6.15963 -5.8667,7.05411 3.3117,1.45482 3.6347,6.60291 0.4873,7.7672 -3.7116,1.37303 -6.2863,0.21009 -6.9567,-3.14229 l -0.6033,-3.01633 -5.4757,2.79893 c -3.0116,1.53942 -9.5557,4.1408 -14.5423,5.78086 -4.9867,1.64005 -8.2855,3.00026 -7.3306,3.02269 2.6762,0.0628 4.4497,2.89084 3.696,5.89359 -0.5564,2.21717 -1.3111,2.68053 -4.3654,2.68053 -3.0544,0 -3.809,-0.46336 -4.3655,-2.68053 -0.3908,-1.55718 -0.1077,-3.3614 0.6757,-4.30528 1.188,-1.43146 0.7898,-1.52499 -3.3476,-0.78614 -2.5828,0.46124 -12.616,0.79253 -22.296,0.73621 -16.8226,-0.0979 -25.7915,-1.41837 -35.3305,-5.20169 -1.3913,-0.5518 -1.6281,-0.1502 -1.2079,2.04832 0.2876,1.50408 -0.072,3.45194 -0.8,4.32857 -1.6986,2.04677 -5.7543,2.05097 -7.4501,0.007 -1.6632,-2.00379 -0.5184,-6.94693 1.6089,-6.94693 3.138,0 1.4685,-1.8202 -3.9909,-4.351 -13.6075,-6.30803 -30.0996,-19.43949 -38.8879,-30.96359 -3.7682,-4.94136 -4.1182,-5.15815 -4.6501,-2.88109 -0.8026,3.43515 -6.7656,4.08705 -8.4581,0.92464 -2.4629,-4.60193 3.5152,-8.78317 7.333,-5.12896 0.7662,0.73333 -0.2029,-1.29062 -2.1536,-4.49765 -1.9506,-3.20704 -5.0487,-9.82401 -6.8845,-14.70438 -2.8876,-7.67675 -3.5272,-8.64518 -4.7422,-7.18122 -2.189,2.63764 -7.8978,1.67269 -8.3346,-1.4088 -0.1917,-1.3523 0.2271,-3.1523 0.9306,-4 1.7608,-2.12165 5.9979,-1.93574 7.4159,0.32538 1.0603,1.6908 1.1211,1.66568 0.6458,-0.26667 -1.6489,-6.70285 -2.7771,-15.69666 -2.7771,-22.13876 0,-6.67905 -0.1524,-7.19457 -1.6762,-5.67076 -1.9656,1.96558 -3.0575,2.07215 -5.8606,0.572 -2.9699,-1.58944 -2.689,-6.1231 0.4686,-7.56175 1.8326,-0.83502 3.1508,-0.82222 4.7737,0.0464 1.9435,1.04013 2.3039,0.87719 2.7062,-1.2236 0.9998,-5.22003 4.7549,-20.65347 5.4379,-22.34952 0.5773,-1.43355 0.011,-1.86093 -2.8305,-2.13334 -3.028,-0.29034 -3.6044,-0.79596 -3.9045,-3.42489 -0.2,-1.75182 0.2608,-3.47282 1.0667,-3.98367 2.3191,-1.47022 6.0432,-1.05629 7.0744,0.78631 0.766,1.36888 1.7581,0.29423 4.8773,-5.28354 2.1537,-3.85107 5.5848,-9.18849 7.6247,-11.86096 2.04,-2.67249 3.709,-5.09489 3.709,-5.38314 0,-0.28826 -1.1762,-0.52411 -2.6137,-0.52411 -1.4375,0 -2.9975,-0.67617 -3.4666,-1.5026 -0.6519,-1.14825 -2.4486,-5.9e-4 -7.6189,4.86654 -19.3159,18.18337 -27.2748,60.18169 -17.6918,93.35764 12.5513,43.45182 50.7762,76.42338 97.5243,84.12113 11.2609,1.85427 33.7576,1.34013 44.6268,-1.01993 z m -34.1767,0.78492 c -4.0756,-1.0728 -3.4181,-7.39023 0.8814,-8.46935 3.1888,-0.80032 5.7352,1.19237 5.7352,4.48806 0,2.01601 -3.0173,5.11441 -4.4632,4.58319 -0.1853,-0.0681 -1.1543,-0.33891 -2.1534,-0.6019 z m -66.7701,-26.15437 c -3.6206,-3.62057 0.6372,-9.65245 5.12,-7.25333 2.1264,1.13803 2.595,2.29873 2.1531,5.33333 -0.4508,3.096 -4.9179,4.27523 -7.2731,1.92 z m 79.8744,-195.41434 c -1.874,-2.258 -0.4309,-5.84556 2.6639,-6.62229 3.429,-0.86063 5.9736,1.34419 5.569,4.82533 -0.2575,2.21496 -0.9686,2.8212 -3.6115,3.07911 -1.9655,0.1918 -3.8267,-0.32455 -4.6214,-1.28215 z M 2501.1472,831.6669 c 52.2013,-10.07987 94.8624,-48.88053 109.1002,-99.22751 1.5774,-5.57784 1.5695,-5.7371 -0.1611,-3.23491 -4.5301,6.54951 -6.4109,8.08396 -8.4092,6.86024 -1.3999,-0.85725 -1.8283,-2.2192 -1.5853,-5.04001 0.6383,-7.40825 -1.1812,-6.22117 -4.0348,2.63246 -18.3041,56.7897 -74.9205,93.63185 -135.7171,88.31539 -18.9968,-1.66121 -33.2893,-5.7909 -50.1119,-14.47942 -70.3579,-36.3385 -90.7455,-126.48613 -42.8304,-189.38412 l 4.6192,-6.06369 -8.1025,3.30002 c -8.9938,3.66307 -10.021,4.83573 -17.7617,20.27734 -8.0484,16.05539 -12.4231,31.99958 -13.33,48.5831 -0.5458,9.98243 -0.4066,11.17876 1.5525,13.33333 2.9506,3.24506 3.663,8.14655 1.6733,11.51479 -1.5285,2.58762 -1.4594,2.92574 1.1804,5.77416 1.7702,1.91011 2.5791,3.73408 2.194,4.94732 -0.3529,1.11177 0.3723,3.2502 1.7205,5.07373 1.7062,2.30768 2.1354,3.92903 1.6024,6.05273 -0.5742,2.28747 -0.1241,3.53119 2.1292,5.88304 2.1522,2.2464 2.6922,3.63958 2.1888,5.64586 -0.5193,2.06868 -0.1914,2.81498 1.468,3.34166 2.9232,0.9278 4.5412,4.32624 3.7579,7.89291 -0.4416,2.01051 -0.1206,3.40838 0.9956,4.33471 0.9061,0.75199 1.6475,2.59121 1.6475,4.08717 0,1.49597 0.84,4.52665 1.8666,6.73484 1.5378,3.30753 2.2909,3.91218 4.2745,3.43187 1.3757,-0.33311 3.5928,0.19347 5.1724,1.22843 2.8389,1.8601 3.0536,4.36095 0.9405,10.9548 -0.6404,1.99849 0.3623,3.49281 6.0221,8.9744 34.2046,33.12753 81.4043,47.24089 127.9384,38.25536 z M 746.61497,818.03939 c 1.4478,-2.2 2.9566,-5.64501 3.3528,-7.65556 0.3963,-2.01056 0.5536,-3.45056 0.3497,-3.2 -0.732,0.89937 -6.9986,14.85556 -6.6705,14.85556 0.1846,0 1.5202,-1.8 2.968,-4 z m 1746.54323,0.34573 c 33.4295,-5.88332 61.9,-23.21944 81.8214,-49.82235 50.7359,-67.75232 19.4673,-164.38258 -62.1343,-192.0159 -14.0795,-4.76785 -25.5357,-6.58119 -41.6896,-6.59883 -13.9582,-0.0153 -14.6276,0.0877 -19.9179,3.06141 -4.597,2.5841 -5.3104,3.38323 -4.4521,4.98691 0.6741,1.25956 0.6193,2.66224 -0.161,4.12021 -1.1463,2.14198 -1.0236,2.18332 3.9625,1.33333 2.8299,-0.48245 13.5455,-0.83348 23.8121,-0.78008 17.9709,0.0934 26.6265,1.33175 36.3973,5.20699 1.3912,0.5518 1.6281,0.1502 1.2077,-2.04832 -0.6361,-3.32798 1.3114,-5.92244 4.4456,-5.92244 4.9311,0 6.8317,6.34858 2.5815,8.62318 -2.1179,1.13352 -1.5336,1.62819 7.3376,6.2125 5.3015,2.73951 11.345,6.28219 13.4301,7.87262 3.9011,2.97552 5.6144,3.68185 4.4806,1.84708 -0.3551,-0.57455 -0.1116,-2.04258 0.5412,-3.2623 0.8834,-1.6506 2.0276,-2.13356 4.4751,-1.8887 6.4259,0.64286 6.7569,7.38305 0.3997,8.1392 l -2.8887,0.34358 4.8161,4.23924 c 2.6489,2.33159 7.642,7.7522 11.0961,12.04583 5.7773,7.18163 6.3827,7.64219 7.5624,5.75324 0.9227,-1.47754 2.2407,-1.96063 4.7,-1.72273 3.1319,0.30295 3.4177,0.64283 3.4177,4.06393 0,3.39624 -0.2992,3.76248 -3.3138,4.05618 l -3.3137,0.32285 3.6309,6.83792 c 1.9971,3.76085 4.7346,9.99361 6.0832,13.85057 2.0891,5.97379 2.654,6.76968 3.8135,5.37256 2.8034,-3.37795 8.5666,-1.62201 8.5666,2.6101 0,3.84085 -2.387,5.78515 -5.9917,4.88043 -2.5613,-0.64286 -2.7509,-0.48293 -2.0719,1.74755 0.411,1.35035 1.0194,8.36521 1.352,15.58859 0.4269,9.27129 0.9381,12.80012 1.7382,12 1.5186,-1.51855 5.3089,-1.43795 6.8934,0.14658 3.8284,3.82834 -1.5675,10.38563 -6.1772,7.50684 -1.8073,-1.12877 -2.0697,-0.60864 -3.258,6.45943 -0.7107,4.22789 -2.3106,10.81671 -3.5552,14.64182 l -2.2629,6.95475 3.3726,-0.39379 c 2.5788,-0.30113 3.6545,0.13313 4.5708,1.84524 2.6037,4.86505 -3.2118,8.97036 -7.7029,5.43768 l -2.4515,-1.92834 -3.9484,7.63152 c -2.1715,4.19733 -5.8668,10.15152 -8.2114,13.23152 -3.5949,4.72224 -3.945,5.6 -2.2334,5.6 3.8502,0 5.4042,1.24883 5.4042,4.34326 0,5.69989 -7.8128,6.8988 -9.1904,1.4103 -0.6488,-2.585 -0.7818,-2.5235 -6.6692,3.08382 -3.3038,3.14677 -9.0155,7.93298 -12.6924,10.63603 -6.367,4.68061 -6.5448,4.93078 -3.7334,5.25394 2.598,0.29862 2.952,0.78705 2.952,4.07265 0,3.5327 -0.1943,3.73333 -3.617,3.73333 -4.3413,0 -6.6304,-2.67784 -4.7841,-5.59631 0.8251,-1.30438 -1.5235,-0.53685 -7.7612,2.53643 -4.9194,2.42373 -12.0554,5.29774 -15.8576,6.38668 -6.3355,1.8144 -9.0407,3.60654 -5.444,3.60654 2.7802,0 4.2959,3.0033 2.977,5.89825 -1.5455,3.39186 -6.9983,3.70586 -8.7131,0.50175 -1.2363,-2.31017 -0.058,-5.69242 2.3878,-6.85221 0.74,-0.35096 0.1456,-0.4001 -1.3211,-0.1092 -1.4667,0.29091 -7.8267,1.09448 -14.1333,1.78574 -15.9744,1.75088 -37.4209,-0.77609 -51.0639,-6.01671 -1.3877,-0.533 -1.627,-0.12273 -1.2078,2.06993 0.6361,3.32799 -1.3114,5.92245 -4.4456,5.92245 -3.0144,0 -4.8827,-1.9315 -4.8827,-5.04771 0,-2.63945 3.4757,-4.68711 6.4,-3.7704 0.88,0.27588 -2.8095,-1.70647 -8.1989,-4.4052 -15.8544,-7.93906 -31.1868,-20.59011 -41.2773,-34.0584 -2.1215,-2.8316 -3.8572,-4.40267 -3.8572,-3.49125 0,0.91141 -1.1678,2.42229 -2.5951,3.35751 -4.4584,2.92127 -9.3996,-1.44327 -6.9069,-6.10087 0.8779,-1.64054 1.9701,-2.06186 4.5294,-1.74737 l 3.3726,0.4144 -5.1121,-10.08839 c -2.8117,-5.54862 -5.9254,-13.00753 -6.9193,-16.57536 -1.6348,-5.86776 -1.86,-6.18151 -2.3593,-3.28696 -0.4565,2.64684 -1.12,3.25551 -3.8381,3.52114 -4.0183,0.39268 -6.2652,-1.94076 -5.3562,-5.56255 0.741,-2.95258 3.2069,-3.85696 6.9236,-2.53932 2.4239,0.85929 2.5029,0.74207 1.7489,-2.59298 -0.4343,-1.92113 -1.1395,-9.49296 -1.5671,-16.82629 -0.4277,-7.33334 -0.8547,-12.54469 -0.949,-11.58079 -0.1819,1.86073 -2.3086,3.04745 -5.4613,3.04745 -5.1748,0 -5.5022,-7.92577 -0.3806,-9.21122 2.1471,-0.53888 3.27,-0.16754 4.6512,1.53815 1.7771,2.1946 1.8375,2.10252 2.5168,-3.8392 0.6605,-5.77691 3.7626,-18.86174 5.4262,-22.88773 0.6363,-1.54005 0.1979,-1.86666 -2.5053,-1.86666 -2.2052,0 -3.6571,-0.71078 -4.4399,-2.17363 -2.7743,-5.18388 3.2396,-9.63241 7.687,-5.68613 1.3117,1.16386 2.4119,1.52341 2.6444,0.86419 0.2191,-0.62088 2.5201,-4.85219 5.1134,-9.40288 8.0913,-14.19841 19.4455,-26.66861 33.3676,-36.64706 4.4935,-3.22073 4.5051,-3.24626 1.7235,-3.77801 -1.8178,-0.3475 -5.4642,0.69562 -10.3908,2.97253 -4.1747,1.92934 -10.2711,4.6923 -13.5477,6.1399 -5.0963,2.25155 -6.9943,4.00122 -13.1311,12.10488 -43.8572,57.91367 -29.8896,138.15209 31.1365,178.86613 13.2886,8.8656 32.0066,16.36136 48.2543,19.32378 10.7209,1.95476 33.6603,2.03861 44.3233,0.16203 z m -31.8255,-0.69784 c -3.797,-2.21153 -1.6316,-8.44789 2.9333,-8.44789 4.6855,0 6.7333,6.3569 2.7367,8.4958 -2.5208,1.34913 -3.2825,1.34269 -5.67,-0.0479 z m -69.92,-27.86123 c -2.992,-2.992 -0.7378,-8.32 3.52,-8.32 2.8592,0 4.8,1.94085 4.8,4.8 0,2.85916 -1.9408,4.8 -4.8,4.8 -1.232,0 -2.816,-0.576 -3.52,-1.28 z m -16,-167.46666 c -2.992,-2.992 -0.7378,-8.32 3.52,-8.32 2.8592,0 4.8,1.94084 4.8,4.8 0,2.85915 -1.9408,4.8 -4.8,4.8 -1.232,0 -2.816,-0.576 -3.52,-1.28 z m 100.7644,-42.09779 c -1.5093,-1.50934 -0.6697,-6.70265 1.2498,-7.72993 4.6075,-2.46587 9.7969,2.95591 6.5609,6.8549 -1.3316,1.60457 -6.502,2.18379 -7.8107,0.87503 z M 1330.1473,807.42186 c -1.3119,-0.25318 -3.7119,-0.25974 -5.3334,-0.0145 -1.6213,0.24518 -0.5479,0.45233 2.3854,0.46035 2.9334,0.009 4.26,-0.1926 2.948,-0.44579 z m -467.48123,-3.51581 c -1.4667,-0.4697 -3.8667,-0.86813 -5.3334,-0.88536 -2.4241,-0.0285 -2.4726,0.052 -0.5333,0.88536 1.1733,0.50421 3.5733,0.90262 5.3333,0.88537 3.1205,-0.0306 3.1337,-0.0526 0.5334,-0.88537 z M 226.93269,761.77272 c -1.99724,-2.12596 -3.49484,-2.64978 -7.38593,-2.58338 l -4.88074,0.0833 6.93333,2.50011 c 3.81334,1.37506 7.13701,2.53758 7.38593,2.58338 0.24894,0.0459 -0.67473,-1.11671 -2.05259,-2.58338 z m 333.66224,0.45333 c -0.2103,-0.63066 -0.8383,-1.14666 -1.3956,-1.14666 -0.5573,0 -1.1853,0.516 -1.3955,1.14666 -0.2103,0.63067 0.4177,1.14667 1.3955,1.14667 0.9778,0 1.6058,-0.516 1.3956,-1.14667 z m -44.5956,-3.65333 c 0,-0.88 -0.48,-1.6 -1.0667,-1.6 -0.5866,0 -1.0666,0.72 -1.0666,1.6 0,0.88 0.48,1.6 1.0666,1.6 0.5867,0 1.0667,-0.72 1.0667,-1.6 z m 149.7937,-37.37161 c 1.5097,-2.30416 2.08704,-2.54599 3.42564,-1.43503 1.8121,1.5039 3.0679,0.27087 4.251,-4.17405 1.5385,-5.78014 -6.31844,-30.67268 -14.03874,-44.47789 -3.3384,-5.96969 -4.1564,-6.74203 -7.7489,-7.31648 -4.4992,-0.71946 -8.8785,-4.7374 -13.5423,-12.42494 -1.6016,-2.64 -5.5985,-7.55503 -8.8819,-10.92228 -4.585,-4.70205 -7.2468,-6.49351 -11.4746,-7.72256 -6.512,-1.89309 -8.2695,-3.6964 -8.3735,-8.59168 -0.074,-3.49248 -0.415,-3.78431 -9.1437,-7.82928 -20.1642,-9.34428 -37.4768,-13.1471 -59.912,-13.15997 -8.6049,-0.005 -16.061,0.24797 -16.5691,0.56199 -0.5081,0.31404 -0.7488,2.40685 -0.5348,4.65071 l 0.389,4.07974 14.5801,0.0258 c 16.3851,0.029 26.1601,1.46979 40.1801,5.9223 19.8382,6.30028 36.2119,16.54785 51.2834,32.09596 20.9157,21.57716 32.157,47.95555 32.5898,76.47375 0.1367,9.00608 0.1576,9.07687 0.9223,3.11527 0.4303,-3.35512 1.5995,-7.34725 2.5982,-8.87138 z m -149.0584,7.23828 c -0.2683,-1.02667 -0.4878,-0.18667 -0.4878,1.86666 0,2.05334 0.2195,2.89334 0.4878,1.86667 0.2683,-1.02667 0.2683,-2.70667 0,-3.73333 z m 1978.09137,1.33333 c 0,-0.55733 -0.5159,-1.18533 -1.1467,-1.39555 -0.6307,-0.21023 -1.1466,0.41777 -1.1466,1.39555 0,0.97778 0.5159,1.60578 1.1466,1.39555 0.6308,-0.21022 1.1467,-0.83822 1.1467,-1.39555 z m -46.2711,-3.93333 c -0.6592,-1.97784 -2.9556,-2.30588 -2.9556,-0.42222 0,0.92888 0.76,1.68888 1.6889,1.68888 0.9289,0 1.4989,-0.56999 1.2667,-1.26666 z M 577.86603,722.36901 c 0,-0.84538 -0.4469,-1.81321 -0.993,-2.15073 -1.2681,-0.78377 -2.5436,1.21362 -1.6737,2.62111 0.9809,1.58706 2.6667,1.28969 2.6667,-0.47038 z m -160.0173,-17.78236 c 0.666,-2.57433 1.4547,-5.5206 1.7527,-6.54726 0.3398,-1.17116 -0.037,-1.86667 -1.0115,-1.86667 -0.9396,0 -1.8386,1.52151 -2.2757,3.85164 -0.4754,2.53395 -1.4283,4.03618 -2.7854,4.39107 -2.4475,0.64003 -2.73,3.00636 -0.4628,3.87636 1.1654,0.4472 1.6367,2.43394 1.7352,7.31412 l 0.1353,6.70014 0.8506,-6.5194 c 0.4679,-3.58567 1.3956,-8.62567 2.0616,-11.2 z m 87.4839,12.29718 c 0,-1.88365 -2.2962,-1.55561 -2.9555,0.42222 -0.2322,0.69667 0.3378,1.26667 1.2667,1.26667 0.9288,0 1.6888,-0.76 1.6888,-1.68889 z m 176.00004,-0.93061 c 0,0.46294 0.2523,0.58952 0.5605,0.28126 0.6493,-0.64929 -6.2459,-34.04875 -7.9585,-38.55005 -0.6323,-1.6619 -3.8835,-6.84007 -7.22484,-11.50706 -5.9317,-8.28498 -6.1065,-8.42567 -7.4003,-5.95636 -1.1773,2.24691 -0.7941,3.55204 3.4354,11.69908 6.41134,12.34988 9.57844,21.07034 12.05464,33.19163 2.4273,11.8816 2.9247,12.9945 5.0281,11.24885 0.8278,-0.68699 1.505,-0.87029 1.505,-0.40735 z m 1922.72643,-16.1559 0.7193,-5.75793 h 5.2105 5.2104 v -5.06667 c -0.011,-7.64524 -2.8361,-23.54419 -5.9651,-33.5164 -15.531,-49.49731 -59.2637,-87.31255 -111.2852,-96.22725 -16.9771,-2.90929 -20.3928,-2.53198 -29.5409,3.26316 -4.3292,2.74239 -7.8712,5.05302 -7.8712,5.13473 0,0.0817 2.8797,-0.0597 6.3993,-0.31433 15.5297,-1.12331 41.2039,3.72759 57.9127,10.94204 28.249,12.19722 55.6092,39.25659 66.7486,66.01485 7.779,18.68596 11.6032,39.76303 10.4717,57.71421 -0.6381,10.12157 0.6301,8.73119 1.9941,-2.18641 z m 17.116,-31.50997 c -3.2281,-15.50778 -6.2234,-29.11881 -6.6562,-30.24673 -0.7328,-1.90967 -20.6296,-31.03803 -25.0386,-36.65585 -1.0883,-1.38671 -14.5123,-11.84554 -29.831,-23.24186 l -27.8523,-20.72059 -10.7133,0.73785 -10.7133,0.73787 9.4183,3.06971 c 21.2625,6.93015 40.9747,19.07043 56.9542,35.07665 24.5528,24.59377 37.8472,53.76735 41.1724,90.34973 0.4414,4.85558 1.162,7.69949 1.9278,7.60694 4.763,-0.57558 6.0251,0.15358 6.1827,3.57165 0.138,2.99216 0.2187,3.08641 0.5892,0.68863 0.2362,-1.52792 -2.2118,-15.46622 -5.4399,-30.974 z m -124.7072,24.95204 c -0.2682,-1.02667 -0.4878,-0.18667 -0.4878,1.86666 0,2.05334 0.2196,2.89334 0.4878,1.86667 0.2684,-1.02667 0.2684,-2.70667 0,-3.73333 z m -47.996,0.0203 c -0.2705,-1.03783 -0.5096,-0.44696 -0.5313,1.31304 -0.021,1.76 0.1995,2.60913 0.4917,1.88696 0.2923,-0.72216 0.31,-2.16216 0.039,-3.2 z m -1904.73927,0.77974 c 0,-0.58667 -0.72,-1.06667 -1.6,-1.06667 -0.88,0 -1.6,0.48 -1.6,1.06667 0,0.58666 0.72,1.06666 1.6,1.06666 0.88,0 1.6,-0.48 1.6,-1.06666 z m -120.3516,-6.66671 c 0.7118,-1.38408 0.5367,-1.86667 -0.6775,-1.86667 -1.1536,0 -1.6126,1.02442 -1.5533,3.46667 0.046,1.90667 0.3512,2.74667 0.6775,1.86667 0.3263,-0.88 1.0253,-2.44 1.5533,-3.46667 z m 2089.95637,-0.80753 c 0.3651,-0.59082 -0.1073,-1.37011 -1.0497,-1.73178 -2.0424,-0.7837 -3.1806,0.0799 -2.1989,1.66834 0.8858,1.43316 2.3839,1.46241 3.2486,0.0635 z M 428.12243,675.14029 c -0.3104,-0.31045 -1.3051,-0.28022 -2.2104,0.0672 -1.0953,0.42029 -1.6302,1.98123 -1.5989,4.66511 l 0.047,4.03347 2.1634,-4.10065 c 1.1898,-2.25537 1.9093,-4.35466 1.5988,-4.66511 z m 2008.46777,7.07282 c 1.0992,-1.77858 -1.3732,-3.81814 -2.8446,-2.34666 -1.2309,1.23085 -0.4605,3.50627 1.1871,3.50627 0.5174,0 1.2632,-0.52182 1.6575,-1.15961 z M 473.68103,646.01787 c 2.8315,-2.01156 4.7038,-3.80554 4.1606,-3.98661 -0.5432,-0.18107 -4.5264,1.36669 -8.8515,3.43945 -4.3252,2.07277 -8.3877,3.76868 -9.0278,3.76868 -1.9667,0 -7.6003,6.61906 -6.0963,7.1626 0.7333,0.26501 1.3333,1.71793 1.3333,3.22869 0,2.5669 0.4368,2.33079 6.6667,-3.60428 3.6666,-3.49313 8.9834,-7.99697 11.815,-10.00853 z m 2002.64717,9.54152 c -0.2101,-0.63067 -0.8382,-1.14667 -1.3955,-1.14667 -0.5574,0 -1.1853,0.516 -1.3956,1.14667 -0.2102,0.63066 0.4178,1.14666 1.3956,1.14666 0.9778,0 1.6057,-0.516 1.3955,-1.14666 z M 489.99083,635.67534 c -0.6758,-0.67579 -7.0614,2.43406 -7.5357,3.66995 -0.3229,0.84157 1.1154,0.44344 3.6333,-1.00568 2.2924,-1.31931 4.0485,-2.51823 3.9024,-2.66427 z M 70.910463,631.52827 c -0.35445,-0.35444 -1.27445,-0.39233 -2.04445,-0.0842 -0.85091,0.3405 -0.59816,0.59326 0.64445,0.64444 1.12444,0.0463 1.75444,-0.20579 1.4,-0.56024 z m 14.96799,-1.1551 c -1.01983,-0.26698 -2.93983,-0.27666 -4.26667,-0.0215 -1.32684,0.25514 -0.49243,0.47358 1.85423,0.48542 2.34667,0.0118 3.43227,-0.19692 2.41244,-0.46389 z m 69.640957,-6.70004 c 43.14935,-1.72535 79.25494,-3.4446 80.23464,-3.82054 1.29857,-0.49831 1.71768,-1.78796 1.54662,-4.75911 -0.2091,-3.63182 -0.71544,-4.30985 -4.65038,-6.22717 -4.1297,-2.01223 -6.72076,-2.16487 -40,-2.3565 -37.35232,-0.21509 -39.55422,-0.0291 -59.97177,5.06391 -8.27676,2.0646 -11.12073,2.383 -13.33333,1.49272 -1.54688,-0.62243 -4.66142,-1.348 -6.9212,-1.61242 -2.25978,-0.26441 -4.89978,-1.17422 -5.86667,-2.0218 -1.53965,-1.3497 -3.67868,-1.21096 -17.224637,1.1172 -14.72024,2.52999 -29.84396,6.15315 -36.8,8.81612 l -3.2,1.22506 3.73333,3.0957 c 3.53866,2.93427 4.26174,3.09643 13.86667,3.10977 5.57333,0.007 45.437357,-1.39758 88.586727,-3.12294 z m 72.47994,-0.0337 c 1.42222,-0.91912 1.42222,-1.034 0,-1.034 -0.88,0 -2.32,0.46529 -3.2,1.034 -1.42222,0.91911 -1.42222,1.03399 0,1.03399 0.88,0 2.32,-0.46529 3.2,-1.03399 z m 387.09788,-6.38544 c 0.8238,-0.008 -2.4902,-2.89456 -7.3646,-6.41456 l -8.8624,-6.4 -11.3021,0.0429 -11.3021,0.0429 9.6,3.16487 c 5.28,1.74068 12.72,4.77681 16.5333,6.74694 3.8133,1.97015 7.8933,3.41321 9.0667,3.20681 1.1733,-0.2064 2.8074,-0.38184 3.6312,-0.38985 z M 2420.826,593.38859 c 3.9453,-1.97126 9.8133,-4.43027 13.04,-5.46445 6.2154,-1.99206 9.1085,-3.75142 6.1689,-3.75142 -0.9484,0 -1.9354,-0.6 -2.1932,-1.33333 -0.6535,-1.85852 -25.309,10.34552 -25.309,12.52747 0,2.14887 0.063,2.13375 8.2933,-1.97827 z M 129.33269,584.17272 c -0.36258,-0.58667 -1.23092,-1.05932 -1.92962,-1.05034 -0.76332,0.01 -0.63176,0.42905 0.32962,1.05034 2.04919,1.3243 2.41845,1.3243 1.6,0 z m -0.53334,-6.4 c 0,-0.58667 -0.21167,-1.06667 -0.47038,-1.06667 -0.2587,0 -0.76704,0.48 -1.12962,1.06667 -0.36258,0.58667 -0.15091,1.06667 0.47038,1.06667 0.62129,0 1.12962,-0.48 1.12962,-1.06667 z m 4.15544,-4.17535 c 1.95214,-1.23609 0.71214,-4.36257 -1.72196,-4.34165 -1.4729,0.0127 -1.57474,0.22251 -0.45293,0.93333 0.79597,0.50435 1.03597,1.1697 0.53333,1.47854 -0.50263,0.30885 -3.82445,-0.76096 -7.38182,-2.37735 -7.59866,-3.45265 -14.33206,-4.97708 -14.33206,-3.24476 0,1.43759 6.51088,4.25996 9.83241,4.26223 1.33885,9.1e-4 4.11426,0.90209 6.16759,2.00262 4.41999,2.36899 5.38112,2.53716 7.35544,1.28704 z m -32.34271,-11.38445 c -0.840987,-2.29544 -1.569457,-3.45353 -1.618807,-2.57353 -0.0493,0.88 -0.3677,2.63622 -0.70746,3.90273 -0.44939,1.67519 -0.0821,2.42106 1.3479,2.73699 2.702977,0.59716 2.696607,0.62361 0.978367,-4.06619 z m 17.23172,1.04868 c -0.35445,-0.35444 -1.27445,-0.39233 -2.04445,-0.0842 -0.85091,0.34051 -0.59816,0.59326 0.64445,0.64444 1.12444,0.0463 1.75444,-0.20579 1.4,-0.56023 z m 2390.9555,-5.39531 c -0.7333,-0.29591 -1.9333,-0.29591 -2.6666,0 -0.7334,0.2959 -0.1334,0.53801 1.3333,0.53801 1.4667,0 2.0667,-0.24211 1.3333,-0.53801 z m 632.9953,-6.96024 c -0.3404,-0.85091 -0.5932,-0.59816 -0.6444,0.64445 -0.046,1.12444 0.2058,1.75444 0.5603,1.4 0.3544,-0.35444 0.3923,-1.27445 0.084,-2.04445 z M 2651.81,549.77272 c -0.5411,-0.73333 -2.1599,-3.13006 -3.5972,-5.32605 -1.5441,-2.35904 -3.4699,-3.99569 -4.7067,-4 -1.6557,-0.005 -0.995,1.10769 3.1599,5.32605 5.0443,5.12132 7.2195,6.81278 5.144,4 z m 488.9548,-11.18533 c -0.2453,-1.6214 -0.4524,-0.548 -0.4604,2.38533 -0.011,2.93333 0.1926,4.25993 0.4458,2.948 0.2532,-1.31194 0.2597,-3.71194 0.015,-5.33333 z m -2907.43211,-4.548 c -0.88,-0.56871 -2.8,-1.00762 -4.26667,-0.97536 -2.44222,0.0536 -2.4871,0.13579 -0.53333,0.97536 1.17333,0.5042 3.09333,0.94311 4.26666,0.97536 1.76078,0.0484 1.85392,-0.12194 0.53334,-0.97536 z m 4.26666,-2.13334 c 1.37887,-0.89109 1.35071,-1.03625 -0.20371,-1.05033 -0.99204,-0.009 -2.10037,0.46367 -2.46295,1.05033 -0.83433,1.34998 0.57774,1.34998 2.66666,0 z m -11.73333,-2.13333 c -0.88,-0.56871 -2.56,-1.00762 -3.73333,-0.97536 l -2.13334,0.0587 2.13334,0.91672 c 1.17333,0.5042 2.85333,0.94312 3.73333,0.97536 1.42222,0.0522 1.42222,-0.0562 0,-0.97536 z m 16.54511,-4.23967 c 4.68686,-2.33182 9.19953,-4.25182 10.02817,-4.26667 2.60337,-0.0466 12.49765,-6.90462 10.51302,-7.28681 -0.97597,-0.18796 -2.81967,0.21762 -4.09711,0.90128 -7.65985,4.09942 -18.04283,6.61923 -29.97536,7.2746 -11.42224,0.62733 -12.3437,0.83256 -11.13412,2.47988 0.7253,0.98778 2.72908,2.14739 4.45284,2.57694 2.85322,0.71099 3.001,0.61941 1.64878,-1.02173 -0.81694,-0.99149 -1.22153,-2.0665 -0.89912,-2.38891 0.88637,-0.88637 7.20996,2.66307 7.88679,4.42686 0.8743,2.27837 2.19883,1.96997 11.57611,-2.69544 z m 5.51843,0.91799 c 5.28354,-3.2654 3.72076,-3.52139 -2.96498,-0.48565 -4.232,1.92159 -5.08953,2.63411 -3.22446,2.67921 1.39742,0.0338 4.18267,-0.9533 6.18944,-2.19356 z m -45.53021,-3.07832 c -0.88,-0.56871 -2.08,-1.034 -2.66666,-1.034 -0.58667,0 -0.34667,0.46529 0.53333,1.034 0.88,0.5687 2.08,1.03399 2.66667,1.03399 0.58666,0 0.34666,-0.46529 -0.53334,-1.03399 z m 72.33752,-10.05962 c 0.18563,-1.50721 -0.13511,-2.74038 -0.71276,-2.74038 -0.57765,0 -1.80954,-0.29135 -2.73751,-0.64746 -1.00486,-0.3856 -1.68725,-0.0871 -1.68725,0.738 0,1.75258 -7.87239,9.15592 -10.68539,10.04873 -1.16303,0.36914 -2.11461,1.32952 -2.11461,2.13418 0,1.02426 2.6392,0.22506 8.8,-2.66482 7.32529,-3.43611 8.85657,-4.5871 9.13752,-6.86825 z m -76.60418,7.92629 c 0,-0.58667 -1.32,-1.03293 -2.93334,-0.9917 -2.59929,0.0665 -2.6904,0.17936 -0.8,0.9917 2.91348,1.25195 3.73334,1.25195 3.73334,0 z m 11.42075,-0.56856 c -5.51967,-2.02578 -10.53421,-5.74371 -9.65831,-7.16095 0.46827,-0.75766 0.0684,-0.91597 -1.14137,-0.45176 -1.02422,0.39303 -3.26296,0.7146 -4.97498,0.7146 -2.40165,0 -3.11276,0.48736 -3.11276,2.13333 0,1.54483 0.71111,2.13334 2.57778,2.13334 1.41777,0 2.75728,-0.53851 2.97667,-1.1967 0.25066,-0.75198 2.76113,0.0218 6.75556,2.08203 3.49616,1.80329 7.31666,3.26799 8.48999,3.25487 1.25442,-0.014 0.46646,-0.63562 -1.91258,-1.50876 z M 42.028486,497.50461 c 1.966137,-0.89583 2.330187,-1.68204 1.803067,-3.89384 -0.953287,-3.99996 -1.109057,-4.13733 -4.053697,-3.57442 -1.46983,0.28098 -3.92365,0.19683 -5.45293,-0.187 -2.21462,-0.55583 -2.53222,-0.99703 -1.56056,-2.16781 0.93952,-1.13205 0.8244,-1.69131 -0.50081,-2.43294 -1.39656,-0.78155 -0.90528,-1.33072 2.60752,-2.91476 2.38055,-1.07348 4.32556,-2.23889 4.32225,-2.58978 -0.003,-0.3509 -1.11541,-4.23801 -2.47131,-8.63801 l -2.46529,-8 -1.82609,3.47314 c -4.11191,7.82063 -4.38733,30.81833 -0.50256,41.9622 l 1.2303,3.52924 3.20328,-6.72177 c 1.897,-3.98067 4.2079,-7.17952 5.66683,-7.84425 z m 175.748524,12.3821 c 0.89972,-2.34465 0.77956,-2.41768 -6.94086,-4.21873 -7.32846,-1.70961 -9.50346,-1.42306 -9.50346,1.25205 0,1.13006 0.56537,1.51881 1.6,1.10014 0.88,-0.3561 2.30884,-0.93452 3.17521,-1.28539 1.02337,-0.41446 2.01754,0.3329 2.83787,2.13333 0.98051,2.15197 2.03322,2.77128 4.71068,2.77128 2.21438,0 3.68862,-0.62707 4.12056,-1.75268 z m 37.95568,-3.08485 c 0,-1.78442 -3.7881,-2.1331 -4.83158,-0.44473 -0.37993,0.61476 -0.41539,1.83546 -0.0788,2.71267 0.47833,1.24652 1.08149,1.34367 2.76118,0.44472 1.18209,-0.63261 2.14922,-1.8533 2.14922,-2.71266 z M 3131.466,489.11349 c 0,-0.58667 -0.48,-0.77002 -1.0667,-0.40744 -0.5866,0.36258 -1.0666,1.13923 -1.0666,1.7259 0,0.58667 0.48,0.77002 1.0666,0.40744 0.5867,-0.36259 1.0667,-1.13924 1.0667,-1.7259 z M 40.994676,484.77272 c -0.34051,-0.85091 -0.59326,-0.59817 -0.64445,0.64445 -0.0463,1.12443 0.20579,1.75444 0.56024,1.4 0.35444,-0.35445 0.39234,-1.27446 0.0842,-2.04445 z M 3169.0875,453.05253 c 0.3667,-1.40195 0.089,-1.88161 -0.8748,-1.51173 -0.7767,0.29799 -1.151,1.22208 -0.8319,2.05353 0.7688,2.00338 1.0658,1.90909 1.7067,-0.5418 z M 37.497076,427.2597 c -1.45716,-1.61014 -1.51446,-2.07077 -0.30958,-2.48875 0.81319,-0.2821 4.08991,-1.48072 7.281607,-2.6636 3.1917,-1.18287 6.02637,-1.9274 6.29927,-1.6545 0.27289,0.27289 -2.03135,3.16866 -5.12054,6.43501 -3.089187,3.26637 -5.413617,6.14195 -5.165397,6.39017 0.24823,0.24822 6.164117,-0.0708 13.146447,-0.709 l 12.69513,-1.16031 6.8586,-6.28467 c 7.30182,-6.6908 9.26517,-7.6647 8.10918,-4.0225 -0.64647,2.03685 -0.23263,1.92822 4.15523,-1.0907 2.68027,-1.84407 5.25101,-3.96997 5.71277,-4.72421 0.46176,-0.75425 7.07956,-2.96336 14.706227,-4.90913 7.62667,-1.94577 15.79833,-4.63458 18.15924,-5.97515 2.36091,-1.34055 6.92586,-3.12502 10.14432,-3.96548 5.43193,-1.41848 14.92758,-5.78011 10.09644,-4.63759 -1.17333,0.27748 -24.28393,5.10844 -51.356867,10.73544 l -49.22352,10.23094 -8.528397,8.70173 c -7.18301,7.32899 -8.34523,8.99504 -7.36726,10.56101 1.05182,1.68423 1.64763,1.45198 6.32818,-2.46679 4.90714,-4.10849 5.07709,-4.42546 3.37892,-6.30192 z M 1943.5449,360.31227 c -0.941,-3.59813 -2.4789,-2.64477 -2.4789,1.53664 0,3.31643 0.1989,3.61062 1.5366,2.27289 0.8704,-0.87035 1.279,-2.52216 0.9423,-3.80953 z m 9.7878,1.99378 c 0,-1.14898 -0.9021,-1.49558 -3.2,-1.2296 -3.8037,0.44027 -4.1808,0.70926 -3.2061,2.28643 1.0775,1.74359 6.4061,0.86454 6.4061,-1.05683 z m -0.5334,-11.97222 8,-2.74962 -41.6,-0.0209 c -35.1962,-0.0177 -47.3408,0.41043 -61.5847,2.17107 -1.0184,0.12587 -1.4984,0.57721 -1.0667,1.00298 2.2301,2.19991 14.5992,2.8468 49.8514,2.60715 38.1634,-0.25943 38.4493,-0.27798 46.4,-3.01065 z m -792.6222,-15.37454 c 0.2444,-0.21262 -5.8363,-0.38657 -13.5127,-0.38657 -7.6765,0 -14.6102,-0.25059 -15.4084,-0.55688 -0.7982,-0.30627 -2.3975,0.14686 -3.5539,1.00697 -1.8667,1.38822 -0.1864,1.49416 14.9639,0.94343 9.3867,-0.3412 17.2667,-0.79433 17.5111,-1.00695 z m 20.6544,-1.16602 c -2.4756,-0.2237 -6.7956,-0.22637 -9.6,-0.006 -2.8043,0.22045 -0.7788,0.40349 4.5012,0.40673 5.28,0.003 7.5745,-0.17712 5.0988,-0.40082 z m 161.0425,-22.38826 c 7.769,-9.80891 13.9355,-18.32891 13.7034,-18.93334 -1.5571,-4.05425 -3.2639,-16.53365 -3.4332,-25.09895 l -0.2001,-10.13334 -0.6867,8 c -0.5564,6.48087 -1.3988,9.21531 -4.4361,14.4 -2.6087,4.45302 -4.5015,6.50912 -6.2218,6.75868 -2.3431,0.33995 -2.4361,0.6662 -1.7803,6.24551 0.3805,3.23775 1.1785,6.79634 1.7735,7.90799 1.0302,1.92491 0.5593,2.01758 -9.8892,1.94618 -7.1225,-0.0486 -10.2226,-0.39653 -8.8375,-0.99169 1.1733,-0.5042 3.2133,-0.95046 4.5333,-0.99169 1.4044,-0.0438 2.4,-0.74819 2.4,-1.69784 0,-0.89258 1.1621,-2.15231 2.5823,-2.79942 1.4202,-0.6471 2.3475,-1.78826 2.0606,-2.5359 -0.2869,-0.74765 -0.011,-1.67624 0.6177,-2.06354 1.8102,-1.11872 1.3234,-2.71161 -0.8286,-2.71161 -2.4026,0 -5.9671,3.71245 -5.0262,5.23485 0.3748,0.60643 -0.5381,1.40871 -2.0288,1.78285 -1.4907,0.37413 -2.7103,1.07414 -2.7103,1.55558 0,1.23307 -11.3228,4.46535 -17.0667,4.87196 -2.64,0.18689 -7.2,1.07297 -10.1333,1.96907 -2.9333,0.89609 -8.5733,1.63446 -12.5333,1.64082 -3.96,0.006 -7.2044,0.37154 -7.2096,0.81154 0,0.44 1.5515,2.08307 3.4598,3.65126 1.9082,1.56819 3.2325,3.06328 2.9429,3.3224 -0.6588,0.58956 -41.8153,2.91236 -51.1931,2.88925 -5.0672,-0.0125 -8.424,-0.71115 -12.4717,-2.59571 -5.4299,-2.52808 -5.5449,-2.67803 -5.8667,-7.64799 l -0.3283,-5.06936 -11.9594,11.46937 -11.9592,11.46935 -9.1887,0.43292 c -6.9018,0.32519 -9.0809,0.10953 -8.7555,-0.86648 0.5225,-1.56753 47.5766,-39.69673 48.2086,-39.06473 0.2439,0.2438 -2.5151,3.79572 -6.1308,7.89316 l -6.5741,7.44989 7.4688,-6.93333 c 4.1078,-3.81334 24.9129,-23.25334 46.2336,-43.2 21.3205,-19.94667 39.3104,-36.44252 39.9773,-36.65745 0.667,-0.21494 -2.3848,3.38506 -6.7818,8 -4.397,4.61493 -1.7503,2.27078 5.8815,-5.20922 12.6746,-12.42251 16.513,-15.35301 16.513,-12.60726 0,0.546 -22.7838,22.48217 -50.6307,48.74704 -27.8469,26.26486 -50.4219,47.96315 -50.1666,48.21842 1.066,1.06604 7.5156,-4.8588 51.621,-47.42091 25.4597,-24.56884 47.3779,-44.97792 48.707,-45.35349 4.0322,-1.13942 16.8919,-14.6116 16.9513,-17.75849 0.043,-2.29089 6.3653,-7.81624 38.9847,-34.07099 23.0767,-18.574 43.713,-34.2873 50.669,-38.5814 24.2945,-14.9977 24.6075,-13.7062 0.7891,3.2559 -15.4779,11.0226 -82.441,64.5292 -84.0834,67.18655 -0.4025,0.65137 13.6553,-10.39563 31.2396,-24.54885 17.5843,-14.1533 32.6736,-25.7332 33.5317,-25.7332 2.0272,0 10.5357,-5.5127 9.9561,-6.4506 -0.4036,-0.6531 18.9358,-14.8827 20.2271,-14.8827 0.3032,0 0.083,1.2312 -0.489,2.7361 -0.572,1.5048 -1.0402,3.8478 -1.0402,5.2066 0,1.9164 -41.7018,98.80996 -43.3771,100.78617 -0.2154,0.25423 -0.9598,-0.10582 -1.654,-0.8 -0.6942,-0.69422 -2.1262,-1.26222 -3.1822,-1.26222 -1.056,0 -1.9274,-0.6 -1.9364,-1.33334 -0.011,-0.88753 -0.3593,-0.79836 -1.0423,0.26667 -0.5643,0.88 -0.7742,2.40968 -0.4665,3.39926 0.4435,1.42617 -0.2471,1.86855 -3.3303,2.13334 -3.3441,0.28721 -4.2812,1.00739 -6.6801,5.13407 -2.7922,4.80322 -2.0747,4.87137 2.8076,0.26666 0.7775,-0.73333 2.0711,-1.33333 2.8745,-1.33333 1.8597,0 3.008,1.78829 1.6768,2.61103 -0.6042,0.37346 -0.4205,1.76416 0.4567,3.45472 0.9388,1.80972 1.1288,3.46321 0.5272,4.58746 -0.695,1.29867 -0.012,2.80193 2.6153,5.75496 2.3114,2.59818 3.7901,5.55947 4.2246,8.46114 l 0.6687,4.46402 5.042,-0.34946 5.0422,-0.34946 -0.4887,-6.58387 -0.4886,-6.58387 -0.6771,5.33333 -0.6772,5.33333 -0.1675,-5.25765 c -0.092,-2.89171 -1.2345,-8.57032 -2.5385,-12.61915 -2.3341,-7.24691 -2.4212,-7.35215 -5.6,-6.76118 -3.0337,0.56398 -3.1038,0.50462 -1.1586,-0.98085 1.1389,-0.86965 2.5177,-1.58117 3.064,-1.58117 0.5464,0 0.3958,-0.72 -0.3345,-1.6 -0.7303,-0.88 -2.2291,-1.6 -3.3306,-1.6 -1.1015,0 -2.0027,-0.48 -2.0027,-1.06666 0,-1.6768 4.9237,-1.24553 6.4244,0.56273 1.1366,1.36954 5.1135,-6.80275 24.938,-51.24626 l 23.5858,-52.87562 10.6592,-6.9938 c 18.4417,-12.1001 26.1751,-15.12 48.5259,-18.949896 22.4147,-3.8408 35.7197,-4.3639 110.9333,-4.3608 129.9922,0 250.1681,7.4652 361.6762,22.451196 35.2342,4.7353 35.7231,4.8813 41.8961,12.5188 2.7109,3.3542 3.3392,5.2046 3.7022,10.905 1.296,20.3536 -17.9923,91.16683 -44.4499,163.18865 l -3.1348,8.53333 -65.9782,1.23274 c -87.4284,1.63352 -165.8094,3.39101 -208.3782,4.67232 -42.1992,1.27019 -155.0838,5.16469 -163.2,5.63038 -29.8453,1.7124 255.0998,-1.37788 375.4666,-4.07201 39.0134,-0.87322 74.104,-1.58972 77.9793,-1.59222 l 7.046,-0.004 8.6221,-23.32694 c 32.279,-87.33059 47.9635,-143.85945 45.0584,-162.39545 -0.4032,-2.5727 -1.7568,-6.659 -3.008,-9.0806 -2.5528,-4.9412 -16.6426,-18.4727 -23.1644,-22.246696 -10.4445,-6.044 -71.6221,-15.5024 -189.3334,-29.2719 -40.1494,-4.6965 -117.4067,-7.7071 -197.8666,-7.7105 -62.9895,0 -81.3796,1.3298 -127.4667,9.2358 -41.2035,7.0682 -43.3204,7.5826 -58.8665,14.3033 -25.0166,10.815 -24.0737,10.1821 -62.2002,41.753196 -19.9466,16.5171 -36.274,30.3405 -36.283,30.7188 -0.011,0.3782 -0.4619,1.4076 -1.0066,2.2876 -0.5447,0.88 1.1426,-0.1197 3.7497,-2.2215 26.6037,-21.4492 51.235,-40.6571 62.9979,-49.1271 13.1319,-9.455796 15.9933,-10.987396 35.6106,-19.060496 23.1916,-9.5441 25.1228,-10.1951 33.0648,-11.146 2.9333,-0.3513 10.6133,-1.5557 17.0666,-2.6766 13.7038,-2.3802 17.6304,-2.9197 27.7334,-3.8107 4.1066,-0.3622 8.6666,-0.8356 10.1333,-1.052 1.4667,-0.2164 6.0267,-0.6903 10.1333,-1.0532 4.1067,-0.3629 8.6667,-0.834 10.1334,-1.0469 12.0839,-1.7544 26.3308,-2.1349 78.9333,-2.1082 53.4991,0.027 88.7935,0.7291 103.4667,2.0578 2.64,0.2391 10.08,0.7266 16.5333,1.0834 6.4533,0.3568 14.8533,0.851 18.6667,1.0983 8.8648,0.5747 33.5988,2.1055 52.2666,3.2347 18.5799,1.1239 29.8956,2.1403 35.2,3.1619 0.9952,0.1916 4.3552,0.6716 7.4667,1.0666 3.1115,0.3951 6.4715,0.8751 7.4667,1.0667 0.9952,0.1917 4.3552,0.6717 7.4666,1.0667 3.1115,0.395 6.4715,0.875 7.4667,1.0666 0.9952,0.1917 4.3552,0.6717 7.4667,1.0667 3.1114,0.395 6.4714,0.875 7.4666,1.0667 0.9952,0.1916 4.3552,0.6716 7.4667,1.0666 3.1115,0.3951 6.4715,0.8751 7.4667,1.0667 0.9952,0.1917 4.3552,0.6717 7.4666,1.0667 3.1115,0.395 6.4715,0.875 7.4667,1.0666 0.9952,0.1917 4.3552,0.6717 7.4667,1.0667 3.1114,0.395 6.4714,0.875 7.4666,1.0667 0.9952,0.1916 4.1624,0.6488 7.0381,1.0159 5.7436,0.7331 10.9092,1.845 32.4286,6.9799 7.92,1.8898 16.4334,3.848196 18.9187,4.351796 5.9276,1.2013 9.3479,3.0415 16.5361,8.8971 5.0057,4.0776 6.3891,6.0151 8.7999,12.324 3.6895,9.6554 2.9743,11.6844 -1.3917,3.9482 -1.878,-3.3276 -3.9149,-6.0503 -4.5264,-6.0503 -0.6115,0 0.056,1.56 1.4832,3.4667 5.5213,7.3759 6.3619,10.2147 5.7475,19.4122 -1.179,17.649 -16.8679,68.69101 -41.4842,134.96384 -8.4977,22.87763 -11.2495,27.75703 -15.6538,27.75703 -1.6539,0 -3.2806,-0.2735 -3.6149,-0.60779 -0.3343,-0.33429 1.3273,-4.77429 3.6922,-9.86667 12.0518,-25.95046 41.1585,-116.06097 47.3349,-146.54251 1.9236,-9.4939 1.274,-12.8186 -3.9003,-19.9616 -8.3376,-11.5096 -27.2471,-18.7567 -62.8745,-24.0967 -39.8058,-5.966296 -142.9676,-15.841496 -195.7787,-18.741096 -15.3266,-0.8415 -52.5359,-1.0469 -118.3547,-0.6535 -99.6948,0.5959 -140.0874,1.7536 -157.187,4.5052 -9.5011,1.5289 -27.8822,7.8576 -38.3875,13.216996 -2.3873,1.2179 -4.6213,2.2143 -4.9647,2.2143 -0.3432,0 -0.309,-1.68 0.077,-3.7333 0.3852,-2.0533 0.4208,-3.733296 0.079,-3.733296 -0.3418,0 -12.5152,8.050396 -27.0521,17.889796 -25.6334,17.3502 -29.5519,20.5277 -129.8979,105.33336 -56.907,48.09391 -104.3225,88.11517 -105.3679,88.93613 -1.5959,1.25328 -2.5794,1.26866 -6.1328,0.0959 -2.3277,-0.7682 -4.2321,-1.70249 -4.2321,-2.07621 0,-0.3737 21.84,-19.54692 48.5333,-42.60712 C 1246.16,243.35131 1268,224.27769 1268,224.02569 c 0,-0.25201 -25.3191,20.70289 -56.2646,46.56643 -41.4438,34.63786 -56.7972,46.88531 -58.2869,46.49574 -1.4628,-0.38254 -1.7,-0.20634 -0.8569,0.63677 0.8431,0.84309 0.7424,1.98421 -0.364,4.12375 l -1.5297,2.9581 7.1844,0.79981 c 3.9514,0.43989 15.8243,0.78716 26.3843,0.77169 20.3304,-0.0298 101.5023,-1.99629 127.3528,-3.08531 l 15.3526,-0.64677 -0.6593,3.29685 c -0.3791,1.89508 -0.2138,3.29685 0.3886,3.29685 0.5764,0 7.4044,-8.02547 15.1733,-17.83438 z m -151.7413,13.20319 c 0,-0.29049 1.56,-1.47289 3.4666,-2.62757 3.2824,-1.98777 4.034,-2.02454 14.1334,-0.69137 7.9359,1.04758 16.6743,1.19582 34.1333,0.57907 l 23.4667,-0.82898 -26.9546,-0.16665 c -26.866,-0.1661 -26.9685,-0.1755 -31.2292,-2.8652 l -4.2749,-2.69855 3.2432,-4.71369 c 4.7108,-6.84698 5.7794,-7.14564 4.9138,-1.37332 -0.7086,4.7255 -0.6437,4.86636 3.3228,7.20991 l 4.0455,2.39027 57.0667,-1.06213 c 31.3867,-0.58417 57.2299,-0.91707 57.4293,-0.73979 0.1995,0.17729 -1.7205,0.78772 -4.2666,1.35653 l -4.6294,1.0342 4,0.11423 c 4.3805,0.12509 4.5376,0.31664 2.8487,3.47243 -1.0722,2.0036 -1.243,2.02594 -2.4864,0.3255 -1.2501,-1.70958 -4.8602,-1.74944 -56.7153,-0.6263 -30.4591,0.65973 -61.2603,1.47852 -68.447,1.81953 -7.1866,0.34102 -13.0666,0.38236 -13.0666,0.0918 z m 113.0666,-114.30215 c 1.3778,-1.46667 2.7452,-2.66667 3.0385,-2.66667 0.2934,0 -0.594,1.2 -1.9718,2.66667 -1.3778,1.46667 -2.7452,2.66667 -3.0385,2.66667 -0.2933,0 0.594,-1.2 1.9718,-2.66667 z m 35.7334,116.52554 c 2.3466,-0.59784 4.7466,-1.52685 5.3333,-2.06448 1.1711,-1.07324 1.4989,-12.58428 0.3585,-12.59052 -0.3894,-0.002 -3.2391,3.23613 -6.3325,7.19613 -8.5334,10.92408 -8.2085,10.39343 -5.7593,9.40596 1.1733,-0.47307 4.0533,-1.34926 6.4,-1.94709 z m 83.7333,-0.79221 c 0,-0.58666 -0.84,-1.05931 -1.8667,-1.05033 -1.5952,0.014 -1.634,0.16668 -0.2666,1.05033 2.013,1.30092 2.1333,1.30092 2.1333,0 z m 82.0445,-0.68037 c 0.2444,-0.21246 -17.6356,-0.38629 -39.7334,-0.38629 -26.7644,0 -40.1778,0.36552 -40.1778,1.09489 0,0.74182 12.8126,0.86639 39.7334,0.38628 21.8533,-0.38972 39.9333,-0.88242 40.1778,-1.09488 z m -94.3112,-1.45296 c 0.3626,-0.58667 -0.1174,-1.06667 -1.0666,-1.06667 -0.9493,0 -1.4293,0.48 -1.0667,1.06667 0.3626,0.58667 0.8426,1.06667 1.0667,1.06667 0.2241,0 0.7041,-0.48 1.0666,-1.06667 z m 7.2,0.36024 c -0.7333,-0.29591 -1.9333,-0.29591 -2.6666,0 -0.7334,0.2959 -0.1334,0.53801 1.3333,0.53801 1.4667,0 2.0667,-0.24211 1.3333,-0.53801 z m 125.8076,-0.0904 c -6.6325,-0.18745 -17.1925,-0.18678 -23.4667,0.001 -6.2741,0.18825 -0.8475,0.34162 12.0591,0.34081 12.9067,-8e-4 18.0401,-0.15483 11.4076,-0.34229 z m -421.0076,-1.33656 c 1.1734,-0.5042 1.6534,-0.9605 1.0667,-1.01399 -0.5867,-0.0536 -8.5067,-0.99325 -17.6,-2.08833 -15.2223,-1.83316 -17.0701,-2.29661 -23.3025,-5.84436 -3.723,-2.11932 -7.563,-3.84697 -8.5333,-3.83921 -0.9703,0.007 1.7043,1.93767 5.9435,4.2887 6.8042,3.77357 9.5548,4.57222 23.4667,6.81373 18.6695,3.00809 16.3547,2.80255 18.9589,1.68346 z m 277.8667,-1.0473 c -5.4819,-1.22316 -19.0526,-2.14263 -16.5333,-1.1202 1.7242,0.69978 1.3151,0.95624 -2.1334,1.33735 -2.3466,0.25935 1.7334,0.50401 9.0667,0.5437 8.7132,0.0471 12.0397,-0.21649 9.6,-0.76085 z m 113.9085,0.2603 c -3.3504,-0.211 -9.1104,-0.21272 -12.8,-0.004 -3.6897,0.20889 -0.9485,0.38151 6.0915,0.38363 7.04,0.002 10.0588,-0.1688 6.7085,-0.3798 z m -398.1752,-6.71061 c -5.5596,-0.77926 -7.1594,0.096 -3.162,1.72996 2.3797,0.97272 3.687,0.99244 5.2944,0.0799 1.9177,-1.08878 1.7012,-1.2725 -2.1324,-1.80982 z m 120.5334,-71.42355 c 45.76,-37.7213 84.4,-69.78468 85.8666,-71.25196 2.558,-2.55905 -23.115,17.88104 -59.2,47.13328 -21.2739,17.24568 -109.1063,90.81854 -112,93.81684 l -2.1333,2.21048 2.1333,-1.66223 c 1.1734,-0.91423 39.5734,-32.52511 85.3334,-70.24641 z m 136.8607,68.75961 c -0.3285,-0.32842 -0.9249,0.26358 -1.3255,1.31555 -0.5789,1.52021 -0.4563,1.64273 0.5971,0.59712 0.729,-0.72356 1.0568,-1.58426 0.7284,-1.91267 z m -140.2552,-88.39983 c 109.9433,-91.52438 156.4611,-130.574076 156.4611,-131.341976 0,-0.3943 -125.2025,103.571576 -233.116,193.575296 -15.8671,13.23377 -30.0271,24.92232 -31.4667,25.97454 -2.5169,1.83973 -2.4815,1.83973 0.9216,0 1.9464,-1.05222 50.1864,-40.74577 107.2,-88.20786 z m -94.7389,85.76138 c 1.0619,-1.17333 1.6907,-2.13333 1.3974,-2.13333 -0.2934,0 -1.4022,0.96 -2.464,2.13333 -1.0619,1.17334 -1.6907,2.13334 -1.3974,2.13334 0.2934,0 1.4022,-0.96 2.464,-2.13334 z m -88.4623,-1.18157 c 0.4017,-0.64988 -0.9136,-2.82552 -2.9229,-4.83477 l -3.6532,-3.65317 -1.8886,3.96054 c -1.6506,3.4614 -1.6703,3.77931 -0.156,2.52255 1.4835,-1.23121 2.0652,-1.10549 4.0449,0.87421 2.6073,2.60736 3.5233,2.83368 4.5758,1.13064 z m 64.4623,0.11491 c 0,-0.58667 -1.32,-1.07195 -2.9333,-1.07841 -5.0791,-0.0203 -10.9142,-1.28955 -10.3234,-2.24551 0.3121,-0.50506 -0.1981,-0.62451 -1.1339,-0.26543 -2.4799,0.95165 -1.3569,1.57603 5.5538,3.08773 7.9446,1.73782 8.8368,1.78848 8.8368,0.50162 z m 21.8667,-11.29207 c 7.6267,-6.21046 14.8267,-12.27474 16,-13.47616 1.1733,-1.20143 -4.9172,3.42721 -13.5346,10.28586 -15.1143,12.02947 -15.8117,12.44732 -19.7333,11.82138 -4.0079,-0.63971 -4.0277,-0.62601 -1.3988,0.96828 1.4667,0.88944 3.1467,1.63409 3.7334,1.65478 0.5866,0.0207 7.3066,-5.04366 14.9333,-11.25414 z m 237.3333,5.3211 c 0,-1.00731 -2.9545,-0.30474 -4.8628,1.15636 -1.8943,1.45041 -1.7755,1.48692 1.3962,0.42899 1.9066,-0.636 3.4666,-1.3494 3.4666,-1.58535 z m 3.7334,-1.49565 c -0.3626,-0.58667 -1.111,-1.06667 -1.663,-1.06667 -0.5521,0 -1.0037,0.48 -1.0037,1.06667 0,0.58667 0.7484,1.06667 1.6629,1.06667 0.9147,0 1.3663,-0.48 1.0038,-1.06667 z m -52.7022,-9.16569 c 4.7415,-4.80119 6.3277,-5.77038 9.4657,-5.78397 2.8265,-0.0123 3.3695,-0.27505 2.1698,-1.05034 -3.1721,-2.04992 -5.9986,-0.96632 -12.8079,4.90999 -10.3749,8.95356 -10.225,8.78183 -7.1575,8.19545 1.4486,-0.27693 5.1971,-3.09894 8.3299,-6.27113 z m 69.2355,4.24129 c 0,-1.95211 -0.3825,-1.86624 -2.5996,0.58355 -1.7881,1.97589 -1.7732,2.03555 0.3681,1.47559 1.2273,-0.32096 2.2315,-1.24757 2.2315,-2.05914 z m -35.2,-7.78836 c 0,-1.72403 -1.2682,-4.35391 -2.0995,-4.35391 -0.4426,0 -0.5753,1.2 -0.295,2.66667 0.4767,2.49349 2.3945,3.84484 2.3945,1.68724 z m -201.0667,-8.62057 c 1.0619,-1.17334 1.6907,-2.13334 1.3974,-2.13334 -0.2934,0 -1.4022,0.96 -2.464,2.13334 -1.0619,1.17333 -1.6907,2.13333 -1.3974,2.13333 0.2934,0 1.4022,-0.96 2.464,-2.13333 z m 5.3334,-4.26667 c 1.0618,-1.17333 1.6906,-2.13333 1.3973,-2.13333 -0.2933,0 -1.4021,0.96 -2.464,2.13333 -1.0619,1.17333 -1.6907,2.13333 -1.3973,2.13333 0.2933,0 1.4021,-0.96 2.464,-2.13333 z m 223.0592,-4.38829 c 4.0627,-2.45737 5.1023,-2.49783 7.3154,-0.28472 2.1782,2.17819 2.4917,1.83107 3.0409,-3.36703 0.2457,-2.32464 0.2343,-3.38663 -0.026,-2.35996 -0.3686,1.45773 -1.6103,1.86667 -5.6681,1.86667 -2.8579,0 -5.4929,0.48 -5.8555,1.06666 -0.3625,0.58667 -2.0317,1.06667 -3.709,1.06667 -4.0746,0 -6.4243,0.9885 -6.4243,2.70257 0,3.07631 5.6695,2.73048 11.3258,-0.69086 z m -217.0565,-0.67838 c 1.3268,-1.69179 1.2891,-1.72952 -0.4027,-0.40273 -1.0267,0.80518 -1.8667,1.64518 -1.8667,1.86667 0,0.87791 0.8759,0.31286 2.2694,-1.46394 z m 1062.148,-22.66666 c -0.042,-0.88 -0.7426,0.8 -1.5588,3.73333 -0.8163,2.93333 -1.4505,6.05333 -1.4093,6.93333 0.042,0.88 0.7426,-0.8 1.5588,-3.73333 0.8162,-2.93333 1.4505,-6.05333 1.4093,-6.93333 z m -873.3337,1.67136 2.1278,-4.33803 -3.7656,4.26667 c -2.0712,2.34666 -3.7838,4.92544 -3.8059,5.7306 -0.067,2.47178 3.0402,-0.75902 5.4437,-5.65924 z m -88.6837,-4.33803 c 4.9607,-4.98667 8.7795,-9.06667 8.4862,-9.06667 -0.2933,0 -4.5921,4.08 -9.5529,9.06667 -4.9607,4.98667 -8.7795,9.06667 -8.4862,9.06667 0.2934,0 4.5922,-4.08 9.5529,-9.06667 z m 962.862,-1.8 c -0.3405,-0.85091 -0.5933,-0.59816 -0.6445,0.64445 -0.046,1.12444 0.2059,1.75444 0.5603,1.4 0.3545,-0.35445 0.3923,-1.27445 0.084,-2.04445 z m 153.3701,-40.6 c 1.496,-4.98797 1.4825,-5.06667 -0.8679,-5.06667 -2.2231,0 -2.7708,1.56233 -7.9467,22.66667 -3.0575,12.46667 -5.5202,23.14667 -5.4726,23.73333 0.085,1.05306 11.341,-31.50971 14.2872,-41.33333 z m -138.3269,-9.39208 c 4.7679,-14.99232 8.9811,-28.07232 9.3626,-29.06667 0.5583,-1.45513 0.061,-1.80793 -2.5484,-1.80793 -2.1594,0 -3.4329,0.6235 -3.8131,1.86668 -1.3111,4.28799 -17.6995,75.35734 -17.6244,76.42965 0.045,0.64369 1.4032,-3.62965 3.0182,-9.49632 1.6149,-5.86666 6.8372,-22.93311 11.6051,-37.92541 z m -933.0906,32.65815 c 0.011,-0.62301 0.3058,-2.21987 0.6619,-3.54859 0.504,-1.88111 0.283,-2.27604 -0.9988,-1.78419 -0.9053,0.34741 -1.8796,1.19454 -2.1651,1.88252 -0.2854,0.68797 -1.3004,3.07854 -2.2557,5.31238 l -1.7369,4.06152 3.24,-2.39545 c 1.782,-1.3175 3.2465,-2.90518 3.2546,-3.52819 z m -41.0813,-5.93274 c 1.0619,-1.17333 1.6907,-2.13333 1.3974,-2.13333 -0.2934,0 -1.4022,0.96 -2.464,2.13333 -1.0619,1.17334 -1.6907,2.13334 -1.3974,2.13334 0.2934,0 1.4022,-0.96 2.464,-2.13334 z m 120.5957,-16.59811 c 3.6339,-8.76437 12.6219,-30.33522 19.9736,-47.9352 7.3516,-17.6 13.1962,-32.1748 12.9881,-32.3884 -0.2081,-0.2135 -2.2038,0.7398 -4.4346,2.1187 -3.0323,1.8741 -3.585,2.5977 -2.1894,2.8665 2.0699,0.3988 2.5237,4.3717 0.8471,7.4177 -1.9407,3.5256 -7.5138,16.405 -7.5138,17.3641 0,0.5297 -1.2363,3.7362 -2.7473,7.1255 -1.511,3.3894 -3.3628,7.60255 -4.115,9.36255 -0.7522,1.76 -2.3874,5.39554 -3.6337,8.07898 -1.2464,2.68345 -2.9385,6.76345 -3.76,9.06667 -0.8217,2.30322 -2.7775,7.06768 -4.3463,10.58768 -4.3434,9.74472 -4.5802,10.28091 -7.066,16 -1.275,2.93333 -2.568,5.75561 -2.8734,6.27171 -0.3053,0.51611 0.079,0.72697 0.8542,0.46856 0.7752,-0.2584 4.3826,-7.64067 8.0165,-16.40505 z m -113.5262,10.46478 c 1.3267,-1.6918 1.289,-1.72952 -0.4028,-0.40273 -1.0267,0.80517 -1.8667,1.64517 -1.8667,1.86667 0,0.87791 0.876,0.31286 2.2695,-1.46394 z m 122.5305,-61.66008 c 0,-0.2603 -0.2108,-0.4733 -0.4686,-0.4733 -0.3946,0 -55.6008,44.70199 -69.6141,56.36858 -2.4656,2.05264 -4.2485,4.11125 -3.9621,4.5747 0.4677,0.75674 74.0448,-59.33128 74.0448,-60.46998 z m 782.9394,19.79341 c 8.0701,-24.28631 8.2604,-25.09261 6.1142,-25.89921 -1.2184,-0.4579 -2.5416,-0.4579 -2.9404,0 -0.5808,0.6667 -12.0707,45.03671 -14.4411,55.76588 -1.4759,6.68097 3.5489,-6.63868 11.2673,-29.86667 z m -857.0727,-4.26666 c 1.0619,-1.17334 1.6907,-2.13334 1.3973,-2.13334 -0.2933,0 -1.4021,0.96 -2.464,2.13334 -1.0618,1.17333 -1.6906,2.13333 -1.3973,2.13333 0.2933,0 1.4021,-0.96 2.464,-2.13333 z m 6.0028,-5.06665 c 1.3267,-1.6918 1.289,-1.7295 -0.4028,-0.4028 -1.0267,0.8052 -1.8667,1.6452 -1.8667,1.86672 0,0.87791 0.876,0.31286 2.2695,-1.46392 z m 6.4,-5.3334 c 1.3267,-1.6918 1.289,-1.7295 -0.4028,-0.4027 -1.0267,0.8052 -1.8667,1.6452 -1.8667,1.8667 0,0.8779 0.876,0.3128 2.2695,-1.464 z m 5.3333,-4.2666 c 1.3267,-1.6918 1.2891,-1.7295 -0.4028,-0.4028 -1.0266,0.8052 -1.8666,1.6452 -1.8666,1.8667 0,0.8779 0.8759,0.3129 2.2694,-1.4639 z m 47.8639,-63.733396 c 1.3778,-1.4666 2.2652,-2.6666 1.9718,-2.6666 -0.2933,0 -1.6607,1.2 -3.0385,2.6666 -1.3778,1.4667 -2.2651,2.6667 -1.9718,2.6667 0.2933,0 1.6607,-1.2 3.0385,-2.6667 z m 511.2,0.8936 c -0.7333,-0.2959 -1.9333,-0.2959 -2.6667,0 -0.7333,0.2959 -0.1333,0.538 1.3334,0.538 1.4666,0 2.0666,-0.2421 1.3333,-0.538 z m -10.857,-1.5206 c -2.598,-0.5097 -6.4572,-1.1853 -8.5761,-1.5013 -2.1187,-0.316 -4.7931,-0.7447 -5.9429,-0.9527 -1.1499,-0.2081 -4.4141,-0.7158 -7.2539,-1.1284 -2.8396,-0.4126 -5.9596,-0.8926 -6.9333,-1.0667 -0.9735,-0.1741 -4.0935,-0.6541 -6.9333,-1.0667 -2.8397,-0.4126 -5.9613,-0.9039 -6.9369,-1.0917 -0.9756,-0.1879 -5.8521,-0.6429 -10.8369,-1.0111 -4.9846,-0.3682 -11.703,-0.8877 -14.9297,-1.1544 -3.2267,-0.2666 -9.9467,-0.755 -14.9333,-1.0853 -4.9867,-0.3303 -11.7067,-0.8069 -14.9334,-1.0592 -3.2266,-0.2523 -9.9466,-0.7367 -14.9333,-1.0764 -4.9867,-0.3397 -10.9867,-0.8019 -13.3333,-1.0272 -17.8343,-1.7124 -33.134,-2.107 -69.8667,-1.802 -23.1733,0.1924 -46.2133,0.4903 -51.2,0.662 -4.9867,0.1717 -18.1867,0.4621 -29.3333,0.6453 -11.1467,0.1831 13.8133,0.6673 55.4666,1.0759 84.951,0.8334 100.5117,1.6378 172.8,8.9327 25.2267,2.5458 47.5467,4.6298 49.6,4.6312 3.5035,0 3.4425,-0.054 -0.9903,-0.924 z m -504.4736,-1.773 c 1.3268,-1.6918 1.2891,-1.7295 -0.4027,-0.4027 -1.0267,0.8052 -1.8667,1.6452 -1.8667,1.8667 0,0.8779 0.8759,0.3128 2.2694,-1.464 z m 9.9973,-2.4 c 1.0618,-1.1733 1.6906,-2.1333 1.3973,-2.1333 -0.2933,0 -1.4021,0.96 -2.464,2.1333 -1.0619,1.1734 -1.6907,2.1334 -1.3973,2.1334 0.2933,0 1.4021,-0.96 2.464,-2.1334 z m 4.8,-7.0576 c 0,-0.225 -1.2,-0.409 -2.6667,-0.409 -1.4667,0 -2.6667,0.4134 -2.6667,0.9187 0,0.5053 1.2,0.6894 2.6667,0.409 1.4667,-0.2804 2.6667,-0.6938 2.6667,-0.9187 z m 5.3333,1.2539 c 0,-1.1258 -2.047,-1.5988 -2.6559,-0.6137 -0.3685,0.5963 0.078,1.0841 0.993,1.0841 0.9145,0 1.6629,-0.2117 1.6629,-0.4704 z m 180.5333,-3.436 c -0.7333,-0.2959 -1.9333,-0.2959 -2.6666,0 -0.7334,0.2959 -0.1334,0.538 1.3333,0.538 1.4667,0 2.0667,-0.2421 1.3333,-0.538 z m -194.4,-9.4269 c -2.4689,-2.5473 -4.5844,-3.7334 -6.6591,-3.7334 -3.0303,0 -3.034,0.01 -1.124,2.5568 1.0541,1.4062 2.1565,2.4126 2.4498,2.2365 0.2933,-0.1761 1.9733,0.3143 3.7333,1.0899 5.1266,2.2593 5.4511,1.8234 1.6,-2.1498 z m -22.9333,-19.7334 c 0.3626,-0.5866 0.1509,-1.0666 -0.4704,-1.0666 -0.6212,0 -1.1296,0.48 -1.1296,1.0666 0,0.5867 0.2116,1.0667 0.4704,1.0667 0.2587,0 0.767,-0.48 1.1296,-1.0667 z M 2494.3993,923.65835 c 2.4934,-0.22456 6.5734,-0.22456 9.0667,0 2.4933,0.22458 0.4533,0.40832 -4.5333,0.40832 -4.9867,0 -7.0267,-0.18374 -4.5334,-0.40832 z m -17.5797,-1.02483 c 1.0379,-0.27044 2.4779,-0.25266 3.2,0.0396 0.7222,0.2922 -0.1269,0.51347 -1.8869,0.49173 -1.76,-0.0218 -2.3509,-0.2608 -1.3131,-0.53125 z m 40.0464,0.0107 c 0.77,-0.30813 1.69,-0.27024 2.0445,0.0842 0.3544,0.35444 -0.2756,0.60655 -1.4,0.56023 -1.2427,-0.0512 -1.4954,-0.30393 -0.6445,-0.64444 z m -51.2667,-1.04445 c 0.7334,-0.2959 1.9334,-0.2959 2.6667,0 0.7333,0.2959 0.1333,0.53802 -1.3333,0.53802 -1.4667,0 -2.0667,-0.24212 -1.3334,-0.53802 z m 56.5334,0 c 0.7333,-0.2959 1.9333,-0.2959 2.6666,0 0.7334,0.2959 0.1334,0.53802 -1.3333,0.53802 -1.4667,0 -2.0667,-0.24212 -1.3333,-0.53802 z m -68.8,-1.09552 c 1.0266,-0.26829 2.7066,-0.26829 3.7333,0 1.0267,0.2683 0.1867,0.48782 -1.8667,0.48782 -2.0533,0 -2.8933,-0.21952 -1.8666,-0.48782 z m -14.9188,-1.0968 c 1.6215,-0.24518 4.0215,-0.23862 5.3334,0.0145 1.312,0.25318 -0.015,0.45378 -2.948,0.44578 -2.9333,-0.009 -4.0067,-0.21517 -2.3854,-0.46034 z m -26.1479,-1.05406 c 1.32,-0.25425 3.48,-0.25425 4.8,0 1.32,0.25424 0.24,0.46226 -2.4,0.46226 -2.64,0 -3.72,-0.20802 -2.4,-0.46226 z m -14.9333,-1.02032 c 0.7333,-0.2959 1.9333,-0.2959 2.6666,0 0.7334,0.29591 0.1334,0.53802 -1.3333,0.53802 -1.4667,0 -2.0667,-0.24211 -1.3333,-0.53802 z m -6.4,-1.06666 c 0.7333,-0.29591 1.9333,-0.29591 2.6666,0 0.7334,0.2959 0.1334,0.53801 -1.3333,0.53801 -1.4667,0 -2.0667,-0.24211 -1.3333,-0.53801 z"
       id="path837" />
  </g>
</svg>
